<svg width="175" height="331" viewBox="0 0 175 331" fill="none" xmlns="http://www.w3.org/2000/svg">
<g clip-path="url(#clip0_614_362)">
<path d="M8.24147 138.112L2.53699 142.552L0 160.317H80.5195V153.023H8.31278V138.112" fill="#525252"/>
<path d="M165.411 138.112L171.119 142.552L173.653 160.317H93.137V153.023H165.344V138.112" fill="#525252"/>
<path d="M86.2127 164.129C90.5322 164.129 94.0339 160.625 94.0339 156.302C94.0339 151.979 90.5322 148.475 86.2127 148.475C81.8932 148.475 78.3916 151.979 78.3916 156.302C78.3916 160.625 81.8932 164.129 86.2127 164.129Z" fill="#525252"/>
<path d="M130.445 248.336C130.445 276.618 107.533 299.544 79.2735 299.544C51.0138 299.544 28.1058 276.618 28.1058 248.336C28.1058 220.055 51.0138 197.125 79.2735 197.125C107.533 197.125 130.445 220.055 130.445 248.336Z" fill="#525252"/>
<path d="M80.0129 168.846C36.0359 168.846 0.386597 204.524 0.386597 248.535C0.386597 292.547 36.0359 328.224 80.0129 328.224C123.99 328.224 159.639 292.547 159.639 248.535C159.639 204.524 123.99 168.846 80.0129 168.846ZM79.2736 302.049C49.6328 302.049 25.6027 278 25.6027 248.336C25.6027 218.672 49.6328 194.619 79.2736 194.619C108.914 194.619 132.945 218.668 132.945 248.336C132.945 278.004 108.918 302.049 79.2736 302.049Z" fill="#525252"/>
<path d="M130.445 248.336C130.445 276.618 107.533 299.544 79.2735 299.544C51.0138 299.544 28.1058 276.618 28.1058 248.336C28.1058 220.055 51.0138 197.125 79.2735 197.125C107.533 197.125 130.445 220.055 130.445 248.336Z" fill="#3C2415"/>
<path d="M130.445 248.336C130.445 276.618 107.533 299.544 79.2735 299.544C51.0138 299.544 28.1058 276.618 28.1058 248.336C28.1058 220.055 51.0138 197.125 79.2735 197.125C107.533 197.125 130.445 220.055 130.445 248.336Z" fill="#525252"/>
<path d="M140.371 302.996C136.664 306.756 132.644 310.053 128.535 312.938H141.017C145.318 310.091 149.487 306.797 153.345 302.996H140.371Z" fill="#525252"/>
<path d="M127.927 183.021C130.903 185.166 133.857 187.603 136.72 190.379H150.418C147.296 187.603 144.027 185.166 140.691 183.021H127.923H127.927Z" fill="#525252"/>
<path d="M137.441 315.195H125.183C120.458 318.237 115.692 320.754 111.211 322.82H121.813C126.94 320.803 132.25 318.301 137.441 315.195Z" fill="#525252"/>
<path d="M150.808 289.407C149.003 292.524 146.879 295.616 144.376 298.601C143.764 299.33 143.141 300.044 142.503 300.742H155.541C158.701 297.354 161.609 293.587 164.165 289.407H150.808Z" fill="#525252"/>
<path d="M161.002 248.727C161.002 250.432 160.983 253.38 160.641 257.163H174.565C174.85 254.207 175 251.134 175 247.942C175 246.657 174.966 245.388 174.906 244.137H160.867C160.968 245.936 160.998 247.487 161.002 248.727Z" fill="#525252"/>
<path d="M125.442 181.301V180.768H136.983C132.558 178.236 128.066 176.189 123.682 174.533H113.103C117.088 176.305 121.265 178.525 125.442 181.301Z" fill="#525252"/>
<path d="M152.846 192.633H138.957C140.732 194.499 142.462 196.501 144.128 198.653C145.13 199.945 146.069 201.245 146.954 202.544H161.347C158.727 198.871 155.871 195.577 152.843 192.636L152.846 192.633Z" fill="#525252"/>
<path d="M148.429 204.794C150.606 208.235 152.407 211.675 153.901 215.048H168.245C166.635 211.187 165.122 208.362 164.218 206.875C163.786 206.169 163.343 205.478 162.897 204.798H148.433L148.429 204.794Z" fill="#525252"/>
<path d="M108.46 172.279H117.062C101.99 167.708 89.4591 167.513 87.5038 167.509C90.2247 167.802 98.4061 168.82 108.456 172.621V172.276L108.46 172.279Z" fill="#525252"/>
<path d="M159.02 230.717C159.939 234.898 160.442 238.691 160.709 241.88H174.76C174.456 237.936 173.874 234.195 173.131 230.717H159.02Z" fill="#525252"/>
<path d="M106.126 325.069V325.028C95.4863 329.381 87.5076 331 87.5076 331C87.5076 331 100.024 330.23 115.583 325.069H106.126Z" fill="#525252"/>
<path d="M160.408 259.412C159.969 263.217 159.204 267.668 157.875 272.438H171.656C172.85 268.381 173.754 264.047 174.317 259.412H160.408Z" fill="#525252"/>
<path d="M158.495 228.464H172.621C171.607 224.265 170.377 220.501 169.146 217.301H154.862C156.442 221.181 157.616 224.941 158.495 228.464Z" fill="#525252"/>
<path d="M157.211 274.691C155.954 278.729 154.284 282.947 152.054 287.153H165.482C167.622 283.337 169.468 279.195 170.951 274.691H157.211Z" fill="#525252"/>
<path d="M10.238 0V147.487H40.7195V0H42.9713V147.487H71.1034V0H73.3551V147.487H101.487V0H103.739V147.487H131.875V0H134.127V147.487H163.67V0H10.238Z" fill="#525252"/>
<path d="M80.5196 187.284C82.8825 187.284 84.7979 185.367 84.7979 183.003C84.7979 180.638 82.8825 178.721 80.5196 178.721C78.1567 178.721 76.2412 180.638 76.2412 183.003C76.2412 185.367 78.1567 187.284 80.5196 187.284Z" fill="#525252"/>
<path d="M80.5195 187.848C77.8512 187.848 75.6782 185.673 75.6782 183.003C75.6782 180.332 77.8512 178.157 80.5195 178.157C83.1879 178.157 85.3608 180.332 85.3608 183.003C85.3608 185.673 83.1879 187.848 80.5195 187.848ZM80.5195 179.28C78.4704 179.28 76.8041 180.948 76.8041 182.999C76.8041 185.05 78.4704 186.717 80.5195 186.717C82.5686 186.717 84.2349 185.05 84.2349 182.999C84.2349 180.948 82.5686 179.28 80.5195 179.28Z" fill="white"/>
<path d="M45.9473 195.536C48.3102 195.536 50.2257 193.619 50.2257 191.254C50.2257 188.889 48.3102 186.972 45.9473 186.972C43.5844 186.972 41.6689 188.889 41.6689 191.254C41.6689 193.619 43.5844 195.536 45.9473 195.536Z" fill="#525252"/>
<path d="M45.9548 196.099C44.281 196.099 42.6485 195.232 41.7515 193.677C40.4155 191.363 41.2111 188.392 43.5229 187.055C45.8348 185.718 48.8033 186.514 50.1394 188.828C50.7849 189.947 50.9575 191.254 50.6235 192.505C50.2895 193.756 49.4864 194.8 48.368 195.446C47.6061 195.885 46.7767 196.096 45.9548 196.096V196.099ZM45.9398 187.536C45.3093 187.536 44.6713 187.697 44.0859 188.032C42.3107 189.057 41.7028 191.337 42.7273 193.113C43.7519 194.89 46.0299 195.498 47.8051 194.473C48.6645 193.977 49.28 193.174 49.5352 192.216C49.7904 191.258 49.659 190.255 49.1636 189.395C48.4768 188.204 47.2233 187.536 45.9398 187.536Z" fill="white"/>
<path d="M20.1308 219.979C22.4937 219.979 24.4091 218.062 24.4091 215.698C24.4091 213.333 22.4937 211.416 20.1308 211.416C17.7679 211.416 15.8524 213.333 15.8524 215.698C15.8524 218.062 17.7679 219.979 20.1308 219.979Z" fill="#525252"/>
<path d="M20.1233 220.547C19.2826 220.547 18.4569 220.325 17.7101 219.897C16.5917 219.251 15.7886 218.207 15.4546 216.956C15.1206 215.705 15.2932 214.398 15.9387 213.279C17.2748 210.965 20.2434 210.169 22.5552 211.506C24.867 212.843 25.6626 215.81 24.3266 218.128C23.6811 219.247 22.634 220.051 21.388 220.385C20.9714 220.498 20.5473 220.554 20.127 220.554L20.1233 220.547ZM20.1383 211.979C18.851 211.979 17.6013 212.648 16.9145 213.839C16.4191 214.699 16.2877 215.701 16.5429 216.659C16.7981 217.621 17.4136 218.421 18.2731 218.916C19.1325 219.412 20.1345 219.544 21.0915 219.288C22.0523 219.033 22.8517 218.417 23.347 217.557C24.3716 215.78 23.7599 213.5 21.9885 212.475C21.403 212.137 20.765 211.979 20.1383 211.979Z" fill="white"/>
<path d="M14.2651 254.064C16.6279 254.064 18.5434 252.147 18.5434 249.782C18.5434 247.418 16.6279 245.501 14.2651 245.501C11.9022 245.501 9.98669 247.418 9.98669 249.782C9.98669 252.147 11.9022 254.064 14.2651 254.064Z" fill="#525252"/>
<path d="M14.265 254.631C11.5967 254.631 9.42371 252.457 9.42371 249.786C9.42371 247.116 11.5967 244.941 14.265 244.941C16.9334 244.941 19.1063 247.116 19.1063 249.786C19.1063 252.457 16.9334 254.631 14.265 254.631ZM14.265 246.064C12.2159 246.064 10.5496 247.732 10.5496 249.783C10.5496 251.833 12.2159 253.501 14.265 253.501C16.3141 253.501 17.9804 251.833 17.9804 249.783C17.9804 247.732 16.3141 246.064 14.265 246.064Z" fill="white"/>
<path d="M22.8255 288.663C25.1884 288.663 27.1038 286.746 27.1038 284.382C27.1038 282.017 25.1884 280.1 22.8255 280.1C20.4626 280.1 18.5471 282.017 18.5471 284.382C18.5471 286.746 20.4626 288.663 22.8255 288.663Z" fill="#525252"/>
<path d="M22.8329 289.231C22.4126 289.231 21.9885 289.174 21.5719 289.062C20.3222 288.727 19.2789 287.924 18.6334 286.804C17.2973 284.491 18.093 281.52 20.4048 280.183C22.7166 278.845 25.6852 279.642 27.0212 281.955C27.6667 283.075 27.8394 284.382 27.5054 285.632C27.1713 286.883 26.3682 287.927 25.2498 288.573C24.503 289.005 23.6773 289.223 22.8367 289.223L22.8329 289.231ZM20.9677 281.159C19.1926 282.185 18.5846 284.464 19.6091 286.241C20.1045 287.101 20.9077 287.717 21.8647 287.972C22.8217 288.228 23.8237 288.096 24.6831 287.6C25.5426 287.105 26.158 286.301 26.4132 285.343C26.6684 284.385 26.5371 283.383 26.0417 282.523C25.0171 280.746 22.7391 280.138 20.964 281.163L20.9677 281.159Z" fill="white"/>
<path d="M46.6604 312.123C49.0233 312.123 50.9388 310.206 50.9388 307.841C50.9388 305.476 49.0233 303.559 46.6604 303.559C44.2976 303.559 42.3821 305.476 42.3821 307.841C42.3821 310.206 44.2976 312.123 46.6604 312.123Z" fill="#525252"/>
<path d="M46.6529 312.69C45.8123 312.69 44.9866 312.468 44.2398 312.04C43.1214 311.394 42.3183 310.35 41.9843 309.099C41.6502 307.848 41.8229 306.541 42.4684 305.422C43.8044 303.109 46.7693 302.312 49.0848 303.649C51.3966 304.986 52.1923 307.954 50.8562 310.271C50.2107 311.394 49.1636 312.194 47.9177 312.528C47.5011 312.641 47.077 312.697 46.6567 312.697L46.6529 312.69ZM46.6679 304.123C45.3807 304.123 44.1309 304.791 43.4441 305.982C42.9488 306.842 42.8174 307.845 43.0726 308.802C43.3278 309.764 43.9433 310.564 44.8027 311.06C45.6621 311.556 46.6642 311.687 47.6212 311.432C48.5819 311.176 49.3813 310.56 49.8767 309.7C50.9013 307.924 50.2895 305.644 48.5181 304.618C47.9327 304.28 47.2947 304.123 46.6642 304.123H46.6679Z" fill="white"/>
<path d="M76.714 320.686C79.0769 320.686 80.9924 318.769 80.9924 316.405C80.9924 314.04 79.0769 312.123 76.714 312.123C74.3512 312.123 72.4357 314.04 72.4357 316.405C72.4357 318.769 74.3512 320.686 76.714 320.686Z" fill="#525252"/>
<path d="M76.714 321.253C74.0456 321.253 71.8727 319.079 71.8727 316.408C71.8727 313.738 74.0456 311.563 76.714 311.563C79.3823 311.563 81.5553 313.738 81.5553 316.408C81.5553 319.079 79.3823 321.253 76.714 321.253ZM76.714 312.686C74.6649 312.686 72.9986 314.354 72.9986 316.405C72.9986 318.455 74.6649 320.123 76.714 320.123C78.7631 320.123 80.4294 318.455 80.4294 316.405C80.4294 314.354 78.7631 312.686 76.714 312.686Z" fill="white"/>
<path d="M111.286 312.123C113.649 312.123 115.565 310.206 115.565 307.841C115.565 305.476 113.649 303.559 111.286 303.559C108.923 303.559 107.008 305.476 107.008 307.841C107.008 310.206 108.923 312.123 111.286 312.123Z" fill="#525252"/>
<path d="M111.294 312.69C110.873 312.69 110.449 312.634 110.033 312.521C108.783 312.187 107.74 311.383 107.094 310.264C105.758 307.95 106.554 304.979 108.866 303.642C111.177 302.305 114.146 303.101 115.482 305.415C116.128 306.534 116.3 307.841 115.966 309.092C115.632 310.343 114.829 311.387 113.711 312.033C112.964 312.465 112.138 312.683 111.298 312.683L111.294 312.69ZM108.066 309.7C108.562 310.56 109.365 311.176 110.322 311.432C111.279 311.687 112.281 311.556 113.14 311.06C114 310.564 114.615 309.76 114.87 308.803C115.126 307.845 114.994 306.842 114.499 305.982C113.474 304.205 111.196 303.597 109.421 304.622C107.646 305.648 107.038 307.928 108.059 309.704L108.066 309.7Z" fill="white"/>
<path d="M132.944 291.961C135.307 291.961 137.223 290.044 137.223 287.679C137.223 285.315 135.307 283.398 132.944 283.398C130.582 283.398 128.666 285.315 128.666 287.679C128.666 290.044 130.582 291.961 132.944 291.961Z" fill="#525252"/>
<path d="M132.937 292.525C132.115 292.525 131.286 292.314 130.524 291.875C128.212 290.538 127.416 287.571 128.752 285.253C130.088 282.94 133.053 282.143 135.369 283.48C136.487 284.126 137.29 285.171 137.624 286.421C137.958 287.672 137.786 288.979 137.14 290.098C136.243 291.65 134.615 292.521 132.937 292.521V292.525ZM131.087 290.902C132.862 291.927 135.14 291.315 136.164 289.542C136.66 288.682 136.791 287.68 136.536 286.722C136.281 285.76 135.665 284.96 134.806 284.464C133.031 283.439 130.753 284.051 129.728 285.824C128.704 287.601 129.315 289.881 131.087 290.906V290.902Z" fill="white"/>
<path d="M144.732 257.873C147.095 257.873 149.011 255.956 149.011 253.591C149.011 251.226 147.095 249.309 144.732 249.309C142.37 249.309 140.454 251.226 140.454 253.591C140.454 255.956 142.37 257.873 144.732 257.873Z" fill="#525252"/>
<path d="M144.732 258.436C142.064 258.436 139.891 256.261 139.891 253.591C139.891 250.921 142.064 248.746 144.732 248.746C147.401 248.746 149.574 250.921 149.574 253.591C149.574 256.261 147.401 258.436 144.732 258.436ZM144.732 249.869C142.683 249.869 141.017 251.536 141.017 253.587C141.017 255.638 142.683 257.306 144.732 257.306C146.782 257.306 148.448 255.638 148.448 253.587C148.448 251.536 146.782 249.869 144.732 249.869Z" fill="white"/>
<path d="M138.431 223.273C140.794 223.273 142.71 221.356 142.71 218.991C142.71 216.627 140.794 214.71 138.431 214.71C136.069 214.71 134.153 216.627 134.153 218.991C134.153 221.356 136.069 223.273 138.431 223.273Z" fill="#525252"/>
<path d="M138.439 223.84C136.765 223.84 135.133 222.973 134.236 221.418C132.9 219.104 133.695 216.133 136.007 214.796C138.319 213.459 141.287 214.255 142.623 216.569C143.959 218.883 143.164 221.853 140.852 223.191C140.09 223.63 139.261 223.84 138.439 223.84ZM138.424 215.277C137.793 215.277 137.155 215.438 136.574 215.773C134.798 216.798 134.191 219.078 135.215 220.854C136.24 222.631 138.518 223.239 140.293 222.214C142.068 221.189 142.676 218.909 141.651 217.132C140.965 215.942 139.711 215.273 138.428 215.273L138.424 215.277Z" fill="white"/>
<path d="M116.799 197.436C119.162 197.436 121.077 195.52 121.077 193.155C121.077 190.79 119.162 188.873 116.799 188.873C114.436 188.873 112.521 190.79 112.521 193.155C112.521 195.52 114.436 197.436 116.799 197.436Z" fill="#525252"/>
<path d="M116.792 198C115.97 198 115.14 197.79 114.379 197.35C112.067 196.013 111.271 193.046 112.607 190.728C113.253 189.605 114.3 188.805 115.546 188.471C116.795 188.137 118.101 188.31 119.22 188.956C120.338 189.602 121.141 190.646 121.475 191.897C121.809 193.147 121.637 194.454 120.991 195.574C120.094 197.125 118.465 197.996 116.788 197.996L116.792 198ZM116.807 189.433C116.484 189.433 116.157 189.474 115.838 189.56C114.878 189.816 114.078 190.432 113.583 191.292C112.558 193.068 113.17 195.348 114.941 196.374C116.717 197.399 118.995 196.787 120.019 195.014C120.515 194.154 120.646 193.151 120.391 192.193C120.136 191.232 119.52 190.432 118.661 189.936C118.086 189.605 117.452 189.436 116.807 189.436V189.433Z" fill="white"/>
<circle cx="78.5" cy="231.5" r="10.5" fill="white"/>
<circle cx="61.5" cy="248.5" r="10.5" fill="#43AFD7"/>
<circle cx="93.5" cy="250.5" r="10.5" fill="#00BBFF"/>
<circle cx="78.5" cy="257.5" r="10.5" fill="#73D4F8"/>
</g>
<defs>
<clipPath id="clip0_614_362">
<rect width="175" height="331" fill="white"/>
</clipPath>
</defs>
</svg>
