<svg width="352" height="230" viewBox="0 0 352 230" fill="none" xmlns="http://www.w3.org/2000/svg">
<rect y="121" width="3" height="3" fill="#464646"/>
<rect x="182" y="121" width="3" height="3" fill="#464646"/>
<rect width="3" height="3" fill="#464646"/>
<rect x="182" width="3" height="3" fill="#464646"/>
<rect y="136" width="3" height="3" fill="#464646"/>
<rect x="182" y="136" width="3" height="3" fill="#464646"/>
<rect y="15" width="3" height="3" fill="#464646"/>
<rect x="182" y="15" width="3" height="3" fill="#464646"/>
<rect y="151" width="3" height="3" fill="#464646"/>
<rect x="182" y="151" width="3" height="3" fill="#464646"/>
<rect y="30" width="3" height="3" fill="#464646"/>
<rect x="182" y="30" width="3" height="3" fill="#464646"/>
<rect y="167" width="3" height="2" fill="#464646"/>
<rect x="182" y="167" width="3" height="2" fill="#464646"/>
<rect y="46" width="3" height="2" fill="#464646"/>
<rect x="182" y="46" width="3" height="2" fill="#464646"/>
<rect y="182" width="3" height="2" fill="#464646"/>
<rect x="182" y="182" width="3" height="2" fill="#464646"/>
<rect y="61" width="3" height="2" fill="#464646"/>
<rect x="182" y="61" width="3" height="2" fill="#464646"/>
<rect y="197" width="3" height="3" fill="#464646"/>
<rect x="182" y="197" width="3" height="3" fill="#464646"/>
<rect y="76" width="3" height="3" fill="#464646"/>
<rect x="182" y="76" width="3" height="3" fill="#464646"/>
<rect y="212" width="3" height="3" fill="#464646"/>
<rect x="182" y="212" width="3" height="3" fill="#464646"/>
<rect y="91" width="3" height="3" fill="#464646"/>
<rect x="182" y="91" width="3" height="3" fill="#464646"/>
<rect y="227" width="3" height="3" fill="#464646"/>
<rect x="182" y="227" width="3" height="3" fill="#464646"/>
<rect y="106" width="3" height="3" fill="#464646"/>
<rect x="182" y="106" width="3" height="3" fill="#464646"/>
<rect x="15" y="121" width="3" height="3" fill="#464646"/>
<rect x="197" y="121" width="3" height="3" fill="#464646"/>
<rect x="15" width="3" height="3" fill="#464646"/>
<rect x="197" width="3" height="3" fill="#464646"/>
<rect x="15" y="136" width="3" height="3" fill="#464646"/>
<rect x="197" y="136" width="3" height="3" fill="#464646"/>
<rect x="15" y="15" width="3" height="3" fill="#464646"/>
<rect x="197" y="15" width="3" height="3" fill="#464646"/>
<rect x="15" y="151" width="3" height="3" fill="#464646"/>
<rect x="197" y="151" width="3" height="3" fill="#464646"/>
<rect x="15" y="30" width="3" height="3" fill="#464646"/>
<rect x="197" y="30" width="3" height="3" fill="#464646"/>
<rect x="15" y="167" width="3" height="2" fill="#464646"/>
<rect x="197" y="167" width="3" height="2" fill="#464646"/>
<rect x="15" y="46" width="3" height="2" fill="#464646"/>
<rect x="197" y="46" width="3" height="2" fill="#464646"/>
<rect x="15" y="182" width="3" height="2" fill="#464646"/>
<rect x="197" y="182" width="3" height="2" fill="#464646"/>
<rect x="15" y="61" width="3" height="2" fill="#464646"/>
<rect x="197" y="61" width="3" height="2" fill="#464646"/>
<rect x="15" y="197" width="3" height="3" fill="#464646"/>
<rect x="197" y="197" width="3" height="3" fill="#464646"/>
<rect x="15" y="76" width="3" height="3" fill="#464646"/>
<rect x="197" y="76" width="3" height="3" fill="#464646"/>
<rect x="15" y="212" width="3" height="3" fill="#464646"/>
<rect x="197" y="212" width="3" height="3" fill="#464646"/>
<rect x="15" y="91" width="3" height="3" fill="#464646"/>
<rect x="197" y="91" width="3" height="3" fill="#464646"/>
<rect x="15" y="227" width="3" height="3" fill="#464646"/>
<rect x="197" y="227" width="3" height="3" fill="#464646"/>
<rect x="15" y="106" width="3" height="3" fill="#464646"/>
<rect x="197" y="106" width="3" height="3" fill="#464646"/>
<rect x="30" y="121" width="3" height="3" fill="#464646"/>
<rect x="212" y="121" width="3" height="3" fill="#464646"/>
<rect x="30" width="3" height="3" fill="#464646"/>
<rect x="212" width="3" height="3" fill="#464646"/>
<rect x="30" y="136" width="3" height="3" fill="#464646"/>
<rect x="212" y="136" width="3" height="3" fill="#464646"/>
<rect x="30" y="15" width="3" height="3" fill="#464646"/>
<rect x="212" y="15" width="3" height="3" fill="#464646"/>
<rect x="30" y="151" width="3" height="3" fill="#464646"/>
<rect x="212" y="151" width="3" height="3" fill="#464646"/>
<rect x="30" y="30" width="3" height="3" fill="#464646"/>
<rect x="212" y="30" width="3" height="3" fill="#464646"/>
<rect x="30" y="167" width="3" height="2" fill="#464646"/>
<rect x="212" y="167" width="3" height="2" fill="#464646"/>
<rect x="30" y="46" width="3" height="2" fill="#464646"/>
<rect x="212" y="46" width="3" height="2" fill="#464646"/>
<rect x="30" y="182" width="3" height="2" fill="#464646"/>
<rect x="212" y="182" width="3" height="2" fill="#464646"/>
<rect x="30" y="61" width="3" height="2" fill="#464646"/>
<rect x="212" y="61" width="3" height="2" fill="#464646"/>
<rect x="30" y="197" width="3" height="3" fill="#464646"/>
<rect x="212" y="197" width="3" height="3" fill="#464646"/>
<rect x="30" y="76" width="3" height="3" fill="#464646"/>
<rect x="212" y="76" width="3" height="3" fill="#464646"/>
<rect x="30" y="212" width="3" height="3" fill="#464646"/>
<rect x="212" y="212" width="3" height="3" fill="#464646"/>
<rect x="30" y="91" width="3" height="3" fill="#464646"/>
<rect x="212" y="91" width="3" height="3" fill="#464646"/>
<rect x="30" y="227" width="3" height="3" fill="#464646"/>
<rect x="212" y="227" width="3" height="3" fill="#464646"/>
<rect x="30" y="106" width="3" height="3" fill="#464646"/>
<rect x="212" y="106" width="3" height="3" fill="#464646"/>
<rect x="46" y="121" width="2" height="3" fill="#464646"/>
<rect x="228" y="121" width="2" height="3" fill="#464646"/>
<rect x="46" width="2" height="3" fill="#464646"/>
<rect x="228" width="2" height="3" fill="#464646"/>
<rect x="46" y="136" width="2" height="3" fill="#464646"/>
<rect x="228" y="136" width="2" height="3" fill="#464646"/>
<rect x="46" y="15" width="2" height="3" fill="#464646"/>
<rect x="228" y="15" width="2" height="3" fill="#464646"/>
<rect x="46" y="151" width="2" height="3" fill="#464646"/>
<rect x="228" y="151" width="2" height="3" fill="#464646"/>
<rect x="46" y="30" width="2" height="3" fill="#464646"/>
<rect x="228" y="30" width="2" height="3" fill="#464646"/>
<rect x="46" y="167" width="2" height="2" fill="#464646"/>
<rect x="228" y="167" width="2" height="2" fill="#464646"/>
<rect x="46" y="46" width="2" height="2" fill="#464646"/>
<rect x="228" y="46" width="2" height="2" fill="#464646"/>
<rect x="46" y="182" width="2" height="2" fill="#464646"/>
<rect x="228" y="182" width="2" height="2" fill="#464646"/>
<rect x="46" y="61" width="2" height="2" fill="#464646"/>
<rect x="228" y="61" width="2" height="2" fill="#464646"/>
<rect x="46" y="197" width="2" height="3" fill="#464646"/>
<rect x="228" y="197" width="2" height="3" fill="#464646"/>
<rect x="46" y="76" width="2" height="3" fill="#464646"/>
<rect x="228" y="76" width="2" height="3" fill="#464646"/>
<rect x="46" y="212" width="2" height="3" fill="#464646"/>
<rect x="228" y="212" width="2" height="3" fill="#464646"/>
<rect x="46" y="91" width="2" height="3" fill="#464646"/>
<rect x="228" y="91" width="2" height="3" fill="#464646"/>
<rect x="46" y="227" width="2" height="3" fill="#464646"/>
<rect x="228" y="227" width="2" height="3" fill="#464646"/>
<rect x="46" y="106" width="2" height="3" fill="#464646"/>
<rect x="228" y="106" width="2" height="3" fill="#464646"/>
<rect x="61" y="121" width="2" height="3" fill="#464646"/>
<rect x="243" y="121" width="2" height="3" fill="#464646"/>
<rect x="61" width="2" height="3" fill="#464646"/>
<rect x="243" width="2" height="3" fill="#464646"/>
<rect x="61" y="136" width="2" height="3" fill="#464646"/>
<rect x="243" y="136" width="2" height="3" fill="#464646"/>
<rect x="61" y="15" width="2" height="3" fill="#464646"/>
<rect x="243" y="15" width="2" height="3" fill="#464646"/>
<rect x="61" y="151" width="2" height="3" fill="#464646"/>
<rect x="243" y="151" width="2" height="3" fill="#464646"/>
<rect x="61" y="30" width="2" height="3" fill="#464646"/>
<rect x="243" y="30" width="2" height="3" fill="#464646"/>
<rect x="61" y="167" width="2" height="2" fill="#464646"/>
<rect x="243" y="167" width="2" height="2" fill="#464646"/>
<rect x="61" y="46" width="2" height="2" fill="#464646"/>
<rect x="243" y="46" width="2" height="2" fill="#464646"/>
<rect x="61" y="182" width="2" height="2" fill="#464646"/>
<rect x="243" y="182" width="2" height="2" fill="#464646"/>
<rect x="61" y="61" width="2" height="2" fill="#464646"/>
<rect x="243" y="61" width="2" height="2" fill="#464646"/>
<rect x="61" y="197" width="2" height="3" fill="#464646"/>
<rect x="243" y="197" width="2" height="3" fill="#464646"/>
<rect x="61" y="76" width="2" height="3" fill="#464646"/>
<rect x="243" y="76" width="2" height="3" fill="#464646"/>
<rect x="61" y="212" width="2" height="3" fill="#464646"/>
<rect x="243" y="212" width="2" height="3" fill="#464646"/>
<rect x="61" y="91" width="2" height="3" fill="#464646"/>
<rect x="243" y="91" width="2" height="3" fill="#464646"/>
<rect x="61" y="227" width="2" height="3" fill="#464646"/>
<rect x="243" y="227" width="2" height="3" fill="#464646"/>
<rect x="61" y="106" width="2" height="3" fill="#464646"/>
<rect x="243" y="106" width="2" height="3" fill="#464646"/>
<rect x="76" y="121" width="3" height="3" fill="#464646"/>
<rect x="258" y="121" width="3" height="3" fill="#464646"/>
<rect x="76" width="3" height="3" fill="#464646"/>
<rect x="258" width="3" height="3" fill="#464646"/>
<rect x="76" y="136" width="3" height="3" fill="#464646"/>
<rect x="258" y="136" width="3" height="3" fill="#464646"/>
<rect x="76" y="15" width="3" height="3" fill="#464646"/>
<rect x="258" y="15" width="3" height="3" fill="#464646"/>
<rect x="76" y="151" width="3" height="3" fill="#464646"/>
<rect x="258" y="151" width="3" height="3" fill="#464646"/>
<rect x="76" y="30" width="3" height="3" fill="#464646"/>
<rect x="258" y="30" width="3" height="3" fill="#464646"/>
<rect x="76" y="167" width="3" height="2" fill="#464646"/>
<rect x="258" y="167" width="3" height="2" fill="#464646"/>
<rect x="76" y="46" width="3" height="2" fill="#464646"/>
<rect x="258" y="46" width="3" height="2" fill="#464646"/>
<rect x="76" y="182" width="3" height="2" fill="#464646"/>
<rect x="258" y="182" width="3" height="2" fill="#464646"/>
<rect x="76" y="61" width="3" height="2" fill="#464646"/>
<rect x="258" y="61" width="3" height="2" fill="#464646"/>
<rect x="76" y="197" width="3" height="3" fill="#464646"/>
<rect x="258" y="197" width="3" height="3" fill="#464646"/>
<rect x="76" y="76" width="3" height="3" fill="#464646"/>
<rect x="258" y="76" width="3" height="3" fill="#464646"/>
<rect x="76" y="212" width="3" height="3" fill="#464646"/>
<rect x="258" y="212" width="3" height="3" fill="#464646"/>
<rect x="76" y="91" width="3" height="3" fill="#464646"/>
<rect x="258" y="91" width="3" height="3" fill="#464646"/>
<rect x="76" y="227" width="3" height="3" fill="#464646"/>
<rect x="258" y="227" width="3" height="3" fill="#464646"/>
<rect x="76" y="106" width="3" height="3" fill="#464646"/>
<rect x="258" y="106" width="3" height="3" fill="#464646"/>
<rect x="91" y="121" width="3" height="3" fill="#464646"/>
<rect x="273" y="121" width="3" height="3" fill="#464646"/>
<rect x="91" width="3" height="3" fill="#464646"/>
<rect x="273" width="3" height="3" fill="#464646"/>
<rect x="91" y="136" width="3" height="3" fill="#464646"/>
<rect x="273" y="136" width="3" height="3" fill="#464646"/>
<rect x="91" y="15" width="3" height="3" fill="#464646"/>
<rect x="273" y="15" width="3" height="3" fill="#464646"/>
<rect x="91" y="151" width="3" height="3" fill="#464646"/>
<rect x="273" y="151" width="3" height="3" fill="#464646"/>
<rect x="91" y="30" width="3" height="3" fill="#464646"/>
<rect x="273" y="30" width="3" height="3" fill="#464646"/>
<rect x="91" y="167" width="3" height="2" fill="#464646"/>
<rect x="273" y="167" width="3" height="2" fill="#464646"/>
<rect x="91" y="46" width="3" height="2" fill="#464646"/>
<rect x="273" y="46" width="3" height="2" fill="#464646"/>
<rect x="91" y="182" width="3" height="2" fill="#464646"/>
<rect x="273" y="182" width="3" height="2" fill="#464646"/>
<rect x="91" y="61" width="3" height="2" fill="#464646"/>
<rect x="273" y="61" width="3" height="2" fill="#464646"/>
<rect x="91" y="197" width="3" height="3" fill="#464646"/>
<rect x="273" y="197" width="3" height="3" fill="#464646"/>
<rect x="91" y="76" width="3" height="3" fill="#464646"/>
<rect x="273" y="76" width="3" height="3" fill="#464646"/>
<rect x="91" y="212" width="3" height="3" fill="#464646"/>
<rect x="273" y="212" width="3" height="3" fill="#464646"/>
<rect x="91" y="91" width="3" height="3" fill="#464646"/>
<rect x="273" y="91" width="3" height="3" fill="#464646"/>
<rect x="91" y="227" width="3" height="3" fill="#464646"/>
<rect x="273" y="227" width="3" height="3" fill="#464646"/>
<rect x="91" y="106" width="3" height="3" fill="#464646"/>
<rect x="273" y="106" width="3" height="3" fill="#464646"/>
<rect x="106" y="121" width="3" height="3" fill="#464646"/>
<rect x="288" y="121" width="3" height="3" fill="#464646"/>
<rect x="106" width="3" height="3" fill="#464646"/>
<rect x="288" width="3" height="3" fill="#464646"/>
<rect x="106" y="136" width="3" height="3" fill="#464646"/>
<rect x="288" y="136" width="3" height="3" fill="#464646"/>
<rect x="106" y="15" width="3" height="3" fill="#464646"/>
<rect x="288" y="15" width="3" height="3" fill="#464646"/>
<rect x="106" y="151" width="3" height="3" fill="#464646"/>
<rect x="288" y="151" width="3" height="3" fill="#464646"/>
<rect x="106" y="30" width="3" height="3" fill="#464646"/>
<rect x="288" y="30" width="3" height="3" fill="#464646"/>
<rect x="106" y="167" width="3" height="2" fill="#464646"/>
<rect x="288" y="167" width="3" height="2" fill="#464646"/>
<rect x="106" y="46" width="3" height="2" fill="#464646"/>
<rect x="288" y="46" width="3" height="2" fill="#464646"/>
<rect x="106" y="182" width="3" height="2" fill="#464646"/>
<rect x="288" y="182" width="3" height="2" fill="#464646"/>
<rect x="106" y="61" width="3" height="2" fill="#464646"/>
<rect x="288" y="61" width="3" height="2" fill="#464646"/>
<rect x="106" y="197" width="3" height="3" fill="#464646"/>
<rect x="288" y="197" width="3" height="3" fill="#464646"/>
<rect x="106" y="76" width="3" height="3" fill="#464646"/>
<rect x="288" y="76" width="3" height="3" fill="#464646"/>
<rect x="106" y="212" width="3" height="3" fill="#464646"/>
<rect x="288" y="212" width="3" height="3" fill="#464646"/>
<rect x="106" y="91" width="3" height="3" fill="#464646"/>
<rect x="288" y="91" width="3" height="3" fill="#464646"/>
<rect x="106" y="227" width="3" height="3" fill="#464646"/>
<rect x="288" y="227" width="3" height="3" fill="#464646"/>
<rect x="106" y="106" width="3" height="3" fill="#464646"/>
<rect x="288" y="106" width="3" height="3" fill="#464646"/>
<rect x="122" y="121" width="2" height="3" fill="#464646"/>
<rect x="304" y="121" width="2" height="3" fill="#464646"/>
<rect x="122" width="2" height="3" fill="#464646"/>
<rect x="304" width="2" height="3" fill="#464646"/>
<rect x="122" y="136" width="2" height="3" fill="#464646"/>
<rect x="304" y="136" width="2" height="3" fill="#464646"/>
<rect x="122" y="15" width="2" height="3" fill="#464646"/>
<rect x="304" y="15" width="2" height="3" fill="#464646"/>
<rect x="122" y="151" width="2" height="3" fill="#464646"/>
<rect x="304" y="151" width="2" height="3" fill="#464646"/>
<rect x="122" y="30" width="2" height="3" fill="#464646"/>
<rect x="304" y="30" width="2" height="3" fill="#464646"/>
<rect x="122" y="167" width="2" height="2" fill="#464646"/>
<rect x="304" y="167" width="2" height="2" fill="#464646"/>
<rect x="122" y="46" width="2" height="2" fill="#464646"/>
<rect x="304" y="46" width="2" height="2" fill="#464646"/>
<rect x="122" y="182" width="2" height="2" fill="#464646"/>
<rect x="304" y="182" width="2" height="2" fill="#464646"/>
<rect x="122" y="61" width="2" height="2" fill="#464646"/>
<rect x="304" y="61" width="2" height="2" fill="#464646"/>
<rect x="122" y="197" width="2" height="3" fill="#464646"/>
<rect x="304" y="197" width="2" height="3" fill="#464646"/>
<rect x="122" y="76" width="2" height="3" fill="#464646"/>
<rect x="304" y="76" width="2" height="3" fill="#464646"/>
<rect x="122" y="212" width="2" height="3" fill="#464646"/>
<rect x="304" y="212" width="2" height="3" fill="#464646"/>
<rect x="122" y="91" width="2" height="3" fill="#464646"/>
<rect x="304" y="91" width="2" height="3" fill="#464646"/>
<rect x="122" y="227" width="2" height="3" fill="#464646"/>
<rect x="304" y="227" width="2" height="3" fill="#464646"/>
<rect x="122" y="106" width="2" height="3" fill="#464646"/>
<rect x="304" y="106" width="2" height="3" fill="#464646"/>
<rect x="137" y="121" width="2" height="3" fill="#464646"/>
<rect x="319" y="121" width="2" height="3" fill="#464646"/>
<rect x="137" width="2" height="3" fill="#464646"/>
<rect x="319" width="2" height="3" fill="#464646"/>
<rect x="137" y="136" width="2" height="3" fill="#464646"/>
<rect x="319" y="136" width="2" height="3" fill="#464646"/>
<rect x="137" y="15" width="2" height="3" fill="#464646"/>
<rect x="319" y="15" width="2" height="3" fill="#464646"/>
<rect x="137" y="151" width="2" height="3" fill="#464646"/>
<rect x="319" y="151" width="2" height="3" fill="#464646"/>
<rect x="137" y="30" width="2" height="3" fill="#464646"/>
<rect x="319" y="30" width="2" height="3" fill="#464646"/>
<rect x="137" y="167" width="2" height="2" fill="#464646"/>
<rect x="319" y="167" width="2" height="2" fill="#464646"/>
<rect x="137" y="46" width="2" height="2" fill="#464646"/>
<rect x="319" y="46" width="2" height="2" fill="#464646"/>
<rect x="137" y="182" width="2" height="2" fill="#464646"/>
<rect x="319" y="182" width="2" height="2" fill="#464646"/>
<rect x="137" y="61" width="2" height="2" fill="#464646"/>
<rect x="319" y="61" width="2" height="2" fill="#464646"/>
<rect x="137" y="197" width="2" height="3" fill="#464646"/>
<rect x="319" y="197" width="2" height="3" fill="#464646"/>
<rect x="137" y="76" width="2" height="3" fill="#464646"/>
<rect x="319" y="76" width="2" height="3" fill="#464646"/>
<rect x="137" y="212" width="2" height="3" fill="#464646"/>
<rect x="319" y="212" width="2" height="3" fill="#464646"/>
<rect x="137" y="91" width="2" height="3" fill="#464646"/>
<rect x="319" y="91" width="2" height="3" fill="#464646"/>
<rect x="137" y="227" width="2" height="3" fill="#464646"/>
<rect x="319" y="227" width="2" height="3" fill="#464646"/>
<rect x="137" y="106" width="2" height="3" fill="#464646"/>
<rect x="319" y="106" width="2" height="3" fill="#464646"/>
<rect x="152" y="121" width="3" height="3" fill="#464646"/>
<rect x="334" y="121" width="3" height="3" fill="#464646"/>
<rect x="152" width="3" height="3" fill="#464646"/>
<rect x="334" width="3" height="3" fill="#464646"/>
<rect x="152" y="136" width="3" height="3" fill="#464646"/>
<rect x="334" y="136" width="3" height="3" fill="#464646"/>
<rect x="152" y="15" width="3" height="3" fill="#464646"/>
<rect x="334" y="15" width="3" height="3" fill="#464646"/>
<rect x="152" y="151" width="3" height="3" fill="#464646"/>
<rect x="334" y="151" width="3" height="3" fill="#464646"/>
<rect x="152" y="30" width="3" height="3" fill="#464646"/>
<rect x="334" y="30" width="3" height="3" fill="#464646"/>
<rect x="152" y="167" width="3" height="2" fill="#464646"/>
<rect x="334" y="167" width="3" height="2" fill="#464646"/>
<rect x="152" y="46" width="3" height="2" fill="#464646"/>
<rect x="334" y="46" width="3" height="2" fill="#464646"/>
<rect x="152" y="182" width="3" height="2" fill="#464646"/>
<rect x="334" y="182" width="3" height="2" fill="#464646"/>
<rect x="152" y="61" width="3" height="2" fill="#464646"/>
<rect x="334" y="61" width="3" height="2" fill="#464646"/>
<rect x="152" y="197" width="3" height="3" fill="#464646"/>
<rect x="334" y="197" width="3" height="3" fill="#464646"/>
<rect x="152" y="76" width="3" height="3" fill="#464646"/>
<rect x="334" y="76" width="3" height="3" fill="#464646"/>
<rect x="152" y="212" width="3" height="3" fill="#464646"/>
<rect x="334" y="212" width="3" height="3" fill="#464646"/>
<rect x="152" y="91" width="3" height="3" fill="#464646"/>
<rect x="334" y="91" width="3" height="3" fill="#464646"/>
<rect x="152" y="227" width="3" height="3" fill="#464646"/>
<rect x="334" y="227" width="3" height="3" fill="#464646"/>
<rect x="152" y="106" width="3" height="3" fill="#464646"/>
<rect x="334" y="106" width="3" height="3" fill="#464646"/>
<rect x="167" y="121" width="3" height="3" fill="#464646"/>
<rect x="349" y="121" width="3" height="3" fill="#464646"/>
<rect x="167" width="3" height="3" fill="#464646"/>
<rect x="349" width="3" height="3" fill="#464646"/>
<rect x="167" y="136" width="3" height="3" fill="#464646"/>
<rect x="349" y="136" width="3" height="3" fill="#464646"/>
<rect x="167" y="15" width="3" height="3" fill="#464646"/>
<rect x="349" y="15" width="3" height="3" fill="#464646"/>
<rect x="167" y="151" width="3" height="3" fill="#464646"/>
<rect x="349" y="151" width="3" height="3" fill="#464646"/>
<rect x="167" y="30" width="3" height="3" fill="#464646"/>
<rect x="349" y="30" width="3" height="3" fill="#464646"/>
<rect x="167" y="167" width="3" height="2" fill="#464646"/>
<rect x="349" y="167" width="3" height="2" fill="#464646"/>
<rect x="167" y="46" width="3" height="2" fill="#464646"/>
<rect x="349" y="46" width="3" height="2" fill="#464646"/>
<rect x="167" y="182" width="3" height="2" fill="#464646"/>
<rect x="349" y="182" width="3" height="2" fill="#464646"/>
<rect x="167" y="61" width="3" height="2" fill="#464646"/>
<rect x="349" y="61" width="3" height="2" fill="#464646"/>
<rect x="167" y="197" width="3" height="3" fill="#464646"/>
<rect x="349" y="197" width="3" height="3" fill="#464646"/>
<rect x="167" y="76" width="3" height="3" fill="#464646"/>
<rect x="349" y="76" width="3" height="3" fill="#464646"/>
<rect x="167" y="212" width="3" height="3" fill="#464646"/>
<rect x="349" y="212" width="3" height="3" fill="#464646"/>
<rect x="167" y="91" width="3" height="3" fill="#464646"/>
<rect x="349" y="91" width="3" height="3" fill="#464646"/>
<rect x="167" y="227" width="3" height="3" fill="#464646"/>
<rect x="349" y="227" width="3" height="3" fill="#464646"/>
<rect x="167" y="106" width="3" height="3" fill="#464646"/>
<rect x="349" y="106" width="3" height="3" fill="#464646"/>
</svg>
