<svg width="340" height="340" viewBox="0 0 340 340" fill="none" xmlns="http://www.w3.org/2000/svg">
<path d="M257.999 170L340 124.449L246.209 126.001L294.449 45.5513L213.999 93.7907L215.551 0L170 82.0011L124.449 0L126.001 93.7907L45.5513 45.5513L93.7907 126.001L0 124.449L82.0011 170L0 215.551L93.7907 213.999L45.5513 294.449L126.001 246.209L124.449 340L170 257.999L215.551 340L213.999 246.209L294.449 294.449L246.209 213.999L340 215.551L257.999 170ZM149.238 139.508C149.899 138.184 150.614 136.9 151.607 135.775C153.505 133.626 156.019 132.903 158.719 132.457C164.046 131.575 169.321 131.319 174.635 132.703C178.839 133.797 181.084 136.727 182.683 140.427C182.997 141.151 182.448 141.452 181.964 141.742C180.378 142.69 178.595 143.174 176.88 143.8C175.658 144.247 174.395 144.589 173.132 144.905C172.359 145.099 171.562 145.554 170.777 144.766C170.511 144.499 170.028 144.681 169.814 145.105C169.72 145.292 169.696 145.547 169.552 145.674C169.06 146.113 168.344 146.454 167.844 146.098C167.413 145.79 168.052 145.317 168.305 144.998C169.745 143.192 171.661 141.897 173.361 140.37C174.514 139.333 175.694 138.321 176.635 137.08C176.95 136.666 177.16 136.168 177.386 135.694C177.529 135.394 177.533 135.075 177.271 134.812C177.008 134.549 176.668 134.516 176.4 134.712C175.83 135.133 175.388 134.888 174.86 134.606C173.21 133.727 171.384 133.428 169.556 133.335C166.813 133.196 164.069 133.27 161.346 133.768C159.55 134.097 157.695 134.131 156.002 134.927C155.652 135.092 155.396 134.872 155.12 134.73C154.816 134.573 154.513 134.534 154.235 134.777C153.946 135.031 154.008 135.336 154.116 135.651C154.453 136.642 155.072 137.446 155.777 138.196C157.327 139.845 159.141 141.193 160.847 142.666C162.005 143.666 163.16 144.681 164.091 146.331C162.92 146.008 161.857 146.364 161.374 145.114C161.146 144.524 160.568 144.552 160.122 144.852C159.646 145.171 159.205 145.107 158.715 144.985C155.807 144.252 152.951 143.362 150.209 142.14C148.562 141.407 148.448 141.089 149.235 139.511L149.238 139.508ZM166.269 145.032C165.963 145.458 165.674 145.616 165.295 145.103C163.452 142.618 161.03 140.735 158.697 138.759C158.135 138.282 157.63 137.738 157.1 137.224C156.549 136.691 156.695 136.371 157.37 136.082C158.464 135.611 159.629 135.542 160.776 135.436C164.167 135.121 167.552 134.589 170.972 135.077C172.096 135.238 173.179 135.518 174.184 136.059C174.424 136.189 174.703 136.298 174.757 136.613C174.748 136.897 174.549 137.062 174.4 137.253C173.79 138.04 172.995 138.632 172.234 139.252C170.078 141.009 167.914 142.751 166.268 145.033L166.269 145.032ZM126.458 190.685C126.296 190.736 126.104 190.754 125.939 190.72C123.499 190.21 121.174 189.466 119.43 187.534C118.845 186.886 118.47 186.152 118.452 185.229C118.5 184.96 118.373 184.52 118.698 184.403C119.107 184.257 119.152 184.738 119.301 184.986C120.941 187.722 123.644 188.858 126.49 189.786C126.766 189.876 127.259 189.718 127.262 190.137C127.264 190.534 126.783 190.586 126.458 190.687V190.685ZM187.044 204.411C184.127 206.186 180.844 206.844 177.56 207.496C172.12 208.577 166.643 208.307 161.159 207.981C157.991 207.793 154.856 207.378 151.739 206.822C149.288 206.385 146.965 205.591 145.026 203.94C144.607 203.582 144.134 203.252 144.058 202.678C159.33 207.372 174.458 207.202 189.605 201.685C189.072 202.844 188.163 203.73 187.042 204.411H187.044ZM145.277 199.969C145.486 198.942 145.49 197.872 145.554 196.818C145.64 195.381 146.369 194.336 147.596 193.697C150.486 192.194 152.101 189.725 152.967 186.708C153.263 185.674 153.781 185.344 154.84 185.36C158.606 185.418 162.374 185.382 166.142 185.382C170.015 185.382 173.887 185.405 177.76 185.365C178.605 185.357 179.02 185.624 179.269 186.446C179.873 188.447 180.735 190.325 182.223 191.862C182.895 192.557 183.673 193.086 184.508 193.545C185.832 194.271 186.637 195.359 186.838 196.865C186.907 197.387 186.923 197.915 186.982 198.44C187.259 200.849 187.281 200.908 184.961 201.697C181.249 202.958 177.424 203.73 173.517 204.073C169.83 204.395 166.13 204.379 162.438 204.298C156.957 204.177 151.595 203.258 146.356 201.618C145.467 201.339 145.074 200.979 145.279 199.969H145.277ZM198.445 185.463C196.646 183.657 195.3 181.491 193.828 179.428C193.171 178.51 193.337 177.395 193.17 176.368C192.279 170.881 191.579 165.357 189.985 160.006C189.815 159.434 189.599 158.873 189.405 158.307C189.236 157.819 188.941 157.475 188.385 157.666C187.851 157.849 187.916 158.329 188.033 158.739C188.633 160.84 189.141 162.961 189.547 165.107C190.607 170.708 191.873 176.289 192.294 181.978C192.599 186.106 192.843 190.275 191.992 194.392C191.628 196.15 190.943 197.752 189.574 198.986C189.372 199.168 189.196 199.508 188.892 199.403C188.547 199.283 188.58 198.885 188.554 198.582C188.477 197.672 188.499 196.759 188.308 195.852C187.994 194.368 187.33 193.146 185.986 192.36C185.774 192.235 185.585 192.064 185.365 191.96C182.725 190.71 181.414 188.485 180.712 185.766C180.159 183.62 180.12 183.626 177.914 183.626C170.093 183.625 162.27 183.625 154.449 183.626C152.298 183.626 152.23 183.65 151.679 185.682C150.899 188.559 149.523 190.958 146.667 192.234C144.965 192.995 144.303 194.458 144.014 196.166C143.838 197.209 143.758 198.262 143.767 199.322C143.774 200.164 143.429 200.213 142.812 199.76C140.543 198.089 139.726 195.656 139.232 193.039C138.624 189.817 138.841 186.573 139.104 183.353C139.738 175.619 141.317 168.038 143.036 160.485C143.176 159.869 143.389 159.269 143.568 158.661C143.688 158.254 143.686 157.857 143.237 157.675C142.79 157.495 142.358 157.639 142.16 158.075C141.884 158.681 141.674 159.319 141.478 159.956C140.305 163.738 139.851 167.667 139.151 171.543C138.744 173.793 138.436 176.06 138.079 178.319C138.046 178.525 138.022 178.759 137.91 178.922C136.149 181.511 134.545 184.24 132.122 186.291C129.209 188.757 125.98 188.681 122.86 186.3C120.16 184.24 119.5 181.577 120.306 178.414C121.334 174.387 123.168 170.697 125.113 167.061C127.722 162.18 130.713 157.524 133.764 152.914C136.598 148.632 140.03 144.939 144.791 142.711C144.951 142.637 145.115 142.571 145.268 142.486C146.366 141.879 147.284 141.729 148.307 142.846C149.384 144.022 150.971 144.523 152.46 145.079C154.277 145.759 156.144 146.271 158.02 146.757C160.136 147.307 159.86 147.06 159.876 149.098C159.888 150.683 159.879 152.268 159.879 153.854C159.879 155.722 159.881 157.588 159.879 159.455C159.879 160.06 159.956 160.649 160.731 160.647C161.504 160.646 161.459 160.018 161.46 159.491C161.468 156.039 161.46 152.587 161.468 149.134C161.471 147.766 161.598 147.651 162.921 147.838C164.781 148.101 166.641 148.139 168.493 147.822C169.329 147.679 169.632 147.951 169.625 148.806C169.596 152.187 169.611 155.569 169.62 158.95C169.62 159.334 169.639 159.728 169.726 160.099C169.817 160.476 170.112 160.681 170.519 160.657C170.946 160.632 171.145 160.366 171.181 159.97C171.21 159.655 171.214 159.337 171.214 159.021C171.217 155.569 171.246 152.116 171.197 148.665C171.182 147.664 171.549 147.262 172.51 147.014C175.781 146.176 179.092 145.418 182.034 143.648C182.574 143.322 183.191 143.024 183.572 142.551C184.204 141.767 184.818 141.889 185.612 142.203C189.603 143.777 192.736 146.473 195.312 149.801C201.335 157.581 206.249 166.029 210.117 175.073C210.821 176.719 211.295 178.467 211.495 180.264C211.689 181.998 211.21 183.531 210.056 184.851C208.741 186.356 207.073 187.357 205.2 187.917C202.395 188.758 200.301 187.328 198.443 185.462L198.445 185.463ZM210.802 188.674C209.256 189.798 207.48 190.344 205.6 190.576C205.358 190.606 205.102 190.604 204.864 190.559C204.596 190.507 204.244 190.434 204.268 190.084C204.289 189.756 204.646 189.851 204.867 189.799C207.986 189.073 210.439 187.353 212.351 184.811C212.518 184.588 212.588 184.095 212.993 184.281C213.295 184.421 213.174 184.85 213.213 185.095C213.159 186.84 212.012 187.795 210.802 188.674Z" fill="white"/>
</svg>
