<svg width="204" height="204" viewBox="0 0 204 204" fill="none" xmlns="http://www.w3.org/2000/svg">
<path d="M15.2166 87.8921L9.82914 90.235L9.57886 92.1943L14.5851 92.8383L14.2063 95.8059L0 93.9787L0.718567 88.3535C1.06567 85.6377 3.02468 83.5239 5.96288 83.9022C7.97304 84.1607 9.2281 85.4067 9.72866 87.0286L15.6605 84.4204L15.2172 87.8921H15.2166ZM7.02734 91.8661L7.32938 89.4999C7.5078 88.1035 6.91164 87.0805 5.57803 86.9088C4.2639 86.7395 3.41015 87.5761 3.23172 88.9731L2.92968 91.3393L7.02734 91.8661Z" fill="white"/>
<path d="M7.22097 71.3697L5.58654 77.4495L8.54058 78.2495L9.96188 72.9628L12.4263 73.6301L11.005 78.9168L14.1472 79.7675L15.8225 73.5366L18.4562 74.2498L16.0045 83.3693L2.17639 79.6251L4.58724 70.6565L7.22097 71.3697Z" fill="white"/>
<path d="M10.7353 58.5988L12.5104 60.8855C11.4855 61.4746 10.4058 62.4005 9.82186 63.8091C9.3353 64.983 9.45466 66.0701 10.4083 66.468C11.1999 66.7986 11.8156 66.4833 13.0451 64.6878C15.1758 61.5321 16.7865 60.9546 18.8015 61.7955C21.3567 62.8612 22.2805 65.4706 20.9858 68.5946C20.1406 70.6351 18.7625 72.1781 17.0903 73.005L15.4443 70.5605C16.7463 70.0662 17.9715 68.8409 18.5403 67.4684C19.109 66.0958 18.8983 65.0765 17.9264 64.6707C17.1348 64.3401 16.4095 64.7153 15.191 66.5364C13.0499 69.6671 11.3503 70.1016 9.42543 69.298C7.05051 68.3068 6.17118 65.5898 7.34585 62.7549C8.1314 60.8593 9.43578 59.3914 10.7347 58.5994L10.7353 58.5988Z" fill="white"/>
<path d="M19.0935 46.5178L16.7472 50.5322L26.8321 56.4691L25.3237 59.0498L15.2388 53.1129L12.8919 57.1272L10.6229 55.7914L16.8245 45.182L19.0935 46.5178Z" fill="white"/>
<path d="M33.1957 36.1034C36.489 38.8265 36.8878 43.2613 34.2115 46.5215C31.5223 49.7964 27.1214 50.2364 23.8276 47.5134C20.5039 44.7652 20.0776 40.3335 22.7668 37.058C25.4431 33.7983 29.8721 33.3553 33.1957 36.1034ZM25.7482 45.174C27.8388 46.9029 30.4828 46.7574 32.1057 44.7805C33.7164 42.8182 33.3528 40.1862 31.2623 38.458C29.1267 36.6919 26.4826 36.8374 24.8719 38.799C23.2485 40.7759 23.6126 43.408 25.7482 45.174Z" fill="white"/>
<path d="M50.8235 30.2723L48.5405 32.1966L44.6176 27.5095L45.4872 35.0254L45.3825 35.1134L38.1134 32.966L42.0485 37.6678L39.7655 39.5922L30.3906 28.3913L30.4503 28.3412L42.4187 31.4822L41.3883 19.1221L41.448 19.0719L50.8229 30.2729L50.8235 30.2723Z" fill="white"/>
<path d="M54.8486 14.3335L49.4654 17.5686L51.0371 20.2025L55.7182 17.389L57.0298 19.5865L52.3488 22.4L54.021 25.2019L59.5381 21.8861L60.9399 24.2352L52.8652 29.088L45.5066 16.7571L53.4474 11.9844L54.8492 14.3335H54.8486Z" fill="white"/>
<path d="M69.7792 20.3156L65.0366 16.8408L63.2268 17.6169L65.2096 22.2748L62.468 23.4499L56.8419 10.2317L62.0387 8.00425C64.5476 6.92871 67.3561 7.55387 68.5198 10.2873C69.3157 12.1579 68.8816 13.8751 67.741 15.1291L72.9871 18.9412L69.7792 20.3162V20.3156ZM62.2166 15.2428L64.4027 14.3053C65.6931 13.7523 66.2698 12.7183 65.7418 11.4772C65.2211 10.2543 64.0702 9.93962 62.7798 10.4927L60.5937 11.4301L62.2166 15.2428Z" fill="white"/>
<path d="M82.2464 3.60125L80.9901 6.196C80.0274 5.51951 78.7942 5.11618 77.3425 5.49812C74.8543 6.15261 73.69 8.48092 74.3818 11.1294C75.0735 13.778 77.2317 15.252 79.7199 14.5968C81.1899 14.21 82.082 13.2274 82.5844 12.1451L84.9477 13.7877C83.9673 15.6632 82.4851 16.6997 80.4116 17.2454C76.3024 18.3264 72.5372 16.0219 71.46 11.8982C70.3876 7.79343 72.5415 3.93125 76.6507 2.8502C78.8752 2.26477 80.5657 2.56787 82.2458 3.60186L82.2464 3.60125Z" fill="white"/>
<path d="M98.3658 14.3011L95.3996 14.6017L94.801 8.64773L89.0233 9.23317L89.6219 15.1872L86.6556 15.4878L85.2173 1.18676L88.1835 0.886101L88.7492 6.50887L94.527 5.92343L93.9613 0.300663L96.9275 0L98.3658 14.3011Z" fill="white"/>
<path d="M104.003 12.8961C103.986 13.9326 103.234 14.6635 102.201 14.6463C101.188 14.6298 100.44 13.8745 100.457 12.8381C100.474 11.8017 101.246 11.0714 102.259 11.0879C103.292 11.105 104.02 11.8597 104.003 12.8961Z" fill="white"/>
<path d="M118.159 16.017L115.996 10.5385L114.053 10.225L113.253 15.2257L110.309 14.7514L112.581 0.560387L118.16 1.45993C120.853 1.89443 122.896 3.92696 122.427 6.86148C122.105 8.86957 120.825 10.0893 119.193 10.5391L121.602 16.5719L118.159 16.017ZM114.461 7.6767L116.809 8.05497C118.194 8.27802 119.232 7.71275 119.445 6.38054C119.655 5.06789 118.849 4.18485 117.463 3.96179L115.116 3.58352L114.461 7.6767Z" fill="white"/>
<path d="M134.871 8.52674L128.868 6.69221L127.977 9.62918L133.196 11.2242L132.452 13.6747L127.233 12.0797L126.285 15.2037L132.437 17.0834L131.642 19.7026L122.638 16.9514L126.81 3.20158L135.665 5.90755L134.87 8.52674H134.871Z" fill="white"/>
<path d="M147.477 12.4586L145.143 14.166C144.589 13.1192 143.701 12.0064 142.317 11.3763C141.164 10.8508 140.077 10.9357 139.65 11.8799C139.296 12.6633 139.59 13.2909 141.339 14.5816C144.414 16.8194 144.938 18.4535 144.036 20.4482C142.892 22.9769 140.264 23.8202 137.194 22.422C135.189 21.509 133.696 20.0778 132.926 18.3741L135.414 16.8011C135.864 18.1229 137.046 19.3909 138.394 20.0051C139.743 20.6193 140.765 20.4408 141.2 19.4789C141.555 18.6955 141.204 17.9561 139.43 16.6752C136.38 14.4276 136.002 12.7091 136.864 10.8037C137.927 8.45341 140.661 7.65836 143.447 8.92701C145.31 9.77523 146.73 11.1307 147.478 12.4592L147.477 12.4586Z" fill="white"/>
<path d="M159.241 21.2261L155.317 18.745L149.083 28.6712L146.561 27.0762L152.795 17.15L148.871 14.669L150.274 12.4354L160.643 18.9931L159.241 21.2267V21.2261Z" fill="white"/>
<path d="M169.168 35.6989C166.351 38.9163 161.922 39.1761 158.76 36.3888C155.583 33.5881 155.283 29.1594 158.1 25.942C160.942 22.6952 165.37 22.4074 168.547 25.208C171.709 27.9959 172.01 32.4521 169.168 35.6989ZM160.369 27.9421C158.581 29.9844 158.642 32.6409 160.56 34.3318C162.463 36.0099 165.096 35.7276 166.884 33.6859C168.711 31.5996 168.65 28.9431 166.747 27.265C164.828 25.5741 162.196 25.8558 160.37 27.9421H160.369Z" fill="white"/>
<path d="M174.418 53.5651L172.573 51.2142L177.365 47.4278L169.853 48.0627L169.769 47.9552L172.137 40.7325L167.33 44.5312L165.485 42.1802L176.937 33.1316L176.985 33.1933L173.478 45.0983L185.821 44.4554L185.869 44.5171L174.417 53.5657L174.418 53.5651Z" fill="white"/>
<path d="M190.164 58.1093L187.113 52.6069L184.44 54.0998L187.093 58.8841L184.862 60.1296L182.209 55.3452L179.365 56.9329L182.492 62.5715L180.108 63.9025L175.532 55.649L188.047 48.6604L192.548 56.7771L190.164 58.108V58.1093Z" fill="white"/>
<path d="M183.729 72.8943L187.342 68.2487L186.627 66.4087L181.925 68.2481L180.842 65.4603L194.186 60.2396L196.239 65.5232C197.229 68.0739 196.518 70.871 193.758 71.9508C191.869 72.6896 190.173 72.1989 188.96 71.0152L184.996 76.1552L183.729 72.8937V72.8943ZM189.024 65.4712L189.887 67.6938C190.397 69.0059 191.408 69.6176 192.661 69.1275C193.895 68.6447 194.245 67.5001 193.736 66.1881L192.873 63.9655L189.024 65.4712Z" fill="white"/>
<path d="M199.977 85.9341L197.433 84.5915C198.138 83.6479 198.579 82.4233 198.245 80.9554C197.672 78.4389 195.391 77.1965 192.731 77.8058C190.071 78.4151 188.534 80.5325 189.107 83.0491C189.445 84.5359 190.395 85.4617 191.457 86.0007L189.746 88.3186C187.909 87.2748 186.924 85.7556 186.447 83.6583C185.502 79.5022 187.917 75.7995 192.059 74.8511C196.182 73.9069 199.959 76.1906 200.905 80.3468C201.416 82.5962 201.06 84.2829 199.977 85.9347V85.9341Z" fill="white"/>
<path d="M188.809 101.762L188.604 98.777L194.553 98.3645L194.153 92.5511L188.204 92.9636L187.999 89.979L202.287 88.9884L202.493 91.973L196.874 92.3623L197.274 98.1757L202.893 97.7864L203.098 100.771L188.809 101.762Z" fill="white"/>
<path d="M190.047 107.444C189.014 107.402 188.305 106.63 188.347 105.594C188.388 104.578 189.159 103.846 190.191 103.888C191.223 103.93 191.932 104.722 191.89 105.739C191.848 106.775 191.079 107.487 190.047 107.444Z" fill="white"/>
<path d="M185.427 125.7L191.043 123.98L191.512 122.062L186.61 120.857L187.319 117.951L201.23 121.372L199.885 126.88C199.236 129.539 197.052 131.418 194.175 130.71C192.207 130.226 191.099 128.846 190.784 127.179L184.597 129.1L185.427 125.7V125.7ZM194.01 122.676L193.444 124.993C193.11 126.361 193.588 127.445 194.894 127.766C196.18 128.083 197.123 127.347 197.456 125.98L198.022 123.663L194.01 122.676Z" fill="white"/>
<path d="M191.511 143.023L193.82 137.168L190.975 136.038L188.967 141.13L186.593 140.188L188.601 135.096L185.575 133.895L183.21 139.896L180.673 138.889L184.136 130.106L197.454 135.394L194.049 144.032L191.512 143.025L191.511 143.023Z" fill="white"/>
<path d="M186.587 155.313L185.08 152.84C186.164 152.371 187.342 151.573 188.08 150.239C188.695 149.128 188.698 148.034 187.795 147.531C187.046 147.113 186.398 147.357 184.975 149.002C182.504 151.897 180.838 152.289 178.93 151.226C176.511 149.878 175.886 147.181 177.522 144.223C178.591 142.291 180.133 140.914 181.888 140.281L183.249 142.896C181.9 143.24 180.545 144.319 179.826 145.618C179.107 146.917 179.202 147.954 180.122 148.467C180.871 148.885 181.634 148.594 183.05 146.922C185.529 144.054 187.266 143.814 189.089 144.83C191.337 146.083 191.906 148.883 190.42 151.567C189.427 153.362 187.966 154.673 186.586 155.313L186.587 155.313Z" fill="white"/>
<path d="M176.936 166.371L179.716 162.645L170.357 155.613L172.144 153.218L181.503 160.25L184.283 156.525L186.389 158.107L179.043 167.953L176.937 166.371L176.936 166.371Z" fill="white"/>
<path d="M161.768 175.139C158.798 172.064 158.894 167.612 161.916 164.672C164.952 161.719 169.375 161.774 172.345 164.848C175.342 167.952 175.274 172.403 172.238 175.357C169.216 178.297 164.765 178.241 161.768 175.139ZM170.177 166.959C168.291 165.007 165.648 164.855 163.815 166.638C161.996 168.408 162.065 171.064 163.951 173.016C165.877 175.009 168.52 175.161 170.339 173.392C172.172 171.608 172.103 168.953 170.177 166.959Z" fill="white"/>
<path d="M143.602 178.959L146.085 177.303L149.461 182.4L149.434 174.834L149.548 174.758L156.532 177.707L153.145 172.594L155.627 170.937L163.696 183.119L163.631 183.163L152.088 178.7L151.736 191.098L151.67 191.141L143.602 178.959V178.959Z" fill="white"/>
<path d="M137.816 194.341L143.527 191.735L142.261 188.94L137.294 191.207L136.237 188.875L141.204 186.608L139.856 183.636L134.003 186.307L132.873 183.815L141.44 179.905L147.37 192.988L138.945 196.834L137.815 194.341H137.816Z" fill="white"/>
<path d="M123.652 186.708L127.973 190.698L129.859 190.132L128.414 185.279L131.27 184.422L135.373 198.193L129.958 199.818C127.345 200.602 124.624 199.662 123.776 196.815C123.195 194.866 123.82 193.209 125.094 192.092L120.311 187.71L123.653 186.707L123.652 186.708ZM130.595 192.605L128.317 193.289C126.973 193.692 126.283 194.654 126.668 195.947C127.048 197.221 128.156 197.664 129.501 197.261L131.779 196.578L130.595 192.605Z" fill="white"/>
<path d="M109.386 201.903L110.926 199.467C111.806 200.248 112.986 200.788 114.471 200.573C117.018 200.204 118.436 198.022 118.045 195.313C117.655 192.603 115.677 190.894 113.131 191.263C111.626 191.482 110.63 192.357 110.009 193.376L107.845 191.477C109.03 189.724 110.619 188.862 112.741 188.554C116.945 187.944 120.428 190.66 121.035 194.879C121.639 199.079 119.066 202.673 114.861 203.283C112.586 203.613 110.94 203.12 109.386 201.903V201.903Z" fill="white"/>
<path d="M94.5889 189.437L97.5698 189.486L97.473 195.469L103.279 195.564L103.376 189.58L106.357 189.629L106.125 204L103.144 203.952L103.235 198.301L97.4291 198.206L97.3378 203.857L94.3569 203.809L94.5889 189.437Z" fill="white"/>
<path d="M88.8221 190.256C88.9464 189.227 89.7709 188.579 90.7958 188.703C91.8018 188.826 92.4667 189.656 92.3425 190.684C92.2183 191.713 91.3743 192.359 90.3689 192.236C89.3434 192.112 88.6979 191.284 88.8221 190.256Z" fill="white"/>
</svg>
