<svg width="337" height="337" viewBox="0 0 337 337" fill="none" xmlns="http://www.w3.org/2000/svg">
<path d="M168.499 81.278L213.65 0L212.111 92.9631L291.851 45.1491L244.037 124.889L337 123.35L255.722 168.499L337 213.65L244.037 212.111L291.851 291.851L212.111 244.037L213.65 337L168.499 255.722L123.35 337L124.889 244.037L45.1491 291.851L92.9631 212.111L0 213.65L81.278 168.499L0 123.35L92.9631 124.889L45.1491 45.1491L124.889 92.9631L123.35 0L168.499 81.278Z" fill="white"/>
<path d="M215.562 170.257C215.562 176.104 215.566 181.953 215.56 187.8C215.555 191.866 213.414 193.618 209.372 192.868C208.782 192.759 208.18 192.652 207.625 192.44C201.262 190.016 194.99 190.676 188.701 192.822C182.14 195.063 176.162 198.504 170.024 201.622C163.767 204.801 157.484 207.91 150.443 209.04C145.475 209.837 140.68 209.243 136.128 207.155C132.763 205.611 130.918 202.605 129.499 199.369C128.757 197.674 127.833 196.14 126.836 194.585C124.509 190.951 122.226 187.242 121.552 182.848C121.449 182.179 121.423 181.492 121.421 180.815C121.413 169.16 121.415 157.504 121.416 145.849C121.416 145.489 121.41 145.128 121.435 144.768C121.625 142.096 123.347 140.81 125.955 141.415C127.091 141.678 128.202 142.054 129.205 142.65C137.045 147.308 145.096 146.76 153.269 143.689C158.723 141.639 163.867 138.947 169.001 136.227C174.846 133.128 180.749 130.15 187.226 128.547C191.358 127.523 195.495 127.268 199.713 128.172C202.965 128.869 205.065 130.867 206.737 133.546C208.053 135.653 209.31 137.774 210.273 140.084C210.803 141.357 211.705 142.483 212.491 143.642C214.524 146.64 215.632 149.885 215.582 153.556C215.505 159.122 215.562 164.691 215.562 170.259V170.257ZM207.538 158.408C207.538 158.408 207.535 158.408 207.534 158.408C207.534 152.601 207.562 146.791 207.526 140.983C207.491 135.431 204.164 128.922 195.725 128.863C190.349 128.825 185.332 130.136 180.439 132.112C174.298 134.593 168.594 137.971 162.687 140.933C158.52 143.022 154.288 144.92 149.788 146.159C143.76 147.818 137.785 148.025 131.906 145.445C130.179 144.687 128.641 143.56 126.841 142.959C123.794 141.942 122.739 142.684 122.739 145.882C122.737 157.259 122.806 168.636 122.704 180.011C122.666 184.189 124.007 187.835 126.415 191.069C127.804 192.937 129.657 194.486 131.817 195.52C137.378 198.182 143.164 198.107 148.967 196.633C154.673 195.184 159.904 192.528 165.106 189.843C170.908 186.849 176.623 183.664 182.79 181.445C186.813 179.999 190.962 179.145 195.264 179.252C197.638 179.312 199.924 180.008 202.259 180.329C206.032 180.846 207.63 179.422 207.568 175.953C207.466 170.108 207.54 164.257 207.54 158.41L207.538 158.408ZM131.174 198.69C130.979 199.226 131.136 199.647 131.41 199.987C132.364 201.172 133.364 202.304 134.705 203.1C140.221 206.37 146.14 206.778 152.253 205.52C158.081 204.322 163.378 201.71 168.619 199.017C174.567 195.959 180.392 192.652 186.678 190.297C192.149 188.247 197.729 187.008 203.613 188.121C205.3 188.44 206.946 188.991 208.702 188.909C211.18 188.792 212.271 187.737 212.329 185.242C212.364 183.722 212.342 182.198 212.342 180.676C212.342 170.222 212.339 159.77 212.345 149.316C212.345 147.376 211.895 145.565 210.887 143.868C210.741 144.34 210.741 144.801 210.741 145.261C210.744 156.435 210.747 167.609 210.747 178.783C210.747 179.384 210.76 179.986 210.713 180.585C210.562 182.536 209.436 183.846 207.553 184.348C205.877 184.794 204.27 184.389 202.724 183.852C197.309 181.977 191.877 182.003 186.415 183.563C181.654 184.923 177.18 186.978 172.784 189.219C166.292 192.528 159.957 196.166 153.058 198.627C147.972 200.441 142.78 201.399 137.375 200.518C135.244 200.171 133.196 199.492 131.174 198.688V198.69Z" fill="black"/>
<path d="M199.921 154.538C199.921 157.341 199.921 160.143 199.921 162.946C199.921 163.665 199.883 164.418 198.877 164.308C195.328 163.915 192.99 166.624 192.594 169.191C192.283 171.208 191.371 171.735 189.498 172.068C183.406 173.152 177.848 175.758 172.391 178.585C166.347 181.716 160.369 184.994 154.005 187.451C150.104 188.958 146.047 189.907 141.848 190.094C140.895 190.137 139.933 189.984 138.975 189.907C138.422 189.862 138.082 189.546 138.038 188.991C137.705 184.862 135.071 182.381 131.782 180.452C130.735 179.837 130.331 179.147 130.34 177.972C130.38 172.688 130.353 167.402 130.363 162.116C130.366 160.402 130.589 160.248 132.256 160.688C135.221 161.471 137.452 159.901 137.927 156.519C138.1 155.283 138.549 154.887 139.766 154.968C146.812 155.435 153.181 153.066 159.357 150.082C164.476 147.607 169.502 144.944 174.584 142.393C179.323 140.016 184.175 137.939 189.45 137.048C189.607 137.021 189.763 136.979 189.921 136.955C191.271 136.747 192.096 137.311 192.396 138.645C193.151 141.974 195.523 143.662 198.581 144.521C199.6 144.807 199.957 145.255 199.944 146.252C199.91 149.014 199.933 151.777 199.933 154.539C199.929 154.539 199.926 154.539 199.921 154.539V154.538ZM164.367 168.639C164.367 170.766 163.874 171.274 161.836 170.836C160.751 170.603 160.179 170.831 159.838 171.843C159.737 172.141 159.547 172.416 159.364 172.677C158.761 173.538 159.121 173.843 160.026 173.977C161.215 174.153 162.339 173.942 163.448 173.567C164.042 173.365 164.405 173.458 164.361 174.166C164.298 175.167 164.735 175.093 165.44 174.749C166.098 174.428 166.458 174.004 166.366 173.255C166.264 172.444 166.606 171.902 167.298 171.472C167.837 171.138 168.328 170.704 168.778 170.251C170.444 168.572 171.556 166.627 171.436 164.169C171.373 162.871 170.757 162.268 169.471 162.25C168.754 162.239 168.034 162.333 167.315 162.388C166.996 162.413 166.572 162.515 166.488 162.128C166.281 161.147 166.124 160.072 166.55 159.184C166.869 158.517 167.801 158.602 168.523 158.68C168.976 158.729 169.41 158.839 169.674 158.331C170.024 157.657 170.383 156.984 170.716 156.302C170.983 155.755 170.678 155.585 170.185 155.552C169.212 155.487 168.26 155.605 167.342 155.921C166.679 156.149 166.312 155.995 166.374 155.248C166.468 154.102 165.984 154.192 165.188 154.604C164.562 154.929 164.282 155.361 164.371 156.038C164.481 156.894 164.089 157.42 163.407 157.929C161.507 159.346 159.979 161.077 159.413 163.463C158.842 165.874 159.968 167.119 162.405 166.807C163.712 166.64 164.366 167.21 164.366 168.518C164.366 168.557 164.366 168.598 164.366 168.638L164.367 168.639ZM143.285 175.675C145.186 175.68 146.871 173.98 146.878 172.051C146.884 170.333 145.695 169.226 143.843 169.227C141.906 169.229 140.356 170.638 140.321 172.43C140.285 174.255 141.577 175.672 143.283 175.675H143.285ZM183.525 156.184C183.541 157.511 184.231 158.453 185.439 158.504C187.766 158.603 190.344 156.784 189.909 153.814C189.676 152.223 188.222 151.371 186.703 151.84C184.926 152.387 183.505 154.33 183.525 156.185V156.184Z" fill="black"/>
</svg>
