<?xml version="1.0" encoding="UTF-8"?>
<svg id="Layer_2" data-name="Layer 2" xmlns="http://www.w3.org/2000/svg" viewBox="0 0 710.52 710.52">
  <defs>
    <style>
      .cls-1 {
        fill: #ed1c24;
      }

      .cls-2 {
        fill: #d9ff69;
      }
    </style>
  </defs>
  <g id="Layer_1-2" data-name="Layer 1">
    <g>
      <polygon class="cls-1" points="355.26 171.37 450.45 0 447.21 196 615.33 95.19 514.52 263.31 710.52 260.07 539.16 355.26 710.52 450.45 514.52 447.21 615.33 615.33 447.21 514.52 450.45 710.52 355.26 539.16 260.07 710.52 263.31 514.52 95.19 615.33 196 447.21 0 450.45 171.37 355.26 0 260.07 196 263.31 95.19 95.19 263.31 196 260.07 0 355.26 171.37"/>
      <g>
        <path class="cls-2" d="M316.95,392.33l-20.17,2.19-30.69-48.87,5.6,51.6-13.62,1.48-6.98-64.3,21.49-2.33,29.03,45.96-5.27-48.54,13.62-1.48,6.98,64.3Z"/>
        <path class="cls-2" d="M360.6,322.53l1.31,12.09-30.21,3.28,1.56,14.37,27.61-3,1.25,11.47-27.61,3,1.55,14.28,31.02-3.37,1.31,12.09-45.23,4.91-6.98-64.3,44.42-4.83Z"/>
        <path class="cls-2" d="M421.65,315.9l17.14,53.91,6.08-56.44,14.57-1.58-9.05,66.04-20.1,2.18-16.98-51.86-5.63,54.32-20.1,2.18-22.83-62.58,15.13-1.64,17.92,53.83,5.32-56.35,18.52-2.01Z"/>
      </g>
    </g>
  </g>
</svg>