<svg width="166" height="284" viewBox="0 0 166 284" fill="none" xmlns="http://www.w3.org/2000/svg">
<g clip-path="url(#clip0_206_511)">
<path d="M54.5696 96.9092C66.511 104.982 78.8594 112.463 90.986 120.24C101.804 127.178 112.51 134.393 122.563 142.407C123.652 140.782 124.722 139.144 125.765 137.487C126.737 135.942 127.69 134.388 128.623 132.821C124.841 121.997 121.056 111.174 117.274 100.352C114.272 91.763 111.172 83.198 108.291 74.5673C105.92 67.4619 103.824 60.2201 102.713 52.798C100.571 38.502 102.684 23.4847 113.923 13.3603C120.374 7.55127 128.509 3.77442 137.055 1.75685C136.678 1.65207 136.295 1.55217 135.91 1.46201C132.281 0.974672 128.655 0.487336 125.026 0C117.635 0.0219301 110.748 1.88599 104.363 5.58975C101.602 7.72428 98.8381 9.85637 96.0769 11.9909C91.0031 17.0982 87.4938 23.1192 85.5466 30.054C82.1274 39.4986 78.6035 48.9066 74.8042 58.205C68.9602 71.558 62.3802 84.6186 54.5671 96.9117L54.5696 96.9092Z" fill="white"/>
<path d="M54.1698 176.401C56.4265 155.341 44.39 138.871 28.1302 127.416C25.9881 129.324 23.8021 131.186 21.5746 133.001C11.2027 140.604 0.216572 147.319 -11.118 153.391C-17.8808 180.37 -24.3657 207.418 -30.5801 234.526C-28.2113 235.22 -25.823 235.861 -23.4225 236.451C-22.1992 236.297 -20.9758 236.129 -19.7548 235.949C-2.2765 233.356 15.3724 228.12 29.6241 217.318C42.4599 207.588 52.4273 192.637 54.1674 176.401H54.1698Z" fill="white"/>
<path d="M160.38 20.2756C157.807 15.5046 154.292 11.6766 149.835 8.78911C147.557 6.70331 145.046 5.01225 142.312 3.70619C130.161 5.64335 117.598 11.1722 110.694 21.4598C102.62 33.4897 104.195 48.7458 107.611 62.0744C109.512 69.4941 112.103 76.7043 114.628 83.9266C117.535 92.2479 120.445 100.569 123.352 108.89C125.755 115.767 128.16 122.643 130.563 129.522C135.228 121.417 139.424 113.042 143.289 104.529C149.855 90.067 155.828 75.3178 161.355 60.4297C162.42 57.5641 163.468 54.6937 164.509 51.8185C166.214 46.3773 166.458 40.9362 165.24 35.4951C164.993 30.0467 163.373 24.9735 160.38 20.2756Z" fill="white"/>
<path d="M111.194 137.414C94.1736 125.077 75.9715 114.507 58.4176 102.972C56.6021 101.78 54.7938 100.574 52.9928 99.3556C51.2089 102.08 49.3617 104.765 47.4462 107.404C42.192 113.781 36.4966 119.753 30.4284 125.338C37.2009 130.187 43.2691 135.964 48.0481 142.789C57.5842 156.411 59.8189 173.375 54.1992 189.023C48.3235 205.385 35.7509 218.422 20.5658 226.543C9.3287 232.552 -2.94171 236.085 -15.4631 238.21C-11.52 238.99 -7.54767 239.645 -3.55583 240.191C19.1865 230.469 41.4877 219.194 61.5736 204.676C74.0926 195.629 86.3532 185.972 97.0201 174.756C103.622 167.814 109.412 160.248 115.232 152.648C117.194 150.085 119.09 147.473 120.925 144.819C117.742 142.273 114.496 139.807 111.194 137.414Z" fill="white"/>
</g>
<defs>
<clipPath id="clip0_206_511">
<rect width="386" height="284" fill="white" transform="translate(-220)"/>
</clipPath>
</defs>
</svg>
