<svg width="145" height="301" viewBox="0 0 145 301" fill="none" xmlns="http://www.w3.org/2000/svg">
<g clip-path="url(#clip0_206_519)">
<path d="M48.84 261.474C53.0348 259.906 56.8631 256.953 59.8584 253.891C65.5912 248.034 69.4896 240.351 72.4639 232.787C75.4872 225.099 77.5004 217.05 78.8858 208.916C81.8355 191.609 82.0179 173.96 82.7299 156.462C84.2679 118.677 86.6248 80.4361 96.4489 43.7508C100.219 29.6705 105.53 15.4552 115.019 4.20883C96.3437 8.72105 79.0296 16.7178 63.8007 27.4697C55.1375 47.0267 47.6773 67.1169 41.4763 87.5911C31.205 121.506 24.3639 156.469 21.2213 191.768C20.2094 203.125 19.308 214.875 20.4707 226.327C28.1308 239.434 37.7164 251.28 48.8383 261.474H48.84Z" fill="white"/>
<path d="M171.47 138.665C179.847 123.587 186.465 107.527 189.992 90.6022C193.855 72.0552 194.168 52.7227 190.834 34.0705C188.915 23.3345 185.627 11.7076 179.007 2.69716C169.777 0.925943 160.246 0 150.499 0C139.54 0 128.853 1.17321 118.561 3.39688C110.522 11.9724 105.209 23.0925 101.498 34.1898C95.6159 51.7809 92.3313 70.3647 89.934 88.7187C87.4508 107.716 86.1829 126.851 85.2903 145.982C84.466 163.687 84.3819 181.501 82.3704 199.127C80.5045 215.483 76.7358 231.94 68.2392 246.22C64.5021 252.5 57.9609 259.739 50.5674 263.036C59.2218 270.726 68.7706 277.434 79.0366 282.983C86.7581 260.951 99.2583 240.438 112.683 221.602C132.347 194.011 154.948 168.399 171.47 138.665Z" fill="white"/>
<path d="M17.8823 216.85C17.614 199.353 19.8289 181.65 22.3016 164.357C27.2995 129.401 35.8786 94.9618 47.8194 61.7313C51.6792 50.9865 55.8933 40.3715 60.4459 29.9038C23.7519 57.3506 0 101.152 0 150.499C0 176.401 6.54474 200.774 18.0682 222.055C17.97 220.318 17.9086 218.582 17.8823 216.848V216.85Z" fill="white"/>
<path d="M237.943 232.1C255.857 203.178 269.634 169.928 270.225 135.495C270.786 102.774 260.15 71.4607 252.618 39.9471C233.09 21.9017 208.774 8.96481 181.788 3.25833C183.821 6.26414 185.552 9.5067 186.979 12.8545C193.524 28.2044 195.455 45.8219 195.207 62.3732C194.941 80.2765 191.46 98.0307 185.052 114.743C179.068 130.355 170.801 144.966 161.561 158.862C142.681 187.258 119.726 212.748 101.74 241.759C93.5203 255.017 86.1776 269.206 81.0078 284.024C101.796 294.866 125.43 300.996 150.499 300.996C160.988 300.996 171.226 299.921 181.108 297.88C203.262 279.021 222.616 256.841 237.941 232.098L237.943 232.1Z" fill="white"/>
</g>
<defs>
<clipPath id="clip0_206_519">
<rect width="301" height="301" fill="white"/>
</clipPath>
</defs>
</svg>
