<svg width="1492" height="172" viewBox="0 0 1492 172" fill="none" xmlns="http://www.w3.org/2000/svg">
<circle cx="1456" cy="132" r="36" fill="#FF1D30"/>
<path d="M0 168.38V3.40234H81.5921C118.611 3.40234 141.157 22.8355 141.157 53.2816C141.157 79.9237 123.223 97.3943 95.4307 98.26C108.462 99.1819 118.553 108.064 125.761 124.209L145.598 168.38H105.176L85.1672 124.323C79.2863 111.292 73.9819 107.716 60.372 107.716H36.4426V168.38H0ZM77.3822 78.3087C94.6233 78.3087 104.714 69.9469 104.714 55.5313C104.714 41.1157 94.9104 33.5031 77.3239 33.5031H36.4426V78.3087H77.3822Z" fill="white"/>
<path d="M271.992 3.4585V34.4833H194.493V71.3309H265.303V100.739H194.493V137.355H274.066V168.378H158.05V3.4585H271.992Z" fill="white"/>
<path d="M423.066 55.4733H388.122C388.122 39.6154 374.456 29.697 353.929 29.697C336.746 29.697 320.658 36.5605 320.658 50.4558C320.658 63.6041 333.575 65.7371 357.735 69.3124L364.482 70.2926C392.045 74.3861 428.602 79.8073 428.602 118.961C428.602 153.617 400 171.839 355.889 171.839C308.376 171.839 281.851 150.676 281.851 114.867H316.796C316.796 131.995 331.614 142.2 355.66 142.2C376.131 142.2 392.507 134.76 392.507 119.71C392.507 104.66 379.186 103.276 356.582 100.104L347.875 98.8345C320.716 95.0282 284.505 90.069 284.505 52.5306C284.505 18.2781 314.835 0.0561523 354.391 0.0561523C396.714 0.0561523 423.066 20.9876 423.066 55.4711V55.4733Z" fill="white"/>
<path d="M570.277 34.4833H519.071V168.38H482.629V34.4833H431.423V3.4585H570.274V34.4833H570.277Z" fill="white"/>
<path d="M653.026 0C700.079 0 733.234 34.1381 733.234 85.9194C733.234 137.701 700.077 171.839 653.026 171.839C605.974 171.839 572.876 137.701 572.876 85.9194C572.876 34.1381 605.972 0 653.026 0ZM653.026 140.587C680.703 140.587 696.56 121.154 696.56 85.9216C696.56 50.6889 680.703 31.2558 653.026 31.2558C625.348 31.2558 609.547 50.6889 609.547 85.9216C609.547 121.154 625.346 140.587 653.026 140.587Z" fill="white"/>
<path d="M751 6.0542H827.829C864.49 6.0542 889.852 28.2283 889.852 60.1703C889.852 92.1123 864.369 114.462 827.829 114.462H786.863V168.294H751V6.0542ZM825.907 84.8472C843.378 84.8472 854.002 75.5393 854.002 60.1703C854.002 44.8013 843.5 35.6692 826.191 35.6692H786.863V84.8472H825.907Z" stroke="white" stroke-width="2" stroke-miterlimit="10"/>
<path d="M902.14 168.294V6H982.433C1018.86 6 1041.05 25.1165 1041.05 55.0698C1041.05 81.2755 1023.4 98.4709 996.048 99.3232C1008.88 100.23 1018.8 108.969 1025.9 124.852L1045.42 168.308H1005.64L985.952 124.961C980.16 112.135 974.949 108.618 961.551 108.618H938.003V168.294H902.14ZM978.292 79.6791C995.263 79.6791 1005.2 71.4534 1005.2 57.275C1005.2 43.0966 995.547 35.6015 978.238 35.6015H938.003V79.6926H978.292V79.6791Z" stroke="white" stroke-width="2" stroke-miterlimit="10"/>
<path d="M1093.57 168.294H1057.71V6.0542H1093.57V168.294Z" stroke="white" stroke-width="2" stroke-miterlimit="10"/>
<path d="M1257.92 168.294H1207.02L1143.7 38.1045V168.294H1109.31V6.0542H1163.56L1223.54 128.532V6.0542H1257.93V168.294H1257.92Z" stroke="white" stroke-width="2" stroke-miterlimit="10"/>
<path d="M1404.29 36.5757H1353.91V168.294H1318.05V36.5757H1267.66V6.0542H1404.31V36.5757H1404.29Z" stroke="white" stroke-width="2" stroke-miterlimit="10"/>
</svg>
