<svg width="1090" height="428" viewBox="0 0 1090 428" fill="none" xmlns="http://www.w3.org/2000/svg">
<line x1="32.0887" x2="32.0887" y2="427.01" stroke="white" stroke-opacity="0.5" stroke-width="0.5"/>
<line x1="123.858" x2="123.858" y2="427.01" stroke="white" stroke-opacity="0.5" stroke-width="0.5"/>
<line x1="215.628" x2="215.628" y2="427.01" stroke="white" stroke-opacity="0.5" stroke-width="0.5"/>
<line x1="307.398" x2="307.398" y2="427.01" stroke="white" stroke-opacity="0.5" stroke-width="0.5"/>
<line x1="399.167" x2="399.167" y2="427.01" stroke="white" stroke-opacity="0.5" stroke-width="0.5"/>
<line x1="490.937" x2="490.937" y2="427.01" stroke="white" stroke-opacity="0.5" stroke-width="0.5"/>
<line y1="37.2071" x2="545" y2="37.2071" stroke="white" stroke-opacity="0.5" stroke-width="0.5"/>
<line y1="111.185" x2="545" y2="111.185" stroke="white" stroke-opacity="0.5" stroke-width="0.5"/>
<line y1="193.59" x2="545" y2="193.59" stroke="white" stroke-opacity="0.5" stroke-width="0.5"/>
<line y1="275.996" x2="545" y2="275.996" stroke="white" stroke-opacity="0.5" stroke-width="0.5"/>
<line y1="358.401" x2="545" y2="358.401" stroke="white" stroke-opacity="0.5" stroke-width="0.5"/>
<line x1="577.089" x2="577.089" y2="427.01" stroke="white" stroke-opacity="0.5" stroke-width="0.5"/>
<line x1="668.858" x2="668.858" y2="427.01" stroke="white" stroke-opacity="0.5" stroke-width="0.5"/>
<line x1="760.628" x2="760.628" y2="427.01" stroke="white" stroke-opacity="0.5" stroke-width="0.5"/>
<line x1="852.398" x2="852.398" y2="427.01" stroke="white" stroke-opacity="0.5" stroke-width="0.5"/>
<line x1="944.167" x2="944.167" y2="427.01" stroke="white" stroke-opacity="0.5" stroke-width="0.5"/>
<line x1="1035.94" x2="1035.94" y2="427.01" stroke="white" stroke-opacity="0.5" stroke-width="0.5"/>
<line x1="545" y1="37.2071" x2="1090" y2="37.2071" stroke="white" stroke-opacity="0.5" stroke-width="0.5"/>
<line x1="545" y1="111.185" x2="1090" y2="111.185" stroke="white" stroke-opacity="0.5" stroke-width="0.5"/>
<line x1="545" y1="193.59" x2="1090" y2="193.59" stroke="white" stroke-opacity="0.5" stroke-width="0.5"/>
<line x1="545" y1="275.996" x2="1090" y2="275.996" stroke="white" stroke-opacity="0.5" stroke-width="0.5"/>
<line x1="545" y1="358.401" x2="1090" y2="358.401" stroke="white" stroke-opacity="0.5" stroke-width="0.5"/>
</svg>
