<svg width="1542" height="172" viewBox="0 0 1542 172" fill="none" xmlns="http://www.w3.org/2000/svg">
<circle cx="1506" cy="136" r="36" fill="#FF1D30"/>
<path d="M0 168.38V3.40234H81.5921C118.611 3.40234 141.157 22.8355 141.157 53.2816C141.157 79.9237 123.223 97.3943 95.4307 98.26C108.462 99.1819 118.553 108.064 125.761 124.209L145.598 168.38H105.176L85.1672 124.323C79.2863 111.292 73.9819 107.716 60.372 107.716H36.4426V168.38H0ZM77.3822 78.3087C94.6233 78.3087 104.714 69.9469 104.714 55.5313C104.714 41.1157 94.9104 33.5031 77.3239 33.5031H36.4426V78.3087H77.3822Z" fill="white"/>
<path d="M271.992 3.4585V34.4833H194.493V71.3309H265.303V100.739H194.493V137.355H274.066V168.378H158.05V3.4585H271.992Z" fill="white"/>
<path d="M423.066 55.4733H388.122C388.122 39.6154 374.456 29.697 353.929 29.697C336.746 29.697 320.658 36.5605 320.658 50.4558C320.658 63.6041 333.575 65.7371 357.735 69.3124L364.482 70.2926C392.045 74.3861 428.602 79.8073 428.602 118.961C428.602 153.617 400 171.839 355.889 171.839C308.376 171.839 281.851 150.676 281.851 114.867H316.796C316.796 131.995 331.614 142.2 355.66 142.2C376.131 142.2 392.507 134.76 392.507 119.71C392.507 104.66 379.186 103.276 356.582 100.104L347.875 98.8345C320.716 95.0282 284.505 90.069 284.505 52.5306C284.505 18.2781 314.835 0.0561523 354.391 0.0561523C396.714 0.0561523 423.066 20.9876 423.066 55.4711V55.4733Z" fill="white"/>
<path d="M570.277 34.4833H519.071V168.38H482.629V34.4833H431.423V3.4585H570.274V34.4833H570.277Z" fill="white"/>
<path d="M653.026 0C700.079 0 733.234 34.1381 733.234 85.9194C733.234 137.701 700.077 171.839 653.026 171.839C605.974 171.839 572.876 137.701 572.876 85.9194C572.876 34.1381 605.972 0 653.026 0ZM653.026 140.587C680.703 140.587 696.56 121.154 696.56 85.9216C696.56 50.6889 680.703 31.2558 653.026 31.2558C625.348 31.2558 609.547 50.6889 609.547 85.9216C609.547 121.154 625.346 140.587 653.026 140.587Z" fill="white"/>
<path d="M949.374 7.36133V170.638H913.332V37.683L871.075 170.652H831.728L789.919 37.6149V170.638H755.36V7.36133H813.19L853 133.822L893.203 7.36133H949.374Z" stroke="white" stroke-width="2" stroke-miterlimit="10"/>
<path d="M1077.83 7.36133V38.0779H1001.18V74.5537H1071.21V103.664H1001.18V139.922H1079.87V170.638H965.124V7.36133H1077.82H1077.83Z" stroke="white" stroke-width="2" stroke-miterlimit="10"/>
<path d="M1091.71 7.36133H1151.18C1200.35 7.36133 1233.7 39.5075 1233.7 88.9998C1233.7 138.492 1200.33 170.638 1151.18 170.638H1091.71V7.36133ZM1150.39 139.704C1180.22 139.704 1197.44 121.609 1197.44 88.9998C1197.44 56.3907 1180.22 38.3093 1150.39 38.3093H1127.41V139.704H1150.39Z" stroke="white" stroke-width="2" stroke-miterlimit="10"/>
<path d="M1283.8 170.638H1247.76V7.36133H1283.8V170.638Z" stroke="white" stroke-width="2" stroke-miterlimit="10"/>
<path d="M1291.91 170.638L1348.15 7.36133H1398.67L1454.11 170.638H1415.73L1404.78 134.721H1340.63L1329.57 170.638H1291.93H1291.91ZM1395.82 105.27L1372.95 30.0175L1349.74 105.27H1395.82Z" stroke="white" stroke-width="2" stroke-miterlimit="10"/>
</svg>
