<svg width="1844" height="161" viewBox="0 0 1844 161" fill="none" xmlns="http://www.w3.org/2000/svg">
<path d="M0 155.851V5.0957H74.5551C108.381 5.0957 128.983 22.8536 128.983 50.6751C128.983 75.0203 112.595 90.9849 87.2003 91.776C99.1076 92.6184 108.328 100.735 114.915 115.488L133.04 155.851H96.1052L77.822 115.593C72.4483 103.684 67.6013 100.417 55.1652 100.417H33.2996V155.851H0ZM70.7083 73.5446C86.4625 73.5446 95.683 65.9037 95.683 52.7308C95.683 39.5579 86.7249 32.6015 70.6551 32.6015H33.2996V73.5446H70.7083Z" fill="white"/>
<path d="M248.534 5.14697V33.4972H177.719V67.1683H242.422V94.0408H177.719V127.501H250.429V155.849H144.419V5.14697H248.534Z" fill="white"/>
<path d="M386.579 52.6774H354.648C354.648 38.1866 342.161 29.1232 323.404 29.1232C307.703 29.1232 293.003 35.393 293.003 48.0924C293.003 60.1072 304.805 62.0564 326.882 65.3235L333.047 66.2192C358.233 69.9598 391.637 74.9137 391.637 110.692C391.637 142.36 365.502 159.011 325.196 159.011C281.78 159.011 257.543 139.673 257.543 106.951H289.473C289.473 122.602 303.014 131.928 324.986 131.928C343.692 131.928 358.655 125.131 358.655 111.376C358.655 97.6215 346.483 96.3588 325.829 93.4607L317.873 92.3006C293.056 88.8224 259.967 84.2907 259.967 49.9883C259.967 18.6887 287.682 2.0376 323.826 2.0376C362.5 2.0376 386.579 21.1646 386.579 52.6754V52.6774Z" fill="white"/>
<path d="M521.093 33.4972H474.304V155.851H441.004V33.4972H394.215V5.14697H521.091V33.4972H521.093Z" fill="white"/>
<path d="M596.705 1.98633C639.701 1.98633 669.996 33.1814 669.996 80.4989C669.996 127.816 639.699 159.011 596.705 159.011C553.712 159.011 523.468 127.816 523.468 80.4989C523.468 33.1814 553.71 1.98633 596.705 1.98633ZM596.705 130.454C621.996 130.454 636.485 112.696 636.485 80.5009C636.485 48.3055 621.996 30.5477 596.705 30.5477C571.415 30.5477 556.977 48.3055 556.977 80.5009C556.977 112.696 571.413 130.454 596.705 130.454Z" fill="white"/>
<path d="M752.663 5.14893C783.749 5.14893 803.981 19.7975 803.981 43.3517C803.981 62.2163 790.914 75.7582 772.947 77.8652C794.654 79.8677 810.355 94.6741 810.355 115.277C810.355 140.096 787.541 155.851 754.504 155.851H677.262V5.14893H752.661H752.663ZM770.999 49.2013C770.999 37.9776 762.832 31.8123 749.185 31.8123H710.563V67.8016H749.236C762.357 67.8016 770.997 60.7939 770.997 49.2013H770.999ZM752.136 129.19C768.681 129.19 777.058 123.289 777.058 110.641C777.058 97.9925 768.68 92.1449 752.188 92.1449H710.563V129.188H752.134L752.136 129.19Z" stroke="white" stroke-width="3" stroke-miterlimit="10"/>
<path d="M821.262 155.851V5.0957H895.818C929.644 5.0957 950.245 22.8536 950.245 50.6751C950.245 75.0184 933.86 90.9849 908.463 91.776C920.37 92.6184 929.591 100.733 936.178 115.488L954.303 155.851H917.368L899.084 115.593C893.711 103.684 888.864 100.417 876.428 100.417H854.562V155.851H821.262ZM891.973 73.5427C907.727 73.5427 916.947 65.9017 916.947 52.7288C916.947 39.5559 907.991 32.5996 891.919 32.5996H854.562V73.5427H891.971H891.973Z" stroke="white" stroke-width="3" stroke-miterlimit="10"/>
<path d="M958.57 155.851L1010.52 5.14893H1057.2L1108.42 155.853H1072.96L1062.84 122.709H1003.57L993.345 155.853H958.57V155.851ZM1054.57 95.5165L1033.44 26.0673L1012 95.5165H1054.57Z" stroke="white" stroke-width="3" stroke-miterlimit="10"/>
<path d="M1253.84 155.851H1206.58L1147.78 34.9196V155.851H1115.85V5.14893H1166.22L1221.91 118.915V5.14893H1253.84V155.851Z" stroke="white" stroke-width="3" stroke-miterlimit="10"/>
<path d="M1268.38 5.14893H1323.33C1368.75 5.14893 1399.58 34.8151 1399.58 80.501C1399.58 126.187 1368.75 155.853 1323.33 155.853H1268.38V5.14893ZM1322.6 127.292C1350.16 127.292 1366.07 110.587 1366.07 80.499C1366.07 50.4107 1350.16 33.7063 1322.6 33.7063H1301.36V127.29H1322.6V127.292Z" stroke="white" stroke-width="3" stroke-miterlimit="10"/>
<path d="M1445.83 155.851H1412.53V5.14893H1445.83V155.851Z" stroke="white" stroke-width="3" stroke-miterlimit="10"/>
<path d="M1598.42 155.851H1551.16L1492.36 34.9196V155.851H1460.43V5.14893H1510.8L1566.49 118.915V5.14893H1598.42V155.851Z" stroke="white" stroke-width="3" stroke-miterlimit="10"/>
<path d="M1683.99 131.032C1706.38 131.032 1723.08 117.701 1724.35 97.7813H1682.35V75.2294H1756.01V155.851H1724.82V118.386C1716.81 143.309 1697.53 159.013 1672.55 159.013C1637.15 159.013 1611.38 127.134 1611.38 80.5009C1611.38 33.868 1641.63 1.98633 1684.57 1.98633C1720.13 1.98633 1748.16 23.9602 1754.49 59.4227H1721.4C1716.97 40.4535 1703.27 30.5457 1684.62 30.5457C1659.33 30.5457 1644.89 48.3035 1644.89 80.4989C1644.89 112.694 1658.86 131.032 1683.99 131.032Z" stroke="white" stroke-width="3" stroke-miterlimit="10"/>
<circle cx="1808" cy="124" r="36" fill="#FF1D30"/>
</svg>
