<svg width="1639" height="176" viewBox="0 0 1639 176" fill="none" xmlns="http://www.w3.org/2000/svg">
<circle cx="1603" cy="139" r="36" fill="#FF1D30"/>
<path d="M0 170.459V5.48193H81.5921C118.611 5.48193 141.157 24.9151 141.157 55.3612C141.157 82.0032 123.223 99.4738 95.4307 100.34C108.462 101.261 118.553 110.144 125.761 126.289L145.598 170.459H105.176L85.1672 126.403C79.2863 113.371 73.9819 109.796 60.372 109.796H36.4426V170.459H0ZM77.3822 80.3883C94.6233 80.3883 104.714 72.0265 104.714 57.6109C104.714 43.1953 94.9104 35.5827 77.3239 35.5827H36.4426V80.3883H77.3822Z" fill="white"/>
<path d="M271.992 5.53809V36.5629H194.493V73.4105H265.303V102.818H194.493V139.435H274.066V170.457H158.05V5.53809H271.992Z" fill="white"/>
<path d="M423.066 57.5529H388.122C388.122 41.695 374.456 31.7766 353.929 31.7766C336.746 31.7766 320.658 38.6401 320.658 52.5354C320.658 65.6836 333.575 67.8167 357.735 71.392L364.482 72.3722C392.045 76.4657 428.602 81.8869 428.602 121.04C428.602 155.697 400 173.918 355.889 173.918C308.376 173.918 281.851 152.756 281.851 116.947H316.796C316.796 134.074 331.614 144.28 355.66 144.28C376.131 144.28 392.507 136.84 392.507 121.789C392.507 106.739 379.186 105.355 356.582 102.184L347.875 100.914C320.716 97.1078 284.505 92.1486 284.505 54.6101C284.505 20.3577 314.835 2.13574 354.391 2.13574C396.715 2.13574 423.066 23.0672 423.066 57.5507V57.5529Z" fill="white"/>
<path d="M570.277 36.5629H519.071V170.46H482.629V36.5629H431.423V5.53809H570.274V36.5629H570.277Z" fill="white"/>
<path d="M653.026 2.07959C700.079 2.07959 733.234 36.2176 733.234 87.999C733.234 139.78 700.077 173.918 653.026 173.918C605.974 173.918 572.876 139.78 572.876 87.999C572.876 36.2176 605.972 2.07959 653.026 2.07959ZM653.026 142.667C680.703 142.667 696.56 123.234 696.56 88.0012C696.56 52.7685 680.703 33.3354 653.026 33.3354C625.348 33.3354 609.547 52.7685 609.547 88.0012C609.547 123.234 625.346 142.667 653.026 142.667Z" fill="white"/>
<path d="M937.358 5.54053V170.46H900.915V36.1594L858.188 170.46H818.401L776.134 36.1011V170.46H741.19V5.54053H799.66L839.908 133.267L880.559 5.54053H937.355H937.358Z" stroke="white" stroke-width="3" stroke-miterlimit="10"/>
<path d="M1067.21 5.54053V36.5631H989.712V73.4107H1060.52V102.818H989.712V139.435H1069.29V170.458H953.269V5.54053H1067.21Z" stroke="white" stroke-width="3" stroke-miterlimit="10"/>
<path d="M1081.22 170.459V5.48193H1162.81C1199.83 5.48193 1222.38 24.9151 1222.38 55.3612C1222.38 82.0032 1204.44 99.4738 1176.65 100.34C1189.68 101.261 1199.77 110.144 1206.98 126.289L1226.82 170.459H1186.4L1166.39 126.403C1160.51 113.371 1155.2 109.796 1141.59 109.796H1117.66V170.459H1081.22ZM1158.6 80.3883C1175.84 80.3883 1185.94 72.0265 1185.94 57.6109C1185.94 43.1953 1176.13 35.5827 1158.55 35.5827H1117.66V80.3883H1158.6H1158.6Z" stroke="white" stroke-width="3" stroke-miterlimit="10"/>
<path d="M1312.97 142.667C1335.05 142.667 1348.6 129.694 1352.99 104.146H1389.2C1382.97 147.568 1354.25 173.921 1312.91 173.921C1265.92 173.921 1232.82 139.783 1232.82 88.0012C1232.82 36.2198 1265.92 2.07959 1312.91 2.07959C1354.25 2.07959 1382.97 28.4323 1389.2 71.854H1352.99C1348.6 46.2505 1335.05 33.3332 1312.97 33.3332C1285.29 33.3332 1269.49 52.7663 1269.49 87.999C1269.49 123.232 1285.29 142.665 1312.97 142.665V142.667Z" stroke="white" stroke-width="3" stroke-miterlimit="10"/>
<path d="M1545.92 170.46H1509.48V103.801H1440.51V170.462H1404.07V5.54053H1440.51V72.545H1509.48V5.54053H1545.92V170.46Z" stroke="white" stroke-width="3" stroke-miterlimit="10"/>
</svg>
