<svg width="839" height="413" viewBox="0 0 839 413" fill="none" xmlns="http://www.w3.org/2000/svg">
<path d="M23.8789 33V25H26.7305C27.3503 25 27.8646 25.1068 28.2734 25.3203C28.6849 25.5339 28.9922 25.8294 29.1953 26.207C29.3984 26.582 29.5 27.0156 29.5 27.5078C29.5 27.9974 29.3971 28.4284 29.1914 28.8008C28.9883 29.1706 28.681 29.4583 28.2695 29.6641C27.8607 29.8698 27.3464 29.9727 26.7266 29.9727H24.5664V28.9336H26.6172C27.0078 28.9336 27.3255 28.8776 27.5703 28.7656C27.8177 28.6536 27.9987 28.4909 28.1133 28.2773C28.2279 28.0638 28.2852 27.8073 28.2852 27.5078C28.2852 27.2057 28.2266 26.944 28.1094 26.7227C27.9948 26.5013 27.8138 26.332 27.5664 26.2148C27.3216 26.0951 27 26.0352 26.6016 26.0352H25.0859V33H23.8789ZM27.8281 29.3906L29.8047 33H28.4297L26.4922 29.3906H27.8281ZM33.3846 33.1211C32.7935 33.1211 32.2844 32.9948 31.8573 32.7422C31.4328 32.487 31.1047 32.1289 30.8729 31.668C30.6438 31.2044 30.5292 30.6615 30.5292 30.0391C30.5292 29.4245 30.6438 28.8828 30.8729 28.4141C31.1047 27.9453 31.4276 27.5794 31.8417 27.3164C32.2583 27.0534 32.7453 26.9219 33.3026 26.9219C33.6412 26.9219 33.9693 26.9779 34.287 27.0898C34.6047 27.2018 34.8899 27.3776 35.1425 27.6172C35.3951 27.8568 35.5943 28.168 35.7401 28.5508C35.8859 28.931 35.9589 29.3932 35.9589 29.9375V30.3516H31.1893V29.4766H34.8143C34.8143 29.1693 34.7518 28.8971 34.6268 28.6602C34.5018 28.4206 34.326 28.2318 34.0995 28.0937C33.8755 27.9557 33.6125 27.8867 33.3104 27.8867C32.9823 27.8867 32.6958 27.9674 32.451 28.1289C32.2089 28.2878 32.0214 28.4961 31.8885 28.7539C31.7583 29.0091 31.6932 29.2865 31.6932 29.5859V30.2695C31.6932 30.6706 31.7635 31.0117 31.9042 31.293C32.0474 31.5742 32.2466 31.7891 32.5018 31.9375C32.757 32.0833 33.0552 32.1562 33.3964 32.1562C33.6177 32.1562 33.8195 32.125 34.0018 32.0625C34.1841 31.9974 34.3417 31.901 34.4745 31.7734C34.6073 31.6458 34.7089 31.4883 34.7792 31.3008L35.8846 31.5C35.7961 31.8255 35.6372 32.1107 35.4081 32.3555C35.1815 32.5977 34.8964 32.7865 34.5526 32.9219C34.2115 33.0547 33.8221 33.1211 33.3846 33.1211ZM42.2146 27L40.0388 33H38.7888L36.6091 27H37.863L39.3826 31.6172H39.4451L40.9607 27H42.2146ZM45.693 33.1211C45.1018 33.1211 44.5927 32.9948 44.1656 32.7422C43.7412 32.487 43.413 32.1289 43.1813 31.668C42.9521 31.2044 42.8375 30.6615 42.8375 30.0391C42.8375 29.4245 42.9521 28.8828 43.1813 28.4141C43.413 27.9453 43.736 27.5794 44.15 27.3164C44.5667 27.0534 45.0537 26.9219 45.611 26.9219C45.9495 26.9219 46.2776 26.9779 46.5953 27.0898C46.913 27.2018 47.1982 27.3776 47.4508 27.6172C47.7034 27.8568 47.9026 28.168 48.0485 28.5508C48.1943 28.931 48.2672 29.3932 48.2672 29.9375V30.3516H43.4977V29.4766H47.1227C47.1227 29.1693 47.0602 28.8971 46.9352 28.6602C46.8102 28.4206 46.6344 28.2318 46.4078 28.0937C46.1839 27.9557 45.9209 27.8867 45.6188 27.8867C45.2906 27.8867 45.0042 27.9674 44.7594 28.1289C44.5172 28.2878 44.3297 28.4961 44.1969 28.7539C44.0667 29.0091 44.0016 29.2865 44.0016 29.5859V30.2695C44.0016 30.6706 44.0719 31.0117 44.2125 31.293C44.3557 31.5742 44.555 31.7891 44.8102 31.9375C45.0654 32.0833 45.3636 32.1562 45.7047 32.1562C45.9261 32.1562 46.1279 32.125 46.3102 32.0625C46.4925 31.9974 46.65 31.901 46.7828 31.7734C46.9156 31.6458 47.0172 31.4883 47.0875 31.3008L48.193 31.5C48.1044 31.8255 47.9456 32.1107 47.7164 32.3555C47.4899 32.5977 47.2047 32.7865 46.861 32.9219C46.5198 33.0547 46.1305 33.1211 45.693 33.1211ZM50.73 29.4375V33H49.562V27H50.6831V27.9766H50.7573C50.8953 27.6589 51.1115 27.4036 51.4058 27.2109C51.7026 27.0182 52.0763 26.9219 52.5268 26.9219C52.9357 26.9219 53.2938 27.0078 53.6011 27.1797C53.9084 27.349 54.1466 27.6016 54.3159 27.9375C54.4852 28.2734 54.5698 28.6888 54.5698 29.1836V33H53.4018V29.3242C53.4018 28.8893 53.2886 28.5495 53.062 28.3047C52.8354 28.0573 52.5242 27.9336 52.1284 27.9336C51.8576 27.9336 51.6167 27.9922 51.4058 28.1094C51.1974 28.2266 51.0321 28.3984 50.9097 28.625C50.7899 28.849 50.73 29.1198 50.73 29.4375ZM59.9359 30.5117V27H61.1078V33H59.9593V31.9609H59.8968C59.7588 32.2813 59.5375 32.5482 59.2328 32.7617C58.9307 32.9727 58.5544 33.0781 58.1039 33.0781C57.7185 33.0781 57.3773 32.9935 57.0804 32.8242C56.7862 32.6523 56.5544 32.3984 56.3851 32.0625C56.2185 31.7266 56.1351 31.3112 56.1351 30.8164V27H57.3031V30.6758C57.3031 31.0846 57.4164 31.4102 57.6429 31.6523C57.8695 31.8945 58.1638 32.0156 58.5257 32.0156C58.7445 32.0156 58.9619 31.9609 59.1781 31.8516C59.3968 31.7422 59.5778 31.5768 59.7211 31.3555C59.8669 31.1341 59.9385 30.8529 59.9359 30.5117ZM65.262 33.1211C64.6708 33.1211 64.1617 32.9948 63.7346 32.7422C63.3101 32.487 62.982 32.1289 62.7502 31.668C62.5211 31.2044 62.4065 30.6615 62.4065 30.0391C62.4065 29.4245 62.5211 28.8828 62.7502 28.4141C62.982 27.9453 63.3049 27.5794 63.719 27.3164C64.1357 27.0534 64.6226 26.9219 65.1799 26.9219C65.5185 26.9219 65.8466 26.9779 66.1643 27.0898C66.482 27.2018 66.7672 27.3776 67.0198 27.6172C67.2724 27.8568 67.4716 28.168 67.6174 28.5508C67.7633 28.931 67.8362 29.3932 67.8362 29.9375V30.3516H63.0666V29.4766H66.6916C66.6916 29.1693 66.6291 28.8971 66.5041 28.6602C66.3791 28.4206 66.2034 28.2318 65.9768 28.0937C65.7528 27.9557 65.4898 27.8867 65.1877 27.8867C64.8596 27.8867 64.5732 27.9674 64.3284 28.1289C64.0862 28.2878 63.8987 28.4961 63.7659 28.7539C63.6357 29.0091 63.5705 29.2865 63.5705 29.5859V30.2695C63.5705 30.6706 63.6409 31.0117 63.7815 31.293C63.9247 31.5742 64.1239 31.7891 64.3791 31.9375C64.6344 32.0833 64.9325 32.1562 65.2737 32.1562C65.495 32.1562 65.6969 32.125 65.8791 32.0625C66.0614 31.9974 66.219 31.901 66.3518 31.7734C66.4846 31.6458 66.5862 31.4883 66.6565 31.3008L67.762 31.5C67.6734 31.8255 67.5146 32.1107 67.2854 32.3555C67.0588 32.5977 66.7737 32.7865 66.4299 32.9219C66.0888 33.0547 65.6995 33.1211 65.262 33.1211Z" fill="#9C9C9C"/>
<path d="M113.422 64.5341V58.7727H114.568V64.5341H113.422ZM111.116 62.2244V61.0824H116.878V62.2244H111.116ZM122.142 57.2727V66H120.821V58.5938H120.769L118.681 59.9574V58.696L120.859 57.2727H122.142ZM127.54 66.1449C126.866 66.142 126.291 65.9645 125.814 65.6122C125.336 65.2599 124.971 64.7472 124.718 64.0739C124.466 63.4006 124.339 62.5895 124.339 61.6406C124.339 60.6946 124.466 59.8864 124.718 59.2159C124.974 58.5455 125.341 58.0341 125.818 57.6818C126.298 57.3295 126.872 57.1534 127.54 57.1534C128.207 57.1534 128.78 57.331 129.257 57.6861C129.734 58.0384 130.099 58.5497 130.352 59.2202C130.608 59.8878 130.736 60.6946 130.736 61.6406C130.736 62.5923 130.609 63.4048 130.356 64.0781C130.103 64.7486 129.738 65.2614 129.261 65.6165C128.784 65.9688 128.21 66.1449 127.54 66.1449ZM127.54 65.0071C128.13 65.0071 128.592 64.7188 128.924 64.142C129.26 63.5653 129.427 62.7315 129.427 61.6406C129.427 60.9162 129.351 60.304 129.197 59.804C129.047 59.3011 128.829 58.9205 128.545 58.6619C128.264 58.4006 127.929 58.2699 127.54 58.2699C126.951 58.2699 126.49 58.5597 126.155 59.1392C125.819 59.7187 125.65 60.5526 125.647 61.6406C125.647 62.3679 125.723 62.983 125.873 63.4858C126.027 63.9858 126.244 64.3651 126.525 64.6236C126.807 64.8793 127.145 65.0071 127.54 65.0071ZM132.786 66.081C132.553 66.081 132.353 65.9986 132.185 65.8338C132.018 65.6662 131.934 65.4645 131.934 65.2287C131.934 64.9957 132.018 64.7969 132.185 64.6321C132.353 64.4645 132.553 64.3807 132.786 64.3807C133.019 64.3807 133.219 64.4645 133.387 64.6321C133.555 64.7969 133.638 64.9957 133.638 65.2287C133.638 65.3849 133.599 65.5284 133.519 65.6591C133.442 65.7869 133.34 65.8892 133.212 65.9659C133.084 66.0426 132.942 66.081 132.786 66.081ZM135.398 66L139.208 58.4659V58.402H134.802V57.2727H140.572V58.4403L136.775 66H135.398ZM146.608 64.3636V63.9034C146.608 63.5739 146.676 63.2727 146.812 63C146.951 62.7244 147.153 62.5043 147.417 62.3395C147.684 62.1719 148.007 62.0881 148.385 62.0881C148.771 62.0881 149.095 62.1705 149.356 62.3352C149.618 62.5 149.815 62.7202 149.949 62.9957C150.085 63.2713 150.153 63.5739 150.153 63.9034V64.3636C150.153 64.6932 150.085 64.9957 149.949 65.2713C149.812 65.544 149.612 65.7642 149.348 65.9318C149.086 66.0966 148.765 66.179 148.385 66.179C148.001 66.179 147.677 66.0966 147.413 65.9318C147.149 65.7642 146.949 65.544 146.812 65.2713C146.676 64.9957 146.608 64.6932 146.608 64.3636ZM147.601 63.9034V64.3636C147.601 64.608 147.659 64.8295 147.775 65.0284C147.892 65.2273 148.095 65.3267 148.385 65.3267C148.672 65.3267 148.872 65.2273 148.985 65.0284C149.099 64.8295 149.156 64.608 149.156 64.3636V63.9034C149.156 63.6591 149.101 63.4375 148.99 63.2386C148.882 63.0398 148.68 62.9403 148.385 62.9403C148.101 62.9403 147.899 63.0398 147.78 63.2386C147.66 63.4375 147.601 63.6591 147.601 63.9034ZM142.218 59.3693V58.9091C142.218 58.5795 142.287 58.277 142.423 58.0014C142.562 57.7259 142.764 57.5057 143.028 57.3409C143.295 57.1761 143.618 57.0938 143.995 57.0938C144.382 57.0938 144.706 57.1761 144.967 57.3409C145.228 57.5057 145.426 57.7259 145.559 58.0014C145.693 58.277 145.76 58.5795 145.76 58.9091V59.3693C145.76 59.6989 145.691 60.0014 145.555 60.277C145.422 60.5497 145.223 60.7699 144.958 60.9375C144.697 61.1023 144.376 61.1847 143.995 61.1847C143.609 61.1847 143.284 61.1023 143.02 60.9375C142.758 60.7699 142.559 60.5497 142.423 60.277C142.287 60.0014 142.218 59.6989 142.218 59.3693ZM143.216 58.9091V59.3693C143.216 59.6136 143.272 59.8352 143.386 60.0341C143.503 60.233 143.706 60.3324 143.995 60.3324C144.28 60.3324 144.478 60.233 144.592 60.0341C144.708 59.8352 144.767 59.6136 144.767 59.3693V58.9091C144.767 58.6648 144.711 58.4432 144.601 58.2443C144.49 58.0455 144.288 57.946 143.995 57.946C143.711 57.946 143.51 58.0455 143.39 58.2443C143.274 58.4432 143.216 58.6648 143.216 58.9091ZM142.623 66L148.623 57.2727H149.642L143.642 66H142.623Z" fill="#01E88F"/>
<path d="M27.2386 173.099C26.9143 173.095 26.5947 173.036 26.2798 172.922C25.9673 172.808 25.6832 172.619 25.4276 172.354C25.1719 172.089 24.9671 171.732 24.8132 171.285C24.6617 170.837 24.5859 170.279 24.5859 169.609C24.5859 168.974 24.6487 168.411 24.7741 167.918C24.902 167.426 25.0855 167.01 25.3246 166.672C25.5637 166.331 25.8525 166.072 26.1911 165.894C26.5296 165.717 26.9096 165.628 27.331 165.628C27.7642 165.628 28.1489 165.713 28.4851 165.884C28.8213 166.054 29.0935 166.29 29.3018 166.59C29.5125 166.891 29.6463 167.233 29.7031 167.616H28.62C28.5466 167.313 28.401 167.066 28.1832 166.874C27.9654 166.683 27.6813 166.587 27.331 166.587C26.7983 166.587 26.3828 166.819 26.0845 167.283C25.7886 167.747 25.6394 168.392 25.6371 169.218H25.6903C25.8158 169.012 25.9697 168.837 26.152 168.692C26.3366 168.546 26.5426 168.433 26.7699 168.355C26.9995 168.275 27.241 168.234 27.4943 168.234C27.9157 168.234 28.2969 168.337 28.6378 168.543C28.9811 168.747 29.2545 169.029 29.4581 169.388C29.6617 169.748 29.7635 170.16 29.7635 170.624C29.7635 171.088 29.6581 171.509 29.4474 171.885C29.2391 172.261 28.9455 172.56 28.5668 172.78C28.188 172.998 27.7453 173.104 27.2386 173.099ZM27.2351 172.176C27.5144 172.176 27.7642 172.107 27.9844 171.97C28.2045 171.833 28.3786 171.648 28.5064 171.416C28.6342 171.184 28.6982 170.925 28.6982 170.638C28.6982 170.359 28.6354 170.105 28.5099 169.875C28.3868 169.645 28.2164 169.463 27.9986 169.328C27.7831 169.193 27.5369 169.126 27.2599 169.126C27.0492 169.126 26.8539 169.166 26.674 169.246C26.4964 169.327 26.3402 169.438 26.2053 169.58C26.0703 169.722 25.9638 169.886 25.8857 170.07C25.8099 170.253 25.772 170.446 25.772 170.649C25.772 170.921 25.8348 171.174 25.9602 171.406C26.0881 171.638 26.2621 171.825 26.4822 171.967C26.7048 172.106 26.9557 172.176 27.2351 172.176ZM33.588 173.121C33.0269 173.118 32.5475 172.97 32.1497 172.677C31.752 172.383 31.4478 171.956 31.2371 171.395C31.0264 170.834 30.9211 170.158 30.9211 169.367C30.9211 168.579 31.0264 167.905 31.2371 167.347C31.4502 166.788 31.7556 166.362 32.1533 166.068C32.5534 165.775 33.0316 165.628 33.588 165.628C34.1443 165.628 34.6213 165.776 35.0191 166.072C35.4168 166.365 35.721 166.791 35.9317 167.35C36.1448 167.906 36.2513 168.579 36.2513 169.367C36.2513 170.16 36.146 170.837 35.9353 171.398C35.7246 171.957 35.4203 172.384 35.0226 172.68C34.6249 172.974 34.1467 173.121 33.588 173.121ZM33.588 172.173C34.0804 172.173 34.4651 171.932 34.7421 171.452C35.0214 170.971 35.1611 170.276 35.1611 169.367C35.1611 168.763 35.0972 168.253 34.9693 167.837C34.8439 167.418 34.6628 167.1 34.426 166.885C34.1916 166.667 33.9123 166.558 33.588 166.558C33.0979 166.558 32.7132 166.8 32.4338 167.283C32.1545 167.766 32.0136 168.46 32.0113 169.367C32.0113 169.973 32.074 170.486 32.1995 170.905C32.3273 171.321 32.5084 171.638 32.7428 171.853C32.9772 172.066 33.2589 172.173 33.588 172.173ZM37.6095 173V165.727H38.7068V169.2H38.7956L41.846 165.727H43.2274L40.2942 169.001L43.2381 173H41.917L39.5662 169.751L38.7068 170.738V173H37.6095Z" fill="#9C9C9C"/>
<path d="M27.157 112.099C26.648 112.099 26.1982 112.012 25.8075 111.837C25.4193 111.661 25.1151 111.42 24.8949 111.112C24.6747 110.804 24.5658 110.454 24.5682 110.061C24.5658 109.753 24.6286 109.47 24.7564 109.212C24.8866 108.952 25.063 108.735 25.2855 108.562C25.508 108.387 25.7566 108.276 26.0312 108.229V108.186C25.669 108.098 25.379 107.904 25.1612 107.604C24.9434 107.303 24.8357 106.957 24.8381 106.567C24.8357 106.195 24.9339 105.864 25.1328 105.572C25.334 105.279 25.6098 105.048 25.9602 104.88C26.3106 104.712 26.7095 104.628 27.157 104.628C27.5997 104.628 27.995 104.713 28.343 104.884C28.6934 105.052 28.9692 105.282 29.1705 105.576C29.3717 105.867 29.4735 106.197 29.4759 106.567C29.4735 106.957 29.3622 107.303 29.142 107.604C28.9219 107.904 28.6354 108.098 28.2827 108.186V108.229C28.5549 108.276 28.8 108.387 29.0178 108.562C29.2379 108.735 29.4131 108.952 29.5433 109.212C29.6759 109.47 29.7434 109.753 29.7457 110.061C29.7434 110.454 29.6321 110.804 29.4119 111.112C29.1918 111.42 28.8864 111.661 28.4957 111.837C28.1075 112.012 27.6612 112.099 27.157 112.099ZM27.157 111.201C27.4576 111.201 27.718 111.151 27.9382 111.052C28.1584 110.95 28.3288 110.809 28.4496 110.629C28.5703 110.447 28.6319 110.234 28.6342 109.99C28.6319 109.737 28.5656 109.513 28.4354 109.319C28.3075 109.125 28.1335 108.972 27.9134 108.861C27.6932 108.75 27.4411 108.694 27.157 108.694C26.8705 108.694 26.616 108.75 26.3935 108.861C26.1709 108.972 25.9957 109.125 25.8679 109.319C25.7401 109.513 25.6773 109.737 25.6797 109.99C25.6773 110.234 25.7353 110.447 25.8537 110.629C25.9744 110.809 26.1461 110.95 26.3686 111.052C26.5911 111.151 26.8539 111.201 27.157 111.201ZM27.157 107.817C27.3984 107.817 27.6127 107.768 27.7997 107.671C27.9867 107.574 28.1335 107.439 28.2401 107.266C28.349 107.094 28.4046 106.891 28.407 106.659C28.4046 106.432 28.3501 106.233 28.2436 106.062C28.1394 105.892 27.9938 105.761 27.8068 105.668C27.6198 105.574 27.4032 105.526 27.157 105.526C26.906 105.526 26.6858 105.574 26.4964 105.668C26.3094 105.761 26.1638 105.892 26.0597 106.062C25.9555 106.233 25.9046 106.432 25.907 106.659C25.9046 106.891 25.9567 107.094 26.0632 107.266C26.1697 107.439 26.3165 107.574 26.5036 107.671C26.6929 107.768 26.9107 107.817 27.157 107.817ZM33.5489 112.121C32.9878 112.118 32.5084 111.97 32.1107 111.677C31.713 111.383 31.4087 110.956 31.198 110.395C30.9873 109.834 30.882 109.158 30.882 108.367C30.882 107.579 30.9873 106.905 31.198 106.347C31.4111 105.788 31.7165 105.362 32.1142 105.068C32.5143 104.775 32.9925 104.628 33.5489 104.628C34.1052 104.628 34.5823 104.776 34.98 105.072C35.3777 105.365 35.6819 105.791 35.8926 106.35C36.1057 106.906 36.2122 107.579 36.2122 108.367C36.2122 109.16 36.1069 109.837 35.8962 110.398C35.6855 110.957 35.3813 111.384 34.9836 111.68C34.5858 111.974 34.1076 112.121 33.5489 112.121ZM33.5489 111.173C34.0413 111.173 34.426 110.932 34.703 110.452C34.9824 109.971 35.122 109.276 35.122 108.367C35.122 107.763 35.0581 107.253 34.9303 106.837C34.8048 106.418 34.6237 106.1 34.387 105.885C34.1526 105.667 33.8732 105.558 33.5489 105.558C33.0588 105.558 32.6741 105.8 32.3948 106.283C32.1154 106.766 31.9746 107.46 31.9722 108.367C31.9722 108.973 32.0349 109.486 32.1604 109.905C32.2882 110.321 32.4693 110.638 32.7037 110.853C32.9381 111.066 33.2198 111.173 33.5489 111.173ZM37.5704 112V104.727H38.6677V108.2H38.7565L41.8069 104.727H43.1883L40.2551 108.001L43.199 112H41.878L39.5271 108.751L38.6677 109.738V112H37.5704Z" fill="#9C9C9C"/>
<path d="M24.5469 234.58V233.692L27.6896 228.727H28.3892V230.034H27.9453L25.6974 233.592V233.649H30.005V234.58H24.5469ZM27.995 236V234.31L28.0021 233.905V228.727H29.0426V236H27.995ZM33.7735 236.121C33.2124 236.118 32.733 235.97 32.3353 235.677C31.9376 235.383 31.6334 234.956 31.4227 234.395C31.2119 233.834 31.1066 233.158 31.1066 232.367C31.1066 231.579 31.2119 230.905 31.4227 230.347C31.6357 229.788 31.9411 229.362 32.3388 229.068C32.7389 228.775 33.2172 228.628 33.7735 228.628C34.3298 228.628 34.8069 228.776 35.2046 229.072C35.6023 229.365 35.9066 229.791 36.1173 230.35C36.3303 230.906 36.4369 231.579 36.4369 232.367C36.4369 233.16 36.3315 233.837 36.1208 234.398C35.9101 234.957 35.6059 235.384 35.2082 235.68C34.8104 235.974 34.3322 236.121 33.7735 236.121ZM33.7735 235.173C34.2659 235.173 34.6506 234.932 34.9276 234.452C35.207 233.971 35.3467 233.276 35.3467 232.367C35.3467 231.763 35.2827 231.253 35.1549 230.837C35.0294 230.418 34.8483 230.1 34.6116 229.885C34.3772 229.667 34.0978 229.558 33.7735 229.558C33.2834 229.558 32.8987 229.8 32.6194 230.283C32.34 230.766 32.1992 231.46 32.1968 232.367C32.1968 232.973 32.2595 233.486 32.385 233.905C32.5128 234.321 32.694 234.638 32.9283 234.853C33.1627 235.066 33.4444 235.173 33.7735 235.173ZM37.7951 236V228.727H38.8924V232.2H38.9811L42.0316 228.727H43.413L40.4797 232.001L43.4236 236H42.1026L39.7517 232.751L38.8924 233.738V236H37.7951Z" fill="#9C9C9C"/>
<path d="M24.6996 298V297.205L27.1605 294.655C27.4233 294.378 27.6399 294.135 27.8104 293.927C27.9832 293.716 28.1122 293.516 28.1974 293.327C28.2827 293.137 28.3253 292.936 28.3253 292.723C28.3253 292.482 28.2685 292.273 28.1548 292.098C28.0412 291.92 27.8861 291.784 27.6896 291.69C27.4931 291.593 27.2718 291.544 27.0256 291.544C26.7652 291.544 26.5379 291.597 26.3438 291.704C26.1496 291.81 26.0005 291.961 25.8963 292.155C25.7921 292.349 25.7401 292.576 25.7401 292.837H24.6925C24.6925 292.394 24.7943 292.007 24.9979 291.675C25.2015 291.344 25.4808 291.087 25.8359 290.905C26.1911 290.72 26.5947 290.628 27.0469 290.628C27.5038 290.628 27.9063 290.719 28.2543 290.901C28.6046 291.081 28.8781 291.327 29.0746 291.64C29.2711 291.95 29.3693 292.3 29.3693 292.691C29.3693 292.961 29.3184 293.225 29.2166 293.483C29.1172 293.741 28.9432 294.029 28.6946 294.346C28.446 294.661 28.1004 295.043 27.6577 295.493L26.2124 297.006V297.059H29.4865V298H24.6996ZM33.3633 298.121C32.8023 298.118 32.3229 297.97 31.9251 297.677C31.5274 297.383 31.2232 296.956 31.0125 296.395C30.8018 295.834 30.6964 295.158 30.6964 294.367C30.6964 293.579 30.8018 292.905 31.0125 292.347C31.2256 291.788 31.531 291.362 31.9287 291.068C32.3288 290.775 32.807 290.628 33.3633 290.628C33.9197 290.628 34.3967 290.776 34.7945 291.072C35.1922 291.365 35.4964 291.791 35.7071 292.35C35.9202 292.906 36.0267 293.579 36.0267 294.367C36.0267 295.16 35.9213 295.837 35.7106 296.398C35.4999 296.957 35.1957 297.384 34.798 297.68C34.4003 297.974 33.9221 298.121 33.3633 298.121ZM33.3633 297.173C33.8558 297.173 34.2405 296.932 34.5175 296.452C34.7968 295.971 34.9365 295.276 34.9365 294.367C34.9365 293.763 34.8726 293.253 34.7447 292.837C34.6193 292.418 34.4382 292.1 34.2014 291.885C33.967 291.667 33.6877 291.558 33.3633 291.558C32.8733 291.558 32.4886 291.8 32.2092 292.283C31.9299 292.766 31.789 293.46 31.7866 294.367C31.7866 294.973 31.8494 295.486 31.9749 295.905C32.1027 296.321 32.2838 296.638 32.5182 296.853C32.7526 297.066 33.0343 297.173 33.3633 297.173ZM37.3849 298V290.727H38.4822V294.2H38.571L41.6214 290.727H43.0028L40.0696 294.001L43.0134 298H41.6924L39.3416 294.751L38.4822 295.738V298H37.3849Z" fill="#9C9C9C"/>
<path d="M42.2315 359.121C41.6705 359.118 41.1911 358.97 40.7933 358.677C40.3956 358.383 40.0914 357.956 39.8807 357.395C39.67 356.834 39.5646 356.158 39.5646 355.367C39.5646 354.579 39.67 353.905 39.8807 353.347C40.0938 352.788 40.3991 352.362 40.7969 352.068C41.197 351.775 41.6752 351.628 42.2315 351.628C42.7879 351.628 43.2649 351.776 43.6626 352.072C44.0604 352.365 44.3646 352.791 44.5753 353.35C44.7884 353.906 44.8949 354.579 44.8949 355.367C44.8949 356.16 44.7895 356.837 44.5788 357.398C44.3681 357.957 44.0639 358.384 43.6662 358.68C43.2685 358.974 42.7902 359.121 42.2315 359.121ZM42.2315 358.173C42.724 358.173 43.1087 357.932 43.3857 357.452C43.665 356.971 43.8047 356.276 43.8047 355.367C43.8047 354.763 43.7408 354.253 43.6129 353.837C43.4875 353.418 43.3063 353.1 43.0696 352.885C42.8352 352.667 42.5559 352.558 42.2315 352.558C41.7415 352.558 41.3568 352.8 41.0774 353.283C40.7981 353.766 40.6572 354.46 40.6548 355.367C40.6548 355.973 40.7176 356.486 40.843 356.905C40.9709 357.321 41.152 357.638 41.3864 357.853C41.6207 358.066 41.9025 358.173 42.2315 358.173Z" fill="#9C9C9C"/>
<path d="M58.6257 375.727H59.7195V380.884C59.7195 381.35 59.6271 381.749 59.4425 382.08C59.2602 382.412 59.0033 382.665 58.6719 382.84C58.3404 383.013 57.9522 383.099 57.5071 383.099C57.0975 383.099 56.7294 383.025 56.4027 382.876C56.0784 382.727 55.8215 382.51 55.6321 382.226C55.4451 381.939 55.3516 381.591 55.3516 381.182H56.4418C56.4418 381.383 56.4879 381.557 56.5803 381.704C56.675 381.851 56.804 381.965 56.9673 382.048C57.133 382.129 57.3224 382.169 57.5355 382.169C57.7675 382.169 57.964 382.121 58.125 382.023C58.2884 381.924 58.4126 381.778 58.4979 381.587C58.5831 381.395 58.6257 381.161 58.6257 380.884V375.727ZM62.8177 383.121C62.4721 383.121 62.1596 383.057 61.8802 382.929C61.6009 382.799 61.3795 382.611 61.2162 382.364C61.0552 382.118 60.9747 381.816 60.9747 381.459C60.9747 381.151 61.0339 380.898 61.1522 380.699C61.2706 380.5 61.4304 380.343 61.6316 380.227C61.8329 380.111 62.0578 380.023 62.3064 379.964C62.5549 379.905 62.8082 379.86 63.0663 379.829C63.393 379.791 63.6582 379.76 63.8617 379.737C64.0653 379.71 64.2133 379.669 64.3056 379.612C64.398 379.555 64.4441 379.463 64.4441 379.335V379.31C64.4441 379 64.3565 378.76 64.1814 378.589C64.0085 378.419 63.7505 378.334 63.4072 378.334C63.0497 378.334 62.768 378.413 62.562 378.572C62.3584 378.728 62.2176 378.902 62.1394 379.094L61.1416 378.866C61.2599 378.535 61.4328 378.268 61.66 378.064C61.8897 377.858 62.1537 377.709 62.4519 377.616C62.7502 377.522 63.0639 377.474 63.393 377.474C63.6108 377.474 63.8416 377.5 64.0855 377.553C64.3317 377.602 64.5613 377.695 64.7744 377.83C64.9898 377.964 65.1662 378.157 65.3035 378.408C65.4408 378.657 65.5095 378.98 65.5095 379.378V383H64.4725V382.254H64.4299C64.3613 382.392 64.2583 382.527 64.121 382.659C63.9837 382.792 63.8073 382.902 63.5919 382.989C63.3764 383.077 63.1184 383.121 62.8177 383.121ZM63.0485 382.268C63.3421 382.268 63.593 382.21 63.8014 382.094C64.0121 381.978 64.1719 381.827 64.2808 381.64C64.3921 381.451 64.4477 381.248 64.4477 381.033V380.33C64.4098 380.367 64.3364 380.403 64.2275 380.436C64.121 380.467 63.9991 380.494 63.8617 380.518C63.7244 380.539 63.5907 380.559 63.4605 380.578C63.3303 380.595 63.2214 380.609 63.1338 380.621C62.9278 380.647 62.7396 380.691 62.5691 380.752C62.401 380.814 62.2661 380.902 62.1643 381.018C62.0649 381.132 62.0152 381.284 62.0152 381.473C62.0152 381.736 62.1122 381.935 62.3064 382.07C62.5005 382.202 62.7479 382.268 63.0485 382.268ZM67.9845 379.761V383H66.9227V377.545H67.9419V378.433H68.0094C68.1348 378.144 68.3313 377.912 68.5989 377.737C68.8687 377.562 69.2085 377.474 69.618 377.474C69.9897 377.474 70.3152 377.553 70.5946 377.709C70.8739 377.863 71.0906 378.092 71.2444 378.398C71.3983 378.703 71.4753 379.081 71.4753 379.531V383H70.4135V379.658C70.4135 379.263 70.3105 378.954 70.1045 378.732C69.8986 378.507 69.6157 378.394 69.2558 378.394C69.0096 378.394 68.7906 378.447 68.5989 378.554C68.4095 378.661 68.2591 378.817 68.1479 379.023C68.039 379.226 67.9845 379.473 67.9845 379.761Z" fill="#9C9C9C"/>
<path d="M121.799 383V375.727H126.309V376.672H122.896V378.888H125.986V379.829H122.896V383H121.799ZM129.523 383.11C128.985 383.11 128.522 382.995 128.134 382.766C127.748 382.534 127.45 382.208 127.239 381.789C127.031 381.368 126.927 380.874 126.927 380.308C126.927 379.75 127.031 379.257 127.239 378.831C127.45 378.405 127.743 378.072 128.12 377.833C128.499 377.594 128.941 377.474 129.448 377.474C129.756 377.474 130.054 377.525 130.343 377.627C130.632 377.729 130.891 377.889 131.121 378.107C131.35 378.324 131.531 378.607 131.664 378.955C131.797 379.301 131.863 379.721 131.863 380.216V380.592H127.527V379.797H130.822C130.822 379.518 130.766 379.27 130.652 379.055C130.538 378.837 130.378 378.665 130.172 378.54C129.969 378.414 129.73 378.352 129.455 378.352C129.157 378.352 128.896 378.425 128.674 378.572C128.454 378.716 128.283 378.906 128.163 379.14C128.044 379.372 127.985 379.624 127.985 379.896V380.518C127.985 380.882 128.049 381.192 128.177 381.448C128.307 381.704 128.488 381.899 128.72 382.034C128.952 382.167 129.223 382.233 129.533 382.233C129.734 382.233 129.918 382.205 130.084 382.148C130.249 382.089 130.393 382.001 130.513 381.885C130.634 381.769 130.726 381.626 130.79 381.455L131.795 381.636C131.715 381.932 131.57 382.192 131.362 382.414C131.156 382.634 130.897 382.806 130.584 382.929C130.274 383.05 129.92 383.11 129.523 383.11ZM133.125 383V375.727H134.187V378.43H134.251C134.312 378.316 134.401 378.185 134.517 378.036C134.633 377.886 134.794 377.756 135 377.645C135.206 377.531 135.478 377.474 135.817 377.474C136.257 377.474 136.65 377.586 136.996 377.808C137.342 378.031 137.613 378.352 137.809 378.771C138.008 379.19 138.107 379.694 138.107 380.283C138.107 380.873 138.009 381.378 137.813 381.8C137.616 382.219 137.346 382.542 137.003 382.769C136.66 382.994 136.268 383.107 135.828 383.107C135.496 383.107 135.225 383.051 135.014 382.94C134.806 382.828 134.643 382.698 134.524 382.549C134.406 382.4 134.315 382.267 134.251 382.151H134.162V383H133.125ZM134.166 380.273C134.166 380.656 134.221 380.992 134.333 381.281C134.444 381.57 134.605 381.796 134.815 381.96C135.026 382.121 135.284 382.201 135.59 382.201C135.907 382.201 136.172 382.117 136.385 381.949C136.598 381.778 136.759 381.548 136.868 381.256C136.979 380.965 137.035 380.637 137.035 380.273C137.035 379.913 136.98 379.59 136.872 379.303C136.765 379.017 136.604 378.791 136.389 378.625C136.176 378.459 135.909 378.376 135.59 378.376C135.282 378.376 135.021 378.456 134.808 378.614C134.598 378.773 134.438 378.994 134.329 379.278C134.22 379.562 134.166 379.894 134.166 380.273Z" fill="#9C9C9C"/>
<path d="M186.799 375.727H188.131L190.446 381.381H190.531L192.847 375.727H194.178V383H193.134V377.737H193.067L190.922 382.989H190.055L187.911 377.734H187.843V383H186.799V375.727ZM197.275 383.121C196.929 383.121 196.617 383.057 196.337 382.929C196.058 382.799 195.837 382.611 195.673 382.364C195.512 382.118 195.432 381.816 195.432 381.459C195.432 381.151 195.491 380.898 195.609 380.699C195.728 380.5 195.887 380.343 196.089 380.227C196.29 380.111 196.515 380.023 196.763 379.964C197.012 379.905 197.265 379.86 197.523 379.829C197.85 379.791 198.115 379.76 198.319 379.737C198.522 379.71 198.67 379.669 198.763 379.612C198.855 379.555 198.901 379.463 198.901 379.335V379.31C198.901 379 198.814 378.76 198.638 378.589C198.466 378.419 198.208 378.334 197.864 378.334C197.507 378.334 197.225 378.413 197.019 378.572C196.815 378.728 196.675 378.902 196.596 379.094L195.599 378.866C195.717 378.535 195.89 378.268 196.117 378.064C196.347 377.858 196.611 377.709 196.909 377.616C197.207 377.522 197.521 377.474 197.85 377.474C198.068 377.474 198.299 377.5 198.543 377.553C198.789 377.602 199.018 377.695 199.231 377.83C199.447 377.964 199.623 378.157 199.761 378.408C199.898 378.657 199.967 378.98 199.967 379.378V383H198.93V382.254H198.887C198.818 382.392 198.715 382.527 198.578 382.659C198.441 382.792 198.264 382.902 198.049 382.989C197.833 383.077 197.575 383.121 197.275 383.121ZM197.506 382.268C197.799 382.268 198.05 382.21 198.258 382.094C198.469 381.978 198.629 381.827 198.738 381.64C198.849 381.451 198.905 381.248 198.905 381.033V380.33C198.867 380.367 198.793 380.403 198.685 380.436C198.578 380.467 198.456 380.494 198.319 380.518C198.181 380.539 198.048 380.559 197.918 380.578C197.787 380.595 197.678 380.609 197.591 380.621C197.385 380.647 197.197 380.691 197.026 380.752C196.858 380.814 196.723 380.902 196.621 381.018C196.522 381.132 196.472 381.284 196.472 381.473C196.472 381.736 196.569 381.935 196.763 382.07C196.958 382.202 197.205 382.268 197.506 382.268ZM201.38 383V377.545H202.406V378.412H202.463C202.562 378.118 202.737 377.888 202.988 377.719C203.242 377.549 203.528 377.464 203.848 377.464C203.914 377.464 203.992 377.466 204.082 377.471C204.174 377.476 204.247 377.482 204.299 377.489V378.504C204.256 378.492 204.18 378.479 204.072 378.465C203.963 378.449 203.854 378.44 203.745 378.44C203.494 378.44 203.27 378.494 203.074 378.6C202.88 378.704 202.726 378.85 202.612 379.037C202.498 379.222 202.442 379.432 202.442 379.669V383H201.38Z" fill="#9C9C9C"/>
<path d="M255.413 383H254.249L256.866 375.727H258.134L260.751 383H259.586L257.53 377.048H257.473L255.413 383ZM255.609 380.152H259.387V381.075H255.609V380.152ZM261.715 385.045V377.545H262.752V378.43H262.84C262.902 378.316 262.991 378.185 263.107 378.036C263.223 377.886 263.384 377.756 263.59 377.645C263.796 377.531 264.068 377.474 264.406 377.474C264.847 377.474 265.24 377.586 265.585 377.808C265.931 378.031 266.202 378.352 266.399 378.771C266.598 379.19 266.697 379.694 266.697 380.283C266.697 380.873 266.599 381.378 266.402 381.8C266.206 382.219 265.936 382.542 265.593 382.769C265.249 382.994 264.857 383.107 264.417 383.107C264.086 383.107 263.815 383.051 263.604 382.94C263.396 382.828 263.232 382.698 263.114 382.549C262.996 382.4 262.904 382.267 262.84 382.151H262.777V385.045H261.715ZM262.755 380.273C262.755 380.656 262.811 380.992 262.922 381.281C263.033 381.57 263.194 381.796 263.405 381.96C263.616 382.121 263.874 382.201 264.179 382.201C264.496 382.201 264.762 382.117 264.975 381.949C265.188 381.778 265.349 381.548 265.458 381.256C265.569 380.965 265.625 380.637 265.625 380.273C265.625 379.913 265.57 379.59 265.461 379.303C265.355 379.017 265.194 378.791 264.978 378.625C264.765 378.459 264.499 378.376 264.179 378.376C263.871 378.376 263.611 378.456 263.398 378.614C263.187 378.773 263.027 378.994 262.919 379.278C262.81 379.562 262.755 379.894 262.755 380.273ZM267.886 383V377.545H268.912V378.412H268.969C269.068 378.118 269.243 377.888 269.494 377.719C269.748 377.549 270.034 377.464 270.354 377.464C270.42 377.464 270.498 377.466 270.588 377.471C270.68 377.476 270.753 377.482 270.805 377.489V378.504C270.762 378.492 270.686 378.479 270.577 378.465C270.468 378.449 270.36 378.44 270.251 378.44C270 378.44 269.776 378.494 269.579 378.6C269.385 378.704 269.231 378.85 269.118 379.037C269.004 379.222 268.947 379.432 268.947 379.669V383H267.886Z" fill="#9C9C9C"/>
<path d="M321.799 375.727H323.131L325.446 381.381H325.531L327.847 375.727H329.178V383H328.134V377.737H328.067L325.922 382.989H325.055L322.911 377.734H322.843V383H321.799V375.727ZM332.275 383.121C331.929 383.121 331.617 383.057 331.337 382.929C331.058 382.799 330.837 382.611 330.673 382.364C330.512 382.118 330.432 381.816 330.432 381.459C330.432 381.151 330.491 380.898 330.609 380.699C330.728 380.5 330.887 380.343 331.089 380.227C331.29 380.111 331.515 380.023 331.763 379.964C332.012 379.905 332.265 379.86 332.523 379.829C332.85 379.791 333.115 379.76 333.319 379.737C333.522 379.71 333.67 379.669 333.763 379.612C333.855 379.555 333.901 379.463 333.901 379.335V379.31C333.901 379 333.814 378.76 333.638 378.589C333.466 378.419 333.208 378.334 332.864 378.334C332.507 378.334 332.225 378.413 332.019 378.572C331.815 378.728 331.675 378.902 331.596 379.094L330.599 378.866C330.717 378.535 330.89 378.268 331.117 378.064C331.347 377.858 331.611 377.709 331.909 377.616C332.207 377.522 332.521 377.474 332.85 377.474C333.068 377.474 333.299 377.5 333.543 377.553C333.789 377.602 334.018 377.695 334.231 377.83C334.447 377.964 334.623 378.157 334.761 378.408C334.898 378.657 334.967 378.98 334.967 379.378V383H333.93V382.254H333.887C333.818 382.392 333.715 382.527 333.578 382.659C333.441 382.792 333.264 382.902 333.049 382.989C332.833 383.077 332.575 383.121 332.275 383.121ZM332.506 382.268C332.799 382.268 333.05 382.21 333.258 382.094C333.469 381.978 333.629 381.827 333.738 381.64C333.849 381.451 333.905 381.248 333.905 381.033V380.33C333.867 380.367 333.793 380.403 333.685 380.436C333.578 380.467 333.456 380.494 333.319 380.518C333.181 380.539 333.048 380.559 332.918 380.578C332.787 380.595 332.678 380.609 332.591 380.621C332.385 380.647 332.197 380.691 332.026 380.752C331.858 380.814 331.723 380.902 331.621 381.018C331.522 381.132 331.472 381.284 331.472 381.473C331.472 381.736 331.569 381.935 331.763 382.07C331.958 382.202 332.205 382.268 332.506 382.268ZM336.856 385.045C336.697 385.045 336.553 385.032 336.422 385.006C336.292 384.983 336.195 384.957 336.131 384.928L336.387 384.058C336.581 384.11 336.754 384.133 336.905 384.126C337.057 384.119 337.191 384.062 337.307 383.955C337.425 383.849 337.529 383.675 337.619 383.433L337.75 383.071L335.755 377.545H336.891L338.273 381.778H338.329L339.711 377.545H340.851L338.603 383.728C338.499 384.012 338.366 384.252 338.205 384.449C338.044 384.648 337.852 384.797 337.63 384.896C337.407 384.996 337.149 385.045 336.856 385.045Z" fill="#9C9C9C"/>
<path d="M392.626 375.727H393.719V380.884C393.719 381.35 393.627 381.749 393.442 382.08C393.26 382.412 393.003 382.665 392.672 382.84C392.34 383.013 391.952 383.099 391.507 383.099C391.098 383.099 390.729 383.025 390.403 382.876C390.078 382.727 389.821 382.51 389.632 382.226C389.445 381.939 389.352 381.591 389.352 381.182H390.442C390.442 381.383 390.488 381.557 390.58 381.704C390.675 381.851 390.804 381.965 390.967 382.048C391.133 382.129 391.322 382.169 391.536 382.169C391.768 382.169 391.964 382.121 392.125 382.023C392.288 381.924 392.413 381.778 392.498 381.587C392.583 381.395 392.626 381.161 392.626 380.884V375.727ZM398.686 380.738V377.545H399.751V383H398.707V382.055H398.65C398.525 382.347 398.323 382.589 398.046 382.783C397.772 382.975 397.43 383.071 397.02 383.071C396.67 383.071 396.36 382.994 396.09 382.84C395.822 382.684 395.612 382.453 395.458 382.148C395.306 381.842 395.23 381.465 395.23 381.015V377.545H396.292V380.887C396.292 381.259 396.395 381.555 396.601 381.775C396.807 381.995 397.075 382.105 397.404 382.105C397.603 382.105 397.8 382.055 397.997 381.956C398.196 381.857 398.36 381.706 398.49 381.505C398.623 381.304 398.688 381.048 398.686 380.738ZM402.238 379.761V383H401.177V377.545H402.196V378.433H402.263C402.389 378.144 402.585 377.912 402.853 377.737C403.123 377.562 403.462 377.474 403.872 377.474C404.244 377.474 404.569 377.553 404.848 377.709C405.128 377.863 405.344 378.092 405.498 378.398C405.652 378.703 405.729 379.081 405.729 379.531V383H404.667V379.658C404.667 379.263 404.564 378.954 404.358 378.732C404.152 378.507 403.87 378.394 403.51 378.394C403.264 378.394 403.045 378.447 402.853 378.554C402.663 378.661 402.513 378.817 402.402 379.023C402.293 379.226 402.238 379.473 402.238 379.761Z" fill="#9C9C9C"/>
<path d="M457.626 375.727H458.719V380.884C458.719 381.35 458.627 381.749 458.442 382.08C458.26 382.412 458.003 382.665 457.672 382.84C457.34 383.013 456.952 383.099 456.507 383.099C456.098 383.099 455.729 383.025 455.403 382.876C455.078 382.727 454.821 382.51 454.632 382.226C454.445 381.939 454.352 381.591 454.352 381.182H455.442C455.442 381.383 455.488 381.557 455.58 381.704C455.675 381.851 455.804 381.965 455.967 382.048C456.133 382.129 456.322 382.169 456.536 382.169C456.768 382.169 456.964 382.121 457.125 382.023C457.288 381.924 457.413 381.778 457.498 381.587C457.583 381.395 457.626 381.161 457.626 380.884V375.727ZM463.686 380.738V377.545H464.751V383H463.707V382.055H463.65C463.525 382.347 463.323 382.589 463.046 382.783C462.772 382.975 462.43 383.071 462.02 383.071C461.67 383.071 461.36 382.994 461.09 382.84C460.822 382.684 460.612 382.453 460.458 382.148C460.306 381.842 460.23 381.465 460.23 381.015V377.545H461.292V380.887C461.292 381.259 461.395 381.555 461.601 381.775C461.807 381.995 462.075 382.105 462.404 382.105C462.603 382.105 462.8 382.055 462.997 381.956C463.196 381.857 463.36 381.706 463.49 381.505C463.623 381.304 463.688 381.048 463.686 380.738ZM467.238 375.727V383H466.177V375.727H467.238Z" fill="#9C9C9C"/>
<path d="M517.413 383H516.249L518.866 375.727H520.134L522.751 383H521.586L519.53 377.048H519.473L517.413 383ZM517.609 380.152H521.387V381.075H517.609V380.152ZM527.17 380.738V377.545H528.235V383H527.191V382.055H527.134C527.009 382.347 526.808 382.589 526.531 382.783C526.256 382.975 525.914 383.071 525.505 383.071C525.154 383.071 524.844 382.994 524.574 382.84C524.307 382.684 524.096 382.453 523.942 382.148C523.79 381.842 523.715 381.465 523.715 381.015V377.545H524.777V380.887C524.777 381.259 524.88 381.555 525.085 381.775C525.291 381.995 525.559 382.105 525.888 382.105C526.087 382.105 526.285 382.055 526.481 381.956C526.68 381.857 526.844 381.706 526.975 381.505C527.107 381.304 527.172 381.048 527.17 380.738ZM531.948 385.159C531.515 385.159 531.142 385.102 530.829 384.989C530.519 384.875 530.266 384.725 530.069 384.538C529.873 384.351 529.726 384.146 529.629 383.923L530.542 383.547C530.606 383.651 530.691 383.761 530.797 383.877C530.906 383.996 531.053 384.096 531.238 384.179C531.425 384.262 531.665 384.303 531.959 384.303C532.361 384.303 532.694 384.205 532.956 384.009C533.219 383.814 533.351 383.504 533.351 383.078V382.006H533.283C533.219 382.122 533.127 382.251 533.006 382.393C532.888 382.535 532.724 382.658 532.516 382.762C532.308 382.866 532.037 382.918 531.703 382.918C531.272 382.918 530.884 382.818 530.538 382.616C530.195 382.413 529.923 382.113 529.721 381.718C529.523 381.32 529.423 380.831 529.423 380.251C529.423 379.671 529.521 379.174 529.718 378.76C529.917 378.346 530.189 378.028 530.535 377.808C530.88 377.586 531.272 377.474 531.71 377.474C532.049 377.474 532.322 377.531 532.53 377.645C532.739 377.756 532.901 377.886 533.017 378.036C533.135 378.185 533.226 378.316 533.29 378.43H533.368V377.545H534.409V383.121C534.409 383.589 534.3 383.974 534.082 384.275C533.864 384.576 533.57 384.798 533.198 384.942C532.829 385.087 532.412 385.159 531.948 385.159ZM531.937 382.038C532.243 382.038 532.501 381.967 532.711 381.825C532.924 381.68 533.085 381.474 533.194 381.207C533.306 380.937 533.361 380.614 533.361 380.237C533.361 379.87 533.307 379.547 533.198 379.268C533.089 378.988 532.929 378.771 532.719 378.614C532.508 378.456 532.247 378.376 531.937 378.376C531.618 378.376 531.351 378.459 531.138 378.625C530.925 378.788 530.764 379.011 530.655 379.293C530.549 379.574 530.496 379.889 530.496 380.237C530.496 380.595 530.55 380.908 530.659 381.178C530.768 381.448 530.929 381.659 531.142 381.81C531.357 381.962 531.622 382.038 531.937 382.038Z" fill="#9C9C9C"/>
<path d="M587.766 377.638C587.728 377.302 587.571 377.041 587.297 376.857C587.022 376.67 586.677 376.576 586.26 376.576C585.962 376.576 585.704 376.623 585.486 376.718C585.268 376.81 585.099 376.938 584.978 377.102C584.86 377.263 584.8 377.446 584.8 377.652C584.8 377.825 584.841 377.974 584.921 378.099C585.004 378.225 585.112 378.33 585.244 378.415C585.379 378.498 585.524 378.568 585.678 378.625C585.831 378.679 585.979 378.724 586.121 378.76L586.832 378.945C587.064 379.001 587.302 379.078 587.545 379.175C587.789 379.272 588.015 379.4 588.224 379.559C588.432 379.718 588.6 379.914 588.728 380.148C588.858 380.383 588.923 380.663 588.923 380.99C588.923 381.402 588.817 381.768 588.604 382.087C588.393 382.407 588.086 382.659 587.684 382.844C587.284 383.028 586.8 383.121 586.232 383.121C585.687 383.121 585.216 383.034 584.818 382.862C584.42 382.689 584.109 382.444 583.884 382.126C583.659 381.807 583.535 381.428 583.511 380.99H584.612C584.634 381.253 584.719 381.472 584.868 381.647C585.019 381.82 585.212 381.949 585.447 382.034C585.683 382.117 585.943 382.158 586.224 382.158C586.535 382.158 586.81 382.11 587.052 382.013C587.296 381.913 587.487 381.776 587.627 381.601C587.767 381.423 587.837 381.216 587.837 380.979C587.837 380.764 587.775 380.588 587.652 380.45C587.531 380.313 587.367 380.199 587.158 380.109C586.952 380.019 586.719 379.94 586.459 379.871L585.599 379.637C585.017 379.478 584.555 379.245 584.214 378.938C583.876 378.63 583.707 378.223 583.707 377.716C583.707 377.297 583.82 376.931 584.048 376.619C584.275 376.306 584.583 376.063 584.971 375.891C585.359 375.715 585.797 375.628 586.285 375.628C586.777 375.628 587.212 375.714 587.588 375.887C587.967 376.06 588.265 376.298 588.483 376.601C588.701 376.902 588.814 377.247 588.824 377.638H587.766ZM592.499 383.11C591.962 383.11 591.499 382.995 591.111 382.766C590.725 382.534 590.426 382.208 590.216 381.789C590.007 381.368 589.903 380.874 589.903 380.308C589.903 379.75 590.007 379.257 590.216 378.831C590.426 378.405 590.72 378.072 591.096 377.833C591.475 377.594 591.918 377.474 592.425 377.474C592.732 377.474 593.031 377.525 593.319 377.627C593.608 377.729 593.868 377.889 594.097 378.107C594.327 378.324 594.508 378.607 594.641 378.955C594.773 379.301 594.839 379.721 594.839 380.216V380.592H590.503V379.797H593.799C593.799 379.518 593.742 379.27 593.628 379.055C593.515 378.837 593.355 378.665 593.149 378.54C592.945 378.414 592.706 378.352 592.432 378.352C592.133 378.352 591.873 378.425 591.65 378.572C591.43 378.716 591.26 378.906 591.139 379.14C591.021 379.372 590.962 379.624 590.962 379.896V380.518C590.962 380.882 591.025 381.192 591.153 381.448C591.284 381.704 591.465 381.899 591.697 382.034C591.929 382.167 592.2 382.233 592.51 382.233C592.711 382.233 592.895 382.205 593.06 382.148C593.226 382.089 593.369 382.001 593.49 381.885C593.611 381.769 593.703 381.626 593.767 381.455L594.772 381.636C594.691 381.932 594.547 382.192 594.339 382.414C594.133 382.634 593.873 382.806 593.561 382.929C593.251 383.05 592.897 383.11 592.499 383.11ZM596.016 385.045V377.545H597.053V378.43H597.142C597.204 378.316 597.293 378.185 597.409 378.036C597.525 377.886 597.686 377.756 597.891 377.645C598.097 377.531 598.37 377.474 598.708 377.474C599.149 377.474 599.542 377.586 599.887 377.808C600.233 378.031 600.504 378.352 600.7 378.771C600.899 379.19 600.999 379.694 600.999 380.283C600.999 380.873 600.9 381.378 600.704 381.8C600.507 382.219 600.238 382.542 599.894 382.769C599.551 382.994 599.159 383.107 598.719 383.107C598.387 383.107 598.116 383.051 597.906 382.94C597.697 382.828 597.534 382.698 597.416 382.549C597.297 382.4 597.206 382.267 597.142 382.151H597.078V385.045H596.016ZM597.057 380.273C597.057 380.656 597.113 380.992 597.224 381.281C597.335 381.57 597.496 381.796 597.707 381.96C597.918 382.121 598.176 382.201 598.481 382.201C598.798 382.201 599.063 382.117 599.276 381.949C599.489 381.778 599.65 381.548 599.759 381.256C599.871 380.965 599.926 380.637 599.926 380.273C599.926 379.913 599.872 379.59 599.763 379.303C599.656 379.017 599.495 378.791 599.28 378.625C599.067 378.459 598.801 378.376 598.481 378.376C598.173 378.376 597.913 378.456 597.7 378.614C597.489 378.773 597.329 378.994 597.22 379.278C597.111 379.562 597.057 379.894 597.057 380.273Z" fill="#9C9C9C"/>
<path d="M658.116 379.364C658.116 380.14 657.974 380.808 657.69 381.366C657.406 381.923 657.017 382.351 656.522 382.652C656.03 382.95 655.47 383.099 654.842 383.099C654.213 383.099 653.65 382.95 653.156 382.652C652.663 382.351 652.275 381.922 651.991 381.363C651.707 380.804 651.565 380.138 651.565 379.364C651.565 378.587 651.707 377.921 651.991 377.364C652.275 376.806 652.663 376.377 653.156 376.079C653.65 375.778 654.213 375.628 654.842 375.628C655.47 375.628 656.03 375.778 656.522 376.079C657.017 376.377 657.406 376.806 657.69 377.364C657.974 377.921 658.116 378.587 658.116 379.364ZM657.03 379.364C657.03 378.772 656.934 378.273 656.742 377.869C656.553 377.461 656.292 377.154 655.961 376.945C655.632 376.735 655.259 376.629 654.842 376.629C654.423 376.629 654.049 376.735 653.72 376.945C653.391 377.154 653.131 377.461 652.939 377.869C652.75 378.273 652.655 378.772 652.655 379.364C652.655 379.955 652.75 380.455 652.939 380.862C653.131 381.267 653.391 381.575 653.72 381.786C654.049 381.994 654.423 382.098 654.842 382.098C655.259 382.098 655.632 381.994 655.961 381.786C656.292 381.575 656.553 381.267 656.742 380.862C656.934 380.455 657.03 379.955 657.03 379.364ZM661.696 383.11C661.168 383.11 660.713 382.991 660.332 382.751C659.953 382.51 659.662 382.177 659.459 381.754C659.255 381.33 659.153 380.844 659.153 380.298C659.153 379.744 659.257 379.255 659.466 378.831C659.674 378.405 659.968 378.072 660.346 377.833C660.725 377.594 661.172 377.474 661.685 377.474C662.1 377.474 662.469 377.551 662.793 377.705C663.118 377.857 663.379 378.07 663.578 378.344C663.779 378.619 663.899 378.94 663.937 379.307H662.903C662.846 379.051 662.716 378.831 662.513 378.646C662.311 378.462 662.042 378.369 661.703 378.369C661.407 378.369 661.148 378.447 660.925 378.604C660.705 378.758 660.534 378.978 660.41 379.264C660.287 379.548 660.226 379.884 660.226 380.273C660.226 380.67 660.286 381.014 660.407 381.303C660.528 381.591 660.698 381.815 660.918 381.974C661.141 382.132 661.402 382.212 661.703 382.212C661.904 382.212 662.087 382.175 662.25 382.102C662.416 382.026 662.554 381.918 662.665 381.778C662.779 381.639 662.858 381.471 662.903 381.274H663.937C663.899 381.627 663.784 381.942 663.592 382.219C663.4 382.496 663.144 382.714 662.822 382.872C662.502 383.031 662.127 383.11 661.696 383.11ZM667.617 377.545V378.398H664.638V377.545H667.617ZM665.437 376.239H666.499V381.398C666.499 381.604 666.529 381.759 666.591 381.864C666.653 381.965 666.732 382.035 666.829 382.073C666.928 382.109 667.036 382.126 667.152 382.126C667.237 382.126 667.312 382.121 667.376 382.109C667.44 382.097 667.489 382.087 667.525 382.08L667.717 382.957C667.655 382.981 667.568 383.005 667.454 383.028C667.34 383.054 667.198 383.069 667.028 383.071C666.748 383.076 666.488 383.026 666.247 382.922C666.005 382.818 665.81 382.657 665.661 382.439C665.511 382.221 665.437 381.948 665.437 381.619V376.239Z" fill="#9C9C9C"/>
<path d="M724.669 375.727V383H723.661L719.964 377.666H719.896V383H718.799V375.727H719.815L723.515 381.068H723.582V375.727H724.669ZM728.481 383.11C727.97 383.11 727.523 382.993 727.142 382.759C726.761 382.524 726.465 382.196 726.255 381.775C726.044 381.353 725.938 380.861 725.938 380.298C725.938 379.732 726.044 379.237 726.255 378.813C726.465 378.389 726.761 378.06 727.142 377.826C727.523 377.592 727.97 377.474 728.481 377.474C728.992 377.474 729.439 377.592 729.82 377.826C730.201 378.06 730.497 378.389 730.708 378.813C730.918 379.237 731.024 379.732 731.024 380.298C731.024 380.861 730.918 381.353 730.708 381.775C730.497 382.196 730.201 382.524 729.82 382.759C729.439 382.993 728.992 383.11 728.481 383.11ZM728.485 382.219C728.816 382.219 729.091 382.131 729.308 381.956C729.526 381.781 729.687 381.548 729.791 381.256C729.898 380.965 729.951 380.644 729.951 380.294C729.951 379.946 729.898 379.626 729.791 379.335C729.687 379.042 729.526 378.806 729.308 378.629C729.091 378.451 728.816 378.362 728.485 378.362C728.151 378.362 727.874 378.451 727.654 378.629C727.436 378.806 727.274 379.042 727.167 379.335C727.063 379.626 727.011 379.946 727.011 380.294C727.011 380.644 727.063 380.965 727.167 381.256C727.274 381.548 727.436 381.781 727.654 381.956C727.874 382.131 728.151 382.219 728.485 382.219ZM736.689 377.545L734.711 383H733.574L731.593 377.545H732.733L734.114 381.743H734.171L735.549 377.545H736.689Z" fill="#9C9C9C"/>
<path d="M789.153 383H786.799V375.727H789.228C789.941 375.727 790.553 375.873 791.064 376.164C791.575 376.453 791.967 376.868 792.239 377.411C792.514 377.95 792.651 378.598 792.651 379.353C792.651 380.111 792.513 380.762 792.236 381.306C791.961 381.851 791.563 382.27 791.043 382.563C790.522 382.854 789.892 383 789.153 383ZM787.896 382.041H789.093C789.647 382.041 790.107 381.937 790.474 381.729C790.841 381.518 791.116 381.214 791.298 380.816C791.481 380.416 791.572 379.928 791.572 379.353C791.572 378.782 791.481 378.298 791.298 377.901C791.118 377.503 790.85 377.201 790.492 376.995C790.135 376.789 789.691 376.686 789.161 376.686H787.896V382.041ZM796.28 383.11C795.743 383.11 795.28 382.995 794.892 382.766C794.506 382.534 794.208 382.208 793.997 381.789C793.789 381.368 793.685 380.874 793.685 380.308C793.685 379.75 793.789 379.257 793.997 378.831C794.208 378.405 794.501 378.072 794.878 377.833C795.257 377.594 795.699 377.474 796.206 377.474C796.514 377.474 796.812 377.525 797.101 377.627C797.39 377.729 797.649 377.889 797.878 378.107C798.108 378.324 798.289 378.607 798.422 378.955C798.554 379.301 798.621 379.721 798.621 380.216V380.592H794.285V379.797H797.58C797.58 379.518 797.523 379.27 797.41 379.055C797.296 378.837 797.136 378.665 796.93 378.54C796.727 378.414 796.488 378.352 796.213 378.352C795.915 378.352 795.654 378.425 795.432 378.572C795.212 378.716 795.041 378.906 794.92 379.14C794.802 379.372 794.743 379.624 794.743 379.896V380.518C794.743 380.882 794.807 381.192 794.935 381.448C795.065 381.704 795.246 381.899 795.478 382.034C795.71 382.167 795.981 382.233 796.291 382.233C796.492 382.233 796.676 382.205 796.842 382.148C797.007 382.089 797.15 382.001 797.271 381.885C797.392 381.769 797.484 381.626 797.548 381.455L798.553 381.636C798.473 381.932 798.328 382.192 798.12 382.414C797.914 382.634 797.655 382.806 797.342 382.929C797.032 383.05 796.678 383.11 796.28 383.11ZM802.095 383.11C801.567 383.11 801.113 382.991 800.732 382.751C800.353 382.51 800.062 382.177 799.858 381.754C799.654 381.33 799.553 380.844 799.553 380.298C799.553 379.744 799.657 379.255 799.865 378.831C800.074 378.405 800.367 378.072 800.746 377.833C801.125 377.594 801.571 377.474 802.085 377.474C802.499 377.474 802.868 377.551 803.193 377.705C803.517 377.857 803.779 378.07 803.977 378.344C804.179 378.619 804.298 378.94 804.336 379.307H803.303C803.246 379.051 803.116 378.831 802.912 378.646C802.711 378.462 802.441 378.369 802.102 378.369C801.806 378.369 801.547 378.447 801.325 378.604C801.105 378.758 800.933 378.978 800.81 379.264C800.687 379.548 800.625 379.884 800.625 380.273C800.625 380.67 800.686 381.014 800.806 381.303C800.927 381.591 801.097 381.815 801.318 381.974C801.54 382.132 801.802 382.212 802.102 382.212C802.304 382.212 802.486 382.175 802.649 382.102C802.815 382.026 802.953 381.918 803.065 381.778C803.178 381.639 803.258 381.471 803.303 381.274H804.336C804.298 381.627 804.183 381.942 803.992 382.219C803.8 382.496 803.543 382.714 803.221 382.872C802.901 383.031 802.526 383.11 802.095 383.11Z" fill="#9C9C9C"/>
<path d="M25.456 67L33.8977 50.2955V50.1562H24.0639V46.6364H38.3523V50.206L29.9006 67H25.456ZM48.4865 67.2784C46.9553 67.2784 45.5931 67.0298 44.3999 66.5327C43.2133 66.0289 42.282 65.3428 41.6059 64.4744C40.9297 63.6061 40.5917 62.6217 40.5917 61.5213C40.5917 60.6728 40.7839 59.8939 41.1684 59.1847C41.5595 58.4688 42.0898 57.8755 42.7593 57.4048C43.4288 56.9276 44.1778 56.6226 45.0064 56.4901V56.3509C43.9193 56.1321 43.0377 55.6051 42.3615 54.7699C41.6854 53.928 41.3473 52.9503 41.3473 51.8366C41.3473 50.7827 41.6556 49.8447 42.2721 49.0227C42.8885 48.1941 43.7337 47.5445 44.8076 47.0739C45.8881 46.5966 47.1144 46.358 48.4865 46.358C49.8587 46.358 51.0817 46.5966 52.1556 47.0739C53.2361 47.5511 54.0846 48.2041 54.701 49.0327C55.3175 49.8546 55.6291 50.7893 55.6357 51.8366C55.6291 52.9569 55.2844 53.9347 54.6016 54.7699C53.9188 55.6051 53.0438 56.1321 51.9766 56.3509V56.4901C52.7919 56.6226 53.5311 56.9276 54.1939 57.4048C54.8634 57.8755 55.3937 58.4688 55.7848 59.1847C56.1826 59.8939 56.3847 60.6728 56.3914 61.5213C56.3847 62.6217 56.0434 63.6061 55.3672 64.4744C54.6911 65.3428 53.7564 66.0289 52.5633 66.5327C51.3767 67.0298 50.0178 67.2784 48.4865 67.2784ZM48.4865 64.1165C49.1693 64.1165 49.7659 63.9938 50.2763 63.7486C50.7867 63.4967 51.1845 63.152 51.4695 62.7145C51.7612 62.2704 51.907 61.7599 51.907 61.1832C51.907 60.5933 51.7579 60.0729 51.4596 59.6222C51.1613 59.1648 50.7569 58.8068 50.2465 58.5483C49.7361 58.2831 49.1494 58.1506 48.4865 58.1506C47.8303 58.1506 47.2436 58.2831 46.7266 58.5483C46.2096 58.8068 45.8019 59.1648 45.5036 59.6222C45.2119 60.0729 45.0661 60.5933 45.0661 61.1832C45.0661 61.7599 45.2086 62.2704 45.4936 62.7145C45.7787 63.152 46.1797 63.4967 46.6968 63.7486C47.2138 63.9938 47.8104 64.1165 48.4865 64.1165ZM48.4865 55.0185C49.0566 55.0185 49.5637 54.9025 50.0079 54.6705C50.452 54.4384 50.8 54.117 51.0519 53.706C51.3038 53.295 51.4297 52.821 51.4297 52.2841C51.4297 51.7538 51.3038 51.2898 51.0519 50.892C50.8 50.4877 50.4553 50.1728 50.0178 49.9474C49.5803 49.7154 49.0699 49.5994 48.4865 49.5994C47.9098 49.5994 47.3994 49.7154 46.9553 49.9474C46.5112 50.1728 46.1632 50.4877 45.9113 50.892C45.666 51.2898 45.5434 51.7538 45.5434 52.2841C45.5434 52.821 45.6693 53.295 45.9212 53.706C46.1731 54.117 46.5211 54.4384 46.9652 54.6705C47.4094 54.9025 47.9165 55.0185 48.4865 55.0185ZM61.3403 67.2585C60.684 67.2585 60.1206 67.0265 59.6499 66.5625C59.1859 66.0919 58.9539 65.5284 58.9539 64.8722C58.9539 64.2225 59.1859 63.6657 59.6499 63.2017C60.1206 62.7377 60.684 62.5057 61.3403 62.5057C61.9766 62.5057 62.5335 62.7377 63.0107 63.2017C63.488 63.6657 63.7266 64.2225 63.7266 64.8722C63.7266 65.3097 63.614 65.7107 63.3886 66.0753C63.1698 66.4332 62.8815 66.7216 62.5235 66.9403C62.1656 67.1525 61.7712 67.2585 61.3403 67.2585ZM66.8535 63.4205V60.0298L75.3549 46.6364H78.2782V51.3295H76.5481L71.1887 59.8111V59.9702H83.2697V63.4205H66.8535ZM76.6276 67V62.3864L76.7072 60.8849V46.6364H80.7441V67H76.6276ZM86.2548 67V46.6364H90.5602V55.6151H90.8286L98.1568 46.6364H103.317L95.7605 55.7543L103.407 67H98.2562L92.6781 58.6278L90.5602 61.2131V67H86.2548Z" fill="white"/>
<path d="M50 255L200.9 166.725L320.821 224.066L416.258 185.587L526.185 236.138L634.613 129L756.033 246.701L806 212.749" stroke="#FF0000" stroke-width="3"/>
<path d="M200.401 166.467L50 251.801V384.541H806V210.228L756.533 244.507L634.114 130L525.685 233.567L415.758 184.701L320.321 221.897L200.401 166.467Z" fill="url(#paint0_linear_2129_671)"/>
<path d="M802.499 26.9375V26.9589M801.281 22.9996C801.281 22.3138 801.827 21.7578 802.5 21.7578C803.173 21.7578 803.719 22.3138 803.719 22.9996C803.719 23.6854 803.173 24.2413 802.5 24.2413C802.5 24.2413 802.499 24.612 802.499 25.0692M807.375 24.5C807.375 27.1924 805.192 29.375 802.5 29.375C799.808 29.375 797.625 27.1924 797.625 24.5C797.625 21.8076 799.808 19.625 802.5 19.625C805.192 19.625 807.375 21.8076 807.375 24.5Z" stroke="#959595" stroke-linecap="round" stroke-linejoin="round"/>
<line x1="52" y1="232.5" x2="810" y2="232.5" stroke="#4F4E4E"/>
<line x1="52" y1="169.5" x2="810" y2="169.5" stroke="#4F4E4E"/>
<line x1="52" y1="108.5" x2="810" y2="108.5" stroke="#4F4E4E"/>
<line x1="52" y1="294.5" x2="810" y2="294.5" stroke="#4F4E4E"/>
<line x1="52" y1="355.5" x2="810" y2="355.5" stroke="#4F4E4E"/>
<defs>
<linearGradient id="paint0_linear_2129_671" x1="428" y1="130" x2="428" y2="386" gradientUnits="userSpaceOnUse">
<stop stop-color="#E70707"/>
<stop offset="1" stop-opacity="0"/>
</linearGradient>
</defs>
</svg>
