<svg width="125" height="169" viewBox="0 0 125 169" fill="none" xmlns="http://www.w3.org/2000/svg">
<path d="M123.66 129.819C120.97 136.026 118.01 141.414 114.79 145.995C111.56 150.564 106.96 154.521 100.97 157.867C94.99 161.202 87.42 162.875 78.28 162.875H59.52C54.41 162.875 50.68 161.248 48.33 157.983C45.98 154.729 44.56 150.806 44.09 146.226C43.62 141.645 43.38 135.253 43.38 127.027V86.0559H67.45C70.11 86.8636 72.33 88.2366 73.92 90.2788C76.71 93.7978 77.6 100.986 77.6 106.166V122.331C77.6 128.965 80.19 133.869 84.2 136.28C88.28 138.703 92.3 139.661 96.72 139.661C101.69 139.661 106.38 138.899 110.94 137.376L110.87 137.168C108.49 137.93 104.95 138.968 102.16 138.968C94.47 138.968 91.74 134.619 91.74 122.25V108.289C91.74 103.247 89.9 97.6514 86.23 93.8555C82.92 90.3711 78.16 86.8982 72.03 85.5021C79.75 83.9907 85.69 80.9562 89.85 76.3988C94.5 71.2991 96.83 64.9995 96.83 57.4768C96.83 48.3504 93.74 41.1855 87.55 35.9819C81.36 30.7784 72.36 28.1708 60.55 28.1708H56.11V30.4207H60.55C69.39 30.4207 75.83 32.6706 79.88 37.1818C83.93 41.6931 85.95 48.235 85.95 56.8192C85.95 64.6533 83.88 71.2299 79.74 76.5373C75.6 81.8446 69.2 84.5099 60.55 84.5099H56.11H43.37V42.3277C43.37 34.1012 43.6 27.7093 44.08 23.1288C44.55 18.5483 45.96 14.637 48.32 11.3718C50.67 8.11813 54.4 6.47977 59.51 6.47977H78.16C90.53 6.47977 100.14 9.6642 107 16.0215C113.86 22.3788 119.37 30.213 123.54 39.524H124.75L117.51 0.907013H115.09C112.8 1.99157 109.14 2.64922 104.1 2.87998C99.06 3.11073 91.7 3.22611 82.02 3.22611H14.16V4.39143C20.08 5.93749 24.01 9.97572 25.96 16.4946C27.91 23.0134 28.88 31.6206 28.88 42.3277V84.2906H24.58C18.56 84.2906 13.31 83.5292 8.82999 81.9946C4.35999 80.4601 1.63 77.0911 0.660004 71.876H0V98.8629H0.660004C1.64 93.7516 4.35999 90.4288 8.82999 88.8942C13.3 87.3597 18.55 86.5982 24.58 86.5982H28.88V127.038C28.88 137.745 27.9 146.352 25.96 152.871C24.01 159.39 20.08 163.417 14.16 164.974V166.14H82.13C91.81 166.14 99.17 166.255 104.21 166.486C109.25 166.717 112.91 167.374 115.2 168.47H117.62L124.88 129.842H123.67L123.66 129.819Z" fill="white"/>
</svg>
