<svg width="337" height="337" viewBox="0 0 337 337" fill="none" xmlns="http://www.w3.org/2000/svg">
<path d="M168.499 81.278L213.65 0L212.111 92.9631L291.851 45.1491L244.037 124.889L337 123.35L255.722 168.499L337 213.65L244.037 212.111L291.851 291.851L212.111 244.037L213.65 337L168.499 255.722L123.35 337L124.889 244.037L45.1491 291.851L92.9631 212.111L0 213.65L81.278 168.499L0 123.35L92.9631 124.889L45.1491 45.1491L124.889 92.9631L123.35 0L168.499 81.278Z" fill="white"/>
<path d="M205.035 169.281C205.019 169.77 204.621 169.927 204.332 170.147C200.721 172.903 197.101 175.65 193.484 178.4C192.303 179.296 191.16 180.25 189.927 181.069C188.875 181.767 189.089 182.264 189.87 183.028C193.219 186.31 196.485 189.674 199.853 192.935C200.736 193.791 200.867 194.289 199.917 195.202C196.953 198.056 194.062 200.984 191.197 203.935C190.421 204.735 189.924 204.777 189.12 203.955C185.91 200.672 182.636 197.451 179.382 194.209C178.014 192.846 178.003 192.844 176.885 194.341C173.48 198.9 170.084 203.468 166.665 208.018C166.367 208.416 166.165 209.104 165.562 209.015C164.975 208.928 164.934 208.23 164.757 207.762C159.639 194.311 154.542 180.852 149.426 167.4C146.775 160.429 144.091 153.468 141.44 146.497C141.266 146.039 140.762 145.486 141.239 145.052C141.607 144.717 142.144 145.124 142.574 145.288C151.21 148.547 159.845 151.81 168.474 155.089C180.231 159.559 191.984 164.042 203.736 168.527C204.206 168.707 204.785 168.735 205.035 169.277V169.281Z" fill="black"/>
<path d="M129.837 148.377C128.401 148.377 126.964 148.365 125.529 148.381C124.373 148.393 124.242 147.646 124.239 146.75C124.236 145.895 124.401 145.211 125.463 145.212C128.382 145.216 131.302 145.217 134.222 145.212C135.492 145.211 135.475 146.079 135.492 146.992C135.511 147.951 135.132 148.41 134.143 148.39C132.708 148.362 131.272 148.382 129.835 148.382C129.835 148.381 129.835 148.379 129.835 148.377H129.837Z" fill="black"/>
<path d="M144.441 133.567C144.441 134.997 144.404 136.43 144.454 137.859C144.495 139.01 143.838 139.197 142.908 139.191C142.053 139.184 141.393 139.046 141.401 137.966C141.42 135.057 141.421 132.147 141.401 129.238C141.393 128.057 142.163 127.987 143.034 127.974C143.93 127.96 144.49 128.224 144.454 129.276C144.405 130.705 144.441 132.138 144.441 133.568V133.567Z" fill="black"/>
<path d="M138.847 140.643C138.52 141.47 137.833 141.929 137.228 142.436C136.773 142.815 136.428 142.415 136.13 142.118C134.035 140.035 131.962 137.93 129.851 135.862C128.911 134.942 129.742 134.463 130.25 133.876C130.796 133.249 131.297 133.013 132.016 133.74C134.091 135.84 136.222 137.884 138.322 139.958C138.519 140.153 138.663 140.4 138.847 140.645V140.643Z" fill="black"/>
<path d="M148.927 142.551C148.183 142.263 147.663 141.629 147.21 140.975C146.829 140.428 147.405 140.123 147.721 139.805C149.703 137.813 151.738 135.872 153.669 133.831C154.533 132.917 155.052 133.282 155.764 133.964C156.474 134.644 156.705 135.142 155.874 135.936C153.845 137.878 151.892 139.901 149.903 141.886C149.637 142.15 149.4 142.466 148.928 142.547L148.927 142.551Z" fill="black"/>
<path d="M138.794 152.819C138.597 153.079 138.427 153.365 138.198 153.594C136.144 155.657 134.06 157.692 132.03 159.776C131.333 160.492 130.811 160.336 130.266 159.671C129.783 159.08 128.914 158.589 129.849 157.668C131.958 155.593 134.039 153.489 136.138 151.404C136.44 151.105 136.786 150.726 137.242 151.105C137.821 151.585 138.446 152.039 138.792 152.819H138.794Z" fill="black"/>
</svg>
