<svg width="226" height="97" viewBox="0 0 226 97" fill="none" xmlns="http://www.w3.org/2000/svg">
<rect width="226" height="97" rx="16" fill="#D9D9D9"/>
<path d="M14.0043 56V45.8182H15.8487V50.1286H20.5668V45.8182H22.4162V56H20.5668V51.6747H15.8487V56H14.0043ZM27.0234 56.1491C26.2577 56.1491 25.5965 55.9901 25.0397 55.6719C24.4862 55.3504 24.0603 54.8963 23.762 54.3097C23.4637 53.7197 23.3146 53.0253 23.3146 52.2266C23.3146 51.4411 23.4637 50.7517 23.762 50.1584C24.0636 49.5618 24.4845 49.0978 25.0248 48.7663C25.565 48.4316 26.1997 48.2642 26.9289 48.2642C27.3996 48.2642 27.8437 48.3404 28.2613 48.4929C28.6822 48.642 29.0534 48.8741 29.3749 49.1889C29.6997 49.5038 29.9549 49.9048 30.1406 50.392C30.3262 50.8759 30.419 51.4527 30.419 52.1222V52.674H24.1597V51.4609H28.6938C28.6905 51.1162 28.6159 50.8097 28.4701 50.5412C28.3243 50.2694 28.1204 50.0556 27.8586 49.8999C27.6001 49.7441 27.2985 49.6662 26.9538 49.6662C26.5859 49.6662 26.2627 49.7557 25.9843 49.9347C25.7059 50.1103 25.4888 50.3423 25.333 50.6307C25.1806 50.9157 25.1027 51.2289 25.0994 51.5703V52.6293C25.0994 53.0734 25.1806 53.4545 25.343 53.7727C25.5054 54.0876 25.7324 54.3295 26.0241 54.4986C26.3157 54.6643 26.6571 54.7472 27.0482 54.7472C27.3101 54.7472 27.547 54.7107 27.7592 54.6378C27.9713 54.5616 28.1552 54.4505 28.311 54.3047C28.4668 54.1589 28.5844 53.9782 28.664 53.7628L30.3444 53.9517C30.2383 54.3958 30.0362 54.7836 29.7379 55.1151C29.4429 55.4432 29.065 55.6984 28.6043 55.8807C28.1436 56.0597 27.6166 56.1491 27.0234 56.1491ZM32.1414 58.8636C31.8961 58.8636 31.6691 58.8438 31.4603 58.804C31.2548 58.7675 31.0907 58.7244 30.9681 58.6747L31.3857 57.2727C31.6475 57.349 31.8812 57.3854 32.0867 57.3821C32.2922 57.3788 32.4728 57.3142 32.6286 57.1882C32.7877 57.0656 32.9219 56.8601 33.0313 56.5717L33.1854 56.1591L30.4162 48.3636H32.3253L34.0853 54.1307H34.1648L35.9297 48.3636H37.8438L34.7863 56.9247C34.6437 57.3291 34.4548 57.6754 34.2195 57.9638C33.9842 58.2554 33.6958 58.4775 33.3544 58.63C33.0164 58.7857 32.612 58.8636 32.1414 58.8636ZM44.975 48.3636V49.7557H40.5851V48.3636H44.975ZM41.6689 46.5341H43.4686V53.7031C43.4686 53.9451 43.5051 54.1307 43.578 54.2599C43.6543 54.3859 43.7537 54.4721 43.8763 54.5185C43.9989 54.5649 44.1348 54.5881 44.284 54.5881C44.3967 54.5881 44.4994 54.5798 44.5922 54.5632C44.6883 54.5466 44.7613 54.5317 44.811 54.5185L45.1142 55.9254C45.0181 55.9586 44.8806 55.995 44.7016 56.0348C44.5259 56.0746 44.3105 56.0978 44.0553 56.1044C43.6045 56.1177 43.1985 56.0497 42.8373 55.9006C42.476 55.7481 42.1893 55.5128 41.9772 55.1946C41.7684 54.8764 41.6656 54.4787 41.6689 54.0014V46.5341ZM47.744 51.5256V56H45.9442V45.8182H47.7042V49.6612H47.7937C47.9727 49.2304 48.2494 48.8906 48.6239 48.642C49.0018 48.3902 49.4824 48.2642 50.0657 48.2642C50.596 48.2642 51.0584 48.3752 51.4528 48.5973C51.8472 48.8194 52.1521 49.1442 52.3675 49.5717C52.5863 49.9993 52.6957 50.5213 52.6957 51.1378V56H50.896V51.4162C50.896 50.9025 50.7634 50.5031 50.4982 50.218C50.2364 49.9297 49.8685 49.7855 49.3945 49.7855C49.0763 49.7855 48.7913 49.8551 48.5394 49.9943C48.2908 50.1302 48.0953 50.3274 47.9528 50.5859C47.8136 50.8445 47.744 51.1577 47.744 51.5256ZM57.2109 56.1491C56.4452 56.1491 55.784 55.9901 55.2272 55.6719C54.6737 55.3504 54.2478 54.8963 53.9495 54.3097C53.6512 53.7197 53.5021 53.0253 53.5021 52.2266C53.5021 51.4411 53.6512 50.7517 53.9495 50.1584C54.2511 49.5618 54.672 49.0978 55.2123 48.7663C55.7525 48.4316 56.3872 48.2642 57.1164 48.2642C57.587 48.2642 58.0312 48.3404 58.4488 48.4929C58.8697 48.642 59.2409 48.8741 59.5624 49.1889C59.8872 49.5038 60.1424 49.9048 60.3281 50.392C60.5137 50.8759 60.6065 51.4527 60.6065 52.1222V52.674H54.3472V51.4609H58.8813C58.878 51.1162 58.8034 50.8097 58.6576 50.5412C58.5118 50.2694 58.3079 50.0556 58.0461 49.8999C57.7876 49.7441 57.486 49.6662 57.1413 49.6662C56.7734 49.6662 56.4502 49.7557 56.1718 49.9347C55.8934 50.1103 55.6763 50.3423 55.5205 50.6307C55.3681 50.9157 55.2902 51.2289 55.2869 51.5703V52.6293C55.2869 53.0734 55.3681 53.4545 55.5305 53.7727C55.6929 54.0876 55.9199 54.3295 56.2116 54.4986C56.5032 54.6643 56.8446 54.7472 57.2357 54.7472C57.4976 54.7472 57.7345 54.7107 57.9467 54.6378C58.1588 54.5616 58.3427 54.4505 58.4985 54.3047C58.6543 54.1589 58.7719 53.9782 58.8515 53.7628L60.5319 53.9517C60.4258 54.3958 60.2237 54.7836 59.9254 55.1151C59.6304 55.4432 59.2525 55.6984 58.7918 55.8807C58.3311 56.0597 57.8041 56.1491 57.2109 56.1491ZM61.429 56V48.3636H63.174V49.6364H63.2536C63.3928 49.1955 63.6314 48.8558 63.9695 48.6172C64.3109 48.3752 64.7003 48.2543 65.1378 48.2543C65.2373 48.2543 65.3483 48.2592 65.4709 48.2692C65.5969 48.2758 65.7013 48.2874 65.7841 48.304V49.9595C65.7079 49.933 65.5869 49.9098 65.4212 49.8899C65.2588 49.8667 65.1014 49.8551 64.9489 49.8551C64.6208 49.8551 64.3258 49.9264 64.064 50.0689C63.8054 50.2081 63.6016 50.402 63.4524 50.6506C63.3033 50.8991 63.2287 51.1858 63.2287 51.5107V56H61.429ZM69.346 56.1491C68.5804 56.1491 67.9192 55.9901 67.3624 55.6719C66.8089 55.3504 66.383 54.8963 66.0847 54.3097C65.7864 53.7197 65.6372 53.0253 65.6372 52.2266C65.6372 51.4411 65.7864 50.7517 66.0847 50.1584C66.3863 49.5618 66.8072 49.0978 67.3474 48.7663C67.8877 48.4316 68.5224 48.2642 69.2516 48.2642C69.7222 48.2642 70.1663 48.3404 70.584 48.4929C71.0049 48.642 71.3761 48.8741 71.6976 49.1889C72.0224 49.5038 72.2776 49.9048 72.4632 50.392C72.6488 50.8759 72.7416 51.4527 72.7416 52.1222V52.674H66.4824V51.4609H71.0165C71.0132 51.1162 70.9386 50.8097 70.7928 50.5412C70.6469 50.2694 70.4431 50.0556 70.1813 49.8999C69.9227 49.7441 69.6211 49.6662 69.2764 49.6662C68.9085 49.6662 68.5854 49.7557 68.307 49.9347C68.0286 50.1103 67.8115 50.3423 67.6557 50.6307C67.5032 50.9157 67.4253 51.2289 67.422 51.5703V52.6293C67.422 53.0734 67.5032 53.4545 67.6656 53.7727C67.828 54.0876 68.0551 54.3295 68.3467 54.4986C68.6384 54.6643 68.9798 54.7472 69.3709 54.7472C69.6327 54.7472 69.8697 54.7107 70.0818 54.6378C70.2939 54.5616 70.4779 54.4505 70.6337 54.3047C70.7894 54.1589 70.9071 53.9782 70.9866 53.7628L72.667 53.9517C72.561 54.3958 72.3588 54.7836 72.0605 55.1151C71.7655 55.4432 71.3877 55.6984 70.927 55.8807C70.4663 56.0597 69.9393 56.1491 69.346 56.1491ZM75.7666 45.8182L75.6025 53.0071H74.0017L73.8426 45.8182H75.7666ZM74.8021 56.1094C74.5005 56.1094 74.242 56.0033 74.0265 55.7912C73.8144 55.5791 73.7083 55.3205 73.7083 55.0156C73.7083 54.7173 73.8144 54.4621 74.0265 54.25C74.242 54.0379 74.5005 53.9318 74.8021 53.9318C75.0971 53.9318 75.3523 54.0379 75.5677 54.25C75.7865 54.4621 75.8958 54.7173 75.8958 55.0156C75.8958 55.2178 75.8445 55.4018 75.7417 55.5675C75.6423 55.7332 75.5097 55.8658 75.344 55.9652C75.1816 56.0613 75.001 56.1094 74.8021 56.1094ZM17.4545 70H14.0043V59.8182H17.5241C18.535 59.8182 19.4034 60.022 20.1293 60.4297C20.8584 60.834 21.4186 61.4157 21.8097 62.1747C22.2008 62.9337 22.3963 63.8419 22.3963 64.8991C22.3963 65.9598 22.1991 66.8712 21.8047 67.6335C21.4136 68.3958 20.8485 68.9808 20.1094 69.3885C19.3736 69.7962 18.4886 70 17.4545 70ZM15.8487 68.4041H17.3651C18.0743 68.4041 18.666 68.2749 19.1399 68.0163C19.6139 67.7545 19.9702 67.3651 20.2088 66.848C20.4474 66.3277 20.5668 65.678 20.5668 64.8991C20.5668 64.1203 20.4474 63.474 20.2088 62.9602C19.9702 62.4432 19.6172 62.0571 19.1499 61.8018C18.6858 61.5433 18.1091 61.4141 17.4197 61.4141H15.8487V68.4041ZM26.7002 70.1491C25.9545 70.1491 25.3082 69.9851 24.7613 69.657C24.2144 69.3288 23.7902 68.8698 23.4886 68.2798C23.1903 67.6899 23.0411 67.0005 23.0411 66.2116C23.0411 65.4228 23.1903 64.7318 23.4886 64.1385C23.7902 63.5452 24.2144 63.0845 24.7613 62.7564C25.3082 62.4283 25.9545 62.2642 26.7002 62.2642C27.446 62.2642 28.0923 62.4283 28.6391 62.7564C29.186 63.0845 29.6086 63.5452 29.9069 64.1385C30.2085 64.7318 30.3593 65.4228 30.3593 66.2116C30.3593 67.0005 30.2085 67.6899 29.9069 68.2798C29.6086 68.8698 29.186 69.3288 28.6391 69.657C28.0923 69.9851 27.446 70.1491 26.7002 70.1491ZM26.7102 68.7074C27.1145 68.7074 27.4526 68.5964 27.7244 68.3743C27.9961 68.1489 28.1983 67.8473 28.3309 67.4695C28.4668 67.0916 28.5347 66.6707 28.5347 66.2067C28.5347 65.7393 28.4668 65.3168 28.3309 64.9389C28.1983 64.5578 27.9961 64.2545 27.7244 64.0291C27.4526 63.8037 27.1145 63.6911 26.7102 63.6911C26.2959 63.6911 25.9512 63.8037 25.6761 64.0291C25.4043 64.2545 25.2005 64.5578 25.0646 64.9389C24.932 65.3168 24.8657 65.7393 24.8657 66.2067C24.8657 66.6707 24.932 67.0916 25.0646 67.4695C25.2005 67.8473 25.4043 68.1489 25.6761 68.3743C25.9512 68.5964 26.2959 68.7074 26.7102 68.7074ZM35.0781 72.8636C34.8328 72.8636 34.6058 72.8438 34.397 72.804C34.1915 72.7675 34.0274 72.7244 33.9048 72.6747L34.3224 71.2727C34.5842 71.349 34.8179 71.3854 35.0234 71.3821C35.2289 71.3788 35.4095 71.3142 35.5653 71.1882C35.7244 71.0656 35.8586 70.8601 35.968 70.5717L36.1221 70.1591L33.3529 62.3636H35.262L37.022 68.1307H37.1015L38.8664 62.3636H40.7805L37.723 70.9247C37.5805 71.3291 37.3915 71.6754 37.1562 71.9638C36.9209 72.2554 36.6325 72.4775 36.2912 72.63C35.9531 72.7857 35.5487 72.8636 35.0781 72.8636ZM44.3971 70.1491C43.6514 70.1491 43.005 69.9851 42.4582 69.657C41.9113 69.3288 41.4871 68.8698 41.1854 68.2798C40.8871 67.6899 40.738 67.0005 40.738 66.2116C40.738 65.4228 40.8871 64.7318 41.1854 64.1385C41.4871 63.5452 41.9113 63.0845 42.4582 62.7564C43.005 62.4283 43.6514 62.2642 44.3971 62.2642C45.1428 62.2642 45.7891 62.4283 46.336 62.7564C46.8829 63.0845 47.3055 63.5452 47.6038 64.1385C47.9054 64.7318 48.0562 65.4228 48.0562 66.2116C48.0562 67.0005 47.9054 67.6899 47.6038 68.2798C47.3055 68.8698 46.8829 69.3288 46.336 69.657C45.7891 69.9851 45.1428 70.1491 44.3971 70.1491ZM44.407 68.7074C44.8114 68.7074 45.1495 68.5964 45.4212 68.3743C45.693 68.1489 45.8952 67.8473 46.0278 67.4695C46.1637 67.0916 46.2316 66.6707 46.2316 66.2067C46.2316 65.7393 46.1637 65.3168 46.0278 64.9389C45.8952 64.5578 45.693 64.2545 45.4212 64.0291C45.1495 63.8037 44.8114 63.6911 44.407 63.6911C43.9927 63.6911 43.648 63.8037 43.3729 64.0291C43.1012 64.2545 42.8973 64.5578 42.7614 64.9389C42.6289 65.3168 42.5626 65.7393 42.5626 66.2067C42.5626 66.6707 42.6289 67.0916 42.7614 67.4695C42.8973 67.8473 43.1012 68.1489 43.3729 68.3743C43.648 68.5964 43.9927 68.7074 44.407 68.7074ZM53.7509 66.7884V62.3636H55.5506V70H53.8056V68.6428H53.726C53.5537 69.0703 53.2703 69.42 52.8759 69.6918C52.4848 69.9635 52.0025 70.0994 51.4292 70.0994C50.9287 70.0994 50.4862 69.9884 50.1017 69.7663C49.7206 69.541 49.4223 69.2145 49.2069 68.7869C48.9914 68.3561 48.8837 67.8357 48.8837 67.2259V62.3636H50.6834V66.9474C50.6834 67.4313 50.816 67.8158 51.0811 68.1009C51.3463 68.3859 51.6943 68.5284 52.1252 68.5284C52.3903 68.5284 52.6472 68.4638 52.8958 68.3345C53.1444 68.2053 53.3482 68.013 53.5073 67.7578C53.6697 67.4993 53.7509 67.1761 53.7509 66.7884ZM61.2736 65.5256V70H59.4739V62.3636H61.1941V63.6612H61.2836C61.4593 63.2337 61.7393 62.8939 62.1238 62.642C62.5116 62.3902 62.9905 62.2642 63.5606 62.2642C64.0876 62.2642 64.5466 62.3769 64.9377 62.6023C65.3321 62.8277 65.637 63.1541 65.8525 63.5817C66.0712 64.0092 66.179 64.5279 66.1756 65.1378V70H64.3759V65.4162C64.3759 64.9058 64.2433 64.5064 63.9782 64.218C63.7164 63.9297 63.3534 63.7855 62.8894 63.7855C62.5745 63.7855 62.2945 63.8551 62.0492 63.9943C61.8073 64.1302 61.6167 64.3274 61.4775 64.5859C61.3416 64.8445 61.2736 65.1577 61.2736 65.5256ZM70.6859 70.1491C69.9202 70.1491 69.259 69.9901 68.7022 69.6719C68.1487 69.3504 67.7228 68.8963 67.4245 68.3097C67.1262 67.7197 66.9771 67.0253 66.9771 66.2266C66.9771 65.4411 67.1262 64.7517 67.4245 64.1584C67.7261 63.5618 68.147 63.0978 68.6873 62.7663C69.2275 62.4316 69.8622 62.2642 70.5914 62.2642C71.0621 62.2642 71.5062 62.3404 71.9238 62.4929C72.3447 62.642 72.7159 62.8741 73.0374 63.1889C73.3622 63.5038 73.6174 63.9048 73.8031 64.392C73.9887 64.8759 74.0815 65.4527 74.0815 66.1222V66.674H67.8222V65.4609H72.3563C72.353 65.1162 72.2784 64.8097 72.1326 64.5412C71.9868 64.2694 71.7829 64.0556 71.5211 63.8999C71.2626 63.7441 70.961 63.6662 70.6163 63.6662C70.2484 63.6662 69.9252 63.7557 69.6468 63.9347C69.3684 64.1103 69.1513 64.3423 68.9955 64.6307C68.8431 64.9157 68.7652 65.2289 68.7619 65.5703V66.6293C68.7619 67.0734 68.8431 67.4545 69.0055 67.7727C69.1679 68.0876 69.3949 68.3295 69.6866 68.4986C69.9782 68.6643 70.3196 68.7472 70.7107 68.7472C70.9726 68.7472 71.2095 68.7107 71.4217 68.6378C71.6338 68.5616 71.8177 68.4505 71.9735 68.3047C72.1293 68.1589 72.2469 67.9782 72.3265 67.7628L74.0069 67.9517C73.9008 68.3958 73.6987 68.7836 73.4004 69.1151C73.1054 69.4432 72.7275 69.6984 72.2668 69.8807C71.8061 70.0597 71.2791 70.1491 70.6859 70.1491ZM78.2847 70.1491C77.5191 70.1491 76.8578 69.9901 76.301 69.6719C75.7475 69.3504 75.3216 68.8963 75.0233 68.3097C74.725 67.7197 74.5759 67.0253 74.5759 66.2266C74.5759 65.4411 74.725 64.7517 75.0233 64.1584C75.3249 63.5618 75.7459 63.0978 76.2861 62.7663C76.8264 62.4316 77.4611 62.2642 78.1902 62.2642C78.6609 62.2642 79.105 62.3404 79.5226 62.4929C79.9435 62.642 80.3148 62.8741 80.6363 63.1889C80.9611 63.5038 81.2163 63.9048 81.4019 64.392C81.5875 64.8759 81.6803 65.4527 81.6803 66.1222V66.674H75.4211V65.4609H79.9551C79.9518 65.1162 79.8773 64.8097 79.7314 64.5412C79.5856 64.2694 79.3818 64.0556 79.1199 63.8999C78.8614 63.7441 78.5598 63.6662 78.2151 63.6662C77.8472 63.6662 77.524 63.7557 77.2456 63.9347C76.9672 64.1103 76.7501 64.3423 76.5944 64.6307C76.4419 64.9157 76.364 65.2289 76.3607 65.5703V66.6293C76.3607 67.0734 76.4419 67.4545 76.6043 67.7727C76.7667 68.0876 76.9937 68.3295 77.2854 68.4986C77.5771 68.6643 77.9185 68.7472 78.3096 68.7472C78.5714 68.7472 78.8084 68.7107 79.0205 68.6378C79.2326 68.5616 79.4166 68.4505 79.5723 68.3047C79.7281 68.1589 79.8458 67.9782 79.9253 67.7628L81.6057 67.9517C81.4997 68.3958 81.2975 68.7836 80.9992 69.1151C80.7042 69.4432 80.3264 69.6984 79.8657 69.8807C79.405 70.0597 78.878 70.1491 78.2847 70.1491ZM85.3366 70.1342C84.7367 70.1342 84.1998 69.9801 83.7259 69.6719C83.2519 69.3636 82.8774 68.9162 82.6023 68.3295C82.3272 67.7429 82.1896 67.0303 82.1896 66.1918C82.1896 65.3433 82.3288 64.6274 82.6072 64.044C82.889 63.4574 83.2685 63.0149 83.7457 62.7166C84.223 62.415 84.755 62.2642 85.3416 62.2642C85.7891 62.2642 86.157 62.3404 86.4453 62.4929C86.7337 62.642 86.9624 62.8227 87.1314 63.0348C87.3004 63.2436 87.4313 63.4408 87.5241 63.6264H87.5987V59.8182H89.4034V70H87.6335V68.7969H87.5241C87.4313 68.9825 87.2971 69.1797 87.1214 69.3885C86.9458 69.594 86.7138 69.7696 86.4254 69.9155C86.1371 70.0613 85.7741 70.1342 85.3366 70.1342ZM85.8388 68.6577C86.2199 68.6577 86.5447 68.5549 86.8132 68.3494C87.0817 68.1406 87.2855 67.8506 87.4247 67.4794C87.5639 67.1082 87.6335 66.6757 87.6335 66.1818C87.6335 65.688 87.5639 65.2588 87.4247 64.8942C87.2888 64.5296 87.0866 64.2462 86.8182 64.044C86.553 63.8419 86.2266 63.7408 85.8388 63.7408C85.4377 63.7408 85.103 63.8452 84.8345 64.054C84.5661 64.2628 84.3639 64.5511 84.228 64.919C84.0921 65.2869 84.0241 65.7079 84.0241 66.1818C84.0241 66.6591 84.0921 67.085 84.228 67.4595C84.3672 67.8307 84.571 68.1241 84.8395 68.3395C85.1113 68.5516 85.4444 68.6577 85.8388 68.6577ZM95.1936 65.5256V70H93.3939V59.8182H95.1538V63.6612H95.2433C95.4223 63.2304 95.699 62.8906 96.0735 62.642C96.4514 62.3902 96.932 62.2642 97.5153 62.2642C98.0456 62.2642 98.508 62.3752 98.9024 62.5973C99.2968 62.8194 99.6017 63.1442 99.8172 63.5717C100.036 63.9993 100.145 64.5213 100.145 65.1378V70H98.3456V65.4162C98.3456 64.9025 98.213 64.5031 97.9478 64.218C97.686 63.9297 97.3181 63.7855 96.8441 63.7855C96.526 63.7855 96.2409 63.8551 95.989 63.9943C95.7404 64.1302 95.5449 64.3274 95.4024 64.5859C95.2632 64.8445 95.1936 65.1577 95.1936 65.5256ZM104.66 70.1491C103.895 70.1491 103.234 69.9901 102.677 69.6719C102.123 69.3504 101.697 68.8963 101.399 68.3097C101.101 67.7197 100.952 67.0253 100.952 66.2266C100.952 65.4411 101.101 64.7517 101.399 64.1584C101.701 63.5618 102.122 63.0978 102.662 62.7663C103.202 62.4316 103.837 62.2642 104.566 62.2642C105.037 62.2642 105.481 62.3404 105.898 62.4929C106.319 62.642 106.691 62.8741 107.012 63.1889C107.337 63.5038 107.592 63.9048 107.778 64.392C107.963 64.8759 108.056 65.4527 108.056 66.1222V66.674H101.797V65.4609H106.331C106.328 65.1162 106.253 64.8097 106.107 64.5412C105.961 64.2694 105.758 64.0556 105.496 63.8999C105.237 63.7441 104.936 63.6662 104.591 63.6662C104.223 63.6662 103.9 63.7557 103.621 63.9347C103.343 64.1103 103.126 64.3423 102.97 64.6307C102.818 64.9157 102.74 65.2289 102.736 65.5703V66.6293C102.736 67.0734 102.818 67.4545 102.98 67.7727C103.142 68.0876 103.37 68.3295 103.661 68.4986C103.953 68.6643 104.294 68.7472 104.685 68.7472C104.947 68.7472 105.184 68.7107 105.396 68.6378C105.608 68.5616 105.792 68.4505 105.948 68.3047C106.104 68.1589 106.222 67.9782 106.301 67.7628L107.982 67.9517C107.875 68.3958 107.673 68.7836 107.375 69.1151C107.08 69.4432 106.702 69.6984 106.241 69.8807C105.781 70.0597 105.254 70.1491 104.66 70.1491ZM110.678 59.8182V70H108.879V59.8182H110.678ZM111.829 72.8636V62.3636H113.599V63.6264H113.703C113.796 63.4408 113.927 63.2436 114.096 63.0348C114.265 62.8227 114.494 62.642 114.782 62.4929C115.07 62.3404 115.438 62.2642 115.886 62.2642C116.476 62.2642 117.008 62.415 117.482 62.7166C117.959 63.0149 118.337 63.4574 118.615 64.044C118.897 64.6274 119.038 65.3433 119.038 66.1918C119.038 67.0303 118.9 67.7429 118.625 68.3295C118.35 68.9162 117.976 69.3636 117.502 69.6719C117.028 69.9801 116.491 70.1342 115.891 70.1342C115.453 70.1342 115.09 70.0613 114.802 69.9155C114.514 69.7696 114.282 69.594 114.106 69.3885C113.934 69.1797 113.799 68.9825 113.703 68.7969H113.629V72.8636H111.829ZM113.594 66.1818C113.594 66.6757 113.664 67.1082 113.803 67.4794C113.945 67.8506 114.149 68.1406 114.414 68.3494C114.683 68.5549 115.008 68.6577 115.389 68.6577C115.786 68.6577 116.119 68.5516 116.388 68.3395C116.656 68.1241 116.859 67.8307 116.994 67.4595C117.134 67.085 117.203 66.6591 117.203 66.1818C117.203 65.7079 117.135 65.2869 116.999 64.919C116.864 64.5511 116.661 64.2628 116.393 64.054C116.124 63.8452 115.79 63.7408 115.389 63.7408C115.004 63.7408 114.678 63.8419 114.409 64.044C114.141 64.2462 113.937 64.5296 113.798 64.8942C113.662 65.2588 113.594 65.688 113.594 66.1818ZM124.228 70L122.07 62.3636H123.905L125.247 67.733H125.316L126.689 62.3636H128.503L129.875 67.7031H129.95L131.272 62.3636H133.112L130.949 70H129.075L127.643 64.8395H127.539L126.107 70H124.228ZM133.668 70V62.3636H135.468V70H133.668ZM134.573 61.2798C134.288 61.2798 134.043 61.1854 133.838 60.9964C133.632 60.8042 133.529 60.5739 133.529 60.3054C133.529 60.0336 133.632 59.8033 133.838 59.6143C134.043 59.4221 134.288 59.326 134.573 59.326C134.862 59.326 135.107 59.4221 135.309 59.6143C135.515 59.8033 135.617 60.0336 135.617 60.3054C135.617 60.5739 135.515 60.8042 135.309 60.9964C135.107 61.1854 134.862 61.2798 134.573 61.2798ZM140.432 62.3636V63.7557H136.042V62.3636H140.432ZM137.126 60.5341H138.926V67.7031C138.926 67.9451 138.962 68.1307 139.035 68.2599C139.111 68.3859 139.211 68.4721 139.333 68.5185C139.456 68.5649 139.592 68.5881 139.741 68.5881C139.854 68.5881 139.956 68.5798 140.049 68.5632C140.145 68.5466 140.218 68.5317 140.268 68.5185L140.571 69.9254C140.475 69.9586 140.338 69.995 140.159 70.0348C139.983 70.0746 139.768 70.0978 139.512 70.1044C139.062 70.1177 138.656 70.0497 138.294 69.9006C137.933 69.7481 137.646 69.5128 137.434 69.1946C137.225 68.8764 137.123 68.4787 137.126 68.0014V60.5341ZM143.201 65.5256V70H141.401V59.8182H143.161V63.6612H143.251C143.43 63.2304 143.706 62.8906 144.081 62.642C144.459 62.3902 144.939 62.2642 145.523 62.2642C146.053 62.2642 146.515 62.3752 146.91 62.5973C147.304 62.8194 147.609 63.1442 147.825 63.5717C148.043 63.9993 148.153 64.5213 148.153 65.1378V70H146.353V65.4162C146.353 64.9025 146.22 64.5031 145.955 64.218C145.693 63.9297 145.326 63.7855 144.852 63.7855C144.533 63.7855 144.248 63.8551 143.996 63.9943C143.748 64.1302 143.552 64.3274 143.41 64.5859C143.271 64.8445 143.201 65.1577 143.201 65.5256ZM154.257 70.1541C153.773 70.1541 153.338 70.0679 152.95 69.8956C152.565 69.7199 152.26 69.4614 152.035 69.12C151.813 68.7786 151.702 68.3577 151.702 67.8572C151.702 67.4264 151.781 67.0701 151.941 66.7884C152.1 66.5066 152.317 66.2812 152.592 66.1122C152.867 65.9432 153.177 65.8156 153.522 65.7294C153.87 65.6399 154.229 65.5753 154.6 65.5355C155.048 65.4891 155.411 65.4477 155.689 65.4112C155.968 65.3714 156.17 65.3118 156.296 65.2322C156.425 65.1494 156.49 65.0218 156.49 64.8494V64.8196C156.49 64.4451 156.379 64.1551 156.156 63.9496C155.934 63.7441 155.615 63.6413 155.197 63.6413C154.756 63.6413 154.406 63.7375 154.148 63.9297C153.893 64.1219 153.72 64.349 153.631 64.6108L151.951 64.3722C152.083 63.9081 152.302 63.5204 152.607 63.2088C152.912 62.8939 153.285 62.6586 153.725 62.5028C154.166 62.3438 154.653 62.2642 155.187 62.2642C155.555 62.2642 155.921 62.3073 156.286 62.3935C156.65 62.4796 156.983 62.6222 157.285 62.821C157.587 63.0166 157.829 63.2834 158.011 63.6214C158.196 63.9595 158.289 64.3821 158.289 64.8892V70H156.559V68.951H156.5C156.39 69.1631 156.236 69.362 156.037 69.5476C155.842 69.7299 155.595 69.8774 155.296 69.9901C155.001 70.0994 154.655 70.1541 154.257 70.1541ZM154.725 68.8317C155.086 68.8317 155.399 68.7604 155.664 68.6179C155.929 68.4721 156.133 68.2798 156.276 68.0412C156.422 67.8026 156.495 67.5424 156.495 67.2607V66.3608C156.438 66.4072 156.342 66.4503 156.206 66.4901C156.074 66.5298 155.924 66.5646 155.759 66.5945C155.593 66.6243 155.429 66.6508 155.267 66.674C155.104 66.6972 154.963 66.7171 154.844 66.7337C154.576 66.7701 154.335 66.8298 154.123 66.9126C153.911 66.9955 153.744 67.1115 153.621 67.2607C153.498 67.4065 153.437 67.5954 153.437 67.8274C153.437 68.1589 153.558 68.4091 153.8 68.5781C154.042 68.7472 154.35 68.8317 154.725 68.8317ZM161.199 65.5256V70H159.399V62.3636H161.119V63.6612H161.209C161.384 63.2337 161.664 62.8939 162.049 62.642C162.437 62.3902 162.916 62.2642 163.486 62.2642C164.013 62.2642 164.472 62.3769 164.863 62.6023C165.257 62.8277 165.562 63.1541 165.777 63.5817C165.996 64.0092 166.104 64.5279 166.101 65.1378V70H164.301V65.4162C164.301 64.9058 164.168 64.5064 163.903 64.218C163.641 63.9297 163.278 63.7855 162.814 63.7855C162.5 63.7855 162.219 63.8551 161.974 63.9943C161.732 64.1302 161.542 64.3274 161.402 64.5859C161.267 64.8445 161.199 65.1577 161.199 65.5256ZM168.075 72.8636C167.83 72.8636 167.603 72.8438 167.394 72.804C167.189 72.7675 167.025 72.7244 166.902 72.6747L167.32 71.2727C167.582 71.349 167.815 71.3854 168.021 71.3821C168.226 71.3788 168.407 71.3142 168.563 71.1882C168.722 71.0656 168.856 70.8601 168.965 70.5717L169.119 70.1591L166.35 62.3636H168.259L170.019 68.1307H170.099L171.864 62.3636H173.778L170.72 70.9247C170.578 71.3291 170.389 71.6754 170.153 71.9638C169.918 72.2554 169.63 72.4775 169.288 72.63C168.95 72.7857 168.546 72.8636 168.075 72.8636ZM178.136 62.3636V63.7557H173.746V62.3636H178.136ZM174.83 60.5341H176.63V67.7031C176.63 67.9451 176.666 68.1307 176.739 68.2599C176.816 68.3859 176.915 68.4721 177.038 68.5185C177.16 68.5649 177.296 68.5881 177.445 68.5881C177.558 68.5881 177.661 68.5798 177.754 68.5632C177.85 68.5466 177.923 68.5317 177.972 68.5185L178.276 69.9254C178.179 69.9586 178.042 69.995 177.863 70.0348C177.687 70.0746 177.472 70.0978 177.217 70.1044C176.766 70.1177 176.36 70.0497 175.999 69.9006C175.637 69.7481 175.351 69.5128 175.138 69.1946C174.93 68.8764 174.827 68.4787 174.83 68.0014V60.5341ZM180.905 65.5256V70H179.106V59.8182H180.866V63.6612H180.955C181.134 63.2304 181.411 62.8906 181.785 62.642C182.163 62.3902 182.644 62.2642 183.227 62.2642C183.757 62.2642 184.22 62.3752 184.614 62.5973C185.009 62.8194 185.313 63.1442 185.529 63.5717C185.748 63.9993 185.857 64.5213 185.857 65.1378V70H184.057V65.4162C184.057 64.9025 183.925 64.5031 183.66 64.218C183.398 63.9297 183.03 63.7855 182.556 63.7855C182.238 63.7855 181.953 63.8551 181.701 63.9943C181.452 64.1302 181.257 64.3274 181.114 64.5859C180.975 64.8445 180.905 65.1577 180.905 65.5256ZM186.992 70V62.3636H188.791V70H186.992ZM187.896 61.2798C187.611 61.2798 187.366 61.1854 187.161 60.9964C186.955 60.8042 186.852 60.5739 186.852 60.3054C186.852 60.0336 186.955 59.8033 187.161 59.6143C187.366 59.4221 187.611 59.326 187.896 59.326C188.185 59.326 188.43 59.4221 188.632 59.6143C188.838 59.8033 188.94 60.0336 188.94 60.3054C188.94 60.5739 188.838 60.8042 188.632 60.9964C188.43 61.1854 188.185 61.2798 187.896 61.2798ZM191.742 65.5256V70H189.942V62.3636H191.662V63.6612H191.752C191.927 63.2337 192.207 62.8939 192.592 62.642C192.98 62.3902 193.458 62.2642 194.029 62.2642C194.556 62.2642 195.015 62.3769 195.406 62.6023C195.8 62.8277 196.105 63.1541 196.32 63.5817C196.539 64.0092 196.647 64.5279 196.644 65.1378V70H194.844V65.4162C194.844 64.9058 194.711 64.5064 194.446 64.218C194.184 63.9297 193.821 63.7855 193.357 63.7855C193.043 63.7855 192.762 63.8551 192.517 63.9943C192.275 64.1302 192.085 64.3274 191.945 64.5859C191.81 64.8445 191.742 65.1577 191.742 65.5256ZM201.094 73.0227C200.448 73.0227 199.893 72.9349 199.429 72.7592C198.965 72.5869 198.592 72.3549 198.31 72.0632C198.028 71.7715 197.833 71.4484 197.723 71.0938L199.344 70.701C199.417 70.8501 199.523 70.9976 199.662 71.1435C199.802 71.2926 199.989 71.4152 200.224 71.5114C200.463 71.6108 200.763 71.6605 201.124 71.6605C201.634 71.6605 202.057 71.5362 202.392 71.2876C202.727 71.0424 202.894 70.638 202.894 70.0746V68.6278H202.804C202.712 68.8134 202.576 69.004 202.397 69.1996C202.221 69.3951 201.987 69.5592 201.696 69.6918C201.407 69.8243 201.044 69.8906 200.607 69.8906C200.02 69.8906 199.488 69.7531 199.011 69.478C198.537 69.1996 198.159 68.7853 197.878 68.2351C197.599 67.6816 197.46 66.9889 197.46 66.157C197.46 65.3184 197.599 64.6108 197.878 64.0341C198.159 63.4541 198.539 63.0149 199.016 62.7166C199.493 62.415 200.025 62.2642 200.612 62.2642C201.059 62.2642 201.427 62.3404 201.716 62.4929C202.007 62.642 202.239 62.8227 202.412 63.0348C202.584 63.2436 202.715 63.4408 202.804 63.6264H202.904V62.3636H204.679V70.1243C204.679 70.7772 204.523 71.3175 204.211 71.745C203.9 72.1726 203.474 72.4924 202.934 72.7045C202.393 72.9167 201.78 73.0227 201.094 73.0227ZM201.109 68.4787C201.49 68.4787 201.815 68.3859 202.084 68.2003C202.352 68.0147 202.556 67.7479 202.695 67.3999C202.834 67.0518 202.904 66.6342 202.904 66.147C202.904 65.6664 202.834 65.2455 202.695 64.8842C202.559 64.523 202.357 64.2429 202.088 64.044C201.823 63.8419 201.497 63.7408 201.109 63.7408C200.708 63.7408 200.373 63.8452 200.105 64.054C199.836 64.2628 199.634 64.5495 199.498 64.9141C199.362 65.2753 199.294 65.6863 199.294 66.147C199.294 66.6143 199.362 67.0237 199.498 67.375C199.637 67.723 199.841 67.9948 200.11 68.1903C200.382 68.3826 200.715 68.4787 201.109 68.4787ZM207.543 67.0071V66.8778C207.547 66.2779 207.603 65.8007 207.712 65.446C207.825 65.0914 207.984 64.8063 208.19 64.5909C208.395 64.3722 208.645 64.1716 208.94 63.9893C209.143 63.8634 209.323 63.7259 209.482 63.5767C209.645 63.4242 209.772 63.2552 209.865 63.0696C209.958 62.8807 210.004 62.6702 210.004 62.4382C210.004 62.1764 209.943 61.9493 209.82 61.7571C209.698 61.5649 209.532 61.4157 209.323 61.3097C209.118 61.2036 208.887 61.1506 208.632 61.1506C208.397 61.1506 208.173 61.2019 207.961 61.3047C207.752 61.4041 207.578 61.5566 207.439 61.7621C207.303 61.9643 207.227 62.2211 207.21 62.5327H205.44C205.457 61.9029 205.609 61.3759 205.898 60.9517C206.189 60.5275 206.574 60.2093 207.051 59.9972C207.532 59.785 208.062 59.679 208.642 59.679C209.275 59.679 209.832 59.79 210.312 60.0121C210.796 60.2341 211.173 60.5507 211.441 60.9616C211.713 61.3693 211.849 61.8532 211.849 62.4134C211.849 62.7912 211.787 63.1293 211.665 63.4276C211.545 63.7259 211.375 63.991 211.153 64.223C210.931 64.455 210.667 64.6622 210.362 64.8445C210.094 65.0102 209.873 65.1825 209.701 65.3615C209.532 65.5405 209.406 65.7509 209.323 65.9929C209.244 66.2315 209.202 66.5265 209.199 66.8778V67.0071H207.543ZM208.408 70.1094C208.11 70.1094 207.853 70.0033 207.638 69.7912C207.422 69.5791 207.315 69.3205 207.315 69.0156C207.315 68.7173 207.422 68.4621 207.638 68.25C207.853 68.0379 208.11 67.9318 208.408 67.9318C208.703 67.9318 208.959 68.0379 209.174 68.25C209.393 68.4621 209.502 68.7173 209.502 69.0156C209.502 69.2178 209.451 69.4018 209.348 69.5675C209.249 69.7332 209.116 69.8658 208.95 69.9652C208.788 70.0613 208.607 70.1094 208.408 70.1094Z" fill="black"/>
<path d="M14.1186 37V26.8182H17.7479C18.5367 26.8182 19.1913 26.9541 19.7116 27.2259C20.2353 27.4976 20.6264 27.8738 20.8849 28.3544C21.1435 28.8317 21.2727 29.3835 21.2727 30.0099C21.2727 30.633 21.1418 31.1816 20.88 31.6555C20.6214 32.1262 20.2304 32.4924 19.7067 32.7543C19.1863 33.0161 18.5317 33.147 17.7429 33.147H14.9936V31.8246H17.6037C18.1009 31.8246 18.5052 31.7533 18.8168 31.6108C19.1316 31.4683 19.362 31.2611 19.5078 30.9893C19.6536 30.7176 19.7266 30.3911 19.7266 30.0099C19.7266 29.6255 19.652 29.2924 19.5028 29.0107C19.357 28.7289 19.1267 28.5135 18.8118 28.3643C18.5002 28.2119 18.0909 28.1357 17.5838 28.1357H15.6548V37H14.1186ZM19.1449 32.4062L21.6605 37H19.9105L17.4446 32.4062H19.1449ZM25.5182 37.1541C24.7659 37.1541 24.1179 36.9934 23.5743 36.6719C23.0341 36.3471 22.6165 35.8913 22.3215 35.3047C22.0298 34.7147 21.884 34.0237 21.884 33.2315C21.884 32.4493 22.0298 31.7599 22.3215 31.1634C22.6165 30.5668 23.0275 30.1011 23.5544 29.7663C24.0847 29.4316 24.7045 29.2642 25.4138 29.2642C25.8447 29.2642 26.2623 29.3355 26.6667 29.478C27.071 29.6205 27.4339 29.8442 27.7554 30.1491C28.0769 30.4541 28.3305 30.8501 28.5161 31.3374C28.7017 31.8213 28.7945 32.4096 28.7945 33.1023V33.6293H22.7242V32.5156H27.3378C27.3378 32.1245 27.2583 31.7782 27.0992 31.4766C26.9401 31.1716 26.7164 30.9313 26.428 30.7557C26.143 30.58 25.8082 30.4922 25.4238 30.4922C25.0061 30.4922 24.6416 30.5949 24.33 30.8004C24.0218 31.0026 23.7831 31.2678 23.6141 31.5959C23.4484 31.9207 23.3655 32.2737 23.3655 32.6548V33.5249C23.3655 34.0353 23.455 34.4695 23.634 34.8274C23.8163 35.1854 24.0698 35.4588 24.3946 35.6477C24.7194 35.8333 25.0989 35.9261 25.5331 35.9261C25.8149 35.9261 26.0717 35.8864 26.3037 35.8068C26.5357 35.724 26.7363 35.6013 26.9053 35.4389C27.0743 35.2765 27.2036 35.076 27.2931 34.8374L28.7 35.0909C28.5873 35.5052 28.3852 35.8681 28.0935 36.1797C27.8051 36.4879 27.4422 36.7282 27.0047 36.9006C26.5705 37.0696 26.075 37.1541 25.5182 37.1541ZM35.4661 31.228L34.1188 31.4666C34.0625 31.2943 33.973 31.1302 33.8504 30.9744C33.731 30.8187 33.5686 30.6911 33.3631 30.5916C33.1576 30.4922 32.9008 30.4425 32.5925 30.4425C32.1716 30.4425 31.8203 30.5369 31.5386 30.7259C31.2568 30.9115 31.116 31.1518 31.116 31.4467C31.116 31.7019 31.2104 31.9074 31.3994 32.0632C31.5883 32.219 31.8932 32.3466 32.3141 32.446L33.5272 32.7244C34.2299 32.8868 34.7535 33.1371 35.0982 33.4751C35.4429 33.8132 35.6153 34.2524 35.6153 34.7926C35.6153 35.25 35.4827 35.6577 35.2175 36.0156C34.9557 36.3703 34.5895 36.6487 34.1188 36.8509C33.6515 37.053 33.1096 37.1541 32.4931 37.1541C31.638 37.1541 30.9403 36.9718 30.4001 36.6072C29.8598 36.2393 29.5284 35.7173 29.4058 35.0412L30.8425 34.8224C30.932 35.197 31.116 35.4804 31.3944 35.6726C31.6728 35.8615 32.0357 35.956 32.4832 35.956C32.9704 35.956 33.3598 35.8549 33.6515 35.6527C33.9432 35.4472 34.089 35.197 34.089 34.902C34.089 34.6634 33.9995 34.4628 33.8205 34.3004C33.6449 34.138 33.3747 34.0154 33.0102 33.9325L31.7175 33.6491C31.0049 33.4867 30.478 33.2282 30.1366 32.8736C29.7985 32.5189 29.6295 32.0698 29.6295 31.5263C29.6295 31.0755 29.7554 30.6811 30.0073 30.343C30.2592 30.005 30.6072 29.7415 31.0513 29.5526C31.4955 29.3603 32.0042 29.2642 32.5776 29.2642C33.4029 29.2642 34.0525 29.4432 34.5265 29.8011C35.0005 30.1558 35.3137 30.6314 35.4661 31.228ZM40.1143 29.3636V30.5568H35.9431V29.3636H40.1143ZM37.0618 27.5341H38.5483V34.7578C38.5483 35.0462 38.5913 35.2633 38.6775 35.4091C38.7637 35.5516 38.8747 35.6494 39.0106 35.7024C39.1498 35.7521 39.3006 35.777 39.463 35.777C39.5824 35.777 39.6868 35.7687 39.7762 35.7521C39.8657 35.7356 39.9353 35.7223 39.985 35.7124L40.2535 36.9403C40.1673 36.9735 40.0447 37.0066 39.8856 37.0398C39.7265 37.0762 39.5277 37.0961 39.289 37.0994C38.8979 37.1061 38.5333 37.0365 38.1953 36.8906C37.8572 36.7448 37.5838 36.5194 37.375 36.2145C37.1662 35.9096 37.0618 35.5268 37.0618 35.0661V27.5341ZM44.1933 37.1541C43.4773 37.1541 42.8526 36.9901 42.319 36.6619C41.7853 36.3338 41.371 35.8748 41.0761 35.2848C40.7811 34.6948 40.6336 34.0054 40.6336 33.2166C40.6336 32.4245 40.7811 31.7318 41.0761 31.1385C41.371 30.5452 41.7853 30.0845 42.319 29.7564C42.8526 29.4283 43.4773 29.2642 44.1933 29.2642C44.9092 29.2642 45.5339 29.4283 46.0675 29.7564C46.6012 30.0845 47.0155 30.5452 47.3104 31.1385C47.6054 31.7318 47.7529 32.4245 47.7529 33.2166C47.7529 34.0054 47.6054 34.6948 47.3104 35.2848C47.0155 35.8748 46.6012 36.3338 46.0675 36.6619C45.5339 36.9901 44.9092 37.1541 44.1933 37.1541ZM44.1982 35.9062C44.6622 35.9062 45.0467 35.7836 45.3516 35.5384C45.6566 35.2931 45.8819 34.9666 46.0278 34.5589C46.1769 34.1513 46.2515 33.7022 46.2515 33.2116C46.2515 32.7244 46.1769 32.277 46.0278 31.8693C45.8819 31.4583 45.6566 31.1286 45.3516 30.88C45.0467 30.6314 44.6622 30.5071 44.1982 30.5071C43.7309 30.5071 43.3431 30.6314 43.0349 30.88C42.7299 31.1286 42.5029 31.4583 42.3538 31.8693C42.2079 32.277 42.135 32.7244 42.135 33.2116C42.135 33.7022 42.2079 34.1513 42.3538 34.5589C42.5029 34.9666 42.7299 35.2931 43.0349 35.5384C43.3431 35.7836 43.7309 35.9062 44.1982 35.9062ZM49.6916 37.0945C49.4198 37.0945 49.1861 36.9983 48.9906 36.8061C48.795 36.6106 48.6973 36.3752 48.6973 36.1001C48.6973 35.8284 48.795 35.5964 48.9906 35.4041C49.1861 35.2086 49.4198 35.1108 49.6916 35.1108C49.9634 35.1108 50.197 35.2086 50.3926 35.4041C50.5881 35.5964 50.6859 35.8284 50.6859 36.1001C50.6859 36.2824 50.6395 36.4498 50.5467 36.6023C50.4572 36.7514 50.3379 36.8707 50.1887 36.9602C50.0396 37.0497 49.8739 37.0945 49.6916 37.0945ZM49.6916 31.5362C49.4198 31.5362 49.1861 31.4384 48.9906 31.2429C48.795 31.0473 48.6973 30.8137 48.6973 30.5419C48.6973 30.2701 48.795 30.0381 48.9906 29.8459C49.1861 29.6503 49.4198 29.5526 49.6916 29.5526C49.9634 29.5526 50.197 29.6503 50.3926 29.8459C50.5881 30.0381 50.6859 30.2701 50.6859 30.5419C50.6859 30.7242 50.6395 30.8916 50.5467 31.044C50.4572 31.1932 50.3379 31.3125 50.1887 31.402C50.0396 31.4915 49.8739 31.5362 49.6916 31.5362Z" fill="#848484"/>
</svg>
