<svg width="286" height="221" viewBox="0 0 286 221" fill="none" xmlns="http://www.w3.org/2000/svg">
<g opacity="0.2" filter="url(#filter0_f_602_338)">
<circle cx="160.826" cy="113.826" r="54.3696" transform="rotate(15.3556 160.826 113.826)" fill="#FF4343"/>
</g>
<g opacity="0.6">
<g opacity="0.5">
<line x1="18.5" y1="52" x2="18.5" y2="215" stroke="#323232"/>
<line x1="68.5" y1="52" x2="68.5" y2="215" stroke="#323232"/>
<line x1="118.5" y1="52" x2="118.5" y2="215" stroke="#323232"/>
<line x1="168.5" y1="52" x2="168.5" y2="215" stroke="#323232"/>
<line x1="218.5" y1="52" x2="218.5" y2="215" stroke="#323232"/>
<line x1="268.5" y1="52" x2="268.5" y2="215" stroke="#323232"/>
</g>
<line x1="2.66118e-08" y1="195.5" x2="286" y2="195.5" stroke="#323232"/>
<line x1="4.91475e-08" y1="153.5" x2="286" y2="153.5" stroke="#323232"/>
<line x1="4.83967e-08" y1="111.5" x2="286" y2="111.5" stroke="#323232"/>
<line x1="4.65608e-08" y1="69.5" x2="286" y2="69.5" stroke="#323232"/>
</g>
<path d="M3.45881 149.727V157H2.35795V150.828H2.31534L0.575284 151.964V150.913L2.38991 149.727H3.45881ZM7.4581 157.099C6.97041 157.099 6.5348 157.015 6.15128 156.847C5.77012 156.679 5.46828 156.446 5.24574 156.148C5.02557 155.847 4.9072 155.499 4.89062 155.104H6.00568C6.01989 155.319 6.09209 155.506 6.2223 155.665C6.35488 155.821 6.5277 155.942 6.74077 156.027C6.95384 156.112 7.19058 156.155 7.45099 156.155C7.73745 156.155 7.99077 156.105 8.21094 156.006C8.43348 155.906 8.60748 155.768 8.73295 155.59C8.85843 155.41 8.92116 155.203 8.92116 154.969C8.92116 154.725 8.85843 154.511 8.73295 154.326C8.60985 154.139 8.42874 153.992 8.18963 153.886C7.95289 153.779 7.66643 153.726 7.33026 153.726H6.71591V152.831H7.33026C7.60014 152.831 7.83688 152.782 8.04048 152.685C8.24645 152.588 8.40743 152.453 8.52344 152.281C8.63944 152.105 8.69744 151.901 8.69744 151.666C8.69744 151.441 8.64654 151.246 8.54474 151.08C8.44531 150.912 8.30327 150.781 8.11861 150.686C7.93632 150.591 7.72088 150.544 7.4723 150.544C7.23556 150.544 7.0142 150.588 6.80824 150.675C6.60464 150.761 6.43892 150.884 6.31108 151.045C6.18324 151.203 6.11458 151.394 6.10511 151.616H5.04332C5.05516 151.223 5.17116 150.878 5.39134 150.58C5.61387 150.281 5.90743 150.048 6.27202 149.88C6.6366 149.712 7.04143 149.628 7.48651 149.628C7.95289 149.628 8.35535 149.719 8.69389 149.901C9.0348 150.081 9.29759 150.321 9.48224 150.622C9.66927 150.923 9.7616 151.252 9.75923 151.609C9.7616 152.017 9.64796 152.362 9.41832 152.646C9.19105 152.93 8.88802 153.121 8.50923 153.218V153.275C8.99219 153.348 9.36624 153.54 9.63139 153.85C9.89891 154.16 10.0315 154.545 10.0291 155.004C10.0315 155.404 9.92022 155.763 9.69531 156.08C9.47277 156.397 9.16856 156.647 8.78267 156.83C8.39678 157.009 7.95526 157.099 7.4581 157.099Z" fill="#3A3939"/>
<path d="M15 168.271C23.5314 163.009 42.7609 152.146 51.4287 150.793C62.2633 149.102 73.0193 155.989 79.7057 155.448C85.539 154.975 93.6992 140.365 101.13 141.628C108.561 142.89 113.693 154.411 123.204 157.541C132.715 160.671 148.391 148.902 160.287 116.91C172.184 84.9185 177.365 81.1563 196.056 75.4005C214.748 69.6446 240.462 85.5207 249.73 51.7701" stroke="url(#paint0_linear_602_338)" stroke-width="3"/>
<circle opacity="0.2" cx="160.539" cy="113.539" r="19.1515" transform="rotate(15.3556 160.539 113.539)" fill="#FF4B4B"/>
<circle cx="161.082" cy="114.017" r="7.5" transform="rotate(15.3556 161.082 114.017)" fill="#FF0000"/>
<defs>
<filter id="filter0_f_602_338" x="56.4429" y="9.44287" width="208.767" height="208.767" filterUnits="userSpaceOnUse" color-interpolation-filters="sRGB">
<feFlood flood-opacity="0" result="BackgroundImageFix"/>
<feBlend mode="normal" in="SourceGraphic" in2="BackgroundImageFix" result="shape"/>
<feGaussianBlur stdDeviation="25" result="effect1_foregroundBlur_602_338"/>
</filter>
<linearGradient id="paint0_linear_602_338" x1="163.53" y1="118.319" x2="14.8677" y2="168.753" gradientUnits="userSpaceOnUse">
<stop stop-color="#291D1D"/>
<stop offset="0.06" stop-color="#F20E0E"/>
<stop offset="0.965" stop-color="#1B1B1B"/>
</linearGradient>
</defs>
</svg>
