<svg width="265" height="359" viewBox="0 0 265 359" fill="none" xmlns="http://www.w3.org/2000/svg">
<mask id="path-1-outside-1_589_332" maskUnits="userSpaceOnUse" x="35" y="116" width="179" height="223" fill="black">
<rect fill="white" x="35" y="116" width="179" height="223"/>
<path d="M37.9631 337V118.818H124.043C140.52 118.818 154.582 121.766 166.23 127.661C177.949 133.484 186.862 141.759 192.97 152.483C199.149 163.136 202.239 175.672 202.239 190.089C202.239 204.578 199.114 217.043 192.864 227.483C186.614 237.852 177.558 245.807 165.697 251.347C153.908 256.886 139.632 259.656 122.871 259.656H65.2358V222.582H115.413C124.22 222.582 131.536 221.375 137.359 218.96C143.183 216.545 147.516 212.923 150.357 208.094C153.268 203.264 154.724 197.263 154.724 190.089C154.724 182.845 153.268 176.737 150.357 171.766C147.516 166.794 143.148 163.03 137.253 160.473C131.429 157.845 124.078 156.531 115.2 156.531H84.0923V337H37.9631ZM155.79 237.71L210.016 337H159.092L106.038 237.71H155.79Z"/>
</mask>
<path d="M37.9631 337V118.818H124.043C140.52 118.818 154.582 121.766 166.23 127.661C177.949 133.484 186.862 141.759 192.97 152.483C199.149 163.136 202.239 175.672 202.239 190.089C202.239 204.578 199.114 217.043 192.864 227.483C186.614 237.852 177.558 245.807 165.697 251.347C153.908 256.886 139.632 259.656 122.871 259.656H65.2358V222.582H115.413C124.22 222.582 131.536 221.375 137.359 218.96C143.183 216.545 147.516 212.923 150.357 208.094C153.268 203.264 154.724 197.263 154.724 190.089C154.724 182.845 153.268 176.737 150.357 171.766C147.516 166.794 143.148 163.03 137.253 160.473C131.429 157.845 124.078 156.531 115.2 156.531H84.0923V337H37.9631ZM155.79 237.71L210.016 337H159.092L106.038 237.71H155.79Z" fill="#525252"/>
<path d="M37.9631 337H35.9631V339H37.9631V337ZM37.9631 118.818V116.818H35.9631V118.818H37.9631ZM166.23 127.661L165.327 129.445L165.334 129.448L165.34 129.452L166.23 127.661ZM192.97 152.483L191.232 153.473L191.236 153.48L191.24 153.486L192.97 152.483ZM192.864 227.483L194.577 228.515L194.58 228.51L192.864 227.483ZM165.697 251.347L164.851 249.534L164.847 249.536L165.697 251.347ZM65.2358 259.656H63.2358V261.656H65.2358V259.656ZM65.2358 222.582V220.582H63.2358V222.582H65.2358ZM137.359 218.96L138.125 220.808L138.125 220.808L137.359 218.96ZM150.357 208.094L148.644 207.061L148.638 207.07L148.633 207.08L150.357 208.094ZM150.357 171.766L148.62 172.758L148.625 172.767L148.631 172.776L150.357 171.766ZM137.253 160.473L136.43 162.296L136.444 162.302L136.457 162.308L137.253 160.473ZM84.0923 156.531V154.531H82.0923V156.531H84.0923ZM84.0923 337V339H86.0923V337H84.0923ZM155.79 237.71L157.545 236.752L156.976 235.71H155.79V237.71ZM210.016 337V339H213.387L211.771 336.041L210.016 337ZM159.092 337L157.328 337.943L157.893 339H159.092V337ZM106.038 237.71V235.71H102.702L104.274 238.653L106.038 237.71ZM39.9631 337V118.818H35.9631V337H39.9631ZM37.9631 120.818H124.043V116.818H37.9631V120.818ZM124.043 120.818C140.286 120.818 154.023 123.724 165.327 129.445L167.133 125.876C155.142 119.807 140.753 116.818 124.043 116.818V120.818ZM165.34 129.452C176.725 135.11 185.333 143.115 191.232 153.473L194.708 151.493C188.391 140.402 179.172 131.859 167.12 125.869L165.34 129.452ZM191.24 153.486C197.214 163.786 200.239 175.964 200.239 190.089H204.239C204.239 175.38 201.084 162.486 194.7 151.48L191.24 153.486ZM200.239 190.089C200.239 204.286 197.179 216.38 191.148 226.456L194.58 228.51C201.048 217.705 204.239 204.87 204.239 190.089H200.239ZM191.151 226.451C185.123 236.452 176.383 244.149 164.851 249.534L166.544 253.159C178.734 247.465 188.105 239.253 194.577 228.515L191.151 226.451ZM164.847 249.536C153.388 254.921 139.419 257.656 122.871 257.656V261.656C139.845 261.656 154.427 258.852 166.548 253.157L164.847 249.536ZM122.871 257.656H65.2358V261.656H122.871V257.656ZM67.2358 259.656V222.582H63.2358V259.656H67.2358ZM65.2358 224.582H115.413V220.582H65.2358V224.582ZM115.413 224.582C124.386 224.582 131.983 223.355 138.125 220.808L136.593 217.113C131.088 219.395 124.054 220.582 115.413 220.582V224.582ZM138.125 220.808C144.298 218.248 148.992 214.358 152.08 209.108L148.633 207.08C146.039 211.488 142.069 214.843 136.593 217.113L138.125 220.808ZM152.069 209.126C155.214 203.911 156.724 197.529 156.724 190.089H152.724C152.724 196.996 151.323 202.617 148.644 207.061L152.069 209.126ZM156.724 190.089C156.724 182.58 155.215 176.103 152.082 170.755L148.631 172.776C151.322 177.372 152.724 183.11 152.724 190.089H156.724ZM152.093 170.773C149.012 165.381 144.289 161.345 138.049 158.638L136.457 162.308C142.006 164.715 146.019 168.207 148.62 172.758L152.093 170.773ZM138.075 158.65C131.913 155.869 124.258 154.531 115.2 154.531V158.531C123.898 158.531 130.945 159.821 136.43 162.296L138.075 158.65ZM115.2 154.531H84.0923V158.531H115.2V154.531ZM82.0923 156.531V337H86.0923V156.531H82.0923ZM84.0923 335H37.9631V339H84.0923V335ZM154.034 238.669L208.26 337.959L211.771 336.041L157.545 236.752L154.034 238.669ZM210.016 335H159.092V339H210.016V335ZM160.856 336.057L107.802 236.768L104.274 238.653L157.328 337.943L160.856 336.057ZM106.038 239.71H155.79V235.71H106.038V239.71Z" fill="#C6C6C6" mask="url(#path-1-outside-1_589_332)"/>
<path d="M176 294.639L179.449 311.501C180.017 310.19 179.433 307.919 183.07 304.666C186.707 301.412 191.157 303.012 191.157 303.012L176 294.639Z" fill="white"/>
<rect x="184" y="304" width="81" height="28" rx="14" fill="#FF3434"/>
<path d="M203.818 322H200.861V313.273H203.878C204.744 313.273 205.489 313.447 206.111 313.797C206.736 314.143 207.216 314.642 207.551 315.293C207.886 315.943 208.054 316.722 208.054 317.628C208.054 318.537 207.885 319.318 207.547 319.972C207.212 320.625 206.727 321.126 206.094 321.476C205.463 321.825 204.705 322 203.818 322ZM202.442 320.632H203.741C204.349 320.632 204.857 320.521 205.263 320.3C205.669 320.075 205.974 319.741 206.179 319.298C206.384 318.852 206.486 318.295 206.486 317.628C206.486 316.96 206.384 316.406 206.179 315.966C205.974 315.523 205.672 315.192 205.271 314.973C204.874 314.751 204.379 314.641 203.788 314.641H202.442V320.632ZM211.786 322.128C211.129 322.128 210.563 321.991 210.085 321.719C209.611 321.443 209.246 321.054 208.99 320.551C208.735 320.045 208.607 319.45 208.607 318.766C208.607 318.092 208.735 317.501 208.99 316.993C209.249 316.482 209.61 316.084 210.073 315.8C210.536 315.513 211.08 315.369 211.705 315.369C212.108 315.369 212.489 315.435 212.847 315.565C213.208 315.693 213.526 315.892 213.801 316.162C214.08 316.432 214.298 316.776 214.458 317.193C214.617 317.608 214.696 318.102 214.696 318.676V319.149H209.331V318.109H213.217C213.215 317.814 213.151 317.551 213.026 317.321C212.901 317.088 212.726 316.905 212.502 316.771C212.28 316.638 212.021 316.571 211.726 316.571C211.411 316.571 211.134 316.648 210.895 316.801C210.656 316.952 210.47 317.151 210.337 317.398C210.206 317.642 210.139 317.911 210.137 318.203V319.111C210.137 319.491 210.206 319.818 210.345 320.091C210.485 320.361 210.679 320.568 210.929 320.713C211.179 320.855 211.472 320.926 211.807 320.926C212.031 320.926 212.235 320.895 212.416 320.832C212.598 320.767 212.756 320.672 212.889 320.547C213.023 320.422 213.124 320.267 213.192 320.082L214.632 320.244C214.541 320.625 214.368 320.957 214.112 321.241C213.86 321.523 213.536 321.741 213.141 321.898C212.746 322.051 212.294 322.128 211.786 322.128ZM220.575 317.185L219.168 317.338C219.128 317.196 219.059 317.062 218.959 316.938C218.863 316.812 218.732 316.712 218.567 316.635C218.403 316.558 218.201 316.52 217.962 316.52C217.641 316.52 217.371 316.589 217.153 316.729C216.937 316.868 216.83 317.048 216.833 317.27C216.83 317.46 216.9 317.615 217.042 317.734C217.187 317.854 217.425 317.952 217.758 318.028L218.874 318.267C219.494 318.401 219.954 318.612 220.255 318.902C220.559 319.192 220.712 319.571 220.715 320.04C220.712 320.452 220.592 320.815 220.353 321.131C220.117 321.443 219.789 321.687 219.369 321.864C218.948 322.04 218.465 322.128 217.92 322.128C217.119 322.128 216.474 321.96 215.985 321.625C215.496 321.287 215.205 320.817 215.111 320.214L216.616 320.07C216.684 320.365 216.829 320.588 217.05 320.739C217.272 320.889 217.56 320.964 217.915 320.964C218.282 320.964 218.576 320.889 218.798 320.739C219.022 320.588 219.134 320.402 219.134 320.18C219.134 319.993 219.062 319.838 218.917 319.716C218.775 319.594 218.553 319.5 218.252 319.435L217.136 319.2C216.508 319.07 216.043 318.849 215.742 318.54C215.441 318.227 215.292 317.832 215.295 317.355C215.292 316.952 215.401 316.602 215.623 316.307C215.847 316.009 216.158 315.778 216.556 315.616C216.957 315.452 217.418 315.369 217.941 315.369C218.708 315.369 219.312 315.533 219.752 315.859C220.195 316.186 220.469 316.628 220.575 317.185ZM221.387 322V315.455H222.93V322H221.387ZM222.163 314.526C221.918 314.526 221.708 314.445 221.532 314.283C221.356 314.118 221.268 313.92 221.268 313.69C221.268 313.457 221.356 313.26 221.532 313.098C221.708 312.933 221.918 312.851 222.163 312.851C222.41 312.851 222.62 312.933 222.793 313.098C222.97 313.26 223.058 313.457 223.058 313.69C223.058 313.92 222.97 314.118 222.793 314.283C222.62 314.445 222.41 314.526 222.163 314.526ZM226.763 324.591C226.209 324.591 225.733 324.516 225.335 324.365C224.937 324.217 224.618 324.018 224.376 323.768C224.135 323.518 223.967 323.241 223.873 322.938L225.263 322.601C225.325 322.729 225.416 322.855 225.535 322.98C225.655 323.108 225.815 323.213 226.017 323.295C226.221 323.381 226.479 323.423 226.788 323.423C227.226 323.423 227.588 323.317 227.875 323.104C228.162 322.893 228.305 322.547 228.305 322.064V320.824H228.229C228.149 320.983 228.033 321.146 227.879 321.314C227.729 321.482 227.528 321.622 227.278 321.736C227.031 321.849 226.72 321.906 226.345 321.906C225.842 321.906 225.386 321.788 224.977 321.553C224.571 321.314 224.247 320.959 224.006 320.487C223.767 320.013 223.648 319.419 223.648 318.706C223.648 317.987 223.767 317.381 224.006 316.886C224.247 316.389 224.572 316.013 224.981 315.757C225.39 315.499 225.846 315.369 226.349 315.369C226.733 315.369 227.048 315.435 227.295 315.565C227.545 315.693 227.744 315.848 227.892 316.03C228.04 316.209 228.152 316.378 228.229 316.537H228.314V315.455H229.835V322.107C229.835 322.666 229.702 323.129 229.435 323.496C229.167 323.862 228.802 324.136 228.339 324.318C227.876 324.5 227.351 324.591 226.763 324.591ZM226.775 320.696C227.102 320.696 227.381 320.616 227.611 320.457C227.841 320.298 228.015 320.07 228.135 319.771C228.254 319.473 228.314 319.115 228.314 318.697C228.314 318.286 228.254 317.925 228.135 317.615C228.018 317.305 227.845 317.065 227.615 316.895C227.388 316.722 227.108 316.635 226.775 316.635C226.432 316.635 226.145 316.724 225.915 316.903C225.685 317.082 225.511 317.328 225.395 317.641C225.278 317.95 225.22 318.303 225.22 318.697C225.22 319.098 225.278 319.449 225.395 319.75C225.514 320.048 225.689 320.281 225.919 320.449C226.152 320.614 226.437 320.696 226.775 320.696ZM232.359 318.165V322H230.816V315.455H232.29V316.567H232.367C232.518 316.2 232.758 315.909 233.087 315.693C233.42 315.477 233.83 315.369 234.319 315.369C234.771 315.369 235.164 315.466 235.499 315.659C235.837 315.852 236.099 316.132 236.283 316.499C236.471 316.865 236.563 317.31 236.56 317.832V322H235.018V318.071C235.018 317.634 234.904 317.291 234.677 317.044C234.452 316.797 234.141 316.673 233.744 316.673C233.474 316.673 233.234 316.733 233.023 316.852C232.816 316.969 232.653 317.138 232.533 317.359C232.417 317.581 232.359 317.849 232.359 318.165ZM240.426 322.128C239.77 322.128 239.203 321.991 238.726 321.719C238.252 321.443 237.887 321.054 237.631 320.551C237.375 320.045 237.247 319.45 237.247 318.766C237.247 318.092 237.375 317.501 237.631 316.993C237.889 316.482 238.25 316.084 238.713 315.8C239.176 315.513 239.72 315.369 240.345 315.369C240.749 315.369 241.129 315.435 241.487 315.565C241.848 315.693 242.166 315.892 242.442 316.162C242.72 316.432 242.939 316.776 243.098 317.193C243.257 317.608 243.337 318.102 243.337 318.676V319.149H237.972V318.109H241.858C241.855 317.814 241.791 317.551 241.666 317.321C241.541 317.088 241.367 316.905 241.142 316.771C240.921 316.638 240.662 316.571 240.367 316.571C240.051 316.571 239.774 316.648 239.536 316.801C239.297 316.952 239.111 317.151 238.977 317.398C238.847 317.642 238.78 317.911 238.777 318.203V319.111C238.777 319.491 238.847 319.818 238.986 320.091C239.125 320.361 239.32 320.568 239.57 320.713C239.82 320.855 240.112 320.926 240.448 320.926C240.672 320.926 240.875 320.895 241.057 320.832C241.239 320.767 241.396 320.672 241.53 320.547C241.663 320.422 241.764 320.267 241.833 320.082L243.273 320.244C243.182 320.625 243.009 320.957 242.753 321.241C242.5 321.523 242.176 321.741 241.781 321.898C241.387 322.051 240.935 322.128 240.426 322.128ZM244.042 322V315.455H245.538V316.545H245.606C245.725 316.168 245.93 315.876 246.219 315.672C246.512 315.464 246.846 315.361 247.221 315.361C247.306 315.361 247.401 315.365 247.506 315.374C247.614 315.379 247.704 315.389 247.775 315.403V316.822C247.709 316.8 247.606 316.78 247.464 316.763C247.325 316.743 247.19 316.733 247.059 316.733C246.778 316.733 246.525 316.794 246.3 316.916C246.079 317.036 245.904 317.202 245.776 317.415C245.648 317.628 245.584 317.874 245.584 318.152V322H244.042Z" fill="white"/>
<path d="M70.6654 30L56 33.9296C57.1848 34.3606 59.1533 33.7262 62.2107 36.7564C65.2681 39.7865 64.0953 43.7898 64.0953 43.7898L70.6654 30Z" fill="white"/>
<rect y="34.9957" width="59" height="28" rx="14" fill="#8BFF3D"/>
<path d="M19.2642 44.2685H21.0497L23.1847 48.1293H23.2699L25.4048 44.2685H27.1903L24.0156 49.74V52.9957H22.4389V49.74L19.2642 44.2685ZM29.2782 53.1236C28.639 53.1236 28.085 52.9829 27.6163 52.7017C27.1475 52.4204 26.7839 52.027 26.5254 51.5213C26.2697 51.0156 26.1418 50.4247 26.1418 49.7486C26.1418 49.0724 26.2697 48.4801 26.5254 47.9716C26.7839 47.4631 27.1475 47.0682 27.6163 46.7869C28.085 46.5057 28.639 46.365 29.2782 46.365C29.9174 46.365 30.4714 46.5057 30.9401 46.7869C31.4089 47.0682 31.7711 47.4631 32.0268 47.9716C32.2853 48.4801 32.4146 49.0724 32.4146 49.7486C32.4146 50.4247 32.2853 51.0156 32.0268 51.5213C31.7711 52.027 31.4089 52.4204 30.9401 52.7017C30.4714 52.9829 29.9174 53.1236 29.2782 53.1236ZM29.2867 51.8878C29.6333 51.8878 29.9231 51.7926 30.156 51.6023C30.389 51.4091 30.5623 51.1506 30.6759 50.8267C30.7924 50.5028 30.8506 50.142 30.8506 49.7443C30.8506 49.3437 30.7924 48.9815 30.6759 48.6577C30.5623 48.331 30.389 48.071 30.156 47.8778C29.9231 47.6846 29.6333 47.5881 29.2867 47.5881C28.9316 47.5881 28.6362 47.6846 28.4004 47.8778C28.1674 48.071 27.9927 48.331 27.8762 48.6577C27.7626 48.9815 27.7058 49.3437 27.7058 49.7443C27.7058 50.142 27.7626 50.5028 27.8762 50.8267C27.9927 51.1506 28.1674 51.4091 28.4004 51.6023C28.6362 51.7926 28.9316 51.8878 29.2867 51.8878ZM37.2957 50.2429V46.4503H38.8384V52.9957H37.3426V51.8324H37.2744C37.1267 52.1989 36.8838 52.4986 36.5457 52.7315C36.2105 52.9645 35.7972 53.081 35.3057 53.081C34.8767 53.081 34.4974 52.9858 34.1679 52.7954C33.8412 52.6023 33.5855 52.3224 33.4009 51.956C33.2162 51.5866 33.1239 51.1406 33.1239 50.6179V46.4503H34.6665V50.3793C34.6665 50.794 34.7801 51.1236 35.0074 51.3679C35.2347 51.6122 35.533 51.7344 35.9023 51.7344C36.1295 51.7344 36.3497 51.679 36.5628 51.5682C36.7759 51.4574 36.9506 51.2926 37.0869 51.0739C37.2261 50.8523 37.2957 50.5753 37.2957 50.2429Z" fill="#033641"/>
<path d="M92.108 6.28977H89.983C89.9223 5.94129 89.8106 5.63258 89.6477 5.36364C89.4848 5.09091 89.2822 4.85985 89.0398 4.67045C88.7973 4.48106 88.5208 4.33901 88.2102 4.24432C87.9034 4.14583 87.572 4.09659 87.2159 4.09659C86.5833 4.09659 86.0227 4.25568 85.5341 4.57386C85.0455 4.88826 84.6629 5.35038 84.3864 5.96023C84.1098 6.56629 83.9716 7.30682 83.9716 8.18182C83.9716 9.07197 84.1098 9.82197 84.3864 10.4318C84.6667 11.0379 85.0492 11.4962 85.5341 11.8068C86.0227 12.1136 86.5814 12.267 87.2102 12.267C87.5587 12.267 87.8845 12.2216 88.1875 12.1307C88.4943 12.036 88.7689 11.8977 89.0114 11.7159C89.2576 11.5341 89.464 11.3106 89.6307 11.0455C89.8011 10.7803 89.9186 10.4773 89.983 10.1364L92.108 10.1477C92.0284 10.7008 91.8561 11.2197 91.5909 11.7045C91.3295 12.1894 90.9867 12.6174 90.5625 12.9886C90.1383 13.3561 89.642 13.6439 89.0739 13.8523C88.5057 14.0568 87.875 14.1591 87.1818 14.1591C86.1591 14.1591 85.2462 13.9223 84.4432 13.4489C83.6402 12.9754 83.0076 12.2917 82.5455 11.3977C82.0833 10.5038 81.8523 9.43182 81.8523 8.18182C81.8523 6.92803 82.0852 5.85606 82.5511 4.96591C83.017 4.07197 83.6515 3.38826 84.4545 2.91477C85.2576 2.44129 86.1667 2.20455 87.1818 2.20455C87.8295 2.20455 88.4318 2.29545 88.9886 2.47727C89.5455 2.65909 90.0417 2.92614 90.4773 3.27841C90.9129 3.62689 91.2708 4.05492 91.5511 4.5625C91.8352 5.06629 92.0208 5.64205 92.108 6.28977ZM95.6588 14.1761C95.1058 14.1761 94.6077 14.0777 94.1645 13.8807C93.7251 13.6799 93.3766 13.3845 93.119 12.9943C92.8652 12.6042 92.7384 12.1231 92.7384 11.5511C92.7384 11.0587 92.8293 10.6515 93.0111 10.3295C93.1929 10.0076 93.441 9.75 93.7554 9.55682C94.0698 9.36364 94.424 9.2178 94.8179 9.11932C95.2156 9.01705 95.6266 8.94318 96.0509 8.89773C96.5622 8.8447 96.977 8.79735 97.2952 8.75568C97.6134 8.71023 97.8444 8.64205 97.9884 8.55114C98.1361 8.45644 98.2099 8.31061 98.2099 8.11364V8.07955C98.2099 7.65152 98.083 7.32008 97.8293 7.08523C97.5755 6.85038 97.2099 6.73295 96.7327 6.73295C96.2289 6.73295 95.8293 6.8428 95.5338 7.0625C95.2421 7.2822 95.0452 7.54167 94.9429 7.84091L93.0224 7.56818C93.174 7.03788 93.424 6.5947 93.7724 6.23864C94.1209 5.87879 94.5471 5.60985 95.0509 5.43182C95.5546 5.25 96.1115 5.15909 96.7213 5.15909C97.1418 5.15909 97.5603 5.20833 97.977 5.30682C98.3937 5.4053 98.7743 5.56818 99.119 5.79545C99.4637 6.01894 99.7402 6.32386 99.9486 6.71023C100.161 7.09659 100.267 7.57955 100.267 8.15909V14H98.2895V12.8011H98.2213C98.0963 13.0436 97.9202 13.2708 97.6929 13.483C97.4694 13.6913 97.1872 13.8598 96.8463 13.9886C96.5092 14.1136 96.1134 14.1761 95.6588 14.1761ZM96.1929 12.6648C96.6058 12.6648 96.9637 12.5833 97.2668 12.4205C97.5698 12.2538 97.8027 12.0341 97.9656 11.7614C98.1323 11.4886 98.2156 11.1913 98.2156 10.8693V9.84091C98.1512 9.89394 98.0414 9.94318 97.8861 9.98864C97.7346 10.0341 97.5641 10.0739 97.3747 10.108C97.1853 10.142 96.9978 10.1723 96.8122 10.1989C96.6266 10.2254 96.4656 10.2481 96.3293 10.267C96.0224 10.3087 95.7478 10.3769 95.5054 10.4716C95.263 10.5663 95.0717 10.6989 94.9315 10.8693C94.7914 11.036 94.7213 11.2519 94.7213 11.517C94.7213 11.8958 94.8596 12.1818 95.1361 12.375C95.4126 12.5682 95.7649 12.6648 96.1929 12.6648ZM103.592 8.88636V14H101.535V5.27273H103.501V6.75568H103.603C103.804 6.26705 104.124 5.87879 104.563 5.59091C105.007 5.30303 105.554 5.15909 106.205 5.15909C106.808 5.15909 107.332 5.28788 107.779 5.54545C108.23 5.80303 108.579 6.17614 108.825 6.66477C109.075 7.15341 109.198 7.74621 109.194 8.44318V14H107.137V8.76136C107.137 8.17803 106.986 7.72159 106.683 7.39205C106.383 7.0625 105.969 6.89773 105.438 6.89773C105.079 6.89773 104.758 6.97727 104.478 7.13636C104.202 7.29167 103.984 7.51705 103.825 7.8125C103.669 8.10795 103.592 8.46591 103.592 8.88636ZM115.455 14L112.989 5.27273H115.086L116.62 11.4091H116.699L118.267 5.27273H120.341L121.909 11.375H121.995L123.506 5.27273H125.608L123.137 14H120.995L119.358 8.10227H119.239L117.603 14H115.455ZM129.858 14.1705C128.983 14.1705 128.227 13.9886 127.591 13.625C126.958 13.2576 126.472 12.7386 126.131 12.0682C125.79 11.3939 125.619 10.6004 125.619 9.6875C125.619 8.78977 125.79 8.00189 126.131 7.32386C126.475 6.64205 126.956 6.11174 127.574 5.73295C128.191 5.35038 128.917 5.15909 129.75 5.15909C130.288 5.15909 130.795 5.24621 131.273 5.42045C131.754 5.59091 132.178 5.85606 132.545 6.21591C132.917 6.57576 133.208 7.03409 133.42 7.59091C133.633 8.14394 133.739 8.80303 133.739 9.56818V10.1989H126.585V8.8125H131.767C131.763 8.41856 131.678 8.06818 131.511 7.76136C131.345 7.45076 131.112 7.20644 130.812 7.02841C130.517 6.85038 130.172 6.76136 129.778 6.76136C129.358 6.76136 128.989 6.86364 128.67 7.06818C128.352 7.26894 128.104 7.53409 127.926 7.86364C127.752 8.18939 127.663 8.54735 127.659 8.9375V10.1477C127.659 10.6553 127.752 11.0909 127.938 11.4545C128.123 11.8144 128.383 12.0909 128.716 12.2841C129.049 12.4735 129.439 12.5682 129.886 12.5682C130.186 12.5682 130.456 12.5265 130.699 12.4432C130.941 12.3561 131.152 12.2292 131.33 12.0625C131.508 11.8958 131.642 11.6894 131.733 11.4432L133.653 11.6591C133.532 12.1667 133.301 12.6098 132.96 12.9886C132.623 13.3636 132.191 13.6553 131.665 13.8636C131.138 14.0682 130.536 14.1705 129.858 14.1705ZM144.745 7.57955L142.87 7.78409C142.817 7.5947 142.724 7.41667 142.592 7.25C142.463 7.08333 142.289 6.94886 142.069 6.84659C141.849 6.74432 141.58 6.69318 141.262 6.69318C140.834 6.69318 140.474 6.78598 140.183 6.97159C139.895 7.1572 139.753 7.39773 139.757 7.69318C139.753 7.94697 139.846 8.15341 140.035 8.3125C140.228 8.47159 140.546 8.60227 140.989 8.70455L142.478 9.02273C143.304 9.20076 143.918 9.48295 144.319 9.86932C144.724 10.2557 144.929 10.7614 144.933 11.3864C144.929 11.9356 144.768 12.4205 144.45 12.8409C144.135 13.2576 143.698 13.5833 143.137 13.8182C142.577 14.053 141.933 14.1705 141.205 14.1705C140.137 14.1705 139.277 13.947 138.626 13.5C137.974 13.0492 137.586 12.4223 137.461 11.6193L139.467 11.4261C139.558 11.8201 139.751 12.1174 140.046 12.3182C140.342 12.5189 140.726 12.6193 141.2 12.6193C141.688 12.6193 142.08 12.5189 142.376 12.3182C142.675 12.1174 142.825 11.8693 142.825 11.5739C142.825 11.3239 142.728 11.1174 142.535 10.9545C142.346 10.7917 142.05 10.6667 141.649 10.5795L140.16 10.267C139.323 10.0928 138.704 9.79924 138.302 9.38636C137.9 8.9697 137.702 8.44318 137.705 7.80682C137.702 7.26894 137.847 6.80303 138.143 6.40909C138.442 6.01136 138.857 5.70455 139.387 5.48864C139.921 5.26894 140.537 5.15909 141.234 5.15909C142.257 5.15909 143.061 5.37689 143.649 5.8125C144.239 6.24811 144.605 6.83712 144.745 7.57955ZM149.692 14.1705C148.817 14.1705 148.062 13.9886 147.425 13.625C146.793 13.2576 146.306 12.7386 145.965 12.0682C145.624 11.3939 145.454 10.6004 145.454 9.6875C145.454 8.78977 145.624 8.00189 145.965 7.32386C146.31 6.64205 146.791 6.11174 147.408 5.73295C148.026 5.35038 148.751 5.15909 149.584 5.15909C150.122 5.15909 150.63 5.24621 151.107 5.42045C151.588 5.59091 152.012 5.85606 152.38 6.21591C152.751 6.57576 153.043 7.03409 153.255 7.59091C153.467 8.14394 153.573 8.80303 153.573 9.56818V10.1989H146.42V8.8125H151.601C151.598 8.41856 151.512 8.06818 151.346 7.76136C151.179 7.45076 150.946 7.20644 150.647 7.02841C150.351 6.85038 150.007 6.76136 149.613 6.76136C149.192 6.76136 148.823 6.86364 148.505 7.06818C148.187 7.26894 147.939 7.53409 147.761 7.86364C147.586 8.18939 147.497 8.54735 147.493 8.9375V10.1477C147.493 10.6553 147.586 11.0909 147.772 11.4545C147.957 11.8144 148.217 12.0909 148.55 12.2841C148.884 12.4735 149.274 12.5682 149.721 12.5682C150.02 12.5682 150.291 12.5265 150.533 12.4432C150.776 12.3561 150.986 12.2292 151.164 12.0625C151.342 11.8958 151.476 11.6894 151.567 11.4432L153.488 11.6591C153.367 12.1667 153.136 12.6098 152.795 12.9886C152.457 13.3636 152.026 13.6553 151.499 13.8636C150.973 14.0682 150.37 14.1705 149.692 14.1705ZM158.377 14.1705C157.502 14.1705 156.746 13.9886 156.11 13.625C155.477 13.2576 154.99 12.7386 154.649 12.0682C154.309 11.3939 154.138 10.6004 154.138 9.6875C154.138 8.78977 154.309 8.00189 154.649 7.32386C154.994 6.64205 155.475 6.11174 156.093 5.73295C156.71 5.35038 157.435 5.15909 158.269 5.15909C158.807 5.15909 159.314 5.24621 159.791 5.42045C160.273 5.59091 160.697 5.85606 161.064 6.21591C161.435 6.57576 161.727 7.03409 161.939 7.59091C162.151 8.14394 162.257 8.80303 162.257 9.56818V10.1989H155.104V8.8125H160.286C160.282 8.41856 160.197 8.06818 160.03 7.76136C159.863 7.45076 159.63 7.20644 159.331 7.02841C159.036 6.85038 158.691 6.76136 158.297 6.76136C157.877 6.76136 157.507 6.86364 157.189 7.06818C156.871 7.26894 156.623 7.53409 156.445 7.86364C156.271 8.18939 156.182 8.54735 156.178 8.9375V10.1477C156.178 10.6553 156.271 11.0909 156.456 11.4545C156.642 11.8144 156.901 12.0909 157.235 12.2841C157.568 12.4735 157.958 12.5682 158.405 12.5682C158.704 12.5682 158.975 12.5265 159.218 12.4432C159.46 12.3561 159.67 12.2292 159.848 12.0625C160.026 11.8958 160.161 11.6894 160.252 11.4432L162.172 11.6591C162.051 12.1667 161.82 12.6098 161.479 12.9886C161.142 13.3636 160.71 13.6553 160.184 13.8636C159.657 14.0682 159.055 14.1705 158.377 14.1705ZM166.366 14V5.27273H168.332V6.75568H168.434C168.616 6.25568 168.917 5.86553 169.338 5.58523C169.758 5.30114 170.26 5.15909 170.843 5.15909C171.434 5.15909 171.932 5.30303 172.338 5.59091C172.747 5.875 173.035 6.26326 173.201 6.75568H173.292C173.486 6.27083 173.811 5.88447 174.27 5.59659C174.732 5.30492 175.279 5.15909 175.912 5.15909C176.715 5.15909 177.37 5.41288 177.878 5.92045C178.385 6.42803 178.639 7.16856 178.639 8.14205V14H176.576V8.46023C176.576 7.91856 176.432 7.52273 176.145 7.27273C175.857 7.01894 175.504 6.89205 175.088 6.89205C174.592 6.89205 174.203 7.04735 173.923 7.35795C173.646 7.66477 173.508 8.06439 173.508 8.55682V14H171.491V8.375C171.491 7.92424 171.355 7.56439 171.082 7.29545C170.813 7.02651 170.461 6.89205 170.025 6.89205C169.73 6.89205 169.461 6.9678 169.218 7.11932C168.976 7.26705 168.783 7.47727 168.639 7.75C168.495 8.01894 168.423 8.33333 168.423 8.69318V14H166.366ZM183.732 14.1705C182.88 14.1705 182.141 13.983 181.516 13.608C180.891 13.233 180.407 12.7083 180.062 12.0341C179.721 11.3598 179.551 10.572 179.551 9.67045C179.551 8.76894 179.721 7.97917 180.062 7.30114C180.407 6.62311 180.891 6.09659 181.516 5.72159C182.141 5.34659 182.88 5.15909 183.732 5.15909C184.585 5.15909 185.323 5.34659 185.948 5.72159C186.573 6.09659 187.056 6.62311 187.397 7.30114C187.742 7.97917 187.914 8.76894 187.914 9.67045C187.914 10.572 187.742 11.3598 187.397 12.0341C187.056 12.7083 186.573 13.233 185.948 13.608C185.323 13.983 184.585 14.1705 183.732 14.1705ZM183.744 12.5227C184.206 12.5227 184.592 12.3958 184.903 12.142C185.213 11.8845 185.445 11.5398 185.596 11.108C185.751 10.6761 185.829 10.1951 185.829 9.66477C185.829 9.13068 185.751 8.64773 185.596 8.21591C185.445 7.7803 185.213 7.43371 184.903 7.17614C184.592 6.91856 184.206 6.78977 183.744 6.78977C183.27 6.78977 182.876 6.91856 182.562 7.17614C182.251 7.43371 182.018 7.7803 181.863 8.21591C181.712 8.64773 181.636 9.13068 181.636 9.66477C181.636 10.1951 181.712 10.6761 181.863 11.108C182.018 11.5398 182.251 11.8845 182.562 12.142C182.876 12.3958 183.27 12.5227 183.744 12.5227ZM188.86 14V5.27273H190.854V6.72727H190.945C191.104 6.22348 191.377 5.83523 191.763 5.5625C192.154 5.28598 192.599 5.14773 193.099 5.14773C193.212 5.14773 193.339 5.15341 193.479 5.16477C193.623 5.17235 193.743 5.18561 193.837 5.20455V7.09659C193.75 7.06629 193.612 7.03977 193.422 7.01705C193.237 6.99053 193.057 6.97727 192.883 6.97727C192.508 6.97727 192.171 7.05871 191.871 7.22159C191.576 7.38068 191.343 7.60227 191.172 7.88636C191.002 8.17045 190.917 8.49811 190.917 8.86932V14H188.86ZM197.908 14.1705C197.033 14.1705 196.277 13.9886 195.641 13.625C195.008 13.2576 194.522 12.7386 194.181 12.0682C193.84 11.3939 193.669 10.6004 193.669 9.6875C193.669 8.78977 193.84 8.00189 194.181 7.32386C194.525 6.64205 195.006 6.11174 195.624 5.73295C196.241 5.35038 196.967 5.15909 197.8 5.15909C198.338 5.15909 198.845 5.24621 199.323 5.42045C199.804 5.59091 200.228 5.85606 200.595 6.21591C200.967 6.57576 201.258 7.03409 201.47 7.59091C201.683 8.14394 201.789 8.80303 201.789 9.56818V10.1989H194.635V8.8125H199.817C199.813 8.41856 199.728 8.06818 199.561 7.76136C199.395 7.45076 199.162 7.20644 198.863 7.02841C198.567 6.85038 198.222 6.76136 197.828 6.76136C197.408 6.76136 197.039 6.86364 196.72 7.06818C196.402 7.26894 196.154 7.53409 195.976 7.86364C195.802 8.18939 195.713 8.54735 195.709 8.9375V10.1477C195.709 10.6553 195.802 11.0909 195.988 11.4545C196.173 11.8144 196.433 12.0909 196.766 12.2841C197.099 12.4735 197.489 12.5682 197.936 12.5682C198.236 12.5682 198.506 12.5265 198.749 12.4432C198.991 12.3561 199.202 12.2292 199.38 12.0625C199.558 11.8958 199.692 11.6894 199.783 11.4432L201.703 11.6591C201.582 12.1667 201.351 12.6098 201.01 12.9886C200.673 13.3636 200.241 13.6553 199.715 13.8636C199.188 14.0682 198.586 14.1705 197.908 14.1705ZM209.704 14.1705C208.833 14.1705 208.085 13.9792 207.46 13.5966C206.839 13.214 206.36 12.6856 206.022 12.0114C205.689 11.3333 205.522 10.553 205.522 9.67045C205.522 8.78409 205.693 8.00189 206.034 7.32386C206.375 6.64205 206.856 6.11174 207.477 5.73295C208.102 5.35038 208.841 5.15909 209.693 5.15909C210.401 5.15909 211.028 5.28977 211.574 5.55114C212.123 5.80871 212.56 6.17424 212.886 6.64773C213.212 7.11742 213.397 7.66667 213.443 8.29545H211.477C211.397 7.875 211.208 7.52462 210.909 7.24432C210.613 6.96023 210.218 6.81818 209.721 6.81818C209.301 6.81818 208.932 6.93182 208.613 7.15909C208.295 7.38258 208.047 7.70455 207.869 8.125C207.695 8.54545 207.608 9.04924 207.608 9.63636C207.608 10.2311 207.695 10.7424 207.869 11.1705C208.043 11.5947 208.288 11.9223 208.602 12.1534C208.92 12.3807 209.293 12.4943 209.721 12.4943C210.024 12.4943 210.295 12.4375 210.534 12.3239C210.776 12.2064 210.979 12.0379 211.142 11.8182C211.305 11.5985 211.416 11.3314 211.477 11.017H213.443C213.394 11.6345 213.212 12.1818 212.897 12.6591C212.583 13.1326 212.155 13.5038 211.613 13.7727C211.072 14.0379 210.435 14.1705 209.704 14.1705ZM218.139 14.1705C217.286 14.1705 216.548 13.983 215.923 13.608C215.298 13.233 214.813 12.7083 214.468 12.0341C214.127 11.3598 213.957 10.572 213.957 9.67045C213.957 8.76894 214.127 7.97917 214.468 7.30114C214.813 6.62311 215.298 6.09659 215.923 5.72159C216.548 5.34659 217.286 5.15909 218.139 5.15909C218.991 5.15909 219.73 5.34659 220.355 5.72159C220.98 6.09659 221.462 6.62311 221.803 7.30114C222.148 7.97917 222.32 8.76894 222.32 9.67045C222.32 10.572 222.148 11.3598 221.803 12.0341C221.462 12.7083 220.98 13.233 220.355 13.608C219.73 13.983 218.991 14.1705 218.139 14.1705ZM218.15 12.5227C218.612 12.5227 218.998 12.3958 219.309 12.142C219.62 11.8845 219.851 11.5398 220.002 11.108C220.158 10.6761 220.235 10.1951 220.235 9.66477C220.235 9.13068 220.158 8.64773 220.002 8.21591C219.851 7.7803 219.62 7.43371 219.309 7.17614C218.998 6.91856 218.612 6.78977 218.15 6.78977C217.677 6.78977 217.283 6.91856 216.968 7.17614C216.658 7.43371 216.425 7.7803 216.269 8.21591C216.118 8.64773 216.042 9.13068 216.042 9.66477C216.042 10.1951 216.118 10.6761 216.269 11.108C216.425 11.5398 216.658 11.8845 216.968 12.142C217.283 12.3958 217.677 12.5227 218.15 12.5227ZM225.323 2.36364V14H223.266V2.36364H225.323ZM230.445 14.1705C229.593 14.1705 228.854 13.983 228.229 13.608C227.604 13.233 227.119 12.7083 226.774 12.0341C226.434 11.3598 226.263 10.572 226.263 9.67045C226.263 8.76894 226.434 7.97917 226.774 7.30114C227.119 6.62311 227.604 6.09659 228.229 5.72159C228.854 5.34659 229.593 5.15909 230.445 5.15909C231.297 5.15909 232.036 5.34659 232.661 5.72159C233.286 6.09659 233.769 6.62311 234.11 7.30114C234.454 7.97917 234.627 8.76894 234.627 9.67045C234.627 10.572 234.454 11.3598 234.11 12.0341C233.769 12.7083 233.286 13.233 232.661 13.608C232.036 13.983 231.297 14.1705 230.445 14.1705ZM230.456 12.5227C230.918 12.5227 231.305 12.3958 231.615 12.142C231.926 11.8845 232.157 11.5398 232.309 11.108C232.464 10.6761 232.541 10.1951 232.541 9.66477C232.541 9.13068 232.464 8.64773 232.309 8.21591C232.157 7.7803 231.926 7.43371 231.615 7.17614C231.305 6.91856 230.918 6.78977 230.456 6.78977C229.983 6.78977 229.589 6.91856 229.274 7.17614C228.964 7.43371 228.731 7.7803 228.576 8.21591C228.424 8.64773 228.348 9.13068 228.348 9.66477C228.348 10.1951 228.424 10.6761 228.576 11.108C228.731 11.5398 228.964 11.8845 229.274 12.142C229.589 12.3958 229.983 12.5227 230.456 12.5227ZM235.572 14V5.27273H237.567V6.72727H237.658C237.817 6.22348 238.089 5.83523 238.476 5.5625C238.866 5.28598 239.311 5.14773 239.811 5.14773C239.925 5.14773 240.052 5.15341 240.192 5.16477C240.336 5.17235 240.455 5.18561 240.55 5.20455V7.09659C240.463 7.06629 240.324 7.03977 240.135 7.01705C239.949 6.99053 239.769 6.97727 239.595 6.97727C239.22 6.97727 238.883 7.05871 238.584 7.22159C238.288 7.38068 238.055 7.60227 237.885 7.88636C237.714 8.17045 237.629 8.49811 237.629 8.86932V14H235.572ZM89.8523 22.2727L86.7443 31H84.4716L81.3636 22.2727H83.5568L85.5625 28.7557H85.6534L87.6648 22.2727H89.8523ZM92.7369 31.1761C92.1839 31.1761 91.6858 31.0777 91.2426 30.8807C90.8032 30.6799 90.4547 30.3845 90.1972 29.9943C89.9434 29.6042 89.8165 29.1231 89.8165 28.5511C89.8165 28.0587 89.9074 27.6515 90.0892 27.3295C90.271 27.0076 90.5191 26.75 90.8335 26.5568C91.1479 26.3636 91.5021 26.2178 91.896 26.1193C92.2937 26.017 92.7047 25.9432 93.129 25.8977C93.6403 25.8447 94.0551 25.7973 94.3733 25.7557C94.6915 25.7102 94.9225 25.642 95.0665 25.5511C95.2142 25.4564 95.2881 25.3106 95.2881 25.1136V25.0795C95.2881 24.6515 95.1612 24.3201 94.9074 24.0852C94.6536 23.8504 94.2881 23.733 93.8108 23.733C93.307 23.733 92.9074 23.8428 92.6119 24.0625C92.3203 24.2822 92.1233 24.5417 92.021 24.8409L90.1006 24.5682C90.2521 24.0379 90.5021 23.5947 90.8506 23.2386C91.1991 22.8788 91.6252 22.6098 92.129 22.4318C92.6328 22.25 93.1896 22.1591 93.7994 22.1591C94.2199 22.1591 94.6384 22.2083 95.0551 22.3068C95.4718 22.4053 95.8525 22.5682 96.1972 22.7955C96.5419 23.0189 96.8184 23.3239 97.0267 23.7102C97.2388 24.0966 97.3449 24.5795 97.3449 25.1591V31H95.3676V29.8011H95.2994C95.1744 30.0436 94.9983 30.2708 94.771 30.483C94.5475 30.6913 94.2653 30.8598 93.9244 30.9886C93.5873 31.1136 93.1915 31.1761 92.7369 31.1761ZM93.271 29.6648C93.6839 29.6648 94.0419 29.5833 94.3449 29.4205C94.6479 29.2538 94.8809 29.0341 95.0437 28.7614C95.2104 28.4886 95.2937 28.1913 95.2937 27.8693V26.8409C95.2294 26.8939 95.1195 26.9432 94.9642 26.9886C94.8127 27.0341 94.6422 27.0739 94.4528 27.108C94.2634 27.142 94.0759 27.1723 93.8903 27.1989C93.7047 27.2254 93.5437 27.2481 93.4074 27.267C93.1006 27.3087 92.8259 27.3769 92.5835 27.4716C92.3411 27.5663 92.1498 27.6989 92.0097 27.8693C91.8695 28.036 91.7994 28.2519 91.7994 28.517C91.7994 28.8958 91.9377 29.1818 92.2142 29.375C92.4907 29.5682 92.843 29.6648 93.271 29.6648ZM98.6131 31V22.2727H100.607V23.7273H100.698C100.857 23.2235 101.13 22.8352 101.516 22.5625C101.907 22.286 102.352 22.1477 102.852 22.1477C102.965 22.1477 103.092 22.1534 103.232 22.1648C103.376 22.1723 103.496 22.1856 103.59 22.2045V24.0966C103.503 24.0663 103.365 24.0398 103.176 24.017C102.99 23.9905 102.81 23.9773 102.636 23.9773C102.261 23.9773 101.924 24.0587 101.624 24.2216C101.329 24.3807 101.096 24.6023 100.926 24.8864C100.755 25.1705 100.67 25.4981 100.67 25.8693V31H98.6131ZM104.157 31V22.2727H106.214V31H104.157ZM105.191 21.0341C104.865 21.0341 104.585 20.9261 104.35 20.7102C104.115 20.4905 103.998 20.2273 103.998 19.9205C103.998 19.6098 104.115 19.3466 104.35 19.1307C104.585 18.911 104.865 18.8011 105.191 18.8011C105.52 18.8011 105.801 18.911 106.032 19.1307C106.267 19.3466 106.384 19.6098 106.384 19.9205C106.384 20.2273 106.267 20.4905 106.032 20.7102C105.801 20.9261 105.52 21.0341 105.191 21.0341ZM110.04 31.1761C109.487 31.1761 108.989 31.0777 108.546 30.8807C108.106 30.6799 107.758 30.3845 107.5 29.9943C107.246 29.6042 107.12 29.1231 107.12 28.5511C107.12 28.0587 107.211 27.6515 107.392 27.3295C107.574 27.0076 107.822 26.75 108.137 26.5568C108.451 26.3636 108.805 26.2178 109.199 26.1193C109.597 26.017 110.008 25.9432 110.432 25.8977C110.943 25.8447 111.358 25.7973 111.676 25.7557C111.995 25.7102 112.226 25.642 112.37 25.5511C112.517 25.4564 112.591 25.3106 112.591 25.1136V25.0795C112.591 24.6515 112.464 24.3201 112.211 24.0852C111.957 23.8504 111.591 23.733 111.114 23.733C110.61 23.733 110.211 23.8428 109.915 24.0625C109.623 24.2822 109.426 24.5417 109.324 24.8409L107.404 24.5682C107.555 24.0379 107.805 23.5947 108.154 23.2386C108.502 22.8788 108.928 22.6098 109.432 22.4318C109.936 22.25 110.493 22.1591 111.103 22.1591C111.523 22.1591 111.942 22.2083 112.358 22.3068C112.775 22.4053 113.156 22.5682 113.5 22.7955C113.845 23.0189 114.121 23.3239 114.33 23.7102C114.542 24.0966 114.648 24.5795 114.648 25.1591V31H112.671V29.8011H112.603C112.478 30.0436 112.301 30.2708 112.074 30.483C111.851 30.6913 111.568 30.8598 111.228 30.9886C110.89 31.1136 110.495 31.1761 110.04 31.1761ZM110.574 29.6648C110.987 29.6648 111.345 29.5833 111.648 29.4205C111.951 29.2538 112.184 29.0341 112.347 28.7614C112.514 28.4886 112.597 28.1913 112.597 27.8693V26.8409C112.532 26.8939 112.423 26.9432 112.267 26.9886C112.116 27.0341 111.945 27.0739 111.756 27.108C111.567 27.142 111.379 27.1723 111.193 27.1989C111.008 27.2254 110.847 27.2481 110.711 27.267C110.404 27.3087 110.129 27.3769 109.887 27.4716C109.644 27.5663 109.453 27.6989 109.313 27.8693C109.173 28.036 109.103 28.2519 109.103 28.517C109.103 28.8958 109.241 29.1818 109.517 29.375C109.794 29.5682 110.146 29.6648 110.574 29.6648ZM120.274 22.2727V23.8636H115.257V22.2727H120.274ZM116.496 20.1818H118.553V28.375C118.553 28.6515 118.594 28.8636 118.678 29.0114C118.765 29.1553 118.878 29.2538 119.018 29.3068C119.159 29.3598 119.314 29.3864 119.484 29.3864C119.613 29.3864 119.731 29.3769 119.837 29.358C119.946 29.339 120.03 29.322 120.087 29.3068L120.433 30.9148C120.323 30.9527 120.166 30.9943 119.962 31.0398C119.761 31.0852 119.515 31.1117 119.223 31.1193C118.708 31.1345 118.244 31.0568 117.831 30.8864C117.418 30.7121 117.09 30.4432 116.848 30.0795C116.609 29.7159 116.492 29.2614 116.496 28.7159V20.1818ZM121.194 31V22.2727H123.251V31H121.194ZM122.228 21.0341C121.903 21.0341 121.622 20.9261 121.388 20.7102C121.153 20.4905 121.035 20.2273 121.035 19.9205C121.035 19.6098 121.153 19.3466 121.388 19.1307C121.622 18.911 121.903 18.8011 122.228 18.8011C122.558 18.8011 122.838 18.911 123.069 19.1307C123.304 19.3466 123.422 19.6098 123.422 19.9205C123.422 20.2273 123.304 20.4905 123.069 20.7102C122.838 20.9261 122.558 21.0341 122.228 21.0341ZM128.373 31.1705C127.521 31.1705 126.782 30.983 126.157 30.608C125.532 30.233 125.047 29.7083 124.703 29.0341C124.362 28.3598 124.191 27.572 124.191 26.6705C124.191 25.7689 124.362 24.9792 124.703 24.3011C125.047 23.6231 125.532 23.0966 126.157 22.7216C126.782 22.3466 127.521 22.1591 128.373 22.1591C129.225 22.1591 129.964 22.3466 130.589 22.7216C131.214 23.0966 131.697 23.6231 132.038 24.3011C132.382 24.9792 132.555 25.7689 132.555 26.6705C132.555 27.572 132.382 28.3598 132.038 29.0341C131.697 29.7083 131.214 30.233 130.589 30.608C129.964 30.983 129.225 31.1705 128.373 31.1705ZM128.384 29.5227C128.846 29.5227 129.233 29.3958 129.543 29.142C129.854 28.8845 130.085 28.5398 130.237 28.108C130.392 27.6761 130.47 27.1951 130.47 26.6648C130.47 26.1307 130.392 25.6477 130.237 25.2159C130.085 24.7803 129.854 24.4337 129.543 24.1761C129.233 23.9186 128.846 23.7898 128.384 23.7898C127.911 23.7898 127.517 23.9186 127.203 24.1761C126.892 24.4337 126.659 24.7803 126.504 25.2159C126.352 25.6477 126.276 26.1307 126.276 26.6648C126.276 27.1951 126.352 27.6761 126.504 28.108C126.659 28.5398 126.892 28.8845 127.203 29.142C127.517 29.3958 127.911 29.5227 128.384 29.5227ZM135.557 25.8864V31H133.501V22.2727H135.466V23.7557H135.569C135.77 23.267 136.09 22.8788 136.529 22.5909C136.972 22.303 137.52 22.1591 138.171 22.1591C138.773 22.1591 139.298 22.2879 139.745 22.5455C140.196 22.803 140.544 23.1761 140.79 23.6648C141.04 24.1534 141.163 24.7462 141.16 25.4432V31H139.103V25.7614C139.103 25.178 138.951 24.7216 138.648 24.392C138.349 24.0625 137.934 23.8977 137.404 23.8977C137.044 23.8977 136.724 23.9773 136.444 24.1364C136.167 24.2917 135.949 24.517 135.79 24.8125C135.635 25.108 135.557 25.4659 135.557 25.8864ZM149.348 24.5795L147.473 24.7841C147.42 24.5947 147.327 24.4167 147.195 24.25C147.066 24.0833 146.892 23.9489 146.672 23.8466C146.452 23.7443 146.184 23.6932 145.865 23.6932C145.437 23.6932 145.077 23.786 144.786 23.9716C144.498 24.1572 144.356 24.3977 144.36 24.6932C144.356 24.947 144.449 25.1534 144.638 25.3125C144.831 25.4716 145.149 25.6023 145.593 25.7045L147.081 26.0227C147.907 26.2008 148.521 26.483 148.922 26.8693C149.327 27.2557 149.532 27.7614 149.536 28.3864C149.532 28.9356 149.371 29.4205 149.053 29.8409C148.738 30.2576 148.301 30.5833 147.74 30.8182C147.18 31.053 146.536 31.1705 145.809 31.1705C144.74 31.1705 143.88 30.947 143.229 30.5C142.577 30.0492 142.189 29.4223 142.064 28.6193L144.07 28.4261C144.161 28.8201 144.354 29.1174 144.649 29.3182C144.945 29.5189 145.329 29.6193 145.803 29.6193C146.291 29.6193 146.684 29.5189 146.979 29.3182C147.278 29.1174 147.428 28.8693 147.428 28.5739C147.428 28.3239 147.331 28.1174 147.138 27.9545C146.949 27.7917 146.653 27.6667 146.252 27.5795L144.763 27.267C143.926 27.0928 143.307 26.7992 142.905 26.3864C142.504 25.9697 142.305 25.4432 142.309 24.8068C142.305 24.2689 142.451 23.803 142.746 23.4091C143.045 23.0114 143.46 22.7045 143.99 22.4886C144.524 22.2689 145.14 22.1591 145.837 22.1591C146.86 22.1591 147.665 22.3769 148.252 22.8125C148.843 23.2481 149.208 23.8371 149.348 24.5795ZM157.407 31.1705C156.555 31.1705 155.816 30.983 155.191 30.608C154.566 30.233 154.082 29.7083 153.737 29.0341C153.396 28.3598 153.226 27.572 153.226 26.6705C153.226 25.7689 153.396 24.9792 153.737 24.3011C154.082 23.6231 154.566 23.0966 155.191 22.7216C155.816 22.3466 156.555 22.1591 157.407 22.1591C158.26 22.1591 158.998 22.3466 159.623 22.7216C160.248 23.0966 160.731 23.6231 161.072 24.3011C161.417 24.9792 161.589 25.7689 161.589 26.6705C161.589 27.572 161.417 28.3598 161.072 29.0341C160.731 29.7083 160.248 30.233 159.623 30.608C158.998 30.983 158.26 31.1705 157.407 31.1705ZM157.419 29.5227C157.881 29.5227 158.267 29.3958 158.578 29.142C158.888 28.8845 159.12 28.5398 159.271 28.108C159.426 27.6761 159.504 27.1951 159.504 26.6648C159.504 26.1307 159.426 25.6477 159.271 25.2159C159.12 24.7803 158.888 24.4337 158.578 24.1761C158.267 23.9186 157.881 23.7898 157.419 23.7898C156.945 23.7898 156.551 23.9186 156.237 24.1761C155.926 24.4337 155.693 24.7803 155.538 25.2159C155.387 25.6477 155.311 26.1307 155.311 26.6648C155.311 27.1951 155.387 27.6761 155.538 28.108C155.693 28.5398 155.926 28.8845 156.237 29.142C156.551 29.3958 156.945 29.5227 157.419 29.5227ZM166.955 22.2727V23.8636H161.796V22.2727H166.955ZM163.086 31V21.4489C163.086 20.8617 163.207 20.3731 163.45 19.983C163.696 19.5928 164.025 19.3011 164.438 19.108C164.851 18.9148 165.31 18.8182 165.813 18.8182C166.169 18.8182 166.486 18.8466 166.762 18.9034C167.039 18.9602 167.243 19.0114 167.376 19.0568L166.967 20.6477C166.88 20.6212 166.77 20.5947 166.637 20.5682C166.505 20.5379 166.357 20.5227 166.194 20.5227C165.811 20.5227 165.541 20.6155 165.382 20.8011C165.226 20.983 165.149 21.2443 165.149 21.5852V31H163.086ZM175.293 22.2727V23.8636H170.276V22.2727H175.293ZM171.514 20.1818H173.571V28.375C173.571 28.6515 173.613 28.8636 173.696 29.0114C173.783 29.1553 173.897 29.2538 174.037 29.3068C174.177 29.3598 174.333 29.3864 174.503 29.3864C174.632 29.3864 174.749 29.3769 174.855 29.358C174.965 29.339 175.049 29.322 175.105 29.3068L175.452 30.9148C175.342 30.9527 175.185 30.9943 174.98 31.0398C174.78 31.0852 174.533 31.1117 174.242 31.1193C173.727 31.1345 173.263 31.0568 172.85 30.8864C172.437 30.7121 172.109 30.4432 171.867 30.0795C171.628 29.7159 171.511 29.2614 171.514 28.7159V20.1818ZM178.457 25.8864V31H176.401V19.3636H178.412V23.7557H178.514C178.719 23.2633 179.035 22.875 179.463 22.5909C179.895 22.303 180.444 22.1591 181.111 22.1591C181.717 22.1591 182.245 22.286 182.696 22.5398C183.147 22.7936 183.495 23.1648 183.741 23.6534C183.991 24.142 184.116 24.7386 184.116 25.4432V31H182.06V25.7614C182.06 25.1742 181.908 24.7178 181.605 24.392C181.306 24.0625 180.885 23.8977 180.344 23.8977C179.98 23.8977 179.654 23.9773 179.366 24.1364C179.082 24.2917 178.859 24.517 178.696 24.8125C178.537 25.108 178.457 25.4659 178.457 25.8864ZM189.277 31.1705C188.402 31.1705 187.646 30.9886 187.01 30.625C186.377 30.2576 185.89 29.7386 185.549 29.0682C185.209 28.3939 185.038 27.6004 185.038 26.6875C185.038 25.7898 185.209 25.0019 185.549 24.3239C185.894 23.642 186.375 23.1117 186.993 22.733C187.61 22.3504 188.335 22.1591 189.169 22.1591C189.707 22.1591 190.214 22.2462 190.691 22.4205C191.173 22.5909 191.597 22.8561 191.964 23.2159C192.335 23.5758 192.627 24.0341 192.839 24.5909C193.051 25.1439 193.157 25.803 193.157 26.5682V27.1989H186.004V25.8125H191.186C191.182 25.4186 191.097 25.0682 190.93 24.7614C190.763 24.4508 190.53 24.2064 190.231 24.0284C189.936 23.8504 189.591 23.7614 189.197 23.7614C188.777 23.7614 188.407 23.8636 188.089 24.0682C187.771 24.2689 187.523 24.5341 187.345 24.8636C187.171 25.1894 187.082 25.5473 187.078 25.9375V27.1477C187.078 27.6553 187.171 28.0909 187.356 28.4545C187.542 28.8144 187.801 29.0909 188.135 29.2841C188.468 29.4735 188.858 29.5682 189.305 29.5682C189.604 29.5682 189.875 29.5265 190.118 29.4432C190.36 29.3561 190.57 29.2292 190.748 29.0625C190.926 28.8958 191.061 28.6894 191.152 28.4432L193.072 28.6591C192.951 29.1667 192.72 29.6098 192.379 29.9886C192.042 30.3636 191.61 30.6553 191.084 30.8636C190.557 31.0682 189.955 31.1705 189.277 31.1705ZM199.323 19.3636V31H197.266V19.3636H199.323ZM204.445 31.1705C203.593 31.1705 202.854 30.983 202.229 30.608C201.604 30.233 201.119 29.7083 200.774 29.0341C200.434 28.3598 200.263 27.572 200.263 26.6705C200.263 25.7689 200.434 24.9792 200.774 24.3011C201.119 23.6231 201.604 23.0966 202.229 22.7216C202.854 22.3466 203.593 22.1591 204.445 22.1591C205.297 22.1591 206.036 22.3466 206.661 22.7216C207.286 23.0966 207.769 23.6231 208.11 24.3011C208.454 24.9792 208.627 25.7689 208.627 26.6705C208.627 27.572 208.454 28.3598 208.11 29.0341C207.769 29.7083 207.286 30.233 206.661 30.608C206.036 30.983 205.297 31.1705 204.445 31.1705ZM204.456 29.5227C204.918 29.5227 205.305 29.3958 205.615 29.142C205.926 28.8845 206.157 28.5398 206.309 28.108C206.464 27.6761 206.541 27.1951 206.541 26.6648C206.541 26.1307 206.464 25.6477 206.309 25.2159C206.157 24.7803 205.926 24.4337 205.615 24.1761C205.305 23.9186 204.918 23.7898 204.456 23.7898C203.983 23.7898 203.589 23.9186 203.274 24.1761C202.964 24.4337 202.731 24.7803 202.576 25.2159C202.424 25.6477 202.348 26.1307 202.348 26.6648C202.348 27.1951 202.424 27.6761 202.576 28.108C202.731 28.5398 202.964 28.8845 203.274 29.142C203.589 29.3958 203.983 29.5227 204.456 29.5227ZM213.368 34.4545C212.629 34.4545 211.995 34.3542 211.464 34.1534C210.934 33.9564 210.508 33.6913 210.186 33.358C209.864 33.0246 209.641 32.6553 209.516 32.25L211.368 31.8011C211.451 31.9716 211.572 32.1402 211.732 32.3068C211.891 32.4773 212.105 32.6174 212.374 32.7273C212.646 32.8409 212.989 32.8977 213.402 32.8977C213.985 32.8977 214.468 32.7557 214.851 32.4716C215.233 32.1913 215.425 31.7292 215.425 31.0852V29.4318H215.322C215.216 29.6439 215.061 29.8617 214.857 30.0852C214.656 30.3087 214.389 30.4962 214.055 30.6477C213.726 30.7992 213.311 30.875 212.811 30.875C212.141 30.875 211.533 30.7178 210.987 30.4034C210.446 30.0852 210.014 29.6117 209.692 28.983C209.374 28.3504 209.214 27.5587 209.214 26.608C209.214 25.6496 209.374 24.8409 209.692 24.1818C210.014 23.5189 210.447 23.017 210.993 22.6761C211.538 22.3314 212.146 22.1591 212.817 22.1591C213.328 22.1591 213.749 22.2462 214.078 22.4205C214.411 22.5909 214.677 22.7973 214.874 23.0398C215.071 23.2784 215.22 23.5038 215.322 23.7159H215.436V22.2727H217.464V31.142C217.464 31.8883 217.286 32.5057 216.93 32.9943C216.574 33.483 216.088 33.8485 215.47 34.0909C214.853 34.3333 214.152 34.4545 213.368 34.4545ZM213.385 29.2614C213.821 29.2614 214.192 29.1553 214.499 28.9432C214.805 28.7311 215.038 28.4261 215.197 28.0284C215.357 27.6307 215.436 27.1534 215.436 26.5966C215.436 26.0473 215.357 25.5663 215.197 25.1534C215.042 24.7405 214.811 24.4205 214.504 24.1932C214.201 23.9621 213.828 23.8466 213.385 23.8466C212.927 23.8466 212.544 23.9659 212.237 24.2045C211.93 24.4432 211.699 24.7708 211.544 25.1875C211.389 25.6004 211.311 26.0701 211.311 26.5966C211.311 27.1307 211.389 27.5985 211.544 28C211.703 28.3977 211.936 28.7083 212.243 28.9318C212.554 29.1515 212.934 29.2614 213.385 29.2614ZM222.579 31.1705C221.727 31.1705 220.988 30.983 220.363 30.608C219.738 30.233 219.254 29.7083 218.909 29.0341C218.568 28.3598 218.397 27.572 218.397 26.6705C218.397 25.7689 218.568 24.9792 218.909 24.3011C219.254 23.6231 219.738 23.0966 220.363 22.7216C220.988 22.3466 221.727 22.1591 222.579 22.1591C223.432 22.1591 224.17 22.3466 224.795 22.7216C225.42 23.0966 225.903 23.6231 226.244 24.3011C226.589 24.9792 226.761 25.7689 226.761 26.6705C226.761 27.572 226.589 28.3598 226.244 29.0341C225.903 29.7083 225.42 30.233 224.795 30.608C224.17 30.983 223.432 31.1705 222.579 31.1705ZM222.591 29.5227C223.053 29.5227 223.439 29.3958 223.75 29.142C224.06 28.8845 224.291 28.5398 224.443 28.108C224.598 27.6761 224.676 27.1951 224.676 26.6648C224.676 26.1307 224.598 25.6477 224.443 25.2159C224.291 24.7803 224.06 24.4337 223.75 24.1761C223.439 23.9186 223.053 23.7898 222.591 23.7898C222.117 23.7898 221.723 23.9186 221.409 24.1761C221.098 24.4337 220.865 24.7803 220.71 25.2159C220.558 25.6477 220.483 26.1307 220.483 26.6648C220.483 27.1951 220.558 27.6761 220.71 28.108C220.865 28.5398 221.098 28.8845 221.409 29.142C221.723 29.3958 222.117 29.5227 222.591 29.5227ZM228.974 31.125C228.629 31.125 228.334 31.0038 228.087 30.7614C227.841 30.5189 227.72 30.2235 227.724 29.875C227.72 29.5341 227.841 29.2424 228.087 29C228.334 28.7576 228.629 28.6364 228.974 28.6364C229.307 28.6364 229.597 28.7576 229.843 29C230.093 29.2424 230.22 29.5341 230.224 29.875C230.22 30.1061 230.159 30.3163 230.042 30.5057C229.928 30.6951 229.777 30.8466 229.587 30.9602C229.402 31.0701 229.197 31.125 228.974 31.125ZM232.814 31.125C232.47 31.125 232.174 31.0038 231.928 30.7614C231.682 30.5189 231.561 30.2235 231.564 29.875C231.561 29.5341 231.682 29.2424 231.928 29C232.174 28.7576 232.47 28.6364 232.814 28.6364C233.148 28.6364 233.438 28.7576 233.684 29C233.934 29.2424 234.061 29.5341 234.064 29.875C234.061 30.1061 234 30.3163 233.883 30.5057C233.769 30.6951 233.618 30.8466 233.428 30.9602C233.243 31.0701 233.038 31.125 232.814 31.125ZM236.655 31.125C236.31 31.125 236.015 31.0038 235.769 30.7614C235.523 30.5189 235.401 30.2235 235.405 29.875C235.401 29.5341 235.523 29.2424 235.769 29C236.015 28.7576 236.31 28.6364 236.655 28.6364C236.988 28.6364 237.278 28.7576 237.524 29C237.774 29.2424 237.901 29.5341 237.905 29.875C237.901 30.1061 237.841 30.3163 237.723 30.5057C237.61 30.6951 237.458 30.8466 237.269 30.9602C237.083 31.0701 236.879 31.125 236.655 31.125Z" fill="#A9A9A9"/>
</svg>
