<svg width="333" height="313" viewBox="0 0 333 313" fill="none" xmlns="http://www.w3.org/2000/svg">
<g clip-path="url(#clip0_610_236)">
<path d="M236.87 151.601C247.171 158.565 257.824 165.019 268.286 171.729C277.618 177.713 286.854 183.937 295.527 190.851C296.466 189.449 297.389 188.036 298.289 186.607C299.128 185.274 299.95 183.933 300.755 182.582C297.492 173.244 294.227 163.907 290.964 154.571C288.374 147.162 285.7 139.773 283.215 132.327C281.169 126.198 279.361 119.95 278.403 113.548C276.555 101.215 278.377 88.2597 288.074 79.5256C293.639 74.5143 300.657 71.2561 308.03 69.5156C307.704 69.4252 307.374 69.339 307.042 69.2612C303.911 68.8408 300.783 68.4204 297.652 68C291.276 68.0189 285.334 69.627 279.826 72.8221C277.444 74.6635 275.06 76.5029 272.678 78.3443C268.301 82.7502 265.273 87.9444 263.593 93.9269C260.644 102.074 257.604 110.191 254.326 118.212C249.284 129.731 243.608 140.998 236.867 151.603L236.87 151.601Z" fill="white"/>
<path d="M236.525 220.177C238.472 202.009 228.088 187.801 214.061 177.919C212.213 179.565 210.327 181.171 208.405 182.737C199.457 189.296 189.98 195.089 180.201 200.327C174.367 223.601 168.773 246.934 163.412 270.32C165.455 270.919 167.515 271.472 169.586 271.98C170.642 271.848 171.697 271.703 172.75 271.547C187.829 269.311 203.055 264.793 215.349 255.475C226.423 247.081 235.022 234.183 236.523 220.177H236.525Z" fill="white"/>
<path d="M127.868 253.207C138.038 260.629 149.239 265.907 160.994 269.588C163.25 259.746 165.543 249.911 167.883 240.088C170.919 227.345 174.027 214.617 177.205 201.91C173.057 204.073 168.861 206.141 164.633 208.132C160.912 209.883 157.163 211.575 153.391 213.215C137.731 219.618 121.696 225.094 105.391 229.6C111.123 238.887 119.227 246.9 127.87 253.207H127.868Z" fill="white"/>
<path d="M328.152 85.4913C325.932 81.3755 322.9 78.0731 319.055 75.5822C317.089 73.7828 314.924 72.324 312.565 71.1973C302.082 72.8684 291.244 77.638 285.288 86.5129C278.323 96.8908 279.681 110.052 282.628 121.55C284.268 127.951 286.503 134.171 288.681 140.401C291.189 147.58 293.7 154.759 296.208 161.937C298.281 167.869 300.356 173.801 302.429 179.735C306.453 172.744 310.073 165.519 313.408 158.174C319.072 145.699 324.225 132.975 328.993 120.131C329.912 117.659 330.816 115.183 331.713 112.703C333.185 108.009 333.395 103.315 332.344 98.6208C332.132 93.9206 330.734 89.5441 328.152 85.4913Z" fill="white"/>
<path d="M36.8278 242.246C42.3214 245.807 47.9748 249.12 53.769 252.177C77.625 264.757 103.623 272.663 130.372 275.955C146.613 277.954 162.947 278.478 179.291 278.345C180.285 277.931 181.278 277.513 182.27 277.095C177.969 276.399 173.692 275.545 169.466 274.517C166.729 274.858 163.99 275.135 161.254 275.36C160.397 275.432 159.871 274.501 160.037 273.763C160.17 273.18 160.304 272.6 160.437 272.018C144.103 266.923 128.852 258.884 116.278 246.747C111.341 241.982 106.59 236.415 102.837 230.298C93.0398 232.941 83.1459 235.236 73.1826 237.172C66.5874 238.454 59.9627 239.575 53.3149 240.544C47.8318 241.216 42.334 241.784 36.8278 242.244V242.246Z" fill="white"/>
<path d="M285.719 186.544C271.036 175.901 255.333 166.782 240.189 156.831C238.623 155.803 237.063 154.763 235.509 153.712C233.97 156.062 232.377 158.378 230.724 160.655C226.191 166.156 221.278 171.308 216.043 176.126C221.886 180.309 227.121 185.293 231.244 191.181C239.47 202.932 241.398 217.566 236.55 231.066C231.481 245.181 220.635 256.427 207.535 263.433C197.841 268.617 187.255 271.665 176.453 273.498C179.854 274.171 183.281 274.736 186.725 275.207C206.345 266.82 225.584 257.093 242.912 244.569C253.712 236.764 264.289 228.434 273.491 218.758C279.187 212.769 284.182 206.242 289.203 199.686C290.895 197.475 292.531 195.221 294.114 192.932C291.368 190.735 288.568 188.608 285.719 186.544Z" fill="white"/>
<path d="M167.751 280.836C139.167 280.447 110.626 277.185 83.5012 267.801C65.4857 261.569 48.3322 253.005 32.5242 242.402C28.7147 242.631 25.1174 243.634 21.7326 245.412C17.3533 246.837 13.5647 249.27 10.3649 252.715C6.92113 255.914 4.48655 259.702 3.06111 264.081C0.851486 268.289 -0.161873 272.823 0.0210361 277.685C0.441517 280.815 0.861998 283.943 1.28248 287.073C2.9602 293.056 5.98766 298.25 10.3649 302.656C12.7469 304.497 15.131 306.336 17.513 308.178C23.0214 311.373 28.9648 312.979 35.3393 313C49.8228 311.838 64.2705 309.971 78.611 307.654C90.004 305.813 101.321 303.509 112.527 300.751C123.733 297.993 134.827 294.781 145.772 291.124C155.031 288.032 164.124 284.553 173.15 280.876C171.35 280.872 169.548 280.859 167.749 280.834L167.751 280.836Z" fill="white"/>
</g>
<g clip-path="url(#clip1_610_236)">
<path d="M68.8821 154.626C71.3628 153.699 73.6267 151.952 75.398 150.142C78.7881 146.678 81.0935 142.134 82.8524 137.662C84.6403 133.115 85.8308 128.355 86.6501 123.545C88.3944 113.31 88.5023 102.873 88.9233 92.5256C89.8328 70.1811 91.2266 47.5669 97.0362 25.8727C99.2659 17.5461 102.406 9.13968 108.018 2.48901C96.974 5.15737 86.7351 9.88636 77.7293 16.2446C72.6062 27.8099 68.1945 39.6904 64.5275 51.7981C58.4534 71.8538 54.4079 92.5297 52.5495 113.405C51.9511 120.121 51.418 127.069 52.1056 133.841C56.6355 141.592 62.304 148.597 68.8811 154.626H68.8821Z" fill="white"/>
<path d="M141.401 82.0014C146.355 73.0847 150.269 63.5873 152.354 53.5787C154.639 42.6107 154.823 31.1782 152.852 20.148C151.717 13.7991 149.773 6.92341 145.858 1.595C140.4 0.547568 134.763 0 128.999 0C122.519 0 116.199 0.693793 110.113 2.00879C105.359 7.08001 102.216 13.656 100.022 20.2185C96.5436 30.6213 94.6012 41.611 93.1836 52.4649C91.7151 63.6994 90.9653 75.0147 90.4374 86.328C89.95 96.7982 89.9002 107.333 88.7107 117.756C87.6073 127.429 85.3786 137.161 80.3541 145.605C78.1441 149.319 74.2759 153.6 69.9036 155.55C75.0215 160.097 80.6683 164.064 86.7393 167.345C91.3054 154.317 98.6976 142.186 106.636 131.047C118.265 114.731 131.63 99.5847 141.401 82.0014Z" fill="white"/>
<path d="M50.5749 128.237C50.4162 117.89 51.726 107.421 53.1883 97.1942C56.1439 76.5225 61.2172 56.1567 68.2786 36.5054C70.5611 30.1514 73.0532 23.8741 75.7454 17.6838C54.0459 33.9149 40 59.8175 40 88.9994C40 104.317 43.8703 118.73 50.6848 131.315C50.6268 130.288 50.5905 129.261 50.5749 128.236V128.237Z" fill="white"/>
<path d="M180.71 137.255C191.304 120.152 199.451 100.489 199.801 80.1263C200.132 60.7768 193.843 42.2591 189.389 23.6231C177.841 12.9517 163.461 5.30135 147.503 1.92676C148.705 3.70428 149.728 5.6218 150.572 7.60155C154.443 16.6789 155.585 27.0973 155.438 36.885C155.281 47.4724 153.222 57.9716 149.433 67.8548C145.894 77.0867 141.006 85.7275 135.541 93.9451C124.376 110.737 110.801 125.811 100.165 142.967C95.3043 150.807 90.9622 159.198 87.9049 167.961C100.198 174.372 114.175 177.998 128.999 177.998C135.202 177.998 141.256 177.362 147.1 176.155C160.201 165.002 171.646 151.886 180.709 137.254L180.71 137.255Z" fill="white"/>
<path d="M191.024 25.1736C191.637 27.646 192.273 30.1101 192.906 32.5648C195.503 42.6232 198.235 52.6806 199.786 62.9672C201.291 72.9417 201.52 82.9939 199.827 92.9611C196.536 112.323 187.328 130.699 175.995 146.58C168.412 157.207 159.555 166.967 149.711 175.574C188.875 166.24 218 131.021 218 88.9985C218 63.9639 207.663 41.3435 191.025 25.1726L191.024 25.1736Z" fill="white"/>
</g>
<defs>
<clipPath id="clip0_610_236">
<rect width="333" height="245" fill="white" transform="translate(0 68)"/>
</clipPath>
<clipPath id="clip1_610_236">
<rect width="178" height="178" fill="white" transform="translate(40)"/>
</clipPath>
</defs>
</svg>
