<?xml version="1.0" encoding="UTF-8"?><svg id="Layer_2" xmlns="http://www.w3.org/2000/svg" viewBox="0 0 652 144.66"><defs><style>.cls-1{fill:#bebdbe;}.cls-2{fill:#fff;}.cls-3{fill:#f62715;}</style></defs><g id="Layer_1-2"><path class="cls-2" d="M218.14,33.85l-13.93,27.53-4.22-27.53h-37.77l1.21,5.21c-.31-.25-.62-.49-.94-.73-3.12-2.27-6.83-3.95-11.01-5-3.87-.96-8.1-1.45-12.58-1.45-5.72,0-11.56.98-17.37,2.92-4.64,1.55-8.91,3.66-12.76,6.27-.79-3.57-1.99-6.87-3.58-9.86-3.09-5.82-7.17-10.68-12.12-14.43-4.84-3.67-10.36-6.38-16.39-8.05-5.79-1.61-11.69-2.42-17.55-2.42H18.87L0,113.18h46.26c8.93,0,17.33-1.42,24.98-4.23,7.75-2.84,14.58-6.96,20.31-12.25.96-.88,1.87-1.81,2.76-2.76.36,2.99,1.19,5.7,2.49,8.07,1.75,3.19,4.09,5.8,6.95,7.77,2.67,1.84,5.67,3.17,8.93,3.94,2.92.69,5.83,1.04,8.63,1.04,4.63,0,8.87-.71,12.68-2.11v.54h24.67l-5.07,27.87,5.9,1.85c3.73,1.17,8.06,1.76,12.85,1.76s8.72-.61,12.32-1.8c3.69-1.23,7.03-3.06,9.91-5.43,2.71-2.23,5.22-5,7.47-8.24,2-2.88,4.03-6.15,6.04-9.71l48.72-85.63h-38.64ZM71.55,64.65c-1.09,3.04-2.67,5.66-4.81,8.01-2.07,2.27-4.75,4.12-7.97,5.51-3.25,1.4-7.15,2.12-11.59,2.12h-5.71l7.26-41.49h6.06c3.49,0,6.47.46,8.84,1.37,2.26.87,4.11,2.01,5.5,3.4,1.36,1.36,2.35,2.93,3.01,4.79.74,2.08,1.11,4.32,1.11,6.65,0,3.28-.57,6.52-1.69,9.63ZM108.73,65.34c.34-1.79.6-3.61.8-5.47l2.66,3.7c-1.2.53-2.35,1.13-3.45,1.77ZM128.91,86.71c-.29,0-.56-.01-.82-.04.5-.27,1.09-.52,1.75-.73,1.23-.4,2.64-.7,4.2-.9-1.36,1.14-3,1.68-5.12,1.68ZM176.85,107.86c-1.48,2.64-2.72,4.02-3.49,4.72-.27.25-1.07.51-2.48.51-1.28,0-2.43-.22-3.52-.66l-.76-.31v-5.93c0-1.27.1-2.99.3-5.13.19-2.12.49-4.23.89-6.27l3.68-20.99,7.19,30.99-1.8,3.08Z"/><polygon class="cls-2" points="240.65 87.33 288.12 87.33 293.43 56.67 246.21 56.67 240.65 87.33"/><path class="cls-2" d="M613.36,33.85l-13.93,27.53-4.22-27.53h-37.78l1.21,5.21c-.31-.25-.62-.49-.94-.73-3.12-2.27-6.83-3.95-11.01-5-3.87-.97-8.1-1.46-12.58-1.46-5.71,0-11.56.98-17.37,2.92-4.36,1.45-8.39,3.39-12.04,5.78l7.19-40.58h-35.24l-6.11,35.74s-.06-.03-.09-.04c-4.5-2.36-9.78-3.56-15.71-3.56-6.29,0-12.2,1.32-17.55,3.92-5.25,2.55-9.84,6.06-13.64,10.43-1.34,1.54-2.57,3.18-3.71,4.91-2.08-3.93-4.83-7.36-8.23-10.21-3.66-3.07-8.03-5.43-12.99-7.01-4.78-1.53-10-2.3-15.51-2.3-3.61,0-7.07.33-10.35.99l4.65-26.58h-87.37l-5.96,32.76h26.03l-12.99,74.12h35.98l4.33-24.46c.52,1.95,1.2,3.83,2.06,5.61,2.12,4.41,5.06,8.23,8.72,11.35,3.62,3.08,7.95,5.45,12.88,7.04,4.74,1.53,9.9,2.31,15.33,2.31,7.23,0,13.84-1.28,19.64-3.79,5.78-2.51,10.81-5.98,14.95-10.32,1.46-1.53,2.79-3.16,4.01-4.88,1.46,3.19,3.35,6.06,5.67,8.56,3,3.22,6.69,5.76,10.97,7.54,4.21,1.75,8.93,2.63,14.03,2.63,4.54,0,8.81-.7,12.74-2.09l-.09.51h33.5l1.58-8.94c1.54,2.19,3.4,4.05,5.56,5.54,2.67,1.84,5.67,3.17,8.93,3.94,2.92.69,5.83,1.04,8.63,1.04,4.63,0,8.87-.71,12.68-2.11v.54h24.67l-5.07,27.87,5.9,1.85c3.73,1.17,8.06,1.76,12.85,1.76s8.72-.61,12.32-1.8c3.69-1.23,7.03-3.06,9.91-5.44,2.71-2.24,5.22-5,7.47-8.24,2-2.88,4.03-6.15,6.04-9.71l48.72-85.63h-38.64ZM348.81,46.15c-1.87,1.98-3.53,4.14-5.01,6.44l2.39-13.53h11.23c-3.2,2.02-6.08,4.4-8.62,7.09ZM388.03,75.56c-.6,1.74-1.41,3.2-2.48,4.47-.98,1.17-2.13,2.06-3.52,2.73-1.33.64-2.82.95-4.57.95-3.12,0-4.31-.91-4.94-1.6-.73-.8-1.7-2.19-1.7-5.05,0-2.04.3-3.91.93-5.72.61-1.76,1.41-3.24,2.47-4.53.95-1.17,2.1-2.07,3.48-2.77,1.3-.65,2.77-.97,4.48-.97,3.12,0,4.35.95,5.01,1.67.76.83,1.77,2.26,1.77,5.11,0,2.03-.3,3.91-.93,5.72ZM463.56,75.46c-.63,1.74-1.48,3.21-2.59,4.5-1.04,1.2-2.23,2.11-3.64,2.79-1.33.64-2.74.95-4.31.95-3.5,0-4.49-1.14-4.81-1.52-.73-.84-1.7-2.3-1.7-5.25,0-2.12.3-4.04.93-5.85.6-1.73,1.39-3.18,2.42-4.41.94-1.12,2.06-1.98,3.44-2.65,1.33-.64,2.83-.95,4.58-.95,2.95,0,4.21.96,4.89,1.69.75.79,1.75,2.18,1.75,5.09,0,2-.31,3.84-.96,5.62ZM499.79,68.19l2.17-12.22,5.45,7.6c-2.81,1.25-5.35,2.8-7.62,4.62ZM524.13,86.71c-.29,0-.56-.01-.82-.04.5-.27,1.09-.52,1.75-.73,1.23-.4,2.64-.7,4.2-.9-1.36,1.14-3,1.68-5.12,1.68ZM572.07,107.86c-1.48,2.64-2.72,4.02-3.49,4.71-.27.25-1.07.51-2.48.51-1.28,0-2.43-.22-3.52-.66l-.76-.31v-5.93c0-1.28.1-3.01.3-5.13.19-2.12.49-4.23.89-6.27l3.68-20.99,7.19,30.99-1.8,3.08Z"/><path class="cls-1" d="M24.74,13.3h34.37c5.25,0,10.47.72,15.68,2.17,5.2,1.44,9.88,3.74,14.04,6.89,4.15,3.15,7.54,7.2,10.17,12.13,2.62,4.94,3.94,10.91,3.94,17.91,0,8.13-1.42,15.53-4.26,22.17-2.84,6.65-6.8,12.31-11.87,16.99-5.07,4.68-11.06,8.29-17.97,10.82-6.91,2.54-14.43,3.8-22.56,3.8H8.34L24.74,13.3ZM33.14,87.29h14.04c5.42,0,10.21-.9,14.37-2.69,4.15-1.79,7.61-4.2,10.36-7.22,2.75-3.02,4.83-6.47,6.23-10.36,1.4-3.89,2.1-7.89,2.1-12,0-3.15-.5-6.14-1.51-8.99-1.01-2.84-2.56-5.31-4.66-7.41-2.1-2.1-4.75-3.76-7.94-4.99-3.19-1.22-6.98-1.84-11.35-1.84h-11.94l-9.71,55.49Z"/><path class="cls-1" d="M166.16,60c0,1.23-.07,2.54-.2,3.94-.13,1.4-.33,2.75-.59,4.07l-4.46,25.45c-.44,2.28-.77,4.59-.98,6.95-.22,2.36-.33,4.29-.33,5.77h-18.63c0-.96.04-2.08.13-3.35.09-1.27.22-2.47.39-3.61h-.26c-4.81,5.69-11.46,8.53-19.94,8.53-2.28,0-4.61-.29-7.02-.85-2.41-.57-4.59-1.53-6.56-2.89-1.97-1.35-3.56-3.15-4.79-5.38-1.23-2.23-1.84-4.96-1.84-8.2,0-5.25,1.31-9.53,3.94-12.86,2.62-3.32,6.06-5.9,10.3-7.74,4.24-1.84,9.05-3.1,14.43-3.8,5.38-.7,10.78-1.05,16.2-1.05.17-.79.26-1.4.26-1.84v-1.18c0-2.54-.9-4.39-2.69-5.58-1.79-1.18-4.31-1.77-7.54-1.77-2.97,0-5.97.57-8.99,1.71-3.02,1.14-5.75,2.62-8.2,4.46l-8.66-12.07c3.94-3.15,8.46-5.58,13.58-7.28,5.12-1.71,10.17-2.56,15.15-2.56,3.94,0,7.56.42,10.89,1.25,3.32.83,6.19,2.12,8.59,3.87,2.4,1.75,4.31,3.94,5.71,6.56,1.4,2.62,2.1,5.77,2.1,9.45ZM142.94,77.58c-2.62,0-5.29.11-8,.33-2.71.22-5.14.68-7.28,1.38-2.14.7-3.92,1.66-5.31,2.89-1.4,1.23-2.1,2.84-2.1,4.85,0,2.62.9,4.39,2.69,5.31,1.79.92,3.78,1.38,5.97,1.38,4.02,0,7.39-1.25,10.1-3.74,2.71-2.49,4.42-5.58,5.12-9.25l.66-3.15h-1.84Z"/><path class="cls-1" d="M201.98,116.02c-1.92,3.41-3.83,6.47-5.71,9.18-1.88,2.71-3.94,4.98-6.17,6.82-2.23,1.84-4.79,3.23-7.67,4.2-2.89.96-6.25,1.44-10.1,1.44-4.11,0-7.69-.48-10.76-1.44l3.15-17.32c1.92.79,3.98,1.18,6.17,1.18,3.06,0,5.44-.77,7.15-2.3,1.71-1.53,3.35-3.7,4.92-6.49l3.15-5.38-15.09-65.07h22.96l6.56,42.77h.26l21.65-42.77h22.3l-42.77,75.17Z"/><path class="cls-3" d="M249.03,80.33l3.02-16.66h33.06l-2.89,16.66h-33.19Z"/><path class="cls-3" d="M340.33,32.06l-13.12,74.12h-21.78l12.99-74.12h-25.98l3.41-18.76h73.2l-3.28,18.76h-25.45Z"/><path class="cls-3" d="M376.41,108.01c-4.72,0-9.12-.66-13.18-1.97-4.07-1.31-7.57-3.21-10.5-5.71-2.93-2.49-5.25-5.51-6.95-9.05-1.71-3.54-2.56-7.54-2.56-12,0-5.42.92-10.58,2.76-15.48,1.84-4.9,4.48-9.18,7.94-12.86,3.45-3.67,7.63-6.6,12.53-8.79,4.9-2.18,10.45-3.28,16.66-3.28,4.81,0,9.27.66,13.38,1.97,4.11,1.31,7.65,3.21,10.63,5.71,2.97,2.49,5.31,5.51,7.02,9.05,1.71,3.54,2.56,7.54,2.56,12,0,5.51-.92,10.71-2.75,15.61-1.84,4.9-4.51,9.18-8,12.86-3.5,3.67-7.72,6.58-12.66,8.72-4.94,2.14-10.56,3.21-16.86,3.21ZM395.96,69.84c0-3.94-1.2-7.22-3.61-9.84-2.41-2.62-5.79-3.94-10.17-3.94-2.8,0-5.34.57-7.61,1.71-2.28,1.14-4.2,2.67-5.77,4.59-1.57,1.92-2.8,4.15-3.67,6.69-.88,2.54-1.31,5.2-1.31,8,0,3.94,1.18,7.2,3.54,9.77,2.36,2.58,5.73,3.87,10.1,3.87,2.8,0,5.33-.54,7.61-1.64,2.27-1.09,4.22-2.6,5.84-4.53,1.62-1.92,2.86-4.15,3.74-6.69.87-2.54,1.31-5.2,1.31-8Z"/><path class="cls-3" d="M482.54,7h20.99l-17.58,99.18h-19.28l1.57-8.92h-.39c-2.28,3.33-5.34,5.9-9.18,7.74-3.85,1.84-8.18,2.75-12.99,2.75-4.2,0-7.98-.7-11.35-2.1-3.37-1.4-6.21-3.35-8.53-5.84-2.32-2.49-4.09-5.44-5.31-8.86-1.23-3.41-1.84-7.17-1.84-11.28,0-5.6.9-10.84,2.69-15.74,1.79-4.9,4.28-9.18,7.48-12.86,3.19-3.67,7-6.58,11.41-8.72,4.42-2.14,9.25-3.21,14.5-3.21,4.81,0,8.96.92,12.46,2.75,3.5,1.84,6.12,4.29,7.87,7.35h.26l7.22-42.24ZM439.51,76.92c0,3.94,1.14,7.22,3.41,9.84,2.27,2.62,5.64,3.94,10.1,3.94,2.62,0,5.07-.54,7.35-1.64,2.27-1.09,4.24-2.6,5.9-4.53,1.66-1.92,2.95-4.15,3.87-6.69.92-2.54,1.38-5.2,1.38-8,0-4.02-1.23-7.32-3.67-9.9-2.45-2.58-5.77-3.87-9.97-3.87-2.8,0-5.33.55-7.61,1.64-2.28,1.09-4.2,2.58-5.77,4.46-1.57,1.88-2.8,4.09-3.67,6.62-.88,2.54-1.31,5.25-1.31,8.13Z"/><path class="cls-3" d="M561.38,60c0,1.23-.06,2.54-.2,3.94-.13,1.4-.33,2.75-.59,4.07l-4.46,25.45c-.44,2.28-.77,4.59-.98,6.95-.22,2.36-.33,4.29-.33,5.77h-18.63c0-.96.04-2.08.13-3.35.09-1.27.22-2.47.39-3.61h-.26c-4.81,5.69-11.46,8.53-19.94,8.53-2.28,0-4.61-.29-7.02-.85-2.41-.57-4.59-1.53-6.56-2.89-1.97-1.35-3.57-3.15-4.79-5.38-1.23-2.23-1.84-4.96-1.84-8.2,0-5.25,1.31-9.53,3.94-12.86,2.62-3.32,6.05-5.9,10.3-7.74,4.24-1.84,9.05-3.1,14.43-3.8,5.38-.7,10.78-1.05,16.2-1.05.17-.79.26-1.4.26-1.84v-1.18c0-2.54-.9-4.39-2.69-5.58-1.79-1.18-4.31-1.77-7.54-1.77-2.97,0-5.97.57-8.99,1.71-3.02,1.14-5.75,2.62-8.2,4.46l-8.66-12.07c3.94-3.15,8.46-5.58,13.58-7.28,5.12-1.71,10.17-2.56,15.15-2.56,3.94,0,7.56.42,10.89,1.25,3.32.83,6.19,2.12,8.59,3.87,2.4,1.75,4.31,3.94,5.71,6.56,1.4,2.62,2.1,5.77,2.1,9.45ZM538.16,77.58c-2.62,0-5.29.11-8,.33-2.71.22-5.14.68-7.28,1.38-2.14.7-3.92,1.66-5.31,2.89-1.4,1.23-2.1,2.84-2.1,4.85,0,2.62.9,4.39,2.69,5.31,1.79.92,3.78,1.38,5.97,1.38,4.02,0,7.39-1.25,10.1-3.74,2.71-2.49,4.42-5.58,5.12-9.25l.66-3.15h-1.84Z"/><path class="cls-3" d="M597.2,116.02c-1.92,3.41-3.83,6.47-5.71,9.18-1.88,2.71-3.94,4.98-6.17,6.82-2.23,1.84-4.79,3.23-7.67,4.2-2.89.96-6.25,1.44-10.1,1.44-4.11,0-7.7-.48-10.76-1.44l3.15-17.32c1.92.79,3.98,1.18,6.17,1.18,3.06,0,5.44-.77,7.15-2.3,1.71-1.53,3.34-3.7,4.92-6.49l3.15-5.38-15.09-65.07h22.96l6.56,42.77h.26l21.65-42.77h22.3l-42.77,75.17Z"/></g></svg>