<svg width="269" height="341" viewBox="0 0 269 341" fill="none" xmlns="http://www.w3.org/2000/svg">
<path d="M180 294.639L183.449 311.501C184.017 310.19 183.433 307.919 187.07 304.666C190.707 301.412 195.157 303.012 195.157 303.012L180 294.639Z" fill="white"/>
<rect x="188" y="304" width="81" height="28" rx="14" fill="#FF3434"/>
<path d="M204.861 322V313.273H210.537V314.598H206.442V316.967H210.243V318.293H206.442V320.675H210.571V322H204.861ZM213.024 318.165V322H211.482V315.455H212.956V316.567H213.033C213.183 316.2 213.423 315.909 213.753 315.693C214.085 315.477 214.496 315.369 214.985 315.369C215.436 315.369 215.83 315.466 216.165 315.659C216.503 315.852 216.764 316.132 216.949 316.499C217.137 316.865 217.229 317.31 217.226 317.832V322H215.683V318.071C215.683 317.634 215.57 317.291 215.342 317.044C215.118 316.797 214.807 316.673 214.409 316.673C214.139 316.673 213.899 316.733 213.689 316.852C213.482 316.969 213.318 317.138 213.199 317.359C213.083 317.581 213.024 317.849 213.024 318.165ZM221.041 324.591C220.487 324.591 220.011 324.516 219.613 324.365C219.215 324.217 218.896 324.018 218.654 323.768C218.413 323.518 218.245 323.241 218.152 322.938L219.541 322.601C219.603 322.729 219.694 322.855 219.813 322.98C219.933 323.108 220.093 323.213 220.295 323.295C220.5 323.381 220.757 323.423 221.066 323.423C221.504 323.423 221.866 323.317 222.153 323.104C222.44 322.893 222.583 322.547 222.583 322.064V320.824H222.507C222.427 320.983 222.311 321.146 222.157 321.314C222.007 321.482 221.806 321.622 221.556 321.736C221.309 321.849 220.998 321.906 220.623 321.906C220.12 321.906 219.664 321.788 219.255 321.553C218.849 321.314 218.525 320.959 218.284 320.487C218.045 320.013 217.926 319.419 217.926 318.706C217.926 317.987 218.045 317.381 218.284 316.886C218.525 316.389 218.85 316.013 219.26 315.757C219.669 315.499 220.125 315.369 220.627 315.369C221.011 315.369 221.326 315.435 221.573 315.565C221.823 315.693 222.022 315.848 222.17 316.03C222.318 316.209 222.43 316.378 222.507 316.537H222.592V315.455H224.113V322.107C224.113 322.666 223.98 323.129 223.713 323.496C223.446 323.862 223.081 324.136 222.617 324.318C222.154 324.5 221.629 324.591 221.041 324.591ZM221.054 320.696C221.38 320.696 221.659 320.616 221.889 320.457C222.119 320.298 222.294 320.07 222.413 319.771C222.532 319.473 222.592 319.115 222.592 318.697C222.592 318.286 222.532 317.925 222.413 317.615C222.296 317.305 222.123 317.065 221.893 316.895C221.666 316.722 221.386 316.635 221.054 316.635C220.71 316.635 220.423 316.724 220.193 316.903C219.963 317.082 219.789 317.328 219.673 317.641C219.556 317.95 219.498 318.303 219.498 318.697C219.498 319.098 219.556 319.449 219.673 319.75C219.792 320.048 219.967 320.281 220.197 320.449C220.43 320.614 220.715 320.696 221.054 320.696ZM225.094 322V315.455H226.637V322H225.094ZM225.87 314.526C225.625 314.526 225.415 314.445 225.239 314.283C225.063 314.118 224.975 313.92 224.975 313.69C224.975 313.457 225.063 313.26 225.239 313.098C225.415 312.933 225.625 312.851 225.87 312.851C226.117 312.851 226.327 312.933 226.5 313.098C226.677 313.26 226.765 313.457 226.765 313.69C226.765 313.92 226.677 314.118 226.5 314.283C226.327 314.445 226.117 314.526 225.87 314.526ZM229.166 318.165V322H227.623V315.455H229.098V316.567H229.174C229.325 316.2 229.565 315.909 229.894 315.693C230.227 315.477 230.637 315.369 231.126 315.369C231.578 315.369 231.971 315.466 232.306 315.659C232.644 315.852 232.906 316.132 233.09 316.499C233.278 316.865 233.37 317.31 233.367 317.832V322H231.825V318.071C231.825 317.634 231.711 317.291 231.484 317.044C231.259 316.797 230.948 316.673 230.551 316.673C230.281 316.673 230.041 316.733 229.83 316.852C229.623 316.969 229.46 317.138 229.34 317.359C229.224 317.581 229.166 317.849 229.166 318.165ZM237.233 322.128C236.577 322.128 236.01 321.991 235.533 321.719C235.059 321.443 234.694 321.054 234.438 320.551C234.182 320.045 234.054 319.45 234.054 318.766C234.054 318.092 234.182 317.501 234.438 316.993C234.696 316.482 235.057 316.084 235.52 315.8C235.983 315.513 236.527 315.369 237.152 315.369C237.556 315.369 237.936 315.435 238.294 315.565C238.655 315.693 238.973 315.892 239.249 316.162C239.527 316.432 239.746 316.776 239.905 317.193C240.064 317.608 240.144 318.102 240.144 318.676V319.149H234.779V318.109H238.665C238.662 317.814 238.598 317.551 238.473 317.321C238.348 317.088 238.174 316.905 237.949 316.771C237.728 316.638 237.469 316.571 237.174 316.571C236.858 316.571 236.581 316.648 236.343 316.801C236.104 316.952 235.918 317.151 235.784 317.398C235.654 317.642 235.587 317.911 235.584 318.203V319.111C235.584 319.491 235.654 319.818 235.793 320.091C235.932 320.361 236.127 320.568 236.377 320.713C236.627 320.855 236.919 320.926 237.255 320.926C237.479 320.926 237.682 320.895 237.864 320.832C238.046 320.767 238.203 320.672 238.337 320.547C238.471 320.422 238.571 320.267 238.64 320.082L240.08 320.244C239.989 320.625 239.816 320.957 239.56 321.241C239.307 321.523 238.983 321.741 238.588 321.898C238.194 322.051 237.742 322.128 237.233 322.128ZM243.747 322.128C243.09 322.128 242.524 321.991 242.046 321.719C241.572 321.443 241.207 321.054 240.951 320.551C240.695 320.045 240.568 319.45 240.568 318.766C240.568 318.092 240.695 317.501 240.951 316.993C241.21 316.482 241.57 316.084 242.034 315.8C242.497 315.513 243.041 315.369 243.666 315.369C244.069 315.369 244.45 315.435 244.808 315.565C245.168 315.693 245.487 315.892 245.762 316.162C246.041 316.432 246.259 316.776 246.418 317.193C246.578 317.608 246.657 318.102 246.657 318.676V319.149H241.292V318.109H245.178C245.176 317.814 245.112 317.551 244.987 317.321C244.862 317.088 244.687 316.905 244.463 316.771C244.241 316.638 243.982 316.571 243.687 316.571C243.372 316.571 243.095 316.648 242.856 316.801C242.617 316.952 242.431 317.151 242.298 317.398C242.167 317.642 242.1 317.911 242.097 318.203V319.111C242.097 319.491 242.167 319.818 242.306 320.091C242.445 320.361 242.64 320.568 242.89 320.713C243.14 320.855 243.433 320.926 243.768 320.926C243.992 320.926 244.195 320.895 244.377 320.832C244.559 320.767 244.717 320.672 244.85 320.547C244.984 320.422 245.085 320.267 245.153 320.082L246.593 320.244C246.502 320.625 246.329 320.957 246.073 321.241C245.82 321.523 245.497 321.741 245.102 321.898C244.707 322.051 244.255 322.128 243.747 322.128ZM247.362 322V315.455H248.858V316.545H248.926C249.045 316.168 249.25 315.876 249.54 315.672C249.832 315.464 250.166 315.361 250.541 315.361C250.626 315.361 250.722 315.365 250.827 315.374C250.935 315.379 251.024 315.389 251.095 315.403V316.822C251.03 316.8 250.926 316.78 250.784 316.763C250.645 316.743 250.51 316.733 250.379 316.733C250.098 316.733 249.845 316.794 249.621 316.916C249.399 317.036 249.224 317.202 249.097 317.415C248.969 317.628 248.905 317.874 248.905 318.152V322H247.362Z" fill="white"/>
<path d="M74.6654 30L60 33.9296C61.1848 34.3606 63.1533 33.7262 66.2107 36.7564C69.2681 39.7865 68.0953 43.7898 68.0953 43.7898L74.6654 30Z" fill="white"/>
<rect x="4" y="34.9957" width="59" height="28" rx="14" fill="#C23DFF"/>
<path d="M23.2642 44.2685H25.0497L27.1847 48.1293H27.2699L29.4048 44.2685H31.1903L28.0156 49.74V52.9957H26.4389V49.74L23.2642 44.2685ZM33.2782 53.1236C32.639 53.1236 32.085 52.9829 31.6163 52.7017C31.1475 52.4204 30.7839 52.027 30.5254 51.5213C30.2697 51.0156 30.1418 50.4247 30.1418 49.7486C30.1418 49.0724 30.2697 48.4801 30.5254 47.9716C30.7839 47.4631 31.1475 47.0682 31.6163 46.7869C32.085 46.5057 32.639 46.365 33.2782 46.365C33.9174 46.365 34.4714 46.5057 34.9401 46.7869C35.4089 47.0682 35.7711 47.4631 36.0268 47.9716C36.2853 48.4801 36.4146 49.0724 36.4146 49.7486C36.4146 50.4247 36.2853 51.0156 36.0268 51.5213C35.7711 52.027 35.4089 52.4204 34.9401 52.7017C34.4714 52.9829 33.9174 53.1236 33.2782 53.1236ZM33.2867 51.8878C33.6333 51.8878 33.9231 51.7926 34.156 51.6023C34.389 51.4091 34.5623 51.1506 34.6759 50.8267C34.7924 50.5028 34.8506 50.142 34.8506 49.7443C34.8506 49.3437 34.7924 48.9815 34.6759 48.6577C34.5623 48.331 34.389 48.071 34.156 47.8778C33.9231 47.6846 33.6333 47.5881 33.2867 47.5881C32.9316 47.5881 32.6362 47.6846 32.4004 47.8778C32.1674 48.071 31.9927 48.331 31.8762 48.6577C31.7626 48.9815 31.7058 49.3437 31.7058 49.7443C31.7058 50.142 31.7626 50.5028 31.8762 50.8267C31.9927 51.1506 32.1674 51.4091 32.4004 51.6023C32.6362 51.7926 32.9316 51.8878 33.2867 51.8878ZM41.2957 50.2429V46.4503H42.8384V52.9957H41.3426V51.8324H41.2744C41.1267 52.1989 40.8838 52.4986 40.5457 52.7315C40.2105 52.9645 39.7972 53.081 39.3057 53.081C38.8767 53.081 38.4974 52.9858 38.1679 52.7954C37.8412 52.6023 37.5855 52.3224 37.4009 51.956C37.2162 51.5866 37.1239 51.1406 37.1239 50.6179V46.4503H38.6665V50.3793C38.6665 50.794 38.7801 51.1236 39.0074 51.3679C39.2347 51.6122 39.533 51.7344 39.9023 51.7344C40.1295 51.7344 40.3497 51.679 40.5628 51.5682C40.7759 51.4574 40.9506 51.2926 41.0869 51.0739C41.2261 50.8523 41.2957 50.5753 41.2957 50.2429Z" fill="#FFBBD5"/>
<path d="M96.108 6.28977H93.983C93.9223 5.94129 93.8106 5.63258 93.6477 5.36364C93.4848 5.09091 93.2822 4.85985 93.0398 4.67045C92.7973 4.48106 92.5208 4.33901 92.2102 4.24432C91.9034 4.14583 91.572 4.09659 91.2159 4.09659C90.5833 4.09659 90.0227 4.25568 89.5341 4.57386C89.0455 4.88826 88.6629 5.35038 88.3864 5.96023C88.1098 6.56629 87.9716 7.30682 87.9716 8.18182C87.9716 9.07197 88.1098 9.82197 88.3864 10.4318C88.6667 11.0379 89.0492 11.4962 89.5341 11.8068C90.0227 12.1136 90.5814 12.267 91.2102 12.267C91.5587 12.267 91.8845 12.2216 92.1875 12.1307C92.4943 12.036 92.7689 11.8977 93.0114 11.7159C93.2576 11.5341 93.464 11.3106 93.6307 11.0455C93.8011 10.7803 93.9186 10.4773 93.983 10.1364L96.108 10.1477C96.0284 10.7008 95.8561 11.2197 95.5909 11.7045C95.3295 12.1894 94.9867 12.6174 94.5625 12.9886C94.1383 13.3561 93.642 13.6439 93.0739 13.8523C92.5057 14.0568 91.875 14.1591 91.1818 14.1591C90.1591 14.1591 89.2462 13.9223 88.4432 13.4489C87.6402 12.9754 87.0076 12.2917 86.5455 11.3977C86.0833 10.5038 85.8523 9.43182 85.8523 8.18182C85.8523 6.92803 86.0852 5.85606 86.5511 4.96591C87.017 4.07197 87.6515 3.38826 88.4545 2.91477C89.2576 2.44129 90.1667 2.20455 91.1818 2.20455C91.8295 2.20455 92.4318 2.29545 92.9886 2.47727C93.5455 2.65909 94.0417 2.92614 94.4773 3.27841C94.9129 3.62689 95.2708 4.05492 95.5511 4.5625C95.8352 5.06629 96.0208 5.64205 96.108 6.28977ZM99.6588 14.1761C99.1058 14.1761 98.6077 14.0777 98.1645 13.8807C97.7251 13.6799 97.3766 13.3845 97.119 12.9943C96.8652 12.6042 96.7384 12.1231 96.7384 11.5511C96.7384 11.0587 96.8293 10.6515 97.0111 10.3295C97.1929 10.0076 97.441 9.75 97.7554 9.55682C98.0698 9.36364 98.424 9.2178 98.8179 9.11932C99.2156 9.01705 99.6266 8.94318 100.051 8.89773C100.562 8.8447 100.977 8.79735 101.295 8.75568C101.613 8.71023 101.844 8.64205 101.988 8.55114C102.136 8.45644 102.21 8.31061 102.21 8.11364V8.07955C102.21 7.65152 102.083 7.32008 101.829 7.08523C101.575 6.85038 101.21 6.73295 100.733 6.73295C100.229 6.73295 99.8293 6.8428 99.5338 7.0625C99.2421 7.2822 99.0452 7.54167 98.9429 7.84091L97.0224 7.56818C97.174 7.03788 97.424 6.5947 97.7724 6.23864C98.1209 5.87879 98.5471 5.60985 99.0509 5.43182C99.5546 5.25 100.111 5.15909 100.721 5.15909C101.142 5.15909 101.56 5.20833 101.977 5.30682C102.394 5.4053 102.774 5.56818 103.119 5.79545C103.464 6.01894 103.74 6.32386 103.949 6.71023C104.161 7.09659 104.267 7.57955 104.267 8.15909V14H102.289V12.8011H102.221C102.096 13.0436 101.92 13.2708 101.693 13.483C101.469 13.6913 101.187 13.8598 100.846 13.9886C100.509 14.1136 100.113 14.1761 99.6588 14.1761ZM100.193 12.6648C100.606 12.6648 100.964 12.5833 101.267 12.4205C101.57 12.2538 101.803 12.0341 101.966 11.7614C102.132 11.4886 102.216 11.1913 102.216 10.8693V9.84091C102.151 9.89394 102.041 9.94318 101.886 9.98864C101.735 10.0341 101.564 10.0739 101.375 10.108C101.185 10.142 100.998 10.1723 100.812 10.1989C100.627 10.2254 100.466 10.2481 100.329 10.267C100.022 10.3087 99.7478 10.3769 99.5054 10.4716C99.263 10.5663 99.0717 10.6989 98.9315 10.8693C98.7914 11.036 98.7213 11.2519 98.7213 11.517C98.7213 11.8958 98.8596 12.1818 99.1361 12.375C99.4126 12.5682 99.7649 12.6648 100.193 12.6648ZM107.592 8.88636V14H105.535V5.27273H107.501V6.75568H107.603C107.804 6.26705 108.124 5.87879 108.563 5.59091C109.007 5.30303 109.554 5.15909 110.205 5.15909C110.808 5.15909 111.332 5.28788 111.779 5.54545C112.23 5.80303 112.579 6.17614 112.825 6.66477C113.075 7.15341 113.198 7.74621 113.194 8.44318V14H111.137V8.76136C111.137 8.17803 110.986 7.72159 110.683 7.39205C110.383 7.0625 109.969 6.89773 109.438 6.89773C109.079 6.89773 108.758 6.97727 108.478 7.13636C108.202 7.29167 107.984 7.51705 107.825 7.8125C107.669 8.10795 107.592 8.46591 107.592 8.88636ZM118.932 17.2727C118.652 17.2727 118.392 17.25 118.154 17.2045C117.919 17.1629 117.731 17.1136 117.591 17.0568L118.068 15.4545C118.368 15.5417 118.635 15.5833 118.87 15.5795C119.104 15.5758 119.311 15.5019 119.489 15.358C119.671 15.2178 119.824 14.983 119.949 14.6534L120.125 14.1818L116.961 5.27273H119.142L121.154 11.8636H121.245L123.262 5.27273H125.449L121.955 15.0568C121.792 15.5189 121.576 15.9148 121.307 16.2443C121.038 16.5777 120.709 16.8314 120.318 17.0057C119.932 17.1837 119.47 17.2727 118.932 17.2727ZM129.582 14.1705C128.73 14.1705 127.991 13.983 127.366 13.608C126.741 13.233 126.257 12.7083 125.912 12.0341C125.571 11.3598 125.401 10.572 125.401 9.67045C125.401 8.76894 125.571 7.97917 125.912 7.30114C126.257 6.62311 126.741 6.09659 127.366 5.72159C127.991 5.34659 128.73 5.15909 129.582 5.15909C130.435 5.15909 131.173 5.34659 131.798 5.72159C132.423 6.09659 132.906 6.62311 133.247 7.30114C133.592 7.97917 133.764 8.76894 133.764 9.67045C133.764 10.572 133.592 11.3598 133.247 12.0341C132.906 12.7083 132.423 13.233 131.798 13.608C131.173 13.983 130.435 14.1705 129.582 14.1705ZM129.594 12.5227C130.056 12.5227 130.442 12.3958 130.753 12.142C131.063 11.8845 131.295 11.5398 131.446 11.108C131.601 10.6761 131.679 10.1951 131.679 9.66477C131.679 9.13068 131.601 8.64773 131.446 8.21591C131.295 7.7803 131.063 7.43371 130.753 7.17614C130.442 6.91856 130.056 6.78977 129.594 6.78977C129.12 6.78977 128.726 6.91856 128.412 7.17614C128.101 7.43371 127.868 7.7803 127.713 8.21591C127.562 8.64773 127.486 9.13068 127.486 9.66477C127.486 10.1951 127.562 10.6761 127.713 11.108C127.868 11.5398 128.101 11.8845 128.412 12.142C128.726 12.3958 129.12 12.5227 129.594 12.5227ZM140.272 10.3295V5.27273H142.329V14H140.335V12.4489H140.244C140.047 12.9375 139.723 13.3371 139.272 13.6477C138.825 13.9583 138.274 14.1136 137.619 14.1136C137.047 14.1136 136.541 13.9867 136.102 13.733C135.666 13.4754 135.325 13.1023 135.079 12.6136C134.833 12.1212 134.71 11.5265 134.71 10.8295V5.27273H136.767V10.5114C136.767 11.0644 136.918 11.5038 137.221 11.8295C137.524 12.1553 137.922 12.3182 138.414 12.3182C138.718 12.3182 139.011 12.2443 139.295 12.0966C139.579 11.9489 139.812 11.7292 139.994 11.4375C140.18 11.142 140.272 10.7727 140.272 10.3295ZM150.62 14.1705C149.768 14.1705 149.029 13.983 148.404 13.608C147.779 13.233 147.294 12.7083 146.949 12.0341C146.609 11.3598 146.438 10.572 146.438 9.67045C146.438 8.76894 146.609 7.97917 146.949 7.30114C147.294 6.62311 147.779 6.09659 148.404 5.72159C149.029 5.34659 149.768 5.15909 150.62 5.15909C151.472 5.15909 152.211 5.34659 152.836 5.72159C153.461 6.09659 153.944 6.62311 154.285 7.30114C154.629 7.97917 154.802 8.76894 154.802 9.67045C154.802 10.572 154.629 11.3598 154.285 12.0341C153.944 12.7083 153.461 13.233 152.836 13.608C152.211 13.983 151.472 14.1705 150.62 14.1705ZM150.631 12.5227C151.093 12.5227 151.48 12.3958 151.79 12.142C152.101 11.8845 152.332 11.5398 152.484 11.108C152.639 10.6761 152.716 10.1951 152.716 9.66477C152.716 9.13068 152.639 8.64773 152.484 8.21591C152.332 7.7803 152.101 7.43371 151.79 7.17614C151.48 6.91856 151.093 6.78977 150.631 6.78977C150.158 6.78977 149.764 6.91856 149.449 7.17614C149.139 7.43371 148.906 7.7803 148.751 8.21591C148.599 8.64773 148.523 9.13068 148.523 9.66477C148.523 10.1951 148.599 10.6761 148.751 11.108C148.906 11.5398 149.139 11.8845 149.449 12.142C149.764 12.3958 150.158 12.5227 150.631 12.5227ZM155.747 17.2727V5.27273H157.77V6.71591H157.889C157.996 6.50379 158.145 6.27841 158.338 6.03977C158.532 5.79735 158.793 5.59091 159.122 5.42045C159.452 5.24621 159.872 5.15909 160.384 5.15909C161.058 5.15909 161.666 5.33144 162.208 5.67614C162.753 6.01705 163.185 6.52273 163.503 7.19318C163.825 7.85985 163.986 8.67803 163.986 9.64773C163.986 10.6061 163.829 11.4205 163.514 12.0909C163.2 12.7614 162.772 13.2727 162.23 13.625C161.689 13.9773 161.075 14.1534 160.389 14.1534C159.889 14.1534 159.475 14.0701 159.145 13.9034C158.816 13.7367 158.55 13.536 158.35 13.3011C158.153 13.0625 157.999 12.8371 157.889 12.625H157.804V17.2727H155.747ZM157.764 9.63636C157.764 10.2008 157.844 10.6951 158.003 11.1193C158.166 11.5436 158.399 11.875 158.702 12.1136C159.009 12.3485 159.38 12.4659 159.816 12.4659C160.27 12.4659 160.651 12.3447 160.958 12.1023C161.264 11.8561 161.496 11.5208 161.651 11.0966C161.81 10.6686 161.889 10.1818 161.889 9.63636C161.889 9.0947 161.812 8.61364 161.657 8.19318C161.501 7.77273 161.27 7.44318 160.963 7.20455C160.657 6.96591 160.274 6.84659 159.816 6.84659C159.376 6.84659 159.003 6.96212 158.696 7.19318C158.389 7.42424 158.157 7.74811 157.997 8.16477C157.842 8.58144 157.764 9.07197 157.764 9.63636ZM169.305 5.27273V6.86364H164.288V5.27273H169.305ZM165.527 3.18182H167.584V11.375C167.584 11.6515 167.625 11.8636 167.709 12.0114C167.796 12.1553 167.91 12.2538 168.05 12.3068C168.19 12.3598 168.345 12.3864 168.516 12.3864C168.644 12.3864 168.762 12.3769 168.868 12.358C168.978 12.339 169.061 12.322 169.118 12.3068L169.464 13.9148C169.355 13.9527 169.197 13.9943 168.993 14.0398C168.792 14.0852 168.546 14.1117 168.254 14.1193C167.739 14.1345 167.275 14.0568 166.862 13.8864C166.449 13.7121 166.122 13.4432 165.879 13.0795C165.641 12.7159 165.523 12.2614 165.527 11.7159V3.18182ZM170.226 14V5.27273H172.282V14H170.226ZM171.26 4.03409C170.934 4.03409 170.654 3.92614 170.419 3.71023C170.184 3.49053 170.066 3.22727 170.066 2.92045C170.066 2.60985 170.184 2.34659 170.419 2.13068C170.654 1.91098 170.934 1.80114 171.26 1.80114C171.589 1.80114 171.87 1.91098 172.101 2.13068C172.335 2.34659 172.453 2.60985 172.453 2.92045C172.453 3.22727 172.335 3.49053 172.101 3.71023C171.87 3.92614 171.589 4.03409 171.26 4.03409ZM173.597 14V5.27273H175.563V6.75568H175.666C175.847 6.25568 176.149 5.86553 176.569 5.58523C176.989 5.30114 177.491 5.15909 178.075 5.15909C178.666 5.15909 179.164 5.30303 179.569 5.59091C179.978 5.875 180.266 6.26326 180.433 6.75568H180.524C180.717 6.27083 181.043 5.88447 181.501 5.59659C181.963 5.30492 182.51 5.15909 183.143 5.15909C183.946 5.15909 184.601 5.41288 185.109 5.92045C185.616 6.42803 185.87 7.16856 185.87 8.14205V14H183.808V8.46023C183.808 7.91856 183.664 7.52273 183.376 7.27273C183.088 7.01894 182.736 6.89205 182.319 6.89205C181.823 6.89205 181.435 7.04735 181.154 7.35795C180.878 7.66477 180.739 8.06439 180.739 8.55682V14H178.722V8.375C178.722 7.92424 178.586 7.56439 178.313 7.29545C178.044 7.02651 177.692 6.89205 177.257 6.89205C176.961 6.89205 176.692 6.9678 176.45 7.11932C176.207 7.26705 176.014 7.47727 175.87 7.75C175.726 8.01894 175.654 8.33333 175.654 8.69318V14H173.597ZM187.157 14V5.27273H189.214V14H187.157ZM188.191 4.03409C187.865 4.03409 187.585 3.92614 187.35 3.71023C187.115 3.49053 186.998 3.22727 186.998 2.92045C186.998 2.60985 187.115 2.34659 187.35 2.13068C187.585 1.91098 187.865 1.80114 188.191 1.80114C188.52 1.80114 188.801 1.91098 189.032 2.13068C189.267 2.34659 189.384 2.60985 189.384 2.92045C189.384 3.22727 189.267 3.49053 189.032 3.71023C188.801 3.92614 188.52 4.03409 188.191 4.03409ZM190.415 14V12.6932L194.915 7.05114V6.97727H190.563V5.27273H197.432V6.67614L193.148 12.2216V12.2955H197.58V14H190.415ZM202.327 14.1705C201.452 14.1705 200.696 13.9886 200.06 13.625C199.427 13.2576 198.94 12.7386 198.599 12.0682C198.259 11.3939 198.088 10.6004 198.088 9.6875C198.088 8.78977 198.259 8.00189 198.599 7.32386C198.944 6.64205 199.425 6.11174 200.043 5.73295C200.66 5.35038 201.385 5.15909 202.219 5.15909C202.757 5.15909 203.264 5.24621 203.741 5.42045C204.223 5.59091 204.647 5.85606 205.014 6.21591C205.385 6.57576 205.677 7.03409 205.889 7.59091C206.101 8.14394 206.207 8.80303 206.207 9.56818V10.1989H199.054V8.8125H204.236C204.232 8.41856 204.147 8.06818 203.98 7.76136C203.813 7.45076 203.58 7.20644 203.281 7.02841C202.986 6.85038 202.641 6.76136 202.247 6.76136C201.827 6.76136 201.457 6.86364 201.139 7.06818C200.821 7.26894 200.573 7.53409 200.395 7.86364C200.221 8.18939 200.132 8.54735 200.128 8.9375V10.1477C200.128 10.6553 200.221 11.0909 200.406 11.4545C200.592 11.8144 200.851 12.0909 201.185 12.2841C201.518 12.4735 201.908 12.5682 202.355 12.5682C202.654 12.5682 202.925 12.5265 203.168 12.4432C203.41 12.3561 203.62 12.2292 203.798 12.0625C203.976 11.8958 204.111 11.6894 204.202 11.4432L206.122 11.6591C206.001 12.1667 205.77 12.6098 205.429 12.9886C205.092 13.3636 204.66 13.6553 204.134 13.8636C203.607 14.0682 203.005 14.1705 202.327 14.1705ZM210.316 14V5.27273H212.282V6.75568H212.384C212.566 6.25568 212.867 5.86553 213.288 5.58523C213.708 5.30114 214.21 5.15909 214.793 5.15909C215.384 5.15909 215.882 5.30303 216.288 5.59091C216.697 5.875 216.985 6.26326 217.151 6.75568H217.242C217.436 6.27083 217.761 5.88447 218.22 5.59659C218.682 5.30492 219.229 5.15909 219.862 5.15909C220.665 5.15909 221.32 5.41288 221.828 5.92045C222.335 6.42803 222.589 7.16856 222.589 8.14205V14H220.526V8.46023C220.526 7.91856 220.382 7.52273 220.095 7.27273C219.807 7.01894 219.454 6.89205 219.038 6.89205C218.542 6.89205 218.153 7.04735 217.873 7.35795C217.596 7.66477 217.458 8.06439 217.458 8.55682V14H215.441V8.375C215.441 7.92424 215.305 7.56439 215.032 7.29545C214.763 7.02651 214.411 6.89205 213.975 6.89205C213.68 6.89205 213.411 6.9678 213.168 7.11932C212.926 7.26705 212.733 7.47727 212.589 7.75C212.445 8.01894 212.373 8.33333 212.373 8.69318V14H210.316ZM224.841 17.2727C224.561 17.2727 224.302 17.25 224.063 17.2045C223.828 17.1629 223.641 17.1136 223.501 17.0568L223.978 15.4545C224.277 15.5417 224.544 15.5833 224.779 15.5795C225.014 15.5758 225.22 15.5019 225.398 15.358C225.58 15.2178 225.734 14.983 225.859 14.6534L226.035 14.1818L222.87 5.27273H225.052L227.063 11.8636H227.154L229.171 5.27273H231.359L227.864 15.0568C227.701 15.5189 227.485 15.9148 227.216 16.2443C226.948 16.5777 226.618 16.8314 226.228 17.0057C225.841 17.1837 225.379 17.2727 224.841 17.2727ZM92.9545 24.5795L91.0795 24.7841C91.0265 24.5947 90.9337 24.4167 90.8011 24.25C90.6723 24.0833 90.4981 23.9489 90.2784 23.8466C90.0587 23.7443 89.7898 23.6932 89.4716 23.6932C89.0436 23.6932 88.6837 23.786 88.392 23.9716C88.1042 24.1572 87.9621 24.3977 87.9659 24.6932C87.9621 24.947 88.0549 25.1534 88.2443 25.3125C88.4375 25.4716 88.7557 25.6023 89.1989 25.7045L90.6875 26.0227C91.5133 26.2008 92.1269 26.483 92.5284 26.8693C92.9337 27.2557 93.1383 27.7614 93.142 28.3864C93.1383 28.9356 92.9773 29.4205 92.6591 29.8409C92.3447 30.2576 91.9072 30.5833 91.3466 30.8182C90.786 31.053 90.142 31.1705 89.4148 31.1705C88.3466 31.1705 87.4867 30.947 86.8352 30.5C86.1837 30.0492 85.7955 29.4223 85.6705 28.6193L87.6761 28.4261C87.767 28.8201 87.9602 29.1174 88.2557 29.3182C88.5511 29.5189 88.9356 29.6193 89.4091 29.6193C89.8977 29.6193 90.2898 29.5189 90.5852 29.3182C90.8845 29.1174 91.0341 28.8693 91.0341 28.5739C91.0341 28.3239 90.9375 28.1174 90.7443 27.9545C90.5549 27.7917 90.2595 27.6667 89.858 27.5795L88.3693 27.267C87.5322 27.0928 86.9129 26.7992 86.5114 26.3864C86.1098 25.9697 85.911 25.4432 85.9148 24.8068C85.911 24.2689 86.0568 23.803 86.3523 23.4091C86.6515 23.0114 87.0663 22.7045 87.5966 22.4886C88.1307 22.2689 88.7462 22.1591 89.4432 22.1591C90.4659 22.1591 91.2708 22.3769 91.858 22.8125C92.4489 23.2481 92.8144 23.8371 92.9545 24.5795ZM94.0381 31V22.2727H96.0949V31H94.0381ZM95.0722 21.0341C94.7464 21.0341 94.4661 20.9261 94.2312 20.7102C93.9964 20.4905 93.879 20.2273 93.879 19.9205C93.879 19.6098 93.9964 19.3466 94.2312 19.1307C94.4661 18.911 94.7464 18.8011 95.0722 18.8011C95.4017 18.8011 95.682 18.911 95.9131 19.1307C96.1479 19.3466 96.2653 19.6098 96.2653 19.9205C96.2653 20.2273 96.1479 20.4905 95.9131 20.7102C95.682 20.9261 95.4017 21.0341 95.0722 21.0341ZM101.768 22.2727V23.8636H96.7509V22.2727H101.768ZM97.9895 20.1818H100.046V28.375C100.046 28.6515 100.088 28.8636 100.171 29.0114C100.258 29.1553 100.372 29.2538 100.512 29.3068C100.652 29.3598 100.808 29.3864 100.978 29.3864C101.107 29.3864 101.224 29.3769 101.33 29.358C101.44 29.339 101.524 29.322 101.58 29.3068L101.927 30.9148C101.817 30.9527 101.66 30.9943 101.455 31.0398C101.255 31.0852 101.008 31.1117 100.717 31.1193C100.202 31.1345 99.7376 31.0568 99.3247 30.8864C98.9118 30.7121 98.5842 30.4432 98.3418 30.0795C98.1031 29.7159 97.9857 29.2614 97.9895 28.7159V20.1818ZM106.458 31.1705C105.583 31.1705 104.827 30.9886 104.191 30.625C103.558 30.2576 103.072 29.7386 102.731 29.0682C102.39 28.3939 102.219 27.6004 102.219 26.6875C102.219 25.7898 102.39 25.0019 102.731 24.3239C103.075 23.642 103.556 23.1117 104.174 22.733C104.791 22.3504 105.517 22.1591 106.35 22.1591C106.888 22.1591 107.395 22.2462 107.873 22.4205C108.354 22.5909 108.778 22.8561 109.145 23.2159C109.517 23.5758 109.808 24.0341 110.02 24.5909C110.233 25.1439 110.339 25.803 110.339 26.5682V27.1989H103.185V25.8125H108.367C108.363 25.4186 108.278 25.0682 108.111 24.7614C107.945 24.4508 107.712 24.2064 107.413 24.0284C107.117 23.8504 106.772 23.7614 106.378 23.7614C105.958 23.7614 105.589 23.8636 105.27 24.0682C104.952 24.2689 104.704 24.5341 104.526 24.8636C104.352 25.1894 104.263 25.5473 104.259 25.9375V27.1477C104.259 27.6553 104.352 28.0909 104.538 28.4545C104.723 28.8144 104.983 29.0909 105.316 29.2841C105.649 29.4735 106.039 29.5682 106.486 29.5682C106.786 29.5682 107.056 29.5265 107.299 29.4432C107.541 29.3561 107.752 29.2292 107.93 29.0625C108.108 28.8958 108.242 28.6894 108.333 28.4432L110.253 28.6591C110.132 29.1667 109.901 29.6098 109.56 29.9886C109.223 30.3636 108.791 30.6553 108.265 30.8636C107.738 31.0682 107.136 31.1705 106.458 31.1705ZM113.023 19.3636V20.5227C113.023 20.8561 112.959 21.2027 112.83 21.5625C112.705 21.9186 112.532 22.2595 112.313 22.5852C112.093 22.9072 111.843 23.1837 111.563 23.4148L110.608 22.7955C110.817 22.4811 110.998 22.142 111.154 21.7784C111.309 21.411 111.387 20.9962 111.387 20.5341V19.3636H113.023ZM119.658 24.5795L117.783 24.7841C117.73 24.5947 117.637 24.4167 117.504 24.25C117.375 24.0833 117.201 23.9489 116.982 23.8466C116.762 23.7443 116.493 23.6932 116.175 23.6932C115.747 23.6932 115.387 23.786 115.095 23.9716C114.807 24.1572 114.665 24.3977 114.669 24.6932C114.665 24.947 114.758 25.1534 114.947 25.3125C115.141 25.4716 115.459 25.6023 115.902 25.7045L117.391 26.0227C118.216 26.2008 118.83 26.483 119.232 26.8693C119.637 27.2557 119.841 27.7614 119.845 28.3864C119.841 28.9356 119.68 29.4205 119.362 29.8409C119.048 30.2576 118.61 30.5833 118.05 30.8182C117.489 31.053 116.845 31.1705 116.118 31.1705C115.05 31.1705 114.19 30.947 113.538 30.5C112.887 30.0492 112.499 29.4223 112.374 28.6193L114.379 28.4261C114.47 28.8201 114.663 29.1174 114.959 29.3182C115.254 29.5189 115.639 29.6193 116.112 29.6193C116.601 29.6193 116.993 29.5189 117.288 29.3182C117.588 29.1174 117.737 28.8693 117.737 28.5739C117.737 28.3239 117.641 28.1174 117.447 27.9545C117.258 27.7917 116.963 27.6667 116.561 27.5795L115.072 27.267C114.235 27.0928 113.616 26.7992 113.214 26.3864C112.813 25.9697 112.614 25.4432 112.618 24.8068C112.614 24.2689 112.76 23.803 113.055 23.4091C113.355 23.0114 113.769 22.7045 114.3 22.4886C114.834 22.2689 115.449 22.1591 116.146 22.1591C117.169 22.1591 117.974 22.3769 118.561 22.8125C119.152 23.2481 119.518 23.8371 119.658 24.5795ZM123.91 31V22.2727H125.904V23.7273H125.995C126.154 23.2235 126.427 22.8352 126.813 22.5625C127.204 22.286 127.649 22.1477 128.149 22.1477C128.262 22.1477 128.389 22.1534 128.529 22.1648C128.673 22.1723 128.793 22.1856 128.887 22.2045V24.0966C128.8 24.0663 128.662 24.0398 128.472 24.017C128.287 23.9905 128.107 23.9773 127.933 23.9773C127.558 23.9773 127.221 24.0587 126.921 24.2216C126.626 24.3807 126.393 24.6023 126.222 24.8864C126.052 25.1705 125.967 25.4981 125.967 25.8693V31H123.91ZM131.809 31.1761C131.256 31.1761 130.758 31.0777 130.314 30.8807C129.875 30.6799 129.527 30.3845 129.269 29.9943C129.015 29.6042 128.888 29.1231 128.888 28.5511C128.888 28.0587 128.979 27.6515 129.161 27.3295C129.343 27.0076 129.591 26.75 129.905 26.5568C130.22 26.3636 130.574 26.2178 130.968 26.1193C131.366 26.017 131.777 25.9432 132.201 25.8977C132.712 25.8447 133.127 25.7973 133.445 25.7557C133.763 25.7102 133.994 25.642 134.138 25.5511C134.286 25.4564 134.36 25.3106 134.36 25.1136V25.0795C134.36 24.6515 134.233 24.3201 133.979 24.0852C133.725 23.8504 133.36 23.733 132.883 23.733C132.379 23.733 131.979 23.8428 131.684 24.0625C131.392 24.2822 131.195 24.5417 131.093 24.8409L129.172 24.5682C129.324 24.0379 129.574 23.5947 129.922 23.2386C130.271 22.8788 130.697 22.6098 131.201 22.4318C131.705 22.25 132.261 22.1591 132.871 22.1591C133.292 22.1591 133.71 22.2083 134.127 22.3068C134.544 22.4053 134.924 22.5682 135.269 22.7955C135.614 23.0189 135.89 23.3239 136.099 23.7102C136.311 24.0966 136.417 24.5795 136.417 25.1591V31H134.439V29.8011H134.371C134.246 30.0436 134.07 30.2708 133.843 30.483C133.619 30.6913 133.337 30.8598 132.996 30.9886C132.659 31.1136 132.263 31.1761 131.809 31.1761ZM132.343 29.6648C132.756 29.6648 133.114 29.5833 133.417 29.4205C133.72 29.2538 133.953 29.0341 134.116 28.7614C134.282 28.4886 134.366 28.1913 134.366 27.8693V26.8409C134.301 26.8939 134.191 26.9432 134.036 26.9886C133.885 27.0341 133.714 27.0739 133.525 27.108C133.335 27.142 133.148 27.1723 132.962 27.1989C132.777 27.2254 132.616 27.2481 132.479 27.267C132.172 27.3087 131.898 27.3769 131.655 27.4716C131.413 27.5663 131.222 27.6989 131.082 27.8693C130.941 28.036 130.871 28.2519 130.871 28.517C130.871 28.8958 131.01 29.1818 131.286 29.375C131.563 29.5682 131.915 29.6648 132.343 29.6648ZM139.742 25.8864V31H137.685V22.2727H139.651V23.7557H139.753C139.954 23.267 140.274 22.8788 140.713 22.5909C141.157 22.303 141.704 22.1591 142.355 22.1591C142.958 22.1591 143.482 22.2879 143.929 22.5455C144.38 22.803 144.729 23.1761 144.975 23.6648C145.225 24.1534 145.348 24.7462 145.344 25.4432V31H143.287V25.7614C143.287 25.178 143.136 24.7216 142.833 24.392C142.533 24.0625 142.119 23.8977 141.588 23.8977C141.229 23.8977 140.908 23.9773 140.628 24.1364C140.352 24.2917 140.134 24.517 139.975 24.8125C139.819 25.108 139.742 25.4659 139.742 25.8864ZM148.51 28.2614L148.504 25.7784H148.834L151.97 22.2727H154.374L150.516 26.5682H150.089L148.51 28.2614ZM146.635 31V19.3636H148.692V31H146.635ZM152.112 31L149.271 27.0284L150.658 25.5795L154.572 31H152.112ZM154.944 31V22.2727H157.001V31H154.944ZM155.978 21.0341C155.653 21.0341 155.372 20.9261 155.137 20.7102C154.903 20.4905 154.785 20.2273 154.785 19.9205C154.785 19.6098 154.903 19.3466 155.137 19.1307C155.372 18.911 155.653 18.8011 155.978 18.8011C156.308 18.8011 156.588 18.911 156.819 19.1307C157.054 19.3466 157.172 19.6098 157.172 19.9205C157.172 20.2273 157.054 20.4905 156.819 20.7102C156.588 20.9261 156.308 21.0341 155.978 21.0341ZM160.373 25.8864V31H158.316V22.2727H160.282V23.7557H160.384C160.585 23.267 160.905 22.8788 161.345 22.5909C161.788 22.303 162.335 22.1591 162.987 22.1591C163.589 22.1591 164.114 22.2879 164.561 22.5455C165.011 22.803 165.36 23.1761 165.606 23.6648C165.856 24.1534 165.979 24.7462 165.975 25.4432V31H163.918V25.7614C163.918 25.178 163.767 24.7216 163.464 24.392C163.165 24.0625 162.75 23.8977 162.22 23.8977C161.86 23.8977 161.54 23.9773 161.259 24.1364C160.983 24.2917 160.765 24.517 160.606 24.8125C160.451 25.108 160.373 25.4659 160.373 25.8864ZM171.062 34.4545C170.323 34.4545 169.689 34.3542 169.158 34.1534C168.628 33.9564 168.202 33.6913 167.88 33.358C167.558 33.0246 167.334 32.6553 167.209 32.25L169.062 31.8011C169.145 31.9716 169.266 32.1402 169.425 32.3068C169.584 32.4773 169.798 32.6174 170.067 32.7273C170.34 32.8409 170.683 32.8977 171.096 32.8977C171.679 32.8977 172.162 32.7557 172.545 32.4716C172.927 32.1913 173.118 31.7292 173.118 31.0852V29.4318H173.016C172.91 29.6439 172.755 29.8617 172.55 30.0852C172.35 30.3087 172.082 30.4962 171.749 30.6477C171.42 30.7992 171.005 30.875 170.505 30.875C169.834 30.875 169.226 30.7178 168.681 30.4034C168.139 30.0852 167.707 29.6117 167.386 28.983C167.067 28.3504 166.908 27.5587 166.908 26.608C166.908 25.6496 167.067 24.8409 167.386 24.1818C167.707 23.5189 168.141 23.017 168.687 22.6761C169.232 22.3314 169.84 22.1591 170.511 22.1591C171.022 22.1591 171.442 22.2462 171.772 22.4205C172.105 22.5909 172.37 22.7973 172.567 23.0398C172.764 23.2784 172.914 23.5038 173.016 23.7159H173.13V22.2727H175.158V31.142C175.158 31.8883 174.98 32.5057 174.624 32.9943C174.268 33.483 173.781 33.8485 173.164 34.0909C172.546 34.3333 171.846 34.4545 171.062 34.4545ZM171.079 29.2614C171.514 29.2614 171.886 29.1553 172.192 28.9432C172.499 28.7311 172.732 28.4261 172.891 28.0284C173.05 27.6307 173.13 27.1534 173.13 26.5966C173.13 26.0473 173.05 25.5663 172.891 25.1534C172.736 24.7405 172.505 24.4205 172.198 24.1932C171.895 23.9621 171.522 23.8466 171.079 23.8466C170.62 23.8466 170.238 23.9659 169.931 24.2045C169.624 24.4432 169.393 24.7708 169.238 25.1875C169.082 25.6004 169.005 26.0701 169.005 26.5966C169.005 27.1307 169.082 27.5985 169.238 28C169.397 28.3977 169.63 28.7083 169.937 28.9318C170.247 29.1515 170.628 29.2614 171.079 29.2614ZM183.442 31.1705C182.589 31.1705 181.851 30.983 181.226 30.608C180.601 30.233 180.116 29.7083 179.771 29.0341C179.43 28.3598 179.26 27.572 179.26 26.6705C179.26 25.7689 179.43 24.9792 179.771 24.3011C180.116 23.6231 180.601 23.0966 181.226 22.7216C181.851 22.3466 182.589 22.1591 183.442 22.1591C184.294 22.1591 185.033 22.3466 185.658 22.7216C186.283 23.0966 186.766 23.6231 187.107 24.3011C187.451 24.9792 187.624 25.7689 187.624 26.6705C187.624 27.572 187.451 28.3598 187.107 29.0341C186.766 29.7083 186.283 30.233 185.658 30.608C185.033 30.983 184.294 31.1705 183.442 31.1705ZM183.453 29.5227C183.915 29.5227 184.302 29.3958 184.612 29.142C184.923 28.8845 185.154 28.5398 185.305 28.108C185.461 27.6761 185.538 27.1951 185.538 26.6648C185.538 26.1307 185.461 25.6477 185.305 25.2159C185.154 24.7803 184.923 24.4337 184.612 24.1761C184.302 23.9186 183.915 23.7898 183.453 23.7898C182.98 23.7898 182.586 23.9186 182.271 24.1761C181.961 24.4337 181.728 24.7803 181.572 25.2159C181.421 25.6477 181.345 26.1307 181.345 26.6648C181.345 27.1951 181.421 27.6761 181.572 28.108C181.728 28.5398 181.961 28.8845 182.271 29.142C182.586 29.3958 182.98 29.5227 183.453 29.5227ZM190.626 25.8864V31H188.569V22.2727H190.535V23.7557H190.637C190.838 23.267 191.158 22.8788 191.598 22.5909C192.041 22.303 192.588 22.1591 193.24 22.1591C193.842 22.1591 194.367 22.2879 194.814 22.5455C195.264 22.803 195.613 23.1761 195.859 23.6648C196.109 24.1534 196.232 24.7462 196.228 25.4432V31H194.172V25.7614C194.172 25.178 194.02 24.7216 193.717 24.392C193.418 24.0625 193.003 23.8977 192.473 23.8977C192.113 23.8977 191.793 23.9773 191.512 24.1364C191.236 24.2917 191.018 24.517 190.859 24.8125C190.704 25.108 190.626 25.4659 190.626 25.8864ZM199.576 19.3636V31H197.519V19.3636H199.576ZM200.891 31V22.2727H202.948V31H200.891ZM201.925 21.0341C201.6 21.0341 201.319 20.9261 201.084 20.7102C200.85 20.4905 200.732 20.2273 200.732 19.9205C200.732 19.6098 200.85 19.3466 201.084 19.1307C201.319 18.911 201.6 18.8011 201.925 18.8011C202.255 18.8011 202.535 18.911 202.766 19.1307C203.001 19.3466 203.118 19.6098 203.118 19.9205C203.118 20.2273 203.001 20.4905 202.766 20.7102C202.535 20.9261 202.255 21.0341 201.925 21.0341ZM206.32 25.8864V31H204.263V22.2727H206.229V23.7557H206.331C206.532 23.267 206.852 22.8788 207.291 22.5909C207.735 22.303 208.282 22.1591 208.934 22.1591C209.536 22.1591 210.06 22.2879 210.507 22.5455C210.958 22.803 211.307 23.1761 211.553 23.6648C211.803 24.1534 211.926 24.7462 211.922 25.4432V31H209.865V25.7614C209.865 25.178 209.714 24.7216 209.411 24.392C209.112 24.0625 208.697 23.8977 208.166 23.8977C207.807 23.8977 207.487 23.9773 207.206 24.1364C206.93 24.2917 206.712 24.517 206.553 24.8125C206.398 25.108 206.32 25.4659 206.32 25.8864ZM217.077 31.1705C216.202 31.1705 215.446 30.9886 214.81 30.625C214.177 30.2576 213.69 29.7386 213.349 29.0682C213.009 28.3939 212.838 27.6004 212.838 26.6875C212.838 25.7898 213.009 25.0019 213.349 24.3239C213.694 23.642 214.175 23.1117 214.793 22.733C215.41 22.3504 216.135 22.1591 216.969 22.1591C217.507 22.1591 218.014 22.2462 218.491 22.4205C218.973 22.5909 219.397 22.8561 219.764 23.2159C220.135 23.5758 220.427 24.0341 220.639 24.5909C220.851 25.1439 220.957 25.803 220.957 26.5682V27.1989H213.804V25.8125H218.986C218.982 25.4186 218.897 25.0682 218.73 24.7614C218.563 24.4508 218.33 24.2064 218.031 24.0284C217.736 23.8504 217.391 23.7614 216.997 23.7614C216.577 23.7614 216.207 23.8636 215.889 24.0682C215.571 24.2689 215.323 24.5341 215.145 24.8636C214.971 25.1894 214.882 25.5473 214.878 25.9375V27.1477C214.878 27.6553 214.971 28.0909 215.156 28.4545C215.342 28.8144 215.601 29.0909 215.935 29.2841C216.268 29.4735 216.658 29.5682 217.105 29.5682C217.404 29.5682 217.675 29.5265 217.918 29.4432C218.16 29.3561 218.37 29.2292 218.548 29.0625C218.726 28.8958 218.861 28.6894 218.952 28.4432L220.872 28.6591C220.751 29.1667 220.52 29.6098 220.179 29.9886C219.842 30.3636 219.41 30.6553 218.884 30.8636C218.357 31.0682 217.755 31.1705 217.077 31.1705Z" fill="#A9A9A9"/>
<rect x="1" y="94" width="245" height="183" rx="21" fill="#525252" stroke="#C6C6C6"/>
<path d="M50.7358 323.511L134.498 234.787L145.633 239.79L75.5992 336.555C75.5992 336.555 62.9651 339.69 56.6536 336.466C50.3421 333.242 50.0786 326.486 50.7358 323.511Z" stroke="url(#paint0_linear_614_452)" stroke-width="2"/>
<circle cx="150.5" cy="207.5" r="49.5" fill="white"/>
<circle cx="150.5" cy="207.5" r="44" fill="url(#paint1_linear_614_452)" fill-opacity="0.29" stroke="#D1D1D1"/>
<rect x="23" y="114" width="60" height="54" rx="11" stroke="white"/>
<rect x="42" y="193" width="22" height="20" rx="4" stroke="white"/>
<line x1="52.5" y1="169" x2="52.5" y2="193" stroke="white"/>
<defs>
<linearGradient id="paint0_linear_614_452" x1="90.704" y1="242.686" x2="106.636" y2="331.025" gradientUnits="userSpaceOnUse">
<stop stop-color="white"/>
<stop offset="1" stop-color="#131313"/>
</linearGradient>
<linearGradient id="paint1_linear_614_452" x1="186.276" y1="172.944" x2="125.701" y2="239.617" gradientUnits="userSpaceOnUse">
<stop stop-color="#CCCCCC"/>
<stop offset="0.345" stop-color="white"/>
<stop offset="0.835" stop-color="#252525"/>
</linearGradient>
</defs>
</svg>
