<svg width="272" height="332" viewBox="0 0 272 332" fill="none" xmlns="http://www.w3.org/2000/svg">
<path d="M183 294.639L186.449 311.501C187.017 310.19 186.433 307.919 190.07 304.666C193.707 301.412 198.157 303.012 198.157 303.012L183 294.639Z" fill="white"/>
<rect x="191" y="304" width="81" height="28" rx="14" fill="#FF3434"/>
<path d="M210.818 322H207.861V313.273H210.878C211.744 313.273 212.489 313.447 213.111 313.797C213.736 314.143 214.216 314.642 214.551 315.293C214.886 315.943 215.054 316.722 215.054 317.628C215.054 318.537 214.885 319.318 214.547 319.972C214.212 320.625 213.727 321.126 213.094 321.476C212.463 321.825 211.705 322 210.818 322ZM209.442 320.632H210.741C211.349 320.632 211.857 320.521 212.263 320.3C212.669 320.075 212.974 319.741 213.179 319.298C213.384 318.852 213.486 318.295 213.486 317.628C213.486 316.96 213.384 316.406 213.179 315.966C212.974 315.523 212.672 315.192 212.271 314.973C211.874 314.751 211.379 314.641 210.788 314.641H209.442V320.632ZM218.786 322.128C218.129 322.128 217.563 321.991 217.085 321.719C216.611 321.443 216.246 321.054 215.99 320.551C215.735 320.045 215.607 319.45 215.607 318.766C215.607 318.092 215.735 317.501 215.99 316.993C216.249 316.482 216.61 316.084 217.073 315.8C217.536 315.513 218.08 315.369 218.705 315.369C219.108 315.369 219.489 315.435 219.847 315.565C220.208 315.693 220.526 315.892 220.801 316.162C221.08 316.432 221.298 316.776 221.458 317.193C221.617 317.608 221.696 318.102 221.696 318.676V319.149H216.331V318.109H220.217C220.215 317.814 220.151 317.551 220.026 317.321C219.901 317.088 219.726 316.905 219.502 316.771C219.28 316.638 219.021 316.571 218.726 316.571C218.411 316.571 218.134 316.648 217.895 316.801C217.656 316.952 217.47 317.151 217.337 317.398C217.206 317.642 217.139 317.911 217.137 318.203V319.111C217.137 319.491 217.206 319.818 217.345 320.091C217.485 320.361 217.679 320.568 217.929 320.713C218.179 320.855 218.472 320.926 218.807 320.926C219.031 320.926 219.235 320.895 219.416 320.832C219.598 320.767 219.756 320.672 219.889 320.547C220.023 320.422 220.124 320.267 220.192 320.082L221.632 320.244C221.541 320.625 221.368 320.957 221.112 321.241C220.86 321.523 220.536 321.741 220.141 321.898C219.746 322.051 219.294 322.128 218.786 322.128ZM227.575 317.185L226.168 317.338C226.128 317.196 226.059 317.062 225.959 316.938C225.863 316.812 225.732 316.712 225.567 316.635C225.403 316.558 225.201 316.52 224.962 316.52C224.641 316.52 224.371 316.589 224.153 316.729C223.937 316.868 223.83 317.048 223.833 317.27C223.83 317.46 223.9 317.615 224.042 317.734C224.187 317.854 224.425 317.952 224.758 318.028L225.874 318.267C226.494 318.401 226.954 318.612 227.255 318.902C227.559 319.192 227.712 319.571 227.715 320.04C227.712 320.452 227.592 320.815 227.353 321.131C227.117 321.443 226.789 321.687 226.369 321.864C225.948 322.04 225.465 322.128 224.92 322.128C224.119 322.128 223.474 321.96 222.985 321.625C222.496 321.287 222.205 320.817 222.111 320.214L223.616 320.07C223.684 320.365 223.829 320.588 224.05 320.739C224.272 320.889 224.56 320.964 224.915 320.964C225.282 320.964 225.576 320.889 225.798 320.739C226.022 320.588 226.134 320.402 226.134 320.18C226.134 319.993 226.062 319.838 225.917 319.716C225.775 319.594 225.553 319.5 225.252 319.435L224.136 319.2C223.508 319.07 223.043 318.849 222.742 318.54C222.441 318.227 222.292 317.832 222.295 317.355C222.292 316.952 222.401 316.602 222.623 316.307C222.847 316.009 223.158 315.778 223.556 315.616C223.957 315.452 224.418 315.369 224.941 315.369C225.708 315.369 226.312 315.533 226.752 315.859C227.195 316.186 227.469 316.628 227.575 317.185ZM228.387 322V315.455H229.93V322H228.387ZM229.163 314.526C228.918 314.526 228.708 314.445 228.532 314.283C228.356 314.118 228.268 313.92 228.268 313.69C228.268 313.457 228.356 313.26 228.532 313.098C228.708 312.933 228.918 312.851 229.163 312.851C229.41 312.851 229.62 312.933 229.793 313.098C229.97 313.26 230.058 313.457 230.058 313.69C230.058 313.92 229.97 314.118 229.793 314.283C229.62 314.445 229.41 314.526 229.163 314.526ZM233.763 324.591C233.209 324.591 232.733 324.516 232.335 324.365C231.937 324.217 231.618 324.018 231.376 323.768C231.135 323.518 230.967 323.241 230.873 322.938L232.263 322.601C232.325 322.729 232.416 322.855 232.535 322.98C232.655 323.108 232.815 323.213 233.017 323.295C233.221 323.381 233.479 323.423 233.788 323.423C234.226 323.423 234.588 323.317 234.875 323.104C235.162 322.893 235.305 322.547 235.305 322.064V320.824H235.229C235.149 320.983 235.033 321.146 234.879 321.314C234.729 321.482 234.528 321.622 234.278 321.736C234.031 321.849 233.72 321.906 233.345 321.906C232.842 321.906 232.386 321.788 231.977 321.553C231.571 321.314 231.247 320.959 231.006 320.487C230.767 320.013 230.648 319.419 230.648 318.706C230.648 317.987 230.767 317.381 231.006 316.886C231.247 316.389 231.572 316.013 231.981 315.757C232.39 315.499 232.846 315.369 233.349 315.369C233.733 315.369 234.048 315.435 234.295 315.565C234.545 315.693 234.744 315.848 234.892 316.03C235.04 316.209 235.152 316.378 235.229 316.537H235.314V315.455H236.835V322.107C236.835 322.666 236.702 323.129 236.435 323.496C236.167 323.862 235.802 324.136 235.339 324.318C234.876 324.5 234.351 324.591 233.763 324.591ZM233.775 320.696C234.102 320.696 234.381 320.616 234.611 320.457C234.841 320.298 235.015 320.07 235.135 319.771C235.254 319.473 235.314 319.115 235.314 318.697C235.314 318.286 235.254 317.925 235.135 317.615C235.018 317.305 234.845 317.065 234.615 316.895C234.388 316.722 234.108 316.635 233.775 316.635C233.432 316.635 233.145 316.724 232.915 316.903C232.685 317.082 232.511 317.328 232.395 317.641C232.278 317.95 232.22 318.303 232.22 318.697C232.22 319.098 232.278 319.449 232.395 319.75C232.514 320.048 232.689 320.281 232.919 320.449C233.152 320.614 233.437 320.696 233.775 320.696ZM239.359 318.165V322H237.816V315.455H239.29V316.567H239.367C239.518 316.2 239.758 315.909 240.087 315.693C240.42 315.477 240.83 315.369 241.319 315.369C241.771 315.369 242.164 315.466 242.499 315.659C242.837 315.852 243.099 316.132 243.283 316.499C243.471 316.865 243.563 317.31 243.56 317.832V322H242.018V318.071C242.018 317.634 241.904 317.291 241.677 317.044C241.452 316.797 241.141 316.673 240.744 316.673C240.474 316.673 240.234 316.733 240.023 316.852C239.816 316.969 239.653 317.138 239.533 317.359C239.417 317.581 239.359 317.849 239.359 318.165ZM247.426 322.128C246.77 322.128 246.203 321.991 245.726 321.719C245.252 321.443 244.887 321.054 244.631 320.551C244.375 320.045 244.247 319.45 244.247 318.766C244.247 318.092 244.375 317.501 244.631 316.993C244.889 316.482 245.25 316.084 245.713 315.8C246.176 315.513 246.72 315.369 247.345 315.369C247.749 315.369 248.129 315.435 248.487 315.565C248.848 315.693 249.166 315.892 249.442 316.162C249.72 316.432 249.939 316.776 250.098 317.193C250.257 317.608 250.337 318.102 250.337 318.676V319.149H244.972V318.109H248.858C248.855 317.814 248.791 317.551 248.666 317.321C248.541 317.088 248.367 316.905 248.142 316.771C247.921 316.638 247.662 316.571 247.367 316.571C247.051 316.571 246.774 316.648 246.536 316.801C246.297 316.952 246.111 317.151 245.977 317.398C245.847 317.642 245.78 317.911 245.777 318.203V319.111C245.777 319.491 245.847 319.818 245.986 320.091C246.125 320.361 246.32 320.568 246.57 320.713C246.82 320.855 247.112 320.926 247.448 320.926C247.672 320.926 247.875 320.895 248.057 320.832C248.239 320.767 248.396 320.672 248.53 320.547C248.663 320.422 248.764 320.267 248.833 320.082L250.273 320.244C250.182 320.625 250.009 320.957 249.753 321.241C249.5 321.523 249.176 321.741 248.781 321.898C248.387 322.051 247.935 322.128 247.426 322.128ZM251.042 322V315.455H252.538V316.545H252.606C252.725 316.168 252.93 315.876 253.219 315.672C253.512 315.464 253.846 315.361 254.221 315.361C254.306 315.361 254.401 315.365 254.506 315.374C254.614 315.379 254.704 315.389 254.775 315.403V316.822C254.709 316.8 254.606 316.78 254.464 316.763C254.325 316.743 254.19 316.733 254.059 316.733C253.778 316.733 253.525 316.794 253.3 316.916C253.079 317.036 252.904 317.202 252.776 317.415C252.648 317.628 252.584 317.874 252.584 318.152V322H251.042Z" fill="white"/>
<path d="M77.6655 30L63.0001 33.9296C64.1849 34.3606 66.1535 33.7262 69.2109 36.7564C72.2683 39.7865 71.0955 43.7898 71.0955 43.7898L77.6655 30Z" fill="white"/>
<rect x="7" y="34.9957" width="59" height="28" rx="14" fill="#F9FF3D"/>
<path d="M26.2642 44.2685H28.0497L30.1847 48.1293H30.2699L32.4048 44.2685H34.1903L31.0156 49.74V52.9957H29.4389V49.74L26.2642 44.2685ZM36.2782 53.1236C35.639 53.1236 35.085 52.9829 34.6163 52.7017C34.1475 52.4204 33.7839 52.027 33.5254 51.5213C33.2697 51.0156 33.1418 50.4247 33.1418 49.7486C33.1418 49.0724 33.2697 48.4801 33.5254 47.9716C33.7839 47.4631 34.1475 47.0682 34.6163 46.7869C35.085 46.5057 35.639 46.365 36.2782 46.365C36.9174 46.365 37.4714 46.5057 37.9401 46.7869C38.4089 47.0682 38.7711 47.4631 39.0268 47.9716C39.2853 48.4801 39.4146 49.0724 39.4146 49.7486C39.4146 50.4247 39.2853 51.0156 39.0268 51.5213C38.7711 52.027 38.4089 52.4204 37.9401 52.7017C37.4714 52.9829 36.9174 53.1236 36.2782 53.1236ZM36.2867 51.8878C36.6333 51.8878 36.9231 51.7926 37.156 51.6023C37.389 51.4091 37.5623 51.1506 37.6759 50.8267C37.7924 50.5028 37.8506 50.142 37.8506 49.7443C37.8506 49.3437 37.7924 48.9815 37.6759 48.6577C37.5623 48.331 37.389 48.071 37.156 47.8778C36.9231 47.6846 36.6333 47.5881 36.2867 47.5881C35.9316 47.5881 35.6362 47.6846 35.4004 47.8778C35.1674 48.071 34.9927 48.331 34.8762 48.6577C34.7626 48.9815 34.7058 49.3437 34.7058 49.7443C34.7058 50.142 34.7626 50.5028 34.8762 50.8267C34.9927 51.1506 35.1674 51.4091 35.4004 51.6023C35.6362 51.7926 35.9316 51.8878 36.2867 51.8878ZM44.2957 50.2429V46.4503H45.8384V52.9957H44.3426V51.8324H44.2744C44.1267 52.1989 43.8838 52.4986 43.5457 52.7315C43.2105 52.9645 42.7972 53.081 42.3057 53.081C41.8767 53.081 41.4974 52.9858 41.1679 52.7954C40.8412 52.6023 40.5855 52.3224 40.4009 51.956C40.2162 51.5866 40.1239 51.1406 40.1239 50.6179V46.4503H41.6665V50.3793C41.6665 50.794 41.7801 51.1236 42.0074 51.3679C42.2347 51.6122 42.533 51.7344 42.9023 51.7344C43.1295 51.7344 43.3497 51.679 43.5628 51.5682C43.7759 51.4574 43.9506 51.2926 44.0869 51.0739C44.2261 50.8523 44.2957 50.5753 44.2957 50.2429Z" fill="#386148"/>
<path d="M91.2557 2.36364V14H89.1477V2.36364H91.2557ZM97.873 8.88636V14H95.8162V5.27273H97.7821V6.75568H97.8844C98.0851 6.26705 98.4052 5.87879 98.8446 5.59091C99.2878 5.30303 99.8351 5.15909 100.487 5.15909C101.089 5.15909 101.614 5.28788 102.061 5.54545C102.511 5.80303 102.86 6.17614 103.106 6.66477C103.356 7.15341 103.479 7.74621 103.475 8.44318V14H101.418V8.76136C101.418 8.17803 101.267 7.72159 100.964 7.39205C100.665 7.0625 100.25 6.89773 99.7196 6.89773C99.3598 6.89773 99.0397 6.97727 98.7594 7.13636C98.4829 7.29167 98.2651 7.51705 98.106 7.8125C97.9507 8.10795 97.873 8.46591 97.873 8.88636ZM108.63 14.1705C107.755 14.1705 106.999 13.9886 106.363 13.625C105.73 13.2576 105.243 12.7386 104.903 12.0682C104.562 11.3939 104.391 10.6004 104.391 9.6875C104.391 8.78977 104.562 8.00189 104.903 7.32386C105.247 6.64205 105.728 6.11174 106.346 5.73295C106.963 5.35038 107.689 5.15909 108.522 5.15909C109.06 5.15909 109.567 5.24621 110.045 5.42045C110.526 5.59091 110.95 5.85606 111.317 6.21591C111.689 6.57576 111.98 7.03409 112.192 7.59091C112.404 8.14394 112.511 8.80303 112.511 9.56818V10.1989H105.357V8.8125H110.539C110.535 8.41856 110.45 8.06818 110.283 7.76136C110.117 7.45076 109.884 7.20644 109.584 7.02841C109.289 6.85038 108.944 6.76136 108.55 6.76136C108.13 6.76136 107.761 6.86364 107.442 7.06818C107.124 7.26894 106.876 7.53409 106.698 7.86364C106.524 8.18939 106.435 8.54735 106.431 8.9375V10.1477C106.431 10.6553 106.524 11.0909 106.709 11.4545C106.895 11.8144 107.154 12.0909 107.488 12.2841C107.821 12.4735 108.211 12.5682 108.658 12.5682C108.957 12.5682 109.228 12.5265 109.471 12.4432C109.713 12.3561 109.923 12.2292 110.101 12.0625C110.279 11.8958 110.414 11.6894 110.505 11.4432L112.425 11.6591C112.304 12.1667 112.073 12.6098 111.732 12.9886C111.395 13.3636 110.963 13.6553 110.437 13.8636C109.91 14.0682 109.308 14.1705 108.63 14.1705ZM117.314 14.1705C116.439 14.1705 115.684 13.9886 115.047 13.625C114.415 13.2576 113.928 12.7386 113.587 12.0682C113.246 11.3939 113.076 10.6004 113.076 9.6875C113.076 8.78977 113.246 8.00189 113.587 7.32386C113.932 6.64205 114.413 6.11174 115.03 5.73295C115.648 5.35038 116.373 5.15909 117.206 5.15909C117.744 5.15909 118.252 5.24621 118.729 5.42045C119.21 5.59091 119.634 5.85606 120.002 6.21591C120.373 6.57576 120.665 7.03409 120.877 7.59091C121.089 8.14394 121.195 8.80303 121.195 9.56818V10.1989H114.041V8.8125H119.223C119.22 8.41856 119.134 8.06818 118.968 7.76136C118.801 7.45076 118.568 7.20644 118.269 7.02841C117.973 6.85038 117.629 6.76136 117.235 6.76136C116.814 6.76136 116.445 6.86364 116.127 7.06818C115.809 7.26894 115.56 7.53409 115.382 7.86364C115.208 8.18939 115.119 8.54735 115.115 8.9375V10.1477C115.115 10.6553 115.208 11.0909 115.394 11.4545C115.579 11.8144 115.839 12.0909 116.172 12.2841C116.505 12.4735 116.896 12.5682 117.343 12.5682C117.642 12.5682 117.913 12.5265 118.155 12.4432C118.398 12.3561 118.608 12.2292 118.786 12.0625C118.964 11.8958 119.098 11.6894 119.189 11.4432L121.11 11.6591C120.988 12.1667 120.757 12.6098 120.416 12.9886C120.079 13.3636 119.648 13.6553 119.121 13.8636C118.595 14.0682 117.992 14.1705 117.314 14.1705ZM125.374 14.1534C124.688 14.1534 124.074 13.9773 123.533 13.625C122.991 13.2727 122.563 12.7614 122.249 12.0909C121.934 11.4205 121.777 10.6061 121.777 9.64773C121.777 8.67803 121.936 7.85985 122.254 7.19318C122.576 6.52273 123.01 6.01705 123.555 5.67614C124.101 5.33144 124.709 5.15909 125.379 5.15909C125.891 5.15909 126.311 5.24621 126.641 5.42045C126.97 5.59091 127.232 5.79735 127.425 6.03977C127.618 6.27841 127.768 6.50379 127.874 6.71591H127.959V2.36364H130.021V14H127.999V12.625H127.874C127.768 12.8371 127.614 13.0625 127.413 13.3011C127.213 13.536 126.947 13.7367 126.618 13.9034C126.288 14.0701 125.874 14.1534 125.374 14.1534ZM125.947 12.4659C126.383 12.4659 126.754 12.3485 127.061 12.1136C127.368 11.875 127.601 11.5436 127.76 11.1193C127.919 10.6951 127.999 10.2008 127.999 9.63636C127.999 9.07197 127.919 8.58144 127.76 8.16477C127.605 7.74811 127.374 7.42424 127.067 7.19318C126.764 6.96212 126.391 6.84659 125.947 6.84659C125.489 6.84659 125.107 6.96591 124.8 7.20455C124.493 7.44318 124.262 7.77273 124.107 8.19318C123.951 8.61364 123.874 9.0947 123.874 9.63636C123.874 10.1818 123.951 10.6686 124.107 11.0966C124.266 11.5208 124.499 11.8561 124.805 12.1023C125.116 12.3447 125.497 12.4659 125.947 12.4659ZM137.093 14.1761C136.54 14.1761 136.042 14.0777 135.599 13.8807C135.159 13.6799 134.811 13.3845 134.553 12.9943C134.3 12.6042 134.173 12.1231 134.173 11.5511C134.173 11.0587 134.264 10.6515 134.445 10.3295C134.627 10.0076 134.875 9.75 135.19 9.55682C135.504 9.36364 135.858 9.2178 136.252 9.11932C136.65 9.01705 137.061 8.94318 137.485 8.89773C137.997 8.8447 138.411 8.79735 138.73 8.75568C139.048 8.71023 139.279 8.64205 139.423 8.55114C139.57 8.45644 139.644 8.31061 139.644 8.11364V8.07955C139.644 7.65152 139.517 7.32008 139.264 7.08523C139.01 6.85038 138.644 6.73295 138.167 6.73295C137.663 6.73295 137.264 6.8428 136.968 7.0625C136.677 7.2822 136.48 7.54167 136.377 7.84091L134.457 7.56818C134.608 7.03788 134.858 6.5947 135.207 6.23864C135.555 5.87879 135.981 5.60985 136.485 5.43182C136.989 5.25 137.546 5.15909 138.156 5.15909C138.576 5.15909 138.995 5.20833 139.411 5.30682C139.828 5.4053 140.209 5.56818 140.553 5.79545C140.898 6.01894 141.175 6.32386 141.383 6.71023C141.595 7.09659 141.701 7.57955 141.701 8.15909V14H139.724V12.8011H139.656C139.531 13.0436 139.355 13.2708 139.127 13.483C138.904 13.6913 138.622 13.8598 138.281 13.9886C137.944 14.1136 137.548 14.1761 137.093 14.1761ZM137.627 12.6648C138.04 12.6648 138.398 12.5833 138.701 12.4205C139.004 12.2538 139.237 12.0341 139.4 11.7614C139.567 11.4886 139.65 11.1913 139.65 10.8693V9.84091C139.586 9.89394 139.476 9.94318 139.32 9.98864C139.169 10.0341 138.998 10.0739 138.809 10.108C138.62 10.142 138.432 10.1723 138.247 10.1989C138.061 10.2254 137.9 10.2481 137.764 10.267C137.457 10.3087 137.182 10.3769 136.94 10.4716C136.697 10.5663 136.506 10.6989 136.366 10.8693C136.226 11.036 136.156 11.2519 136.156 11.517C136.156 11.8958 136.294 12.1818 136.57 12.375C136.847 12.5682 137.199 12.6648 137.627 12.6648ZM148.195 8.88636V14H146.138V5.27273H148.104V6.75568H148.206C148.407 6.26705 148.727 5.87879 149.166 5.59091C149.61 5.30303 150.157 5.15909 150.809 5.15909C151.411 5.15909 151.935 5.28788 152.382 5.54545C152.833 5.80303 153.182 6.17614 153.428 6.66477C153.678 7.15341 153.801 7.74621 153.797 8.44318V14H151.74V8.76136C151.74 8.17803 151.589 7.72159 151.286 7.39205C150.987 7.0625 150.572 6.89773 150.041 6.89773C149.682 6.89773 149.362 6.97727 149.081 7.13636C148.805 7.29167 148.587 7.51705 148.428 7.8125C148.273 8.10795 148.195 8.46591 148.195 8.88636ZM158.952 14.1705C158.077 14.1705 157.321 13.9886 156.685 13.625C156.052 13.2576 155.565 12.7386 155.224 12.0682C154.884 11.3939 154.713 10.6004 154.713 9.6875C154.713 8.78977 154.884 8.00189 155.224 7.32386C155.569 6.64205 156.05 6.11174 156.668 5.73295C157.285 5.35038 158.01 5.15909 158.844 5.15909C159.382 5.15909 159.889 5.24621 160.366 5.42045C160.848 5.59091 161.272 5.85606 161.639 6.21591C162.01 6.57576 162.302 7.03409 162.514 7.59091C162.726 8.14394 162.832 8.80303 162.832 9.56818V10.1989H155.679V8.8125H160.861C160.857 8.41856 160.772 8.06818 160.605 7.76136C160.438 7.45076 160.205 7.20644 159.906 7.02841C159.611 6.85038 159.266 6.76136 158.872 6.76136C158.452 6.76136 158.082 6.86364 157.764 7.06818C157.446 7.26894 157.198 7.53409 157.02 7.86364C156.846 8.18939 156.757 8.54735 156.753 8.9375V10.1477C156.753 10.6553 156.846 11.0909 157.031 11.4545C157.217 11.8144 157.476 12.0909 157.81 12.2841C158.143 12.4735 158.533 12.5682 158.98 12.5682C159.279 12.5682 159.55 12.5265 159.793 12.4432C160.035 12.3561 160.245 12.2292 160.423 12.0625C160.601 11.8958 160.736 11.6894 160.827 11.4432L162.747 11.6591C162.626 12.1667 162.395 12.6098 162.054 12.9886C161.717 13.3636 161.285 13.6553 160.759 13.8636C160.232 14.0682 159.63 14.1705 158.952 14.1705ZM165.527 14L163.061 5.27273H165.157L166.691 11.4091H166.771L168.339 5.27273H170.413L171.981 11.375H172.066L173.578 5.27273H175.68L173.209 14H171.066L169.43 8.10227H169.311L167.674 14H165.527ZM179.485 14V5.27273H181.451V6.75568H181.553C181.735 6.25568 182.036 5.86553 182.457 5.58523C182.877 5.30114 183.379 5.15909 183.962 5.15909C184.553 5.15909 185.051 5.30303 185.457 5.59091C185.866 5.875 186.154 6.26326 186.32 6.75568H186.411C186.604 6.27083 186.93 5.88447 187.388 5.59659C187.85 5.30492 188.398 5.15909 189.03 5.15909C189.833 5.15909 190.489 5.41288 190.996 5.92045C191.504 6.42803 191.758 7.16856 191.758 8.14205V14H189.695V8.46023C189.695 7.91856 189.551 7.52273 189.263 7.27273C188.975 7.01894 188.623 6.89205 188.207 6.89205C187.71 6.89205 187.322 7.04735 187.042 7.35795C186.765 7.66477 186.627 8.06439 186.627 8.55682V14H184.61V8.375C184.61 7.92424 184.474 7.56439 184.201 7.29545C183.932 7.02651 183.58 6.89205 183.144 6.89205C182.849 6.89205 182.58 6.9678 182.337 7.11932C182.095 7.26705 181.902 7.47727 181.758 7.75C181.614 8.01894 181.542 8.33333 181.542 8.69318V14H179.485ZM196.908 14.1705C196.033 14.1705 195.277 13.9886 194.641 13.625C194.008 13.2576 193.522 12.7386 193.181 12.0682C192.84 11.3939 192.669 10.6004 192.669 9.6875C192.669 8.78977 192.84 8.00189 193.181 7.32386C193.525 6.64205 194.006 6.11174 194.624 5.73295C195.241 5.35038 195.967 5.15909 196.8 5.15909C197.338 5.15909 197.845 5.24621 198.323 5.42045C198.804 5.59091 199.228 5.85606 199.595 6.21591C199.967 6.57576 200.258 7.03409 200.47 7.59091C200.683 8.14394 200.789 8.80303 200.789 9.56818V10.1989H193.635V8.8125H198.817C198.813 8.41856 198.728 8.06818 198.561 7.76136C198.395 7.45076 198.162 7.20644 197.863 7.02841C197.567 6.85038 197.222 6.76136 196.828 6.76136C196.408 6.76136 196.039 6.86364 195.72 7.06818C195.402 7.26894 195.154 7.53409 194.976 7.86364C194.802 8.18939 194.713 8.54735 194.709 8.9375V10.1477C194.709 10.6553 194.802 11.0909 194.988 11.4545C195.173 11.8144 195.433 12.0909 195.766 12.2841C196.099 12.4735 196.489 12.5682 196.936 12.5682C197.236 12.5682 197.506 12.5265 197.749 12.4432C197.991 12.3561 198.202 12.2292 198.38 12.0625C198.558 11.8958 198.692 11.6894 198.783 11.4432L200.703 11.6591C200.582 12.1667 200.351 12.6098 200.01 12.9886C199.673 13.3636 199.241 13.6553 198.715 13.8636C198.188 14.0682 197.586 14.1705 196.908 14.1705ZM203.786 8.88636V14H201.729V5.27273H203.695V6.75568H203.797C203.998 6.26705 204.318 5.87879 204.757 5.59091C205.2 5.30303 205.748 5.15909 206.399 5.15909C207.001 5.15909 207.526 5.28788 207.973 5.54545C208.424 5.80303 208.772 6.17614 209.018 6.66477C209.268 7.15341 209.392 7.74621 209.388 8.44318V14H207.331V8.76136C207.331 8.17803 207.179 7.72159 206.876 7.39205C206.577 7.0625 206.162 6.89773 205.632 6.89773C205.272 6.89773 204.952 6.97727 204.672 7.13636C204.395 7.29167 204.178 7.51705 204.018 7.8125C203.863 8.10795 203.786 8.46591 203.786 8.88636ZM216.241 10.3295V5.27273H218.298V14H216.304V12.4489H216.213C216.016 12.9375 215.692 13.3371 215.241 13.6477C214.794 13.9583 214.243 14.1136 213.588 14.1136C213.016 14.1136 212.51 13.9867 212.071 13.733C211.635 13.4754 211.294 13.1023 211.048 12.6136C210.802 12.1212 210.679 11.5265 210.679 10.8295V5.27273H212.736V10.5114C212.736 11.0644 212.887 11.5038 213.19 11.8295C213.493 12.1553 213.891 12.3182 214.383 12.3182C214.686 12.3182 214.98 12.2443 215.264 12.0966C215.548 11.9489 215.781 11.7292 215.963 11.4375C216.148 11.142 216.241 10.7727 216.241 10.3295ZM93.4773 22.2727V23.8636H88.3182V22.2727H93.4773ZM89.608 31V21.4489C89.608 20.8617 89.7292 20.3731 89.9716 19.983C90.2178 19.5928 90.5473 19.3011 90.9602 19.108C91.3731 18.9148 91.8314 18.8182 92.3352 18.8182C92.6913 18.8182 93.0076 18.8466 93.2841 18.9034C93.5606 18.9602 93.7652 19.0114 93.8977 19.0568L93.4886 20.6477C93.4015 20.6212 93.2917 20.5947 93.1591 20.5682C93.0265 20.5379 92.8788 20.5227 92.7159 20.5227C92.3333 20.5227 92.0625 20.6155 91.9034 20.8011C91.7481 20.983 91.6705 21.2443 91.6705 21.5852V31H89.608ZM97.7668 31.1705C96.9145 31.1705 96.1759 30.983 95.5509 30.608C94.9259 30.233 94.441 29.7083 94.0963 29.0341C93.7554 28.3598 93.5849 27.572 93.5849 26.6705C93.5849 25.7689 93.7554 24.9792 94.0963 24.3011C94.441 23.6231 94.9259 23.0966 95.5509 22.7216C96.1759 22.3466 96.9145 22.1591 97.7668 22.1591C98.619 22.1591 99.3577 22.3466 99.9827 22.7216C100.608 23.0966 101.091 23.6231 101.432 24.3011C101.776 24.9792 101.949 25.7689 101.949 26.6705C101.949 27.572 101.776 28.3598 101.432 29.0341C101.091 29.7083 100.608 30.233 99.9827 30.608C99.3577 30.983 98.619 31.1705 97.7668 31.1705ZM97.7781 29.5227C98.2402 29.5227 98.6266 29.3958 98.9372 29.142C99.2478 28.8845 99.4789 28.5398 99.6304 28.108C99.7857 27.6761 99.8634 27.1951 99.8634 26.6648C99.8634 26.1307 99.7857 25.6477 99.6304 25.2159C99.4789 24.7803 99.2478 24.4337 98.9372 24.1761C98.6266 23.9186 98.2402 23.7898 97.7781 23.7898C97.3046 23.7898 96.9107 23.9186 96.5963 24.1761C96.2857 24.4337 96.0527 24.7803 95.8974 25.2159C95.7459 25.6477 95.6702 26.1307 95.6702 26.6648C95.6702 27.1951 95.7459 27.6761 95.8974 28.108C96.0527 28.5398 96.2857 28.8845 96.5963 29.142C96.9107 29.3958 97.3046 29.5227 97.7781 29.5227ZM102.894 31V22.2727H104.889V23.7273H104.98C105.139 23.2235 105.411 22.8352 105.798 22.5625C106.188 22.286 106.633 22.1477 107.133 22.1477C107.247 22.1477 107.373 22.1534 107.514 22.1648C107.658 22.1723 107.777 22.1856 107.872 22.2045V24.0966C107.784 24.0663 107.646 24.0398 107.457 24.017C107.271 23.9905 107.091 23.9773 106.917 23.9773C106.542 23.9773 106.205 24.0587 105.906 24.2216C105.61 24.3807 105.377 24.6023 105.207 24.8864C105.036 25.1705 104.951 25.4981 104.951 25.8693V31H102.894ZM115.414 31.1705C114.542 31.1705 113.794 30.9792 113.169 30.5966C112.548 30.214 112.069 29.6856 111.732 29.0114C111.398 28.3333 111.232 27.553 111.232 26.6705C111.232 25.7841 111.402 25.0019 111.743 24.3239C112.084 23.642 112.565 23.1117 113.186 22.733C113.811 22.3504 114.55 22.1591 115.402 22.1591C116.111 22.1591 116.737 22.2898 117.283 22.5511C117.832 22.8087 118.27 23.1742 118.595 23.6477C118.921 24.1174 119.107 24.6667 119.152 25.2955H117.186C117.107 24.875 116.917 24.5246 116.618 24.2443C116.323 23.9602 115.927 23.8182 115.431 23.8182C115.01 23.8182 114.641 23.9318 114.323 24.1591C114.005 24.3826 113.756 24.7045 113.578 25.125C113.404 25.5455 113.317 26.0492 113.317 26.6364C113.317 27.2311 113.404 27.7424 113.578 28.1705C113.753 28.5947 113.997 28.9223 114.311 29.1534C114.63 29.3807 115.003 29.4943 115.431 29.4943C115.734 29.4943 116.005 29.4375 116.243 29.3239C116.486 29.2064 116.688 29.0379 116.851 28.8182C117.014 28.5985 117.126 28.3314 117.186 28.017H119.152C119.103 28.6345 118.921 29.1818 118.607 29.6591C118.292 30.1326 117.864 30.5038 117.323 30.7727C116.781 31.0379 116.145 31.1705 115.414 31.1705ZM122.098 25.8864V31H120.041V19.3636H122.053V23.7557H122.155C122.359 23.2633 122.676 22.875 123.104 22.5909C123.536 22.303 124.085 22.1591 124.751 22.1591C125.357 22.1591 125.886 22.286 126.337 22.5398C126.787 22.7936 127.136 23.1648 127.382 23.6534C127.632 24.142 127.757 24.7386 127.757 25.4432V31H125.7V25.7614C125.7 25.1742 125.549 24.7178 125.246 24.392C124.946 24.0625 124.526 23.8977 123.984 23.8977C123.621 23.8977 123.295 23.9773 123.007 24.1364C122.723 24.2917 122.5 24.517 122.337 24.8125C122.178 25.108 122.098 25.4659 122.098 25.8864ZM129.054 31V22.2727H131.048V23.7273H131.139C131.298 23.2235 131.571 22.8352 131.957 22.5625C132.347 22.286 132.792 22.1477 133.292 22.1477C133.406 22.1477 133.533 22.1534 133.673 22.1648C133.817 22.1723 133.936 22.1856 134.031 22.2045V24.0966C133.944 24.0663 133.806 24.0398 133.616 24.017C133.431 23.9905 133.251 23.9773 133.076 23.9773C132.701 23.9773 132.364 24.0587 132.065 24.2216C131.77 24.3807 131.537 24.6023 131.366 24.8864C131.196 25.1705 131.111 25.4981 131.111 25.8693V31H129.054ZM134.597 31V22.2727H136.654V31H134.597ZM135.632 21.0341C135.306 21.0341 135.025 20.9261 134.791 20.7102C134.556 20.4905 134.438 20.2273 134.438 19.9205C134.438 19.6098 134.556 19.3466 134.791 19.1307C135.025 18.911 135.306 18.8011 135.632 18.8011C135.961 18.8011 136.241 18.911 136.472 19.1307C136.707 19.3466 136.825 19.6098 136.825 19.9205C136.825 20.2273 136.707 20.4905 136.472 20.7102C136.241 20.9261 135.961 21.0341 135.632 21.0341ZM144.867 24.5795L142.992 24.7841C142.939 24.5947 142.846 24.4167 142.714 24.25C142.585 24.0833 142.411 23.9489 142.191 23.8466C141.971 23.7443 141.702 23.6932 141.384 23.6932C140.956 23.6932 140.596 23.786 140.305 23.9716C140.017 24.1572 139.875 24.3977 139.878 24.6932C139.875 24.947 139.967 25.1534 140.157 25.3125C140.35 25.4716 140.668 25.6023 141.111 25.7045L142.6 26.0227C143.426 26.2008 144.039 26.483 144.441 26.8693C144.846 27.2557 145.051 27.7614 145.055 28.3864C145.051 28.9356 144.89 29.4205 144.572 29.8409C144.257 30.2576 143.82 30.5833 143.259 30.8182C142.698 31.053 142.055 31.1705 141.327 31.1705C140.259 31.1705 139.399 30.947 138.748 30.5C138.096 30.0492 137.708 29.4223 137.583 28.6193L139.589 28.4261C139.68 28.8201 139.873 29.1174 140.168 29.3182C140.464 29.5189 140.848 29.6193 141.322 29.6193C141.81 29.6193 142.202 29.5189 142.498 29.3182C142.797 29.1174 142.947 28.8693 142.947 28.5739C142.947 28.3239 142.85 28.1174 142.657 27.9545C142.467 27.7917 142.172 27.6667 141.77 27.5795L140.282 27.267C139.445 27.0928 138.825 26.7992 138.424 26.3864C138.022 25.9697 137.823 25.4432 137.827 24.8068C137.823 24.2689 137.969 23.803 138.265 23.4091C138.564 23.0114 138.979 22.7045 139.509 22.4886C140.043 22.2689 140.659 22.1591 141.356 22.1591C142.378 22.1591 143.183 22.3769 143.77 22.8125C144.361 23.2481 144.727 23.8371 144.867 24.5795ZM150.309 22.2727V23.8636H145.291V22.2727H150.309ZM146.53 20.1818H148.587V28.375C148.587 28.6515 148.629 28.8636 148.712 29.0114C148.799 29.1553 148.913 29.2538 149.053 29.3068C149.193 29.3598 149.348 29.3864 149.519 29.3864C149.648 29.3864 149.765 29.3769 149.871 29.358C149.981 29.339 150.064 29.322 150.121 29.3068L150.468 30.9148C150.358 30.9527 150.201 30.9943 149.996 31.0398C149.795 31.0852 149.549 31.1117 149.257 31.1193C148.742 31.1345 148.278 31.0568 147.865 30.8864C147.452 30.7121 147.125 30.4432 146.882 30.0795C146.644 29.7159 146.526 29.2614 146.53 28.7159V20.1818ZM151.229 31V22.2727H153.195V23.7557H153.297C153.479 23.2557 153.78 22.8655 154.2 22.5852C154.621 22.3011 155.123 22.1591 155.706 22.1591C156.297 22.1591 156.795 22.303 157.2 22.5909C157.609 22.875 157.897 23.2633 158.064 23.7557H158.155C158.348 23.2708 158.674 22.8845 159.132 22.5966C159.594 22.3049 160.142 22.1591 160.774 22.1591C161.577 22.1591 162.232 22.4129 162.74 22.9205C163.248 23.428 163.501 24.1686 163.501 25.142V31H161.439V25.4602C161.439 24.9186 161.295 24.5227 161.007 24.2727C160.719 24.0189 160.367 23.892 159.95 23.892C159.454 23.892 159.066 24.0473 158.786 24.358C158.509 24.6648 158.371 25.0644 158.371 25.5568V31H156.354V25.375C156.354 24.9242 156.217 24.5644 155.945 24.2955C155.676 24.0265 155.323 23.892 154.888 23.892C154.592 23.892 154.323 23.9678 154.081 24.1193C153.839 24.267 153.645 24.4773 153.501 24.75C153.357 25.0189 153.286 25.3333 153.286 25.6932V31H151.229ZM167.299 31.1761C166.746 31.1761 166.248 31.0777 165.805 30.8807C165.366 30.6799 165.017 30.3845 164.76 29.9943C164.506 29.6042 164.379 29.1231 164.379 28.5511C164.379 28.0587 164.47 27.6515 164.652 27.3295C164.834 27.0076 165.082 26.75 165.396 26.5568C165.71 26.3636 166.065 26.2178 166.459 26.1193C166.856 26.017 167.267 25.9432 167.691 25.8977C168.203 25.8447 168.618 25.7973 168.936 25.7557C169.254 25.7102 169.485 25.642 169.629 25.5511C169.777 25.4564 169.851 25.3106 169.851 25.1136V25.0795C169.851 24.6515 169.724 24.3201 169.47 24.0852C169.216 23.8504 168.851 23.733 168.373 23.733C167.87 23.733 167.47 23.8428 167.174 24.0625C166.883 24.2822 166.686 24.5417 166.584 24.8409L164.663 24.5682C164.815 24.0379 165.065 23.5947 165.413 23.2386C165.762 22.8788 166.188 22.6098 166.691 22.4318C167.195 22.25 167.752 22.1591 168.362 22.1591C168.782 22.1591 169.201 22.2083 169.618 22.3068C170.034 22.4053 170.415 22.5682 170.76 22.7955C171.104 23.0189 171.381 23.3239 171.589 23.7102C171.801 24.0966 171.907 24.5795 171.907 25.1591V31H169.93V29.8011H169.862C169.737 30.0436 169.561 30.2708 169.334 30.483C169.11 30.6913 168.828 30.8598 168.487 30.9886C168.15 31.1136 167.754 31.1761 167.299 31.1761ZM167.834 29.6648C168.246 29.6648 168.604 29.5833 168.907 29.4205C169.21 29.2538 169.443 29.0341 169.606 28.7614C169.773 28.4886 169.856 28.1913 169.856 27.8693V26.8409C169.792 26.8939 169.682 26.9432 169.527 26.9886C169.375 27.0341 169.205 27.0739 169.015 27.108C168.826 27.142 168.638 27.1723 168.453 27.1989C168.267 27.2254 168.106 27.2481 167.97 27.267C167.663 27.3087 167.388 27.3769 167.146 27.4716C166.904 27.5663 166.712 27.6989 166.572 27.8693C166.432 28.036 166.362 28.2519 166.362 28.517C166.362 28.8958 166.5 29.1818 166.777 29.375C167.053 29.5682 167.405 29.6648 167.834 29.6648ZM180.073 24.5795L178.198 24.7841C178.145 24.5947 178.052 24.4167 177.92 24.25C177.791 24.0833 177.617 23.9489 177.397 23.8466C177.177 23.7443 176.909 23.6932 176.59 23.6932C176.162 23.6932 175.802 23.786 175.511 23.9716C175.223 24.1572 175.081 24.3977 175.085 24.6932C175.081 24.947 175.174 25.1534 175.363 25.3125C175.556 25.4716 175.874 25.6023 176.318 25.7045L177.806 26.0227C178.632 26.2008 179.246 26.483 179.647 26.8693C180.052 27.2557 180.257 27.7614 180.261 28.3864C180.257 28.9356 180.096 29.4205 179.778 29.8409C179.463 30.2576 179.026 30.5833 178.465 30.8182C177.905 31.053 177.261 31.1705 176.534 31.1705C175.465 31.1705 174.605 30.947 173.954 30.5C173.302 30.0492 172.914 29.4223 172.789 28.6193L174.795 28.4261C174.886 28.8201 175.079 29.1174 175.374 29.3182C175.67 29.5189 176.054 29.6193 176.528 29.6193C177.016 29.6193 177.409 29.5189 177.704 29.3182C178.003 29.1174 178.153 28.8693 178.153 28.5739C178.153 28.3239 178.056 28.1174 177.863 27.9545C177.674 27.7917 177.378 27.6667 176.977 27.5795L175.488 27.267C174.651 27.0928 174.032 26.7992 173.63 26.3864C173.229 25.9697 173.03 25.4432 173.034 24.8068C173.03 24.2689 173.176 23.803 173.471 23.4091C173.77 23.0114 174.185 22.7045 174.715 22.4886C175.249 22.2689 175.865 22.1591 176.562 22.1591C177.585 22.1591 178.39 22.3769 178.977 22.8125C179.568 23.2481 179.933 23.8371 180.073 24.5795Z" fill="#A9A9A9"/>
<path d="M64.468 81.7058C34.4829 82.6006 9.66973 103.627 1.01129 114.028L6.89698 290.946C15.2762 282.176 39.7308 264.406 70.5155 263.487C101.3 262.569 124.888 278.904 132.834 287.187L126.949 110.27C118.616 100.375 94.4531 80.8109 64.468 81.7058Z" fill="#525252" stroke="#C6C6C6" stroke-width="2"/>
<path d="M192.436 78.8344C162.451 79.7292 137.638 100.755 128.98 111.157L134.865 288.074C143.244 279.304 167.699 261.535 198.484 260.616C229.268 259.697 252.857 276.033 260.803 284.316L254.917 107.398C246.584 97.5041 222.421 77.9396 192.436 78.8344Z" fill="#525252" stroke="#C6C6C6" stroke-width="2"/>
</svg>
