<svg width="175" height="331" viewBox="0 0 175 331" fill="none" xmlns="http://www.w3.org/2000/svg">
<path d="M8.24148 138.112L2.53699 142.551L0 160.317H80.5195V153.023H8.31278V138.112" fill="#525252"/>
<path d="M165.411 138.112L171.119 142.551L173.652 160.317H93.1367V153.023H165.343V138.112" fill="#525252"/>
<path d="M86.2127 164.129C90.5322 164.129 94.0339 160.625 94.0339 156.302C94.0339 151.979 90.5322 148.474 86.2127 148.474C81.8932 148.474 78.3916 151.979 78.3916 156.302C78.3916 160.625 81.8932 164.129 86.2127 164.129Z" fill="#525252"/>
<path d="M10.2383 0V147.487H40.7197V0H42.9715V147.487H71.1036V0H73.3554V147.487H101.487V0H103.739V147.487H131.875V0H134.127V147.487H163.67V0H10.2383Z" fill="#525252"/>
<path d="M80.013 168.846C36.036 168.846 0.386719 204.524 0.386719 248.535C0.386719 292.547 36.036 328.224 80.013 328.224C123.99 328.224 159.639 292.547 159.639 248.535C159.639 204.524 123.99 168.846 80.013 168.846ZM79.2737 302.049C49.6329 302.049 25.6028 278 25.6028 248.336C25.6028 218.672 49.6329 194.619 79.2737 194.619C108.914 194.619 132.945 218.668 132.945 248.336C132.945 278.004 108.918 302.049 79.2737 302.049Z" fill="#525252"/>
<path d="M130.339 248.212C130.339 276.494 107.427 299.42 79.1677 299.42C50.908 299.42 28 276.494 28 248.212C28 219.93 50.908 197 79.1677 197C107.427 197 130.339 219.93 130.339 248.212Z" fill="#525252"/>
<path d="M140.371 302.996C136.664 306.756 132.644 310.053 128.535 312.938H141.017C145.318 310.091 149.487 306.797 153.345 302.996H140.371Z" fill="#525252"/>
<path d="M127.927 183.021C130.903 185.166 133.857 187.603 136.72 190.379H150.419C147.296 187.603 144.027 185.166 140.691 183.021H127.923H127.927Z" fill="#525252"/>
<path d="M137.441 315.195H125.184C120.459 318.237 115.692 320.754 111.211 322.82H121.814C126.94 320.803 132.25 318.301 137.441 315.195Z" fill="#525252"/>
<path d="M150.809 289.407C149.004 292.525 146.879 295.616 144.376 298.602C143.764 299.33 143.141 300.044 142.503 300.742H155.541C158.701 297.355 161.61 293.587 164.165 289.407H150.809Z" fill="#525252"/>
<path d="M161.002 248.727C161.002 250.432 160.983 253.381 160.642 257.163H174.565C174.85 254.207 175 251.135 175 247.942C175 246.658 174.967 245.388 174.907 244.137H160.867C160.968 245.936 160.998 247.488 161.002 248.727Z" fill="#525252"/>
<path d="M125.442 181.301V180.768H136.983C132.558 178.236 128.066 176.189 123.682 174.533H113.103C117.088 176.306 121.265 178.525 125.442 181.301Z" fill="#525252"/>
<path d="M152.847 192.633H138.957C140.732 194.499 142.462 196.501 144.129 198.653C145.131 199.945 146.069 201.245 146.955 202.544H161.347C158.728 198.871 155.872 195.577 152.843 192.636L152.847 192.633Z" fill="#525252"/>
<path d="M148.429 204.794C150.606 208.235 152.407 211.675 153.901 215.048H168.245C166.635 211.187 165.122 208.362 164.218 206.875C163.786 206.169 163.343 205.478 162.897 204.798H148.433L148.429 204.794Z" fill="#525252"/>
<path d="M108.46 172.279H117.062C101.99 167.708 89.4592 167.513 87.5039 167.509C90.2248 167.802 98.4062 168.82 108.457 172.621V172.276L108.46 172.279Z" fill="#525252"/>
<path d="M159.02 230.717C159.939 234.898 160.442 238.691 160.709 241.88H174.76C174.456 237.936 173.874 234.195 173.131 230.717H159.02Z" fill="#525252"/>
<path d="M106.126 325.069V325.028C95.4866 329.381 87.5078 331 87.5078 331C87.5078 331 100.024 330.23 115.584 325.069H106.126Z" fill="#525252"/>
<path d="M160.409 259.412C159.97 263.217 159.204 267.668 157.875 272.438H171.656C172.85 268.382 173.754 264.047 174.317 259.412H160.409Z" fill="#525252"/>
<path d="M158.495 228.464H172.621C171.607 224.265 170.377 220.501 169.146 217.301H154.862C156.442 221.181 157.616 224.941 158.495 228.464Z" fill="#525252"/>
<path d="M157.211 274.692C155.954 278.729 154.284 282.947 152.055 287.154H165.483C167.622 283.338 169.468 279.195 170.951 274.692H157.211Z" fill="#525252"/>
<path d="M80.5196 187.284C82.8825 187.284 84.7979 185.367 84.7979 183.002C84.7979 180.638 82.8825 178.721 80.5196 178.721C78.1567 178.721 76.2412 180.638 76.2412 183.002C76.2412 185.367 78.1567 187.284 80.5196 187.284Z" fill="#525252"/>
<path d="M80.5195 187.848C77.8512 187.848 75.6782 185.673 75.6782 183.002C75.6782 180.332 77.8512 178.157 80.5195 178.157C83.1879 178.157 85.3608 180.332 85.3608 183.002C85.3608 185.673 83.1879 187.848 80.5195 187.848ZM80.5195 179.28C78.4704 179.28 76.8041 180.948 76.8041 182.999C76.8041 185.049 78.4704 186.717 80.5195 186.717C82.5686 186.717 84.2349 185.049 84.2349 182.999C84.2349 180.948 82.5686 179.28 80.5195 179.28Z" fill="white"/>
<path d="M45.9473 195.536C48.3102 195.536 50.2257 193.619 50.2257 191.254C50.2257 188.89 48.3102 186.973 45.9473 186.973C43.5844 186.973 41.6689 188.89 41.6689 191.254C41.6689 193.619 43.5844 195.536 45.9473 195.536Z" fill="#525252"/>
<path d="M45.9547 196.099C44.2809 196.099 42.6484 195.232 41.7514 193.677C40.4154 191.363 41.211 188.392 43.5228 187.055C45.8346 185.718 48.8032 186.514 50.1393 188.828C50.7848 189.947 50.9574 191.254 50.6234 192.505C50.2894 193.756 49.4863 194.8 48.3679 195.446C47.606 195.885 46.7766 196.096 45.9547 196.096V196.099ZM45.9397 187.536C45.3092 187.536 44.6712 187.697 44.0858 188.032C42.3106 189.057 41.7026 191.337 42.7272 193.113C43.7517 194.89 46.0298 195.498 47.8049 194.473C48.6644 193.977 49.2798 193.174 49.535 192.216C49.7902 191.258 49.6589 190.255 49.1635 189.395C48.4767 188.204 47.2232 187.536 45.9397 187.536Z" fill="white"/>
<path d="M20.1304 219.979C22.4933 219.979 24.4088 218.062 24.4088 215.698C24.4088 213.333 22.4933 211.416 20.1304 211.416C17.7675 211.416 15.8521 213.333 15.8521 215.698C15.8521 218.062 17.7675 219.979 20.1304 219.979Z" fill="#525252"/>
<path d="M20.1231 220.546C19.2825 220.546 18.4568 220.325 17.71 219.897C16.5916 219.251 15.7885 218.206 15.4545 216.956C15.1205 215.705 15.2931 214.398 15.9386 213.279C17.2746 210.965 20.2432 210.169 22.555 211.506C24.8669 212.843 25.6625 215.81 24.3264 218.128C23.6809 219.247 22.6339 220.051 21.3879 220.385C20.9713 220.498 20.5472 220.554 20.1269 220.554L20.1231 220.546ZM20.1381 211.979C18.8509 211.979 17.6012 212.648 16.9144 213.838C16.419 214.698 16.2876 215.701 16.5428 216.659C16.798 217.621 17.4135 218.421 18.2729 218.916C19.1324 219.412 20.1344 219.544 21.0914 219.288C22.0522 219.033 22.8515 218.417 23.3469 217.557C24.3715 215.78 23.7597 213.5 21.9884 212.475C21.4029 212.137 20.7649 211.979 20.1381 211.979Z" fill="white"/>
<path d="M14.2652 254.064C16.6281 254.064 18.5435 252.147 18.5435 249.782C18.5435 247.418 16.6281 245.501 14.2652 245.501C11.9023 245.501 9.98682 247.418 9.98682 249.782C9.98682 252.147 11.9023 254.064 14.2652 254.064Z" fill="#525252"/>
<path d="M14.2651 254.631C11.5968 254.631 9.42383 252.457 9.42383 249.786C9.42383 247.116 11.5968 244.941 14.2651 244.941C16.9335 244.941 19.1064 247.116 19.1064 249.786C19.1064 252.457 16.9335 254.631 14.2651 254.631ZM14.2651 246.064C12.216 246.064 10.5497 247.732 10.5497 249.782C10.5497 251.833 12.216 253.501 14.2651 253.501C16.3142 253.501 17.9806 251.833 17.9806 249.782C17.9806 247.732 16.3142 246.064 14.2651 246.064Z" fill="white"/>
<path d="M22.8252 288.663C25.1881 288.663 27.1036 286.746 27.1036 284.382C27.1036 282.017 25.1881 280.1 22.8252 280.1C20.4624 280.1 18.5469 282.017 18.5469 284.382C18.5469 286.746 20.4624 288.663 22.8252 288.663Z" fill="#525252"/>
<path d="M22.8328 289.231C22.4125 289.231 21.9884 289.174 21.5718 289.062C20.3221 288.727 19.2788 287.924 18.6333 286.804C17.2972 284.491 18.0928 281.52 20.4046 280.183C22.7165 278.845 25.6851 279.642 27.0211 281.955C27.6666 283.075 27.8392 284.382 27.5052 285.632C27.1712 286.883 26.3681 287.927 25.2497 288.573C24.5029 289.005 23.6772 289.223 22.8366 289.223L22.8328 289.231ZM20.9676 281.159C19.1924 282.185 18.5845 284.464 19.609 286.241C20.1044 287.101 20.9075 287.717 21.8645 287.972C22.8215 288.228 23.8236 288.096 24.683 287.6C25.5424 287.105 26.1579 286.301 26.4131 285.343C26.6683 284.385 26.537 283.383 26.0416 282.523C25.017 280.746 22.739 280.138 20.9638 281.163L20.9676 281.159Z" fill="white"/>
<path d="M46.6602 312.123C49.0231 312.123 50.9386 310.206 50.9386 307.841C50.9386 305.476 49.0231 303.559 46.6602 303.559C44.2973 303.559 42.3818 305.476 42.3818 307.841C42.3818 310.206 44.2973 312.123 46.6602 312.123Z" fill="#525252"/>
<path d="M46.6529 312.69C45.8123 312.69 44.9866 312.468 44.2398 312.04C43.1214 311.394 42.3183 310.35 41.9843 309.099C41.6502 307.849 41.8229 306.542 42.4684 305.422C43.8044 303.109 46.7693 302.312 49.0848 303.65C51.3966 304.987 52.1923 307.954 50.8562 310.271C50.2107 311.394 49.1636 312.194 47.9177 312.528C47.5011 312.641 47.077 312.697 46.6567 312.697L46.6529 312.69ZM46.6679 304.123C45.3807 304.123 44.1309 304.791 43.4441 305.982C42.9488 306.842 42.8174 307.845 43.0726 308.803C43.3278 309.764 43.9433 310.564 44.8027 311.06C45.6621 311.556 46.6642 311.687 47.6212 311.432C48.5819 311.176 49.3813 310.56 49.8767 309.7C50.9013 307.924 50.2895 305.644 48.5181 304.619C47.9327 304.28 47.2947 304.123 46.6642 304.123H46.6679Z" fill="white"/>
<path d="M76.7139 320.686C79.0768 320.686 80.9923 318.769 80.9923 316.405C80.9923 314.04 79.0768 312.123 76.7139 312.123C74.351 312.123 72.4355 314.04 72.4355 316.405C72.4355 318.769 74.351 320.686 76.7139 320.686Z" fill="#525252"/>
<path d="M76.7139 321.253C74.0455 321.253 71.8726 319.079 71.8726 316.408C71.8726 313.738 74.0455 311.563 76.7139 311.563C79.3822 311.563 81.5552 313.738 81.5552 316.408C81.5552 319.079 79.3822 321.253 76.7139 321.253ZM76.7139 312.686C74.6648 312.686 72.9984 314.354 72.9984 316.405C72.9984 318.455 74.6648 320.123 76.7139 320.123C78.763 320.123 80.4293 318.455 80.4293 316.405C80.4293 314.354 78.763 312.686 76.7139 312.686Z" fill="white"/>
<path d="M111.286 312.123C113.649 312.123 115.565 310.206 115.565 307.841C115.565 305.476 113.649 303.559 111.286 303.559C108.923 303.559 107.008 305.476 107.008 307.841C107.008 310.206 108.923 312.123 111.286 312.123Z" fill="#525252"/>
<path d="M111.294 312.69C110.873 312.69 110.449 312.634 110.033 312.521C108.783 312.187 107.74 311.383 107.094 310.264C105.758 307.95 106.554 304.979 108.866 303.642C111.177 302.305 114.146 303.101 115.482 305.415C116.128 306.534 116.3 307.841 115.966 309.092C115.632 310.343 114.829 311.387 113.711 312.033C112.964 312.465 112.138 312.683 111.298 312.683L111.294 312.69ZM108.066 309.7C108.562 310.56 109.365 311.176 110.322 311.432C111.279 311.687 112.281 311.556 113.14 311.06C114 310.564 114.615 309.76 114.87 308.803C115.126 307.845 114.994 306.842 114.499 305.982C113.474 304.205 111.196 303.597 109.421 304.622C107.646 305.648 107.038 307.928 108.059 309.704L108.066 309.7Z" fill="white"/>
<path d="M132.944 291.961C135.307 291.961 137.223 290.044 137.223 287.679C137.223 285.315 135.307 283.398 132.944 283.398C130.582 283.398 128.666 285.315 128.666 287.679C128.666 290.044 130.582 291.961 132.944 291.961Z" fill="#525252"/>
<path d="M132.937 292.525C132.115 292.525 131.286 292.314 130.524 291.875C128.212 290.538 127.416 287.57 128.752 285.253C130.088 282.939 133.053 282.143 135.369 283.48C136.487 284.126 137.29 285.17 137.624 286.421C137.958 287.672 137.786 288.979 137.14 290.098C136.243 291.649 134.615 292.521 132.937 292.521V292.525ZM131.087 290.902C132.862 291.927 135.14 291.315 136.164 289.542C136.66 288.682 136.791 287.679 136.536 286.722C136.281 285.76 135.665 284.96 134.806 284.464C133.031 283.439 130.753 284.051 129.728 285.824C128.704 287.601 129.315 289.88 131.087 290.906V290.902Z" fill="white"/>
<path d="M144.732 257.873C147.095 257.873 149.011 255.956 149.011 253.591C149.011 251.226 147.095 249.309 144.732 249.309C142.37 249.309 140.454 251.226 140.454 253.591C140.454 255.956 142.37 257.873 144.732 257.873Z" fill="#525252"/>
<path d="M144.732 258.436C142.064 258.436 139.891 256.261 139.891 253.591C139.891 250.921 142.064 248.746 144.732 248.746C147.401 248.746 149.574 250.921 149.574 253.591C149.574 256.261 147.401 258.436 144.732 258.436ZM144.732 249.869C142.683 249.869 141.017 251.536 141.017 253.587C141.017 255.638 142.683 257.306 144.732 257.306C146.782 257.306 148.448 255.638 148.448 253.587C148.448 251.536 146.782 249.869 144.732 249.869Z" fill="white"/>
<path d="M138.431 223.273C140.794 223.273 142.71 221.356 142.71 218.991C142.71 216.627 140.794 214.71 138.431 214.71C136.068 214.71 134.153 216.627 134.153 218.991C134.153 221.356 136.068 223.273 138.431 223.273Z" fill="#525252"/>
<path d="M138.439 223.84C136.765 223.84 135.132 222.973 134.235 221.418C132.899 219.104 133.695 216.133 136.007 214.796C138.319 213.459 141.287 214.255 142.623 216.569C143.959 218.883 143.164 221.853 140.852 223.191C140.09 223.63 139.261 223.84 138.439 223.84ZM138.424 215.277C137.793 215.277 137.155 215.438 136.573 215.773C134.798 216.798 134.19 219.078 135.215 220.854C136.239 222.631 138.517 223.239 140.293 222.214C142.068 221.189 142.676 218.909 141.651 217.132C140.964 215.942 139.711 215.273 138.427 215.273L138.424 215.277Z" fill="white"/>
<path d="M116.799 197.436C119.162 197.436 121.078 195.519 121.078 193.155C121.078 190.79 119.162 188.873 116.799 188.873C114.436 188.873 112.521 190.79 112.521 193.155C112.521 195.519 114.436 197.436 116.799 197.436Z" fill="#525252"/>
<path d="M116.792 198C115.97 198 115.141 197.789 114.379 197.35C112.067 196.013 111.271 193.046 112.607 190.728C113.253 189.605 114.3 188.805 115.546 188.471C116.796 188.137 118.102 188.31 119.22 188.956C120.338 189.602 121.142 190.646 121.476 191.896C121.81 193.147 121.637 194.454 120.991 195.573C120.095 197.125 118.466 197.996 116.788 197.996L116.792 198ZM116.807 189.433C116.484 189.433 116.158 189.474 115.839 189.56C114.878 189.816 114.079 190.432 113.583 191.292C112.559 193.068 113.17 195.348 114.942 196.374C116.717 197.399 118.995 196.787 120.019 195.014C120.515 194.154 120.646 193.151 120.391 192.193C120.136 191.232 119.52 190.432 118.661 189.936C118.087 189.605 117.452 189.436 116.807 189.436V189.433Z" fill="white"/>
<rect x="63" y="246" width="31" height="26" fill="url(#paint0_linear_626_381)"/>
<rect x="61" y="243" width="35" height="5" fill="#FFDB8C"/>
<rect x="65" y="230" width="28" height="5" fill="black"/>
<rect x="63" y="254" width="31" height="1" fill="black"/>
<rect x="63" y="264" width="31" height="1" fill="black"/>
<rect x="68" y="235" width="1" height="8" fill="white"/>
<rect x="89" y="235" width="1" height="8" fill="white"/>
<path d="M68.7674 223L59 234H99L89.2326 223H68.7674Z" fill="white"/>
<defs>
<linearGradient id="paint0_linear_626_381" x1="78.5" y1="246" x2="78.5" y2="272" gradientUnits="userSpaceOnUse">
<stop stop-color="#B89851"/>
<stop offset="0.845" stop-color="#FFD06B"/>
</linearGradient>
</defs>
</svg>
