<?xml version="1.0" encoding="UTF-8"?><svg id="Layer_1" xmlns="http://www.w3.org/2000/svg" viewBox="0 0 500 500"><defs><style>.cls-1{fill:#fff;}.cls-2{fill:red;}</style></defs><rect y="0" width="500" height="500" rx="95.33" ry="95.33"/><path class="cls-1" d="M236.74,292.99c8.38-2.03,16.97-4.83,25.78-8.46,8.66-3.16,17.68-9.38,27.04-18.63,11.46-12.12,19.49-25.4,24.11-39.84,4.35-14.88,6.5-27.73,6.5-38.55-.28-19.07-4.19-35.24-11.73-48.51-7.68-13.29-16.2-23.62-25.56-30.97-16.64-14.74-42.44-22.09-77.39-22.09h-97.53v328.1h58.87v-125.62h.83l84.19,125.62h71.36l-86.48-121.06ZM204.62,242.99h-37.79v-100.32h37.79c11.46,0,21.05,1.59,28.75,4.77,7.13,3.32,12.88,7.65,17.21,12.99,4.35,4.91,7.21,10.19,8.61,15.82,1.4,5.64,2.09,10.98,2.09,16.03.3,9.54-2.99,20.01-9.86,31.41-3.78,5.35-9.38,9.83-16.8,13.43-7.68,3.91-17.7,5.86-30.01,5.86Z"/><circle class="cls-2" cx="388.69" cy="379.64" r="34.41"/></svg>